ply
format ascii 1.0
comment VCGLIB generated
comment TextureFile dummy.png
element vertex 442
property float x
property float y
property float z
property float nx
property float ny
property float nz
property float texture_u
property float texture_v
element face 778
property list uchar int vertex_indices
end_header
52.35371 13.89126 25.91912 0.8393773 -0.5427865 0.02878596 0.2413439 0.8622773
52.38397 14.63831 25.93853 0.7596687 0.5319549 0.3740687 0.2413548 0.8623568
50.48066 4.295886 42.7795 0.7458265 0.2860194 0.601611 0.2411347 0.8602704
50.47767 3.536336 42.77959 0.3688633 -0.8347712 0.4087748 0.2411271 0.8601877
13.88204 23.92399 30.05638 -0.3231627 -0.3404864 0.8829693 0.2366949 0.8633657
13.89769 24.6758 30.06579 -0.2151495 0.6987262 0.68227 0.2366984 0.8634492
15.15092 19.39774 12.12858 -0.7618827 0.629193 -0.1537891 0.2369666 0.8637429
15.1734 17.5225 12.13343 -0.4888959 -0.7296744 0.4780754 0.2369646 0.8635455
15.66737 19.36928 11.41782 -0.2498426 0.9354605 -0.2499847 0.2394914 0.858849
16.1883 19.41319 10.71043 -0.1283282 0.8138309 -0.5667549 0.2395558 0.858884
10.22371 12.45256 5.812194 -0.1107961 0.4697143 -0.8758383 0.2389018 0.8584202
9.732555 12.41646 6.489115 -0.6592429 0.5835919 -0.4741512 0.2388414 0.8583874
21.88762 16.47751 17.81178 -0.2703948 -0.9564188 0.1102265 0.2377085 0.8631289
15.69028 17.49613 11.42287 0.2766621 -0.9491711 0.1501078 0.2370285 0.8635737
23.29556 18.24542 16.17913 0.2044949 0.8807133 0.4272304 0.2378199 0.8632634
36.62215 21.14281 7.040449 0.5062066 0.8171114 -0.275833 0.2394619 0.8640612
22.42249 18.23448 17.36136 0.2634978 0.964421 -0.02147627 0.2377124 0.8632087
22.83927 18.21888 16.79678 0.1284928 0.986294 0.1035069 0.2377638 0.8632326
22.76502 16.49529 16.63108 0.07279222 -0.9944162 -0.07640428 0.2378163 0.8631845
22.30459 16.46248 17.24729 -0.09979252 -0.9911861 -0.08712918 0.2377598 0.863153
31.2354 14.79505 24.11755 -0.07017026 -0.9715925 -0.2260178 0.2387909 0.8625822
31.50145 15.92904 23.83508 0.1390022 0.9579474 0.2510284 0.2387995 0.8626633
47.03708 17.99458 15.00189 0.2507282 0.7061297 -0.6622057 0.2406774 0.8633035
46.99471 17.22843 14.97979 0.2217157 -0.4423828 -0.8689877 0.2406661 0.8632233
16.21121 17.53747 10.71554 0.4774876 -0.7221728 -0.5004719 0.2370928 0.8636088
36.60938 20.38898 7.032697 0.4745205 -0.571184 -0.6697606 0.2394558 0.8639824
46.69804 18.17391 14.08378 0.8617809 0.5036758 0.06036969 0.2406346 0.8633689
46.65828 17.40853 14.06302 0.8093117 -0.5856909 -0.04450731 0.2406236 0.8632889
41.00021 14.79441 45.40564 -0.1627934 0.8225407 0.5449085 0.2400241 0.8613351
40.96614 14.04204 45.38466 -0.5618483 -0.2488299 0.7889298 0.2400138 0.8612514
38.46224 11.60825 33.72094 -0.4648146 -0.8771658 0.1205303 0.2396531 0.8616774
39.87316 12.00009 31.5051 0.2468489 0.8070223 0.5364519 0.2398255 0.8618363
39.38103 11.96813 32.16934 0.377286 0.912432 0.158503 0.2397661 0.8617985
38.4862 12.33267 33.73544 0.5550177 0.8315722 -0.02104826 0.2396611 0.8617555
39.36055 11.25084 32.15583 -0.358493 -0.9211918 -0.1512895 0.2397585 0.8617215
39.85236 11.28223 31.49137 -0.05980574 -0.9821198 -0.1785048 0.2398178 0.8617593
38.32276 14.54991 45.58546 0.4238095 -0.5779352 0.697407 0.2396766 0.8613129
38.35496 15.299 45.60596 0.5590262 0.4967996 0.6638374 0.2396862 0.8613964
26.46634 18.6902 42.09888 -0.583126 0.7169601 0.382011 0.2381184 0.8618862
26.42273 17.92374 42.07619 -0.8108034 -0.3902093 0.4362736 0.2381094 0.8618007
30.29998 14.79555 25.39214 -0.3307489 -0.9433172 0.02752711 0.2386769 0.8625206
31.00903 15.90433 24.49898 0.214853 0.965107 0.1496891 0.2387394 0.8626287
30.56607 15.92952 25.10969 0.2928129 0.9553826 0.0387907 0.2386854 0.8626019
30.74283 14.77075 24.78133 -0.1811647 -0.9747216 -0.1307562 0.2387309 0.8625476
25.20921 18.2377 41.45437 0.1223285 -0.6016777 0.789316 0.2379982 0.8618373
25.25048 19.00328 41.47587 0.2927538 0.4997471 0.8151981 0.2380068 0.8619227
14.12464 24.4907 31.4178 -0.5872028 0.8042752 0.09129254 0.2367151 0.8633583
14.10638 23.73773 31.40707 -0.9298857 -0.339901 0.1406415 0.2367113 0.8632745
10.61682 11.63561 6.039978 0.8809328 -0.3185031 -0.3500188 0.2389425 0.8583249
10.09226 11.59638 6.761463 0.6725693 -0.5592849 0.4846142 0.2388782 0.8582896
7.482755 1.232099 4.707157 0.8035789 -0.1344548 0.5798128 0.2385938 0.8573664
8.10201 1.323772 3.848477 0.9691671 -0.08631545 -0.2307918 0.2386688 0.8574139
9.241185 12.44601 7.167573 -0.8823512 0.453631 0.1252009 0.2387809 0.858361
5.776077 1.211963 3.471859 -0.7972128 0.1856303 -0.5744503 0.238419 0.8574325
5.155649 1.308801 4.33219 -0.9823151 0.1599032 0.09740619 0.2383435 0.8574035
9.56872 11.62838 7.485547 -0.08814897 -0.3471869 0.9336439 0.2388137 0.8582613
6.861716 1.322307 5.567284 0.08892285 -0.09909031 0.9910973 0.2385183 0.8573363
6.921135 -1.784158 5.606995 0.1308356 -0.5390727 0.8320353 0.2385213 0.8570304
7.541508 -1.875395 4.74663 0.5691417 -0.7130277 0.4094745 0.2385964 0.8570609
6.395341 1.309436 2.613188 -0.2121248 0.1653192 -0.9631577 0.2384941 0.8574803
6.446282 -1.810159 2.649873 -0.1120994 -0.5578383 -0.8223444 0.2384963 0.8571752
5.827019 -1.907633 3.508544 -0.5469209 -0.7378748 -0.3954976 0.2384215 0.857127
8.160762 -1.783726 3.88795 0.8306298 -0.5393291 -0.1384857 0.2386711 0.8571089
5.20659 -1.810794 4.368875 -0.815994 -0.5576202 0.1523602 0.2383464 0.8570973
66.4401 48.74306 -12.65853 -0.098268 -0.4675407 -0.8784926 0.2380947 0.8646134
66.48616 49.60753 -12.63269 -0.08836634 0.6846712 -0.7234755 0.2381102 0.8647072
82.91447 48.0504 -0.7732146 0.8165923 0.5725324 -0.07337433 0.2402076 0.8640532
82.91141 47.07354 -0.7708036 0.8190454 -0.568987 -0.07361028 0.2401925 0.8639427
32.8432 40.74568 22.91298 0.4027471 -0.7378936 0.5415791 0.2342158 0.8624561
32.76329 41.75587 22.91732 -0.4026355 0.6328247 0.6613755 0.234212 0.8625739
19.51462 31.21433 1.276847 -0.7986731 0.5162416 0.3092184 0.2326404 0.8623742
19.72 28.64677 1.267713 0.4845135 -0.5746617 0.6595533 0.2326554 0.8621014
19.51336 31.17341 0.112477 -0.7528045 0.6580161 0.01733008 0.2301849 0.8661085
19.51358 31.21498 -1.04974 -0.8255476 0.455005 -0.3338288 0.2301906 0.86616
9.511585 17.94305 -1.105767 -0.647112 0.3933805 -0.6530681 0.2290437 0.8648283
9.51155 17.90139 0.002763464 -0.8601347 0.5100667 0.0004273806 0.2290348 0.8647759
25.62502 36.39557 1.417689 0.7960651 -0.596597 -0.1017475 0.2333591 0.8629001
19.71885 28.6082 0.1033412 0.7710904 -0.6363369 0.02224444 0.2326606 0.8621455
25.49997 37.4404 -0.5228717 -0.6517389 0.7579613 -0.02703888 0.2333544 0.8630902
32.54977 41.38448 -20.95547 0.2846572 0.6853107 -0.670313 0.2341892 0.864224
25.49811 37.436 1.422611 -0.4439439 0.8936117 -0.06612013 0.233349 0.8630134
25.49709 37.40932 0.4939604 -0.643409 0.7655227 -1.975208e-05 0.2333512 0.863047
25.62691 36.39993 -0.5277973 0.6956229 -0.7163972 0.05370241 0.2333644 0.8629775
25.62384 36.36953 0.4890416 0.6899368 -0.7238697 -3.004693e-05 0.2333613 0.8629341
32.96997 42.15401 -22.03002 -0.6497825 0.4459359 -0.615568 0.2342391 0.8643388
33.04776 41.14469 -22.03425 -0.3361136 -0.6836682 -0.6477851 0.2342421 0.8642336
19.71916 28.64725 -1.058881 0.3990669 -0.6235742 -0.6722357 0.2326662 0.8621975
32.63154 40.37402 -20.95992 0.454029 -0.3552681 -0.8170938 0.2341927 0.8641187
47.6343 48.51563 -24.48196 0.4552096 0.7039787 -0.5451589 0.2358795 0.8650385
47.64997 47.53274 -24.48385 0.6075917 -0.5088966 -0.6098004 0.2358736 0.8649346
61.59007 49.00494 -15.29282 0.738611 0.6464561 -0.1911761 0.2375133 0.8647473
61.5512 48.12865 -15.31567 0.7888641 -0.5444127 -0.285146 0.2374995 0.864653
65.32026 49.54794 17.4929 -0.08414461 0.6228197 0.7778273 0.2383488 0.8635831
65.27245 48.68716 17.46635 -0.1142934 -0.5019227 0.8573276 0.2383312 0.8634821
55.75016 45.28817 1.417183 0.07451943 -0.9915958 0.1057574 0.2369481 0.8637625
55.79468 46.13043 -0.6561195 -0.01297596 0.9998306 -0.01305888 0.2369443 0.8639346
55.78193 46.11256 0.433811 -0.05390805 0.9984826 -0.01124892 0.2369518 0.863892
55.78342 46.15087 1.433914 -0.0462858 0.9968352 -0.06463174 0.2369609 0.8638587
55.74806 45.24974 0.4172349 0.05499995 -0.9984173 0.01174657 0.236939 0.8637961
55.76041 45.2668 -0.6726866 0.09765948 -0.9819359 -0.1620633 0.2369315 0.8638389
63.78724 48.10659 18.87444 0.7672981 -0.5420232 0.342731 0.238154 0.863361
63.82779 48.97936 18.89796 0.7434552 0.5979233 0.2996033 0.2381705 0.8634638
46.73074 48.7283 24.81887 -0.3487255 0.6150659 0.7071665 0.2360395 0.8632569
46.73283 47.75063 24.81757 -0.3289203 -0.5406464 0.7742822 0.2360306 0.8631394
37.53603 44.51129 1.760061 0.3434734 -0.9381055 0.04454249 0.2347895 0.8637322
37.52695 45.48184 -0.3359704 -0.06948216 0.9874367 0.1419187 0.2347912 0.8639188
37.52515 45.44493 0.7590504 -0.3097543 0.9508163 0.0007922624 0.2347927 0.863874
37.52684 45.47605 1.759327 -0.3353205 0.9421036 0.001076678 0.2347948 0.8638401
37.53395 44.48072 0.7597775 0.3163861 -0.9486303 -0.0007461279 0.2347873 0.8637666
37.53613 44.51705 -0.3352357 0.5225036 -0.8481321 0.08753273 0.2347859 0.8638116
45.11956 47.55971 25.43438 0.7064371 -0.3787401 0.5979152 0.2358257 0.8630968
45.11749 48.53908 25.43543 0.4862535 0.717861 0.49823 0.2358342 0.8632147
10.13435 16.95514 -1.178029 0.5503928 -0.3033642 -0.7778419 0.2291112 0.8647286
10.1332 16.90978 0.004308742 0.8752711 -0.4836325 0.0001780129 0.2291019 0.8646723
5.243881 2.635758 0.004321752 0.9891852 -0.1466721 0.0001647413 0.2285514 0.8632755
5.24397 2.753656 -1.400121 0.6479032 -0.09983336 -0.7551522 0.2285645 0.8633525
9.511525 17.94278 1.113394 -0.6500053 0.393782 0.6499453 0.2290259 0.8647316
2.52404 2.594297 0.002361572 -0.9813952 0.1919986 0.0002066889 0.2282585 0.8632845
2.523969 2.718843 1.409495 -0.7376419 0.1670594 0.6541984 0.2282443 0.8632303
10.13427 16.95483 1.188898 0.5532399 -0.3019495 0.7763711 0.2290927 0.8646247
5.243889 2.753102 1.411447 0.6478684 -0.1009901 0.7550282 0.2285385 0.8632207
5.324627 -1.746357 1.411397 0.590995 -0.5410805 0.598295 0.2285436 0.8627836
5.324616 -1.863701 0.004270719 0.7000684 -0.7140755 -0.0007340236 0.2285565 0.8628399
2.524148 2.719658 -1.40208 -0.7367752 0.1673099 -0.6551105 0.2282726 0.8633621
2.604885 -1.779798 -1.40213 -0.5724663 -0.5581535 -0.6006222 0.2282794 0.862928
2.604778 -1.905162 0.002312308 -0.676278 -0.736646 -0.0009044302 0.2282654 0.8628491
5.324707 -1.745803 -1.400171 0.5910271 -0.5416377 -0.5977588 0.2285694 0.8629181
2.604705 -1.780617 1.409444 -0.5732593 -0.5578191 0.6001764 0.2282513 0.8627936
-41.2611 33.3756 -65.85624 -0.774695 -0.4113511 0.4802478 0.2309238 0.8601022
-41.25751 34.23044 -65.85497 -0.6263709 0.7014043 0.3401346 0.2309207 0.8601798
-30.99774 24.34692 -89.92356 -0.2548971 0.3861208 -0.8865316 0.2322324 0.8599184
-30.99431 23.5011 -89.92207 -0.1600037 -0.7228858 -0.6721867 0.2322345 0.8598468
14.49729 32.50358 -41.75808 0.6129626 -0.4329647 -0.6609224 0.2360127 0.8591509
14.64877 33.35509 -41.60548 0.6983835 0.5967157 -0.3952099 0.2360293 0.8592279
-2.515874 27.18529 -19.03306 0.5346365 0.6692657 0.5159915 0.2340763 0.8579112
-2.509803 25.02884 -19.02244 0.5736793 -0.7365358 -0.3583395 0.234077 0.8576963
-3.697798 27.14948 -18.5681 0.1754531 0.8612335 0.4769624 0.231486 0.8615862
-4.877466 27.18553 -18.10403 -0.1113293 0.6966687 0.708702 0.2313563 0.861577
-0.9422556 16.37496 -8.261477 -0.3580215 0.4426514 0.8221194 0.2316666 0.8600981
0.1829308 16.33888 -8.704108 0.3025717 0.5643474 0.7680902 0.2317917 0.8601083
-7.874832 28.71619 -31.65501 -0.002741775 -0.9664381 -0.2568851 0.2336627 0.8585268
-3.691714 24.99509 -18.55746 -0.1919869 -0.8669198 -0.4599904 0.2339478 0.8576801
-10.6258 30.7027 -30.84736 0.1042387 0.9790816 0.1747384 0.2334516 0.8585917
-32.37988 33.36674 -27.44491 -0.7804332 0.6220466 -0.06310387 0.2310923 0.8589246
-8.651054 30.69844 -31.62388 0.03117133 0.9795734 0.1986565 0.2336619 0.8586107
-9.593871 30.67489 -31.2534 0.07446558 0.9798747 0.1852037 0.2335616 0.8585992
-9.849581 28.72042 -30.8785 -0.1514518 -0.9702301 -0.1889866 0.2334526 0.8585076
-8.817658 28.69314 -31.28455 -0.08685093 -0.9719703 -0.2184734 0.2335625 0.8585153
-34.07322 33.64388 -28.36075 -0.4496746 0.5740506 0.6842944 0.2309359 0.8589879
-34.07455 32.79286 -28.36252 -0.5244849 -0.5703362 0.6321647 0.2309395 0.858904
-17.03501 32.75955 -48.28091 -0.1087668 -0.9936212 -0.02977674 0.2329513 0.8594747
-17.03285 33.59492 -48.27323 0.06205249 0.9980729 -0.0002495686 0.2329501 0.8595535
-37.62136 36.41969 -47.83691 -0.3524886 0.7394119 0.5736042 0.2309352 0.85987
-37.84498 35.5735 -47.79372 -0.5918449 -0.413358 0.6919934 0.2309162 0.859789
-4.871382 25.029 -18.09339 -0.7038094 -0.7064384 0.07481465 0.2338186 0.8576705
-32.38187 32.51542 -27.44801 -0.8961107 -0.4357374 -0.0843721 0.2310956 0.8588406
-37.71549 36.25257 -46.29812 -0.5293388 0.7019316 -0.4765422 0.2308986 0.8598095
-37.93959 35.40493 -46.25488 -0.7817497 -0.3980259 -0.4800446 0.2308796 0.8597281
-41.92326 34.45533 -63.8971 -0.6250188 0.5771462 -0.5255985 0.230824 0.8601493
-41.92717 33.60448 -63.89886 -0.6806858 -0.5539889 -0.4793362 0.2308272 0.8600717
-18.12201 34.21357 -80.36256 0.266363 0.9094612 -0.3192666 0.2332352 0.8604957
-17.61274 33.35818 -80.30353 0.9496141 -0.07980373 -0.3030916 0.2332812 0.8604172
-20.81006 30.51518 -64.99028 0.2059382 -0.9777278 0.04046969 0.2328102 0.8597624
-22.93581 31.33992 -64.15452 0.02961225 0.976872 -0.2117646 0.2326002 0.8598199
-21.82366 31.30042 -64.59048 -0.06882314 0.981477 -0.1787914 0.2327095 0.8598253
-20.80899 31.33336 -64.99114 -0.3002812 0.9483997 -0.1018296 0.2328089 0.8598366
-21.82442 30.48286 -64.58885 0.06881883 -0.9814693 0.1788353 0.2327108 0.8597511
-22.93645 30.52166 -64.15257 -0.08672927 -0.9727917 0.2148355 0.2326017 0.8597456
-15.77246 33.58668 -79.33475 -0.02434928 -0.561205 -0.8273187 0.2334362 0.8604079
-16.27689 34.43808 -79.39278 -0.4674022 0.4469085 -0.7627634 0.2333906 0.8604863
5.582148 36.4059 -65.73401 0.7895515 0.612323 -0.04085254 0.2352915 0.8602483
5.580172 35.55937 -65.73518 0.8700987 -0.4900122 -0.05306914 0.2352901 0.8601703
-14.90823 32.75457 -49.11753 0.06413672 -0.9950814 -0.07549469 0.2331687 0.8594929
-15.92082 33.56297 -48.70904 0.004887445 0.9999384 0.009966102 0.233064 0.8595601
-14.90606 33.58991 -49.10983 -0.04053356 0.9975738 0.05660065 0.2331678 0.8595716
-15.92286 32.7281 -48.71642 -0.01593625 -0.9991964 -0.03677902 0.2330651 0.8594815
6.717634 35.39406 -64.68159 0.2377327 -0.5029256 -0.8309928 0.2353908 0.8601231
6.719354 36.24206 -64.68034 0.2178522 0.6314673 -0.7441703 0.2353922 0.8602014
15.28359 33.63383 -43.43758 0.7888879 0.4933762 0.3663822 0.236103 0.8593103
15.13281 32.78255 -43.58884 0.7258027 -0.6626439 0.1846986 0.2360864 0.8592334
-1.213012 15.51957 -8.734406 -0.9284317 -0.3250931 -0.1798028 0.2316429 0.8600342
-0.01255979 15.48029 -9.20562 -0.3084413 -0.5377788 -0.7846388 0.2317759 0.860045
1.537332 3.121019 -5.266076 -0.3617676 -0.1506101 -0.9200222 0.2318975 0.8586612
0.1117714 3.223099 -4.705325 -0.9396133 -0.09784117 -0.3279542 0.2317405 0.8586521
1.310244 16.37472 -9.147588 0.8209915 0.4464875 0.3558396 0.2319167 0.8601255
2.397511 3.085118 -3.073796 0.3591585 0.1965514 0.9123446 0.2319671 0.8585538
3.825794 3.192955 -3.635636 0.88011 0.1671416 0.4443762 0.232125 0.8585833
1.189477 15.5193 -9.679512 0.5539032 -0.3184088 -0.76929 0.2319089 0.8600635
2.965582 3.22262 -5.82798 0.4642356 -0.09941856 -0.8801144 0.2320545 0.8586899
2.939938 -1.808048 -5.893012 0.3376888 -0.5478234 -0.7654123 0.2320498 0.8582123
1.511685 -1.909648 -5.33111 -0.2577781 -0.7117711 -0.6534007 0.2318939 0.8581833
0.9719484 3.193663 -2.513059 -0.3428313 0.1675684 0.9243309 0.2318092 0.8585451
0.9463032 -1.837001 -2.578092 -0.3447431 -0.5629437 0.7511635 0.2318062 0.8580644
2.371867 -1.945548 -3.138829 0.2487521 -0.7317817 0.6345218 0.231963 0.8580736
0.08612873 -1.807568 -4.770357 -0.7681146 -0.5483935 -0.3305517 0.2317381 0.8581737
3.80015 -1.837708 -3.700668 0.7639903 -0.562622 0.3158724 0.2321198 0.8581035
-24.86216 24.76789 59.02409 0.8320699 -0.2650184 0.4872628 0.2312643 0.8620757
-24.89111 25.60247 58.87456 0.5583048 0.7823159 0.2761841 0.2312587 0.8621847
-46.83009 10.49511 61.23645 -0.5587731 0.3681681 0.7431184 0.2284812 0.8604126
-46.84541 9.649282 61.42491 -0.3609487 -0.8051457 0.4705916 0.2284823 0.8603045
-35.58204 31.08456 18.5341 -0.9027282 -0.4295028 -0.02468197 0.2309797 0.8649401
-35.57496 31.91615 18.49889 -0.7724259 0.6320462 -0.06225746 0.2309758 0.8650329
-9.859578 27.18529 14.61368 0.008916351 0.700753 -0.7133482 0.2340544 0.8645749
-9.854635 25.02884 14.60253 -0.6397572 -0.7148913 -0.2822079 0.2340595 0.8643435
-8.929329 27.14948 15.17289 0.2397243 0.9016241 -0.3600088 0.2366142 0.8596203
-8.000862 27.18553 15.73104 0.6098058 0.7434896 -0.2745182 0.2367133 0.8595949
-2.582739 16.37496 6.620349 0.8718358 0.4410189 -0.2130838 0.2374673 0.858843
-3.468323 16.33888 6.087975 0.4251244 0.5639718 -0.7079585 0.2373752 0.8588674
-16.15673 26.99017 23.76611 -0.1446747 -0.9886273 0.04105323 0.2331591 0.8641627
-8.924376 24.99509 15.16172 -0.2231962 -0.8814819 0.4161407 0.2341582 0.8643103
-14.59305 27.82107 24.64846 -0.04187986 0.9958844 -0.08037645 0.2333253 0.8642054
-2.881027 31.92657 36.46813 0.3727718 0.669432 0.6425746 0.2345448 0.8640375
-16.14694 27.81642 23.71328 0.104082 0.9942483 0.02524222 0.2331584 0.8642563
-15.40508 27.79247 24.15899 0.02785487 0.9983993 -0.049225 0.233238 0.8642291
-14.60284 26.9948 24.70129 0.06412854 -0.9810507 0.1828307 0.2333258 0.8641115
-15.41486 26.96667 24.21176 -0.05768986 -0.9934177 0.0989607 0.2332386 0.8641356
-4.617361 31.86619 39.17955 0.7121937 0.6866569 -0.1458852 0.234283 0.863902
-4.614622 31.03551 39.22801 0.8649102 -0.4979604 -0.06297461 0.2342841 0.8638027
-7.995907 25.029 15.71987 0.4942892 -0.6880136 0.5313337 0.234257 0.8642843
-2.878809 31.09513 36.5172 0.4357635 -0.3906966 0.8108431 0.2345455 0.8639387
-9.423535 31.42605 52.48046 0.0672169 0.6406502 0.7648851 0.2334206 0.8631646
-9.41837 30.57068 52.48293 0.3927653 -0.5151622 0.7618028 0.2334241 0.8630614
-21.08203 25.82736 58.30704 -0.238009 0.5121995 0.8252293 0.2317751 0.8622226
-21.07652 24.97651 58.33301 0.0030379 -0.6529527 0.7573926 0.2317805 0.8621193
-50.80959 25.5856 45.71486 -0.5356231 0.7867543 -0.3067988 0.2283723 0.8630763
-50.80883 24.73022 45.71819 -0.7224883 -0.2874311 -0.6288037 0.2283823 0.862978
-33.70147 21.88721 46.33528 0.05148835 -0.8680446 -0.4938092 0.230516 0.8625246
-32.02874 22.71195 47.34138 -0.326346 0.8949028 0.3043802 0.2306898 0.8625536
-32.9029 22.67245 46.81419 -0.2370154 0.8898379 0.3898875 0.2305956 0.8625833
-33.70263 22.70539 46.33507 -0.09841106 0.8620856 0.4971153 0.2305093 0.8626181
-32.90192 21.87344 46.82885 0.2449897 -0.8915055 -0.3810485 0.2306017 0.8624911
-32.02757 21.91228 47.35577 0.4029683 -0.8907938 -0.2100069 0.2306958 0.8624611
-50.99364 24.95871 43.76665 -0.7388369 -0.6165389 0.2720291 0.2284271 0.8631096
-50.99419 25.81011 43.76279 -0.7704336 0.47211 0.4284207 0.2284174 0.863207
-44.89273 31.37193 33.45401 -0.3127694 0.8454711 -0.432844 0.2294508 0.8643298
-45.01389 30.5127 33.30892 -0.4480359 -0.2697409 -0.8523518 0.229449 0.8642399
-24.86293 27.73886 34.91457 -0.04914785 -0.9772069 -0.2065214 0.2318696 0.8637467
-23.18486 28.59399 35.92648 -0.3655199 0.9052743 0.2165034 0.2320464 0.8637845
-24.05887 28.5622 35.39942 -0.08695418 0.9859409 0.1426865 0.2319518 0.8638118
-24.85874 28.58901 34.9202 0.002483467 0.9823586 0.1869907 0.2318651 0.8638428
-24.06289 27.71255 35.39352 0.08653276 -0.986118 -0.1417161 0.2319562 0.8637156
-23.18905 27.74383 35.92085 -0.0206804 -0.9953405 0.09417893 0.2320506 0.8636881
-45.05361 30.5455 31.68464 -0.8136518 -0.5065597 0.2852508 0.2294951 0.8643216
-44.95749 31.39969 31.79593 -0.6747504 0.6061897 0.4210058 0.229495 0.8644124
-37.16002 31.85616 18.66442 -0.2544657 0.6572612 -0.7094046 0.2307882 0.865026
-37.16658 31.02522 18.69906 -0.3526551 -0.5410887 -0.763451 0.2307924 0.8649334
-2.802814 15.51957 7.117203 0.418507 -0.3281442 0.8468608 0.237437 0.8587336
-3.74687 15.48029 6.548562 -0.4347345 -0.537214 0.7227773 0.237339 0.8587599
-1.565808 3.121019 2.920185 -0.5095582 -0.149411 0.8473647 0.2376286 0.857681
-0.4438452 3.223099 3.594705 0.312568 -0.100136 0.9446026 0.2377426 0.8576536
-4.35559 16.37472 5.5546 -0.2214944 0.4442557 -0.8680882 0.2372833 0.8588992
-0.3509525 3.085118 0.9027278 0.5051352 0.1949426 -0.8407353 0.2377826 0.8577669
-1.475073 3.192955 0.2269291 -0.1819945 0.1679294 -0.9688539 0.2376691 0.8578144
-4.693709 15.5193 5.980479 -0.9459999 -0.3225359 0.03248053 0.237241 0.858794
-2.689959 3.22262 2.244448 -0.9807063 -0.1014152 0.1671235 0.2375148 0.8577283
-2.725935 -1.808048 2.304387 -0.8154261 -0.5441451 0.1974495 0.2375125 0.857237
-1.601783 -1.909648 2.980122 -0.3600123 -0.7141715 0.6002918 0.2376255 0.857189
0.7710024 3.193663 1.577262 0.94135 0.1682289 -0.2925054 0.2378964 0.8577405
0.7350265 -1.837001 1.637201 0.8086538 -0.5590984 -0.1829977 0.2378914 0.8572496
-0.3869292 -1.945548 0.9626675 0.3505757 -0.7341296 -0.581507 0.2377785 0.857277
-0.4798201 -1.807568 3.654642 0.2076391 -0.544709 0.8125134 0.2377387 0.8571606
-1.511048 -1.837708 0.2868662 -0.2169558 -0.5587626 -0.8004465 0.2376657 0.8573251
-52.2388 18.9802 15.57033 0.2104201 -0.3348493 0.9184766 0.2292654 0.8638544
-52.20721 19.82139 15.55555 0.1076436 0.7503868 0.6521752 0.2292617 0.8639429
-67.35484 6.458195 1.156583 -0.9890023 0.1296191 0.07122812 0.228196 0.863314
-67.087 5.612372 1.168782 -0.4620756 -0.8864995 0.02459432 0.2282321 0.8632302
-30.38325 22.98993 -20.00793 -0.5819277 -0.4416428 -0.6828704 0.2324308 0.8656341
-30.35883 23.82014 -20.02551 -0.4850574 0.6200421 -0.6166581 0.2324303 0.8657159
-11.55321 20.7051 -4.168147 0.5333682 0.6903867 -0.4887583 0.2341606 0.8647129
-11.66875 18.67727 -4.073482 -0.01476961 -0.7298164 -0.6834837 0.2341503 0.8645049
-11.34889 20.66875 -3.190268 0.3813818 0.923008 -0.05103069 0.2366295 0.8597462
-11.1455 20.70481 -2.21384 0.5443956 0.79848 0.2570277 0.2366374 0.8597082
-4.166696 13.23892 -1.842255 0.7145299 0.4490676 0.5364563 0.2373988 0.8589105
-4.362184 13.20436 -2.772424 0.8502607 0.4950194 -0.1789208 0.237389 0.8589486
-21.53435 18.92633 -3.647613 -0.06001455 -0.9909481 -0.1200836 0.2330802 0.8645537
-11.46443 18.64301 -3.095595 -0.4067056 -0.9064567 0.1136965 0.2341583 0.8644595
-21.15569 19.75036 -2.043109 -0.02488722 0.9939939 -0.1065686 0.2330902 0.8645681
-22.78425 23.83048 16.32043 -0.2393432 0.6372426 0.732555 0.2325458 0.8641965
-21.49547 19.74571 -3.677894 -0.02630745 0.9907657 0.1330085 0.2330822 0.8646373
-21.33295 19.72179 -2.897836 -0.005214326 0.9999862 0.0006506116 0.2330861 0.8646017
-21.19457 18.93096 -2.012819 -0.03083792 -0.9915165 0.1262697 0.2330881 0.8644842
-21.37178 18.90285 -2.867591 -0.05419208 -0.9984621 0.01168695 0.2330841 0.864518
-23.6762 23.76505 17.31141 0.5897624 0.6453318 0.4855175 0.2324233 0.8641482
-23.69769 22.93378 17.32742 0.5929711 -0.5221808 0.612954 0.2324242 0.8640587
-35.64051 20.16272 -0.2118231 0.1057959 -0.9889836 0.1035314 0.2314876 0.8645943
-35.66419 21.00533 -0.2048404 -0.1321357 0.9875127 -0.08578359 0.2314802 0.8646797
-39.55848 23.83249 19.90424 0.3195432 0.7145275 0.6223686 0.2305371 0.8641098
-39.5365 22.98187 19.90043 0.481156 -0.4265901 0.7658393 0.230546 0.8640187
-11.26111 18.677 -2.11911 -0.1131802 -0.6939775 0.7110454 0.2341661 0.8644208
-22.80862 23.0004 16.33799 -0.2983664 -0.4267893 0.8537145 0.2325462 0.8641072
-38.59626 23.83455 20.28554 -0.5681039 0.5937129 0.5698799 0.2306375 0.8640879
-38.57833 22.9803 20.28048 -0.5746329 -0.516448 0.6348847 0.2306458 0.8639963
-50.46056 20.04628 16.26561 -0.7745715 0.5321982 0.3417661 0.229434 0.8639259
-50.46306 19.19543 16.26854 -0.6353251 -0.6280368 0.4493682 0.2294412 0.8638366
-58.01539 19.80453 -12.36239 -0.1322848 0.7793744 -0.6124347 0.2294343 0.8651386
-58.01735 18.94914 -12.35976 -0.03909803 -0.3051579 -0.9514989 0.229441 0.8650548
-47.18821 16.11865 -0.5226066 0.3329457 -0.8999783 -0.2814006 0.230284 0.8642498
-46.79499 16.93087 1.225787 -0.3958654 0.9143649 -0.0850145 0.2302753 0.864255
-46.98525 16.89137 0.3054017 -0.394549 0.91541 0.07972231 0.2302788 0.864291
-47.16165 16.92432 -0.5345871 -0.3758802 0.8900465 0.2579367 0.2302813 0.8643307
-47.01097 16.08631 0.317196 0.3959745 -0.9147574 -0.08014501 0.2302817 0.86421
-46.82042 16.12513 1.23753 0.3911235 -0.9063063 0.1600977 0.2302781 0.8641737
-56.70448 19.17763 -13.72779 -0.7621817 -0.6098505 -0.217167 0.2296105 0.8651249
-56.702 20.02904 -13.73062 -0.8608388 0.500764 -0.09051047 0.2296041 0.8652082
-47.7273 23.7903 -19.75146 0.09133418 0.7162011 -0.6918917 0.2306455 0.8657672
-47.70008 22.93402 -19.75937 0.2119306 -0.404741 -0.8895337 0.2306539 0.8656838
-36.00722 20.15775 -1.972161 0.09389811 -0.9837312 -0.1531541 0.2314873 0.8646688
-35.85473 20.97351 -1.124997 -0.1293751 0.9912583 0.02586869 0.2314804 0.8647155
-36.03092 21.00035 -1.965173 -0.08934036 0.9889811 0.1180451 0.2314799 0.8647537
-35.83073 20.1314 -1.132044 0.1277268 -0.9914857 -0.02533774 0.2314878 0.8646305
-46.97147 22.94486 -20.39083 -0.7375987 -0.5255785 -0.4239288 0.2307427 0.8657053
-46.99055 23.79985 -20.38535 -0.7151212 0.5962254 -0.3648521 0.2307353 0.8657885
-31.65128 23.75501 -20.9626 0.397419 0.6723648 -0.6244868 0.2323153 0.8657487
-31.67283 22.92349 -20.94658 0.3639838 -0.5595944 -0.7445603 0.2323163 0.865667
-4.638191 12.34368 -1.702994 -0.4514126 -0.187755 0.8723387 0.2373466 0.8588173
-4.845966 12.30621 -2.695135 -0.8657925 -0.466188 0.1818575 0.2373365 0.8588581
-2.648319 1.883636 -2.068653 -0.9786299 -0.01375128 0.2051694 0.2375701 0.8577996
-2.395371 1.978428 -0.8942952 -0.5358721 0.0503281 0.8427979 0.2375835 0.857753
-4.556358 13.23999 -3.705671 0.6054803 0.3504134 -0.7145657 0.2373794 0.8589936
-0.6712261 2.161265 -2.303301 0.9754632 0.08014789 -0.2050562 0.2377834 0.8578281
-0.912104 2.263677 -3.489653 0.6405536 0.04292019 -0.7667131 0.2377707 0.8578938
-5.053681 12.34468 -3.690577 -0.5815993 -0.3682786 -0.7253366 0.2373263 0.8589063
-2.888904 1.979445 -3.255265 -0.768392 -0.0785346 -0.6351426 0.2375581 0.8578647
-3.383465 -1.745381 -2.910242 -0.6968031 -0.5552441 -0.4540589 0.2375033 0.8574941
-3.142586 -1.841492 -1.723861 -0.6905145 -0.7092097 0.142167 0.2375151 0.857428
-0.4188384 2.263076 -1.128514 0.8373269 0.1304773 0.5309042 0.2377976 0.8577822
-0.8461468 -1.52986 -0.8356364 0.6647739 -0.5311977 0.5252665 0.2377491 0.8574049
-1.098044 -1.632165 -2.010804 0.6675897 -0.7319533 -0.1362662 0.2377352 0.8574518
-2.889914 -1.746421 -0.549286 -0.4815486 -0.5336935 0.6951851 0.2375283 0.8573803
-1.339379 -1.529289 -3.196798 0.4638286 -0.5724475 -0.6761412 0.2377227 0.8575184
48.22926 33.3756 -67.03767 -0.7330376 -0.4113511 -0.5417067 0.2405783 0.8678836
48.2294 34.23044 -67.03387 -0.5479514 0.7014045 -0.4558301 0.2405839 0.8679624
74.38628 24.34692 -66.41898 0.6666376 0.4153807 -0.6189129 0.2430264 0.8669624
74.38617 23.5011 -66.41525 0.5100771 -0.7200719 -0.4704444 0.2430183 0.8668855
49.12308 32.64307 -10.21761 0.6824 -0.6498114 0.3347765 0.2409115 0.8659388
49.1214 33.49446 -10.21516 0.4721828 0.7214204 0.5065531 0.2409182 0.8660281
19.088 27.18529 -13.70486 -0.2096154 0.6852477 0.6974934 0.2375717 0.8656267
19.08039 25.02884 -13.69529 0.5725446 -0.711257 0.4078066 0.2375641 0.8654081
18.21832 27.14948 -14.63049 -0.3568863 0.8783991 0.3178795 0.2399426 0.8607403
17.3503 27.18553 -15.55436 -0.680299 0.7181098 0.1466684 0.2398538 0.8607824
9.665467 16.37496 -8.253334 -0.8962553 0.4426515 -0.02803862 0.2389568 0.8594379
10.49339 16.33888 -7.372136 -0.6013822 0.5643473 0.5655541 0.2390394 0.8593938
28.82718 28.71619 -23.35787 0.3152486 -0.9051262 -0.2852455 0.2386496 0.8661042
18.21069 24.99509 -14.6209 0.3561584 -0.8669199 -0.3487136 0.2374746 0.8654441
27.37541 29.58173 -24.90763 -0.0944014 0.9808974 0.1700845 0.2385023 0.8662516
15.83975 33.36674 -44.56045 -0.2259333 0.6326611 -0.7407389 0.2373937 0.8673154
28.82815 29.57748 -23.36096 -0.03650597 0.9869588 -0.1567789 0.2386537 0.8661905
28.1348 29.55392 -24.09949 -0.1383172 0.9816738 0.1310912 0.2385811 0.8662171
27.37444 28.72042 -24.90453 0.1184165 -0.9704981 -0.2100263 0.2384984 0.8661656
28.13383 28.69314 -24.09641 0.1707636 -0.9719704 -0.1615966 0.2385772 0.8661311
16.06323 33.64388 -46.47257 -0.8081551 0.5870197 -0.04788764 0.2374257 0.8674003
16.06438 32.79286 -46.47446 -0.7965793 -0.5834709 -0.1581869 0.2374235 0.8673189
40.87752 32.75955 -38.0248 -0.004339333 -0.9946092 -0.1036039 0.2399265 0.8669676
40.87118 33.59492 -38.01994 0.009903993 0.9973655 0.07186056 0.239931 0.8670493
30.24017 36.41969 -60.97776 -0.702087 0.6515523 -0.2873212 0.2388673 0.8680474
30.24048 35.5735 -60.98006 -0.799282 -0.503033 -0.3287952 0.2388635 0.8679682
17.34267 25.029 -15.54477 -0.3301865 -0.7064384 -0.6260366 0.237386 0.8654864
15.84189 32.51542 -44.56344 -0.2535536 -0.4357367 -0.8636227 0.2373917 0.8672336
28.77597 36.25257 -60.49522 0.0897103 0.6288744 -0.7723141 0.238724 0.8680223
28.77645 35.40493 -60.49732 0.1089348 -0.480767 -0.8700554 0.2387204 0.8679429
46.16421 34.45533 -66.92706 0.3611575 0.5928859 -0.719758 0.2403871 0.8679861
46.1644 33.60448 -66.93134 0.2891949 -0.5729306 -0.7668878 0.2403818 0.8679076
72.93243 34.32582 -39.5784 0.7641981 0.6054389 -0.2223622 0.2432621 0.8670667
72.9325 33.47243 -39.58233 0.8474345 -0.5305796 0.01844042 0.243253 0.8669826
55.00005 30.51518 -47.72055 0.04749369 -0.9988632 0.004072127 0.241314 0.8670171
53.43636 31.33992 -49.38553 0.1985544 0.9786173 -0.05370773 0.2411536 0.8671533
54.25324 31.30042 -48.51397 0.1405817 0.981477 -0.1301528 0.2412403 0.8671196
55.00125 31.33336 -47.71988 0.144251 0.8902374 -0.4320522 0.2413205 0.8670954
54.25146 30.48286 -48.51407 -0.1406241 -0.9814693 0.1301652 0.2412338 0.8670415
53.4343 30.52166 -49.38539 -0.2316785 -0.972792 -0.0009839721 0.2411472 0.8670753
64.19064 35.98965 -27.93158 0.2069165 0.6668422 0.7158961 0.2424698 0.8668731
64.19099 35.14312 -27.93385 0.2366962 -0.5054089 0.8297812 0.2424614 0.8667871
42.4424 32.75457 -36.35917 0.142596 -0.9883591 0.05303514 0.2400923 0.8669071
41.6879 33.56297 -37.14844 -0.02754693 0.9992408 0.027551 0.2400172 0.8670151
42.43605 33.58991 -36.3543 -0.03695821 0.9993103 0.003615794 0.240097 0.8669892
41.69399 32.7281 -37.15307 0.02826003 -0.9991964 -0.02842561 0.2400126 0.8669331
61.15663 36.45892 -23.27274 0.8837172 -0.456689 -0.1023676 0.2421868 0.8667702
61.15611 37.30691 -23.27068 0.7330197 0.6765432 -0.07050815 0.242195 0.8668576
10.00447 15.51957 -8.680008 -0.1768809 -0.3250933 -0.9289927 0.2389951 0.8593695
10.88682 15.48029 -7.739482 0.6145803 -0.5377787 -0.5771353 0.2390831 0.8593222
7.801578 3.121019 -4.84061 0.7205803 -0.1506103 -0.6768165 0.2387114 0.8579981
6.752676 3.223099 -5.957065 -0.04341073 -0.09784123 -0.9942548 0.2386093 0.8580634
11.32289 16.37472 -6.489273 -0.02642997 0.4464873 0.8943996 0.2391227 0.8593565
6.083848 3.085118 -3.229585 -0.7144157 0.1965515 0.6715487 0.2385143 0.8579287
7.134767 3.192955 -2.111003 -0.08677103 0.1671415 0.9821072 0.2386173 0.8578827
11.77224 15.5193 -6.798477 0.9197391 -0.3184089 0.2295558 0.239172 0.8592824
8.852545 3.22262 -3.722083 0.9894673 -0.09941868 0.1052159 0.2388147 0.8579518
8.903453 -1.808048 -3.769991 0.8360505 -0.5478233 0.03015617 0.2388136 0.8574703
7.852487 -1.909648 -4.888518 0.5114417 -0.7117716 -0.481465 0.2387111 0.8575179
5.034959 3.193663 -4.346048 -0.98557 0.1675684 0.02393059 0.2384125 0.8579952
5.085869 -1.837001 -4.393955 -0.8254281 -0.5629438 -0.04198621 0.2384142 0.8575147
6.134757 -1.945548 -3.277493 -0.4972492 -0.7317819 0.4660886 0.2385153 0.8574471
6.803588 -1.807568 -6.004973 0.02252738 -0.5483935 -0.835917 0.2386097 0.8575844
7.185675 -1.837708 -2.158911 -0.01041912 -0.562622 0.8266487 0.2386176 0.8573997
16.1883 19.41319 10.71043 -0.1283282 0.8138309 -0.5667549 0.2370951 0.8638056
15.66737 19.36928 11.41782 -0.2498426 0.9354605 -0.2499847 0.2370307 0.8637706
16.21121 17.53747 10.71554 0.4774876 -0.7221728 -0.5004719 0.2395536 0.8586872
15.15092 19.39774 12.12858 -0.7618827 0.629193 -0.1537891 0.2394274 0.8588213
15.69028 17.49613 11.42287 0.2766621 -0.9491711 0.1501078 0.2394893 0.8586522
15.1734 17.5225 12.13343 -0.4888959 -0.7296744 0.4780754 0.2394254 0.858624
19.51358 31.21498 -1.04974 -0.8255476 0.455005 -0.3338288 0.2326514 0.8624688
19.51336 31.17341 0.112477 -0.7528045 0.6580161 0.01733008 0.2326457 0.8624173
19.71916 28.64725 -1.058881 0.3990669 -0.6235742 -0.6722357 0.2302054 0.8658887
19.51462 31.21433 1.276847 -0.7986731 0.5162416 0.3092184 0.2301796 0.8660654
19.71885 28.6082 0.1033412 0.7710904 -0.6363369 0.02224444 0.2301998 0.8658367
19.72 28.64677 1.267713 0.4845135 -0.5746617 0.6595533 0.2301946 0.8657926
2.523969 2.718843 1.409495 -0.7376419 0.1670594 0.6541984 0.2307051 0.8595392
2.52404 2.594297 0.002361572 -0.9813952 0.1919986 0.0002066889 0.2307193 0.8595933
2.604778 -1.905162 0.002312308 -0.676278 -0.736646 -0.0009044302 0.2307262 0.8591579
2.604705 -1.780617 1.409444 -0.5732593 -0.5578191 0.6001764 0.2307121 0.8591024
-4.877466 27.18553 -18.10403 -0.1113293 0.6966687 0.708702 0.2338171 0.8578858
-3.697798 27.14948 -18.5681 0.1754531 0.8612335 0.4769624 0.2339468 0.857895
-4.871382 25.029 -18.09339 -0.7038094 -0.7064384 0.07481465 0.2313578 0.8613617
-2.515874 27.18529 -19.03306 0.5346365 0.6692657 0.5159915 0.2316155 0.8616024
-3.691714 24.99509 -18.55746 -0.1919869 -0.8669198 -0.4599904 0.231487 0.8613713
-2.509803 25.02884 -19.02244 0.5736793 -0.7365358 -0.3583395 0.2316162 0.8613875
-8.000862 27.18553 15.73104 0.6098058 0.7434896 -0.2745182 0.2342525 0.8645164
-8.929329 27.14948 15.17289 0.2397243 0.9016241 -0.3600088 0.2341534 0.8645418
-7.995907 25.029 15.71987 0.4942892 -0.6880136 0.5313337 0.2367177 0.8593627
-9.859578 27.18529 14.61368 0.008916351 0.700753 -0.7133482 0.2365152 0.8596534
-8.924376 24.99509 15.16172 -0.2231962 -0.8814819 0.4161407 0.236619 0.8593888
-9.854635 25.02884 14.60253 -0.6397572 -0.7148913 -0.2822079 0.2365203 0.859422
-2.689959 3.22262 2.244448 -0.9807063 -0.1014152 0.1671235 0.235054 0.8626499
-1.475073 3.192955 0.2269291 -0.1819945 0.1679294 -0.9688539 0.2352084 0.8627359
-1.511048 -1.837708 0.2868662 -0.2169558 -0.5587626 -0.8004465 0.235205 0.8622467
-2.725935 -1.808048 2.304387 -0.8154261 -0.5441451 0.1974495 0.2350517 0.8621585
-11.1455 20.70481 -2.21384 0.5443956 0.79848 0.2570277 0.2341766 0.8646297
-11.34889 20.66875 -3.190268 0.3813818 0.923008 -0.05103069 0.2341687 0.8646677
-11.26111 18.677 -2.11911 -0.1131802 -0.6939775 0.7110454 0.2366269 0.8594992
-11.55321 20.7051 -4.168147 0.5333682 0.6903867 -0.4887583 0.2366214 0.8597913
-11.46443 18.64301 -3.095595 -0.4067056 -0.9064567 0.1136965 0.2366191 0.8595379
-11.66875 18.67727 -4.073482 -0.01476961 -0.7298164 -0.6834837 0.2366111 0.8595833
-0.4188384 2.263076 -1.128514 0.8373269 0.1304773 0.5309042 0.2353368 0.8627038
-2.395371 1.978428 -0.8942952 -0.5358721 0.0503281 0.8427979 0.2351228 0.8626746
-2.889914 -1.746421 -0.549286 -0.4815486 -0.5336935 0.6951851 0.2350675 0.8623019
-0.8461468 -1.52986 -0.8356364 0.6647739 -0.5311977 0.5252665 0.2352883 0.8623264
17.3503 27.18553 -15.55436 -0.680299 0.7181098 0.1466684 0.237393 0.865704
18.21832 27.14948 -14.63049 -0.3568863 0.8783991 0.3178795 0.2374819 0.8656619
17.34267 25.029 -15.54477 -0.3301865 -0.7064384 -0.6260366 0.2398468 0.8605649
19.088 27.18529 -13.70486 -0.2096154 0.6852477 0.6974934 0.2400324 0.8607051
18.21069 24.99509 -14.6209 0.3561584 -0.8669199 -0.3487136 0.2399354 0.8605225
19.08039 25.02884 -13.69529 0.5725446 -0.711257 0.4078066 0.2400248 0.8604866
3 0 1 2 
3 0 2 3 
3 4 5 6 
3 4 6 7 
3 8 9 10 
3 8 10 11 
3 12 4 7 
3 12 7 13 
3 14 15 394 
3 14 394 395 
3 16 17 395 
3 18 19 13 
3 20 21 22 
3 20 22 23 
3 24 394 15 
3 24 15 25 
3 25 15 26 
3 25 26 27 
3 23 22 1 
3 23 1 0 
3 3 2 28 
3 3 28 29 
3 3 29 30 
3 2 1 31 
3 2 32 33 
3 3 34 35 
3 35 0 1 
3 35 1 31 
3 36 37 38 
3 36 38 39 
3 30 36 39 
3 30 39 40 
3 31 1 22 
3 31 22 21 
3 33 32 41 
3 33 41 42 
3 35 34 43 
3 35 43 20 
3 44 45 46 
3 44 46 47 
3 40 44 47 
3 40 47 12 
3 21 26 15 
3 21 15 14 
3 42 41 17 
3 42 17 16 
3 20 43 19 
3 20 19 18 
3 45 42 16 
3 45 16 46 
3 43 40 12 
3 43 12 19 
3 37 33 42 
3 37 42 38 
3 34 30 40 
3 34 40 43 
3 2 33 28 
3 3 30 34 
3 9 396 48 
3 9 48 10 
3 5 16 395 
3 5 395 6 
3 19 12 13 
3 27 20 18 
3 27 18 25 
3 41 21 14 
3 41 14 17 
3 0 35 20 
3 0 20 23 
3 32 31 21 
3 32 21 41 
3 3 35 0 
3 2 31 32 
3 18 25 15 
3 18 15 14 
3 20 27 26 
3 20 26 21 
3 25 18 13 
3 25 13 24 
3 17 14 395 
3 29 28 33 
3 29 33 30 
3 39 38 42 
3 39 42 40 
3 47 46 16 
3 47 16 12 
3 16 5 4 
3 16 4 12 
3 33 37 36 
3 33 36 30 
3 42 45 44 
3 42 44 40 
3 48 49 50 
3 48 50 51 
3 52 11 53 
3 52 53 54 
3 397 8 11 
3 397 11 52 
3 396 398 49 
3 396 49 48 
3 398 399 55 
3 398 55 49 
3 399 397 52 
3 399 52 55 
3 50 56 57 
3 50 57 58 
3 53 59 60 
3 53 60 61 
3 55 52 54 
3 55 54 56 
3 11 10 59 
3 11 59 53 
3 49 55 56 
3 49 56 50 
3 10 48 51 
3 10 51 59 
3 58 61 60 
3 58 60 62 
3 57 63 61 
3 57 61 58 
3 59 51 62 
3 59 62 60 
3 54 53 61 
3 54 61 63 
3 51 50 58 
3 51 58 62 
3 56 54 63 
3 56 63 57 
3 64 65 66 
3 64 66 67 
3 68 69 70 
3 68 70 71 
3 72 73 74 
3 72 74 75 
3 76 68 71 
3 76 71 77 
3 78 79 400 
3 78 400 401 
3 80 81 401 
3 82 83 77 
3 82 78 84 
3 82 84 85 
3 86 400 79 
3 86 79 87 
3 85 84 88 
3 85 88 89 
3 89 88 90 
3 89 90 91 
3 67 66 92 
3 67 92 93 
3 67 93 94 
3 66 65 95 
3 66 96 97 
3 67 98 99 
3 99 91 90 
3 99 90 95 
3 100 101 102 
3 100 102 103 
3 94 100 103 
3 94 103 104 
3 95 90 88 
3 95 88 105 
3 97 96 106 
3 97 106 107 
3 99 98 108 
3 99 108 109 
3 99 95 65 
3 99 65 64 
3 110 111 69 
3 110 69 68 
3 104 110 68 
3 104 68 76 
3 105 88 84 
3 105 84 78 
3 107 106 81 
3 107 81 80 
3 109 108 83 
3 109 83 82 
3 111 107 80 
3 111 80 69 
3 108 104 76 
3 108 76 83 
3 101 97 107 
3 101 107 102 
3 98 94 104 
3 98 104 108 
3 66 97 92 
3 67 94 98 
3 73 402 112 
3 73 112 74 
3 69 80 401 
3 69 401 70 
3 83 76 77 
3 89 109 82 
3 89 82 85 
3 106 105 78 
3 106 78 81 
3 91 99 109 
3 91 109 89 
3 96 95 105 
3 96 105 106 
3 67 99 64 
3 66 95 96 
3 82 87 79 
3 82 79 78 
3 109 89 88 
3 109 88 105 
3 87 82 77 
3 87 77 86 
3 81 78 401 
3 93 92 97 
3 93 97 94 
3 103 102 107 
3 103 107 104 
3 80 69 68 
3 80 68 76 
3 97 101 100 
3 97 100 94 
3 107 111 110 
3 107 110 104 
3 112 113 114 
3 112 114 115 
3 116 75 117 
3 116 117 118 
3 403 72 75 
3 403 75 116 
3 402 404 113 
3 402 113 112 
3 404 405 119 
3 404 119 113 
3 405 403 116 
3 405 116 119 
3 114 120 121 
3 114 121 122 
3 117 123 124 
3 117 124 125 
3 119 116 118 
3 119 118 120 
3 75 74 123 
3 75 123 117 
3 113 119 120 
3 113 120 114 
3 74 112 115 
3 74 115 123 
3 122 125 124 
3 122 124 126 
3 121 127 125 
3 121 125 122 
3 123 115 126 
3 123 126 124 
3 406 407 408 
3 406 408 409 
3 115 114 122 
3 115 122 126 
3 120 118 127 
3 120 127 121 
3 128 129 130 
3 128 130 131 
3 132 133 134 
3 132 134 135 
3 136 137 138 
3 136 138 139 
3 140 132 135 
3 140 135 141 
3 142 143 410 
3 142 410 411 
3 144 145 411 
3 146 147 141 
3 146 142 148 
3 146 148 149 
3 150 151 152 
3 150 152 153 
3 154 410 143 
3 154 143 155 
3 149 148 156 
3 149 156 157 
3 153 152 158 
3 153 158 159 
3 131 130 160 
3 131 160 161 
3 131 161 162 
3 130 129 163 
3 130 164 165 
3 131 166 167 
3 167 159 158 
3 167 158 163 
3 168 169 170 
3 168 170 171 
3 162 168 171 
3 162 171 172 
3 163 158 152 
3 163 152 151 
3 165 164 173 
3 165 173 174 
3 167 166 175 
3 167 175 150 
3 167 163 129 
3 167 129 128 
3 176 177 178 
3 176 178 179 
3 172 176 179 
3 172 179 140 
3 151 156 148 
3 151 148 142 
3 174 173 145 
3 174 145 144 
3 150 175 147 
3 150 147 146 
3 177 174 144 
3 177 144 178 
3 175 172 140 
3 175 140 147 
3 169 165 174 
3 169 174 170 
3 166 162 172 
3 166 172 175 
3 130 165 160 
3 131 162 166 
3 137 412 180 
3 137 180 138 
3 133 144 411 
3 133 411 134 
3 147 140 141 
3 157 150 146 
3 157 146 149 
3 173 151 142 
3 173 142 145 
3 159 167 150 
3 159 150 153 
3 164 163 151 
3 164 151 173 
3 131 167 128 
3 130 163 164 
3 146 155 143 
3 146 143 142 
3 150 157 156 
3 150 156 151 
3 155 146 141 
3 155 141 154 
3 145 142 411 
3 161 160 165 
3 161 165 162 
3 171 170 174 
3 171 174 172 
3 179 178 144 
3 179 144 140 
3 144 133 132 
3 144 132 140 
3 165 169 168 
3 165 168 162 
3 174 177 176 
3 174 176 172 
3 180 181 182 
3 180 182 183 
3 184 139 185 
3 184 185 186 
3 413 136 139 
3 413 139 184 
3 412 414 181 
3 412 181 180 
3 414 415 187 
3 414 187 181 
3 415 413 184 
3 415 184 187 
3 182 188 189 
3 182 189 190 
3 185 191 192 
3 185 192 193 
3 187 184 186 
3 187 186 188 
3 139 138 191 
3 139 191 185 
3 181 187 188 
3 181 188 182 
3 138 180 183 
3 138 183 191 
3 190 193 192 
3 190 192 194 
3 189 195 193 
3 189 193 190 
3 191 183 194 
3 191 194 192 
3 186 185 193 
3 186 193 195 
3 183 182 190 
3 183 190 194 
3 188 186 195 
3 188 195 189 
3 196 197 198 
3 196 198 199 
3 200 201 202 
3 200 202 203 
3 204 205 206 
3 204 206 207 
3 208 200 203 
3 208 203 209 
3 210 211 416 
3 210 416 417 
3 212 213 417 
3 214 215 209 
3 214 210 216 
3 214 216 217 
3 218 416 211 
3 218 211 219 
3 217 216 220 
3 217 220 221 
3 221 220 222 
3 221 222 223 
3 199 198 224 
3 199 224 225 
3 199 225 226 
3 198 197 227 
3 198 228 229 
3 199 230 231 
3 231 223 222 
3 231 222 227 
3 232 233 234 
3 232 234 235 
3 226 232 235 
3 226 235 236 
3 227 222 220 
3 227 220 237 
3 229 228 238 
3 229 238 239 
3 231 230 240 
3 231 240 241 
3 231 227 197 
3 231 197 196 
3 242 243 244 
3 242 244 245 
3 236 242 245 
3 236 245 208 
3 237 220 216 
3 237 216 210 
3 239 238 213 
3 239 213 212 
3 241 240 215 
3 241 215 214 
3 243 239 212 
3 243 212 244 
3 240 236 208 
3 240 208 215 
3 233 229 239 
3 233 239 234 
3 230 226 236 
3 230 236 240 
3 198 229 224 
3 199 226 230 
3 205 418 246 
3 205 246 206 
3 201 212 417 
3 201 417 202 
3 215 208 209 
3 221 241 214 
3 221 214 217 
3 238 237 210 
3 238 210 213 
3 223 231 241 
3 223 241 221 
3 228 227 237 
3 228 237 238 
3 199 231 196 
3 198 227 228 
3 214 219 211 
3 214 211 210 
3 241 221 220 
3 241 220 237 
3 219 214 209 
3 219 209 218 
3 213 210 417 
3 225 224 229 
3 225 229 226 
3 235 234 239 
3 235 239 236 
3 245 244 212 
3 245 212 208 
3 212 201 200 
3 212 200 208 
3 229 233 232 
3 229 232 226 
3 239 243 242 
3 239 242 236 
3 246 247 248 
3 246 248 249 
3 250 207 251 
3 250 251 252 
3 419 204 207 
3 419 207 250 
3 418 420 247 
3 418 247 246 
3 420 421 253 
3 420 253 247 
3 421 419 250 
3 421 250 253 
3 248 254 255 
3 248 255 256 
3 251 257 258 
3 251 258 259 
3 253 250 252 
3 253 252 254 
3 207 206 257 
3 207 257 251 
3 247 253 254 
3 247 254 248 
3 206 246 249 
3 206 249 257 
3 256 259 258 
3 256 258 260 
3 255 261 259 
3 255 259 256 
3 257 249 260 
3 257 260 258 
3 252 251 259 
3 252 259 261 
3 249 248 256 
3 249 256 260 
3 422 423 424 
3 422 424 425 
3 262 263 264 
3 262 264 265 
3 266 267 268 
3 266 268 269 
3 270 271 272 
3 270 272 273 
3 274 266 269 
3 274 269 275 
3 276 277 426 
3 276 426 427 
3 278 279 427 
3 280 281 275 
3 280 276 282 
3 280 282 283 
3 284 285 286 
3 284 286 287 
3 288 426 277 
3 288 277 289 
3 283 282 290 
3 283 290 291 
3 287 286 292 
3 287 292 293 
3 265 264 294 
3 265 294 295 
3 265 295 296 
3 264 263 297 
3 264 298 299 
3 265 300 301 
3 301 293 292 
3 301 292 297 
3 302 303 304 
3 302 304 305 
3 296 302 305 
3 296 305 306 
3 297 292 286 
3 297 286 285 
3 299 298 307 
3 299 307 308 
3 301 300 309 
3 301 309 284 
3 301 297 263 
3 301 263 262 
3 310 311 312 
3 310 312 313 
3 306 310 313 
3 306 313 274 
3 285 290 282 
3 285 282 276 
3 308 307 279 
3 308 279 278 
3 284 309 281 
3 284 281 280 
3 311 308 278 
3 311 278 312 
3 309 306 274 
3 309 274 281 
3 303 299 308 
3 303 308 304 
3 300 296 306 
3 300 306 309 
3 264 299 294 
3 265 296 300 
3 271 428 314 
3 271 314 272 
3 267 278 427 
3 267 427 268 
3 281 274 275 
3 291 284 280 
3 291 280 283 
3 307 285 276 
3 307 276 279 
3 293 301 284 
3 293 284 287 
3 298 297 285 
3 298 285 307 
3 265 301 262 
3 264 297 298 
3 280 289 277 
3 280 277 276 
3 284 291 290 
3 284 290 285 
3 289 280 275 
3 289 275 288 
3 279 276 427 
3 295 294 299 
3 295 299 296 
3 305 304 308 
3 305 308 306 
3 313 312 278 
3 313 278 274 
3 278 267 266 
3 278 266 274 
3 299 303 302 
3 299 302 296 
3 308 311 310 
3 308 310 306 
3 314 315 316 
3 314 316 317 
3 318 273 319 
3 318 319 320 
3 429 270 273 
3 429 273 318 
3 428 430 315 
3 428 315 314 
3 430 431 321 
3 430 321 315 
3 431 429 318 
3 431 318 321 
3 316 322 323 
3 316 323 324 
3 319 325 326 
3 319 326 327 
3 321 318 320 
3 321 320 322 
3 273 272 325 
3 273 325 319 
3 315 321 322 
3 315 322 316 
3 272 314 317 
3 272 317 325 
3 324 327 326 
3 324 326 328 
3 323 329 327 
3 323 327 324 
3 432 433 434 
3 432 434 435 
3 320 319 327 
3 320 327 329 
3 317 316 324 
3 317 324 328 
3 322 320 329 
3 322 329 323 
3 330 331 332 
3 330 332 333 
3 334 335 336 
3 334 336 337 
3 338 339 340 
3 338 340 341 
3 342 334 337 
3 342 337 343 
3 344 345 436 
3 344 436 437 
3 346 347 437 
3 348 349 343 
3 348 344 350 
3 348 350 351 
3 352 353 354 
3 352 354 355 
3 356 436 345 
3 356 345 357 
3 351 350 358 
3 351 358 359 
3 355 354 360 
3 355 360 361 
3 333 332 362 
3 333 362 363 
3 333 363 364 
3 332 331 365 
3 332 366 367 
3 333 368 369 
3 369 361 360 
3 369 360 365 
3 363 362 370 
3 363 370 371 
3 364 363 371 
3 364 371 372 
3 365 360 354 
3 365 354 353 
3 367 366 373 
3 367 373 374 
3 369 368 375 
3 369 375 352 
3 369 365 331 
3 369 331 330 
3 376 377 335 
3 376 335 334 
3 372 376 334 
3 372 334 342 
3 353 358 350 
3 353 350 344 
3 374 373 347 
3 374 347 346 
3 352 375 349 
3 352 349 348 
3 377 374 346 
3 377 346 335 
3 375 372 342 
3 375 342 349 
3 362 367 374 
3 362 374 370 
3 368 364 372 
3 368 372 375 
3 332 367 362 
3 333 364 368 
3 339 438 378 
3 339 378 340 
3 335 346 437 
3 335 437 336 
3 349 342 343 
3 359 352 348 
3 359 348 351 
3 373 353 344 
3 373 344 347 
3 361 369 352 
3 361 352 355 
3 366 365 353 
3 366 353 373 
3 333 369 330 
3 332 365 366 
3 348 357 345 
3 348 345 344 
3 352 359 358 
3 352 358 353 
3 357 348 343 
3 357 343 356 
3 347 344 437 
3 371 370 374 
3 371 374 372 
3 346 335 334 
3 346 334 342 
3 367 362 363 
3 367 363 364 
3 374 377 376 
3 374 376 372 
3 378 379 380 
3 378 380 381 
3 382 341 383 
3 382 383 384 
3 439 338 341 
3 439 341 382 
3 438 440 379 
3 438 379 378 
3 440 441 385 
3 440 385 379 
3 441 439 382 
3 441 382 385 
3 380 386 387 
3 380 387 388 
3 383 389 390 
3 383 390 391 
3 385 382 384 
3 385 384 386 
3 341 340 389 
3 341 389 383 
3 379 385 386 
3 379 386 380 
3 340 378 381 
3 340 381 389 
3 388 391 390 
3 388 390 392 
3 387 393 391 
3 387 391 388 
3 389 381 392 
3 389 392 390 
3 384 383 391 
3 384 391 393 
3 381 380 388 
3 381 388 392 
3 386 384 393 
3 386 393 387 
