ply
format ascii 1.0
comment VCGLIB generated
comment TextureFile dummy.png
element vertex 149
property float x
property float y
property float z
property float nx
property float ny
property float nz
property float texture_u
property float texture_v
element face 82
property list uchar int vertex_indices
end_header
0.0005724132 0.002401501 0.01304483 0.1298341 -0.6241353 0.7704533 0.2245679 0.8495101
-0.01968488 0.1102776 0.03061199 0.162341 -0.2382016 0.9575518 0.2440455 0.8495101
-0.03000459 0.1102776 0.0216589 -0.9696639 -0.2425965 -0.02998299 0.2440455 0.8689878
-0.01388159 0.002401501 0.0005049706 -0.7762272 -0.6302722 -0.01511155 0.2245679 0.8689878
-0.02146488 0.1143821 0.01181579 -0.07583984 0.3550145 -0.9317795 0.2440455 0.8689878
-0.001341492 0.002401501 -0.01395011 0.003104436 -0.4924556 -0.8703321 0.2245679 0.8689878
-0.01114509 0.1143821 0.02076888 0.9309045 0.3605886 -0.05824708 0.2440455 0.8689878
0.01311262 0.002401501 -0.001409054 0.8642233 -0.4883251 -0.1210654 0.2245679 0.8689878
-0.05511177 0.1731605 0.05560589 -0.8755914 -0.4509257 -0.1732216 0.2440455 0.8689878
-0.05230969 0.1788264 0.05237579 -0.2210161 0.6435279 -0.7328191 0.2245679 0.8689878
-0.04694799 0.1788264 0.05702782 0.7558655 0.6444632 0.1154758 0.2245679 0.8495101
-0.08516869 0.1955532 0.09566593 -0.6131586 0.3528811 0.7067612 0.2440455 0.8689878
-0.04975018 0.1731605 0.06025791 0.2933582 -0.4501664 0.8433808 0.2440455 0.8689878
0.02742712 0.002401501 -0.01316404 0.5930671 -0.5468849 0.5909216 0.2245679 0.8495101
0.02422021 0.0700304 -0.01782203 0.6848551 0.1635563 0.7100865 0.2440455 0.8495101
0.008158922 0.0700304 -0.01768422 -0.6724243 0.1630426 0.7219853 0.2440455 0.8689878
0.005032226 0.002401501 -0.01297212 -0.5828524 -0.5468849 0.6009991 0.2245679 0.8689878
0.008050025 0.0700304 -0.03038406 -0.7412409 -0.03858151 -0.6701295 0.2440455 0.8689878
0.004880518 0.002401501 -0.03068113 -0.5965735 -0.5636489 -0.5713143 0.2245679 0.8689878
0.02411132 0.0700304 -0.03052211 0.7299004 -0.03764896 -0.682516 0.2440455 0.8689878
0.02727541 0.002401501 -0.03087211 0.5866949 -0.5636485 -0.5814546 0.2245679 0.8689878
0.01084712 0.1269883 -0.04370713 -0.735574 -0.193127 -0.6493327 0.2440455 0.8689878
0.02108642 0.1269883 -0.04379511 0.7249154 -0.1934525 -0.6611156 0.2245679 0.8689878
0.02115183 0.1296757 -0.03615713 0.6876809 0.3118237 0.6556379 0.2245679 0.8495101
0.01908702 0.1685289 -0.06354904 0.7474586 -0.3506588 -0.5642198 0.2440455 0.8689878
0.01912051 0.1719584 -0.05963612 0.6701348 0.5165007 0.533054 0.2245679 0.8689878
0.01091252 0.1296757 -0.03606915 -0.675736 0.3124856 0.6676329 0.2245679 0.8689878
0.01250772 0.1685289 -0.06349206 -0.7566648 -0.3500318 -0.5522103 0.2440455 0.8495101
0.01552191 0.1985474 -0.09566617 -0.006569709 0.6392043 -0.7690089 0.2440455 0.8689878
0.01254122 0.1719584 -0.05958009 -0.660592 0.5171379 0.5442303 0.2440455 0.8689878
0.01028621 0.002119899 -1.215935e-05 -0.8230751 -0.5555186 0.1180953 0.2245679 0.8495101
0.01597992 0.069596 0.004483938 -0.9728565 0.1528765 0.1737211 0.2440455 0.8495101
0.02495103 0.07047849 -0.008810043 -0.2149714 0.2269596 -0.9498824 0.2440455 0.8689878
0.02279492 0.003350496 -0.01854801 -0.1662588 -0.4909013 -0.855204 0.2245679 0.8689878
0.03548612 0.0699999 -0.001732111 0.9718714 -0.02357534 -0.2343295 0.2440455 0.8689878
0.03748442 0.002683096 -0.008679152 0.8082563 -0.5516095 -0.2060311 0.2245679 0.8689878
0.02651502 0.0691173 0.01156092 0.1499895 -0.1034787 0.9832575 0.2440455 0.8689878
0.02497572 0.001452498 0.009856939 0.1473361 -0.6166302 0.7733429 0.2245679 0.8689878
0.04492322 0.1261701 0.01188183 0.9514264 -0.1772922 -0.2517049 0.2440455 0.8689878
0.03920412 0.1256074 0.02035689 0.1350664 -0.2578452 0.956699 0.2245679 0.8689878
0.03287011 0.1285767 0.01627994 -0.929469 0.298583 0.2166463 0.2245679 0.8495101
0.05664922 0.1664112 0.03262782 0.04230858 -0.4122299 0.910097 0.2440455 0.8689878
0.05340593 0.1699806 0.03067589 -0.8183378 0.4990845 0.2850227 0.2245679 0.8689878
0.03858931 0.1291394 0.007804871 -0.1681898 0.3741776 -0.9119777 0.2245679 0.8689878
0.06032412 0.1667728 0.02718186 0.8831747 -0.3289977 -0.3343096 0.2440455 0.8495101
0.08516872 0.1953323 0.04981899 0.638275 0.6088117 0.4711193 0.2440455 0.8689878
0.05708082 0.1703421 0.02523088 -0.07487479 0.5728397 -0.8162405 0.2440455 0.8689878
-0.01388159 0.002401501 0.0005049706 -0.7762272 -0.6302722 -0.01511155 0.2245679 0.8495101
-0.03000459 0.1102776 0.0216589 -0.9696639 -0.2425965 -0.02998299 0.2440455 0.8495101
-0.001341492 0.002401501 -0.01395011 0.003104436 -0.4924556 -0.8703321 0.2245679 0.8495101
-0.02146488 0.1143821 0.01181579 -0.07583984 0.3550145 -0.9317795 0.2440455 0.8495101
0.01311262 0.002401501 -0.001409054 0.8642233 -0.4883251 -0.1210654 0.2245679 0.8495101
-0.01114509 0.1143821 0.02076888 0.9309045 0.3605886 -0.05824708 0.2440455 0.8495101
-0.01968488 0.1102776 0.03061199 0.162341 -0.2382016 0.9575518 0.2440455 0.8689878
0.0005724132 0.002401501 0.01304483 0.1298341 -0.6241353 0.7704533 0.2245679 0.8689878
-0.001341492 0.002401501 -0.01395011 0.003104436 -0.4924556 -0.8703321 0.2440455 0.8495101
0.01311262 0.002401501 -0.001409054 0.8642233 -0.4883251 -0.1210654 0.2440455 0.8689878
-0.02146488 0.1143821 0.01181579 -0.07583984 0.3550145 -0.9317795 0.2245679 0.8495101
-0.05230969 0.1788264 0.05237579 -0.2210161 0.6435279 -0.7328191 0.2440455 0.8495101
-0.01114509 0.1143821 0.02076888 0.9309045 0.3605886 -0.05824708 0.2245679 0.8495101
-0.05230969 0.1788264 0.05237579 -0.2210161 0.6435279 -0.7328191 0.2440455 0.8689878
-0.04694799 0.1788264 0.05702782 0.7558655 0.6444632 0.1154758 0.2245679 0.8689878
-0.03000459 0.1102776 0.0216589 -0.9696639 -0.2425965 -0.02998299 0.2245679 0.8495101
-0.05511177 0.1731605 0.05560589 -0.8755914 -0.4509257 -0.1732216 0.2245679 0.8689878
-0.01968488 0.1102776 0.03061199 0.162341 -0.2382016 0.9575518 0.2245679 0.8495101
-0.04694799 0.1788264 0.05702782 0.7558655 0.6444632 0.1154758 0.2440455 0.8689878
-0.04975018 0.1731605 0.06025791 0.2933582 -0.4501664 0.8433808 0.2245679 0.8689878
-0.05511177 0.1731605 0.05560589 -0.8755914 -0.4509257 -0.1732216 0.2245679 0.8495101
-0.04975018 0.1731605 0.06025791 0.2933582 -0.4501664 0.8433808 0.2440455 0.8495101
-0.04975018 0.1731605 0.06025791 0.2933582 -0.4501664 0.8433808 0.2245679 0.8495101
-0.04694799 0.1788264 0.05702782 0.7558655 0.6444632 0.1154758 0.2440455 0.8495101
-0.05230969 0.1788264 0.05237579 -0.2210161 0.6435279 -0.7328191 0.2245679 0.8495101
-0.05511177 0.1731605 0.05560589 -0.8755914 -0.4509257 -0.1732216 0.2440455 0.8495101
0.005032226 0.002401501 -0.01297212 -0.5828524 -0.5468849 0.6009991 0.2245679 0.8495101
0.008158922 0.0700304 -0.01768422 -0.6724243 0.1630426 0.7219853 0.2440455 0.8495101
0.004880518 0.002401501 -0.03068113 -0.5965735 -0.5636489 -0.5713143 0.2245679 0.8495101
0.008050025 0.0700304 -0.03038406 -0.7412409 -0.03858151 -0.6701295 0.2440455 0.8495101
0.02727541 0.002401501 -0.03087211 0.5866949 -0.5636485 -0.5814546 0.2245679 0.8495101
0.02411132 0.0700304 -0.03052211 0.7299004 -0.03764896 -0.682516 0.2440455 0.8495101
0.02422021 0.0700304 -0.01782203 0.6848551 0.1635563 0.7100865 0.2440455 0.8689878
0.02742712 0.002401501 -0.01316404 0.5930671 -0.5468849 0.5909216 0.2245679 0.8689878
0.004880518 0.002401501 -0.03068113 -0.5965735 -0.5636489 -0.5713143 0.2440455 0.8495101
0.02727541 0.002401501 -0.03087211 0.5866949 -0.5636485 -0.5814546 0.2440455 0.8689878
0.02411132 0.0700304 -0.03052211 0.7299004 -0.03764896 -0.682516 0.2245679 0.8495101
0.02108642 0.1269883 -0.04379511 0.7249154 -0.1934525 -0.6611156 0.2440455 0.8495101
0.008158922 0.0700304 -0.01768422 -0.6724243 0.1630426 0.7219853 0.2245679 0.8495101
0.02115183 0.1296757 -0.03615713 0.6876809 0.3118237 0.6556379 0.2440455 0.8689878
0.02422021 0.0700304 -0.01782203 0.6848551 0.1635563 0.7100865 0.2245679 0.8495101
0.02108642 0.1269883 -0.04379511 0.7249154 -0.1934525 -0.6611156 0.2440455 0.8689878
0.02115183 0.1296757 -0.03615713 0.6876809 0.3118237 0.6556379 0.2245679 0.8689878
0.008050025 0.0700304 -0.03038406 -0.7412409 -0.03858151 -0.6701295 0.2245679 0.8495101
0.01091252 0.1296757 -0.03606915 -0.675736 0.3124856 0.6676329 0.2440455 0.8689878
0.01084712 0.1269883 -0.04370713 -0.735574 -0.193127 -0.6493327 0.2245679 0.8689878
0.01908702 0.1685289 -0.06354904 0.7474586 -0.3506588 -0.5642198 0.2245679 0.8495101
0.01084712 0.1269883 -0.04370713 -0.735574 -0.193127 -0.6493327 0.2245679 0.8495101
0.01091252 0.1296757 -0.03606915 -0.675736 0.3124856 0.6676329 0.2440455 0.8495101
0.01250772 0.1685289 -0.06349206 -0.7566648 -0.3500318 -0.5522103 0.2245679 0.8689878
0.02108642 0.1269883 -0.04379511 0.7249154 -0.1934525 -0.6611156 0.2245679 0.8495101
0.01084712 0.1269883 -0.04370713 -0.735574 -0.193127 -0.6493327 0.2440455 0.8495101
0.01250772 0.1685289 -0.06349206 -0.7566648 -0.3500318 -0.5522103 0.2440455 0.8689878
0.01908702 0.1685289 -0.06354904 0.7474586 -0.3506588 -0.5642198 0.2245679 0.8689878
0.01091252 0.1296757 -0.03606915 -0.675736 0.3124856 0.6676329 0.2245679 0.8495101
0.02115183 0.1296757 -0.03615713 0.6876809 0.3118237 0.6556379 0.2440455 0.8495101
0.01912051 0.1719584 -0.05963612 0.6701348 0.5165007 0.533054 0.2440455 0.8689878
0.01254122 0.1719584 -0.05958009 -0.660592 0.5171379 0.5442303 0.2245679 0.8689878
0.01254122 0.1719584 -0.05958009 -0.660592 0.5171379 0.5442303 0.2245679 0.8495101
0.01912051 0.1719584 -0.05963612 0.6701348 0.5165007 0.533054 0.2440455 0.8495101
0.01912051 0.1719584 -0.05963612 0.6701348 0.5165007 0.533054 0.2245679 0.8495101
0.01908702 0.1685289 -0.06354904 0.7474586 -0.3506588 -0.5642198 0.2440455 0.8495101
0.01250772 0.1685289 -0.06349206 -0.7566648 -0.3500318 -0.5522103 0.2245679 0.8495101
0.01254122 0.1719584 -0.05958009 -0.660592 0.5171379 0.5442303 0.2440455 0.8495101
0.02279492 0.003350496 -0.01854801 -0.1662588 -0.4909013 -0.855204 0.2245679 0.8495101
0.02495103 0.07047849 -0.008810043 -0.2149714 0.2269596 -0.9498824 0.2440455 0.8495101
0.03748442 0.002683096 -0.008679152 0.8082563 -0.5516095 -0.2060311 0.2245679 0.8495101
0.03548612 0.0699999 -0.001732111 0.9718714 -0.02357534 -0.2343295 0.2440455 0.8495101
0.02497572 0.001452498 0.009856939 0.1473361 -0.6166302 0.7733429 0.2245679 0.8495101
0.02651502 0.0691173 0.01156092 0.1499895 -0.1034787 0.9832575 0.2440455 0.8495101
0.01597992 0.069596 0.004483938 -0.9728565 0.1528765 0.1737211 0.2440455 0.8689878
0.01028621 0.002119899 -1.215935e-05 -0.8230751 -0.5555186 0.1180953 0.2245679 0.8689878
0.03748442 0.002683096 -0.008679152 0.8082563 -0.5516095 -0.2060311 0.2440455 0.8495101
0.02497572 0.001452498 0.009856939 0.1473361 -0.6166302 0.7733429 0.2440455 0.8689878
0.02651502 0.0691173 0.01156092 0.1499895 -0.1034787 0.9832575 0.2245679 0.8495101
0.03920412 0.1256074 0.02035689 0.1350664 -0.2578452 0.956699 0.2440455 0.8495101
0.02495103 0.07047849 -0.008810043 -0.2149714 0.2269596 -0.9498824 0.2245679 0.8495101
0.03287011 0.1285767 0.01627994 -0.929469 0.298583 0.2166463 0.2440455 0.8689878
0.01597992 0.069596 0.004483938 -0.9728565 0.1528765 0.1737211 0.2245679 0.8495101
0.03920412 0.1256074 0.02035689 0.1350664 -0.2578452 0.956699 0.2440455 0.8689878
0.03287011 0.1285767 0.01627994 -0.929469 0.298583 0.2166463 0.2245679 0.8689878
0.03548612 0.0699999 -0.001732111 0.9718714 -0.02357534 -0.2343295 0.2245679 0.8495101
0.03858931 0.1291394 0.007804871 -0.1681898 0.3741776 -0.9119777 0.2440455 0.8689878
0.04492322 0.1261701 0.01188183 0.9514264 -0.1772922 -0.2517049 0.2245679 0.8689878
0.05664922 0.1664112 0.03262782 0.04230858 -0.4122299 0.910097 0.2245679 0.8495101
0.04492322 0.1261701 0.01188183 0.9514264 -0.1772922 -0.2517049 0.2245679 0.8495101
0.03858931 0.1291394 0.007804871 -0.1681898 0.3741776 -0.9119777 0.2440455 0.8495101
0.06032412 0.1667728 0.02718186 0.8831747 -0.3289977 -0.3343096 0.2245679 0.8689878
0.03920412 0.1256074 0.02035689 0.1350664 -0.2578452 0.956699 0.2245679 0.8495101
0.04492322 0.1261701 0.01188183 0.9514264 -0.1772922 -0.2517049 0.2440455 0.8495101
0.06032412 0.1667728 0.02718186 0.8831747 -0.3289977 -0.3343096 0.2440455 0.8689878
0.05664922 0.1664112 0.03262782 0.04230858 -0.4122299 0.910097 0.2245679 0.8689878
0.03858931 0.1291394 0.007804871 -0.1681898 0.3741776 -0.9119777 0.2245679 0.8495101
0.03287011 0.1285767 0.01627994 -0.929469 0.298583 0.2166463 0.2440455 0.8495101
0.05340593 0.1699806 0.03067589 -0.8183378 0.4990845 0.2850227 0.2440455 0.8689878
0.05708082 0.1703421 0.02523088 -0.07487479 0.5728397 -0.8162405 0.2245679 0.8689878
0.05708082 0.1703421 0.02523088 -0.07487479 0.5728397 -0.8162405 0.2245679 0.8495101
0.05340593 0.1699806 0.03067589 -0.8183378 0.4990845 0.2850227 0.2440455 0.8495101
0.05340593 0.1699806 0.03067589 -0.8183378 0.4990845 0.2850227 0.2245679 0.8495101
0.05664922 0.1664112 0.03262782 0.04230858 -0.4122299 0.910097 0.2440455 0.8495101
0.06032412 0.1667728 0.02718186 0.8831747 -0.3289977 -0.3343096 0.2245679 0.8495101
0.05708082 0.1703421 0.02523088 -0.07487479 0.5728397 -0.8162405 0.2440455 0.8495101
3 0 1 2 
3 0 2 3 
3 47 48 4 
3 47 4 5 
3 49 50 6 
3 49 6 7 
3 51 52 53 
3 51 53 54 
3 47 55 56 
3 47 56 54 
3 57 48 8 
3 57 8 9 
3 10 58 11 
3 59 50 60 
3 59 60 61 
3 62 1 12 
3 62 12 63 
3 64 52 65 
3 64 65 66 
3 67 68 11 
3 69 70 11 
3 71 72 11 
3 13 14 15 
3 13 15 16 
3 73 74 17 
3 73 17 18 
3 75 76 19 
3 75 19 20 
3 77 78 79 
3 77 79 80 
3 73 81 82 
3 73 82 80 
3 83 76 21 
3 83 21 22 
3 23 84 24 
3 23 24 25 
3 85 14 86 
3 85 86 26 
3 87 78 88 
3 87 88 89 
3 90 74 91 
3 90 91 92 
3 93 27 28 
3 94 95 29 
3 94 29 96 
3 97 98 99 
3 97 99 100 
3 101 102 103 
3 101 103 104 
3 105 106 28 
3 107 108 28 
3 109 110 28 
3 30 31 32 
3 30 32 33 
3 111 112 34 
3 111 34 35 
3 113 114 36 
3 113 36 37 
3 115 116 117 
3 115 117 118 
3 111 119 120 
3 111 120 118 
3 121 114 38 
3 121 38 39 
3 40 122 41 
3 40 41 42 
3 123 31 124 
3 123 124 43 
3 125 116 126 
3 125 126 127 
3 128 112 129 
3 128 129 130 
3 131 44 45 
3 132 133 46 
3 132 46 134 
3 135 136 137 
3 135 137 138 
3 139 140 141 
3 139 141 142 
3 143 144 45 
3 145 146 45 
3 147 148 45 
