ply
format ascii 1.0
comment VCGLIB generated
comment TextureFile dummy.png
element vertex 178
property float x
property float y
property float z
property float nx
property float ny
property float nz
property float texture_u
property float texture_v
element face 126
property list uchar int vertex_indices
end_header
0.2204316 0.1461715 -0.01343107 0.9966561 0.07065799 -0.041038 0.06750789 0.9420195
0.1615856 -0.00657551 0.1793039 0.5924105 -0.6075078 0.5291351 0.08483592 0.9420195
0.2447546 -0.00657551 -0.01468205 0.8249406 -0.5649598 -0.017132 0.08483592 0.9593475
-0.02729738 0.1461715 0.2611599 0.06268699 0.06947996 0.9956118 0.08483592 0.9420195
-0.0260464 -0.00657551 0.2854829 0.07043912 -0.5643997 0.8224909 0.08483592 0.9593475
-0.2322145 -0.00657551 0.212249 -0.5499943 -0.5700458 0.6103721 0.08483592 0.9420195
-0.3018883 0.1461715 0.01343107 -0.9943022 0.09030364 0.05664355 0.08483592 0.9420195
-0.3296725 -0.00657551 0.008935928 -0.826399 -0.5621655 0.03216592 0.08483592 0.9593475
-0.2348934 0.1461715 -0.1751709 -0.7372293 0.0842448 -0.6703699 0.08483592 0.9420195
-0.2529774 -0.00657551 -0.1914859 -0.6025497 -0.5720721 -0.5564777 0.08483592 0.9593475
-0.05541039 -0.00657551 -0.2854829 -0.04219687 -0.5700718 -0.8205106 0.08483592 0.9420195
-0.02729738 0.544105 0.2611599 0.03987484 0.6302625 0.7753575 0.06750789 0.9420195
-0.2158993 0.544105 0.194165 -0.5200648 0.6302624 0.5764564 0.08483592 0.9420195
-0.2158993 0.1461716 0.194165 -0.6676807 0.08053568 0.7400787 0.08483592 0.9593475
-0.0541594 0.1461716 -0.2611599 -0.05119291 0.08053549 -0.9954363 0.06750789 0.9420195
0.1507566 -0.00657551 -0.212249 0.5503508 -0.5700716 -0.6100265 0.08483592 0.9420195
0.1344426 0.1461716 -0.194165 0.6676807 0.08053548 -0.7400788 0.06750789 0.9420195
-0.1891094 0.544105 0.16447 0.398148 0.8041862 -0.4413195 0.06750789 0.9420195
-0.2619483 0.5269065 0.0113771 0.7589826 0.6500589 -0.03699811 0.08483592 0.9420195
-0.2619483 0.544105 0.0113771 0.5935927 0.8041865 -0.03052745 0.08483592 0.9593475
-0.2348934 0.544105 -0.1751709 -0.7982354 0.3821557 -0.4655934 0.06750789 0.9420195
-0.0541594 0.544105 -0.2611599 -0.05132414 0.03720068 -0.9979889 0.08483592 0.9420195
0.1344426 0.544105 -0.194165 0.7462618 0.3821556 -0.5450234 0.08483592 0.9420195
0.2204316 0.544105 -0.01343107 0.7753575 0.6302624 -0.03987477 0.08483592 0.9420195
0.2204316 0.4157492 -0.01343107 0.8850546 0.2106814 -0.4150805 0.08483592 0.9593475
0.1534367 0.544105 0.1751709 0.5764562 0.6302624 0.5200649 0.08483592 0.9420195
0.1534367 0.4157492 0.1751709 0.4138736 0.2174442 0.8839834 0.08483592 0.9593475
0.1237416 0.544105 0.148381 -0.4413196 0.8041863 -0.3981475 0.06750789 0.9420195
0.1804906 0.544105 -0.0113771 -0.5935929 0.8041863 0.03052706 0.08483592 0.9593475
-0.02935135 0.544105 0.22122 -0.0305269 0.8041868 -0.5935922 0.06750789 0.9420195
-0.3018883 0.544105 0.01343107 -0.7753575 0.6302624 0.03987475 0.08483592 0.9593475
-0.05210435 0.5269056 -0.2212329 0.03763622 0.6506636 0.7584329 0.06750789 0.9420195
0.04641056 0.7279442 -0.185957 0.2186338 0.4382458 0.87186 0.08483592 0.9420195
-0.05209136 0.8065756 -0.220947 0.02598927 0.8625238 0.5053487 0.08483592 0.9593475
0.06292856 0.7279442 -0.2042661 0.8170137 0.5311897 -0.2243348 0.08483592 0.9420195
0.1076525 0.544105 -0.1644709 -0.2230895 0.4799677 0.8484468 0.08483592 0.9593475
-0.1464844 0.7279442 -0.1760371 -0.1280445 0.4382474 0.8896875 0.06750789 0.9420195
-0.05335736 0.8065756 -0.245573 -0.03287745 0.7682603 -0.6392928 0.08483592 0.9420195
-0.1647934 0.7279442 -0.192554 -0.8357167 0.5311894 -0.1393396 0.08483592 0.9593475
-0.2051994 0.544105 -0.148381 0.3089454 0.4799686 0.8210864 0.06750789 0.9420195
0.03998363 0.5366285 -0.004151106 0.04335547 0.9990595 -0.0006692578 0.06750789 0.9420195
-0.02008843 0.5368401 -0.07861996 0.008429692 0.9991384 -0.04063982 0.08483592 0.9420195
-0.1164364 0.5367678 -0.0268929 -0.04043346 0.9991171 -0.01141317 0.08483592 0.9593475
-0.02935135 0.5269065 0.22122 -0.03839025 0.6522724 -0.7570119 0.08483592 0.9420195
0.1076525 0.5269065 -0.1644709 -0.5076819 0.6514819 0.5637645 0.08483592 0.9420195
-0.2051994 0.5269065 -0.148381 0.5645621 0.6508319 0.5076293 0.08483592 0.9420195
-0.1891094 0.5269065 0.16447 0.5075162 0.6498861 -0.565752 0.08483592 0.9420195
0.1237416 0.5269065 0.148381 -0.5636889 0.6506645 -0.508813 0.08483592 0.9420195
0.1804906 0.5269065 -0.0113771 -0.7578359 0.6512802 0.03897373 0.08483592 0.9420195
-0.04609334 0.5374566 0.07631111 -0.004538639 0.9992777 0.03773069 0.128543 0.9420195
0.1534367 0.2873934 0.1751709 0.5924258 -0.1878786 0.7834114 0.08483592 0.9420195
0.1534367 0.1461715 0.1751709 0.7408673 0.02900521 0.6710249 0.08483592 0.9593475
0.2204316 0.2873934 -0.01343107 0.9552931 -0.1833939 -0.2319091 0.08483592 0.9420195
0.3296726 0.4536199 0.07094502 0.680094 0.6859636 -0.2587008 0.08483592 0.9420195
0.2941716 0.3903847 0.170886 0.949257 0.3081506 -0.06288427 0.06750789 0.9420195
0.2761925 0.4348572 0.164499 0.8039719 -0.4849999 -0.3440991 0.08483592 0.9420195
0.2941716 0.4402912 0.170886 0.957402 -0.2739901 0.09116381 0.08483592 0.9593475
0.3296726 0.3770561 0.07094502 0.909192 -0.3654833 -0.199479 0.08483592 0.9420195
0.2897096 0.3770561 0.183445 0.5661095 -0.3652036 0.7390172 0.08483592 0.9420195
0.2897096 0.4536199 0.183445 0.3553328 0.6829917 0.63817 0.08483592 0.9593475
0.3252106 0.3903847 0.08350492 0.6968733 0.308149 0.6476202 0.06750789 0.9420195
0.3252106 0.4402912 0.08350492 0.8003719 -0.2739888 0.5332307 0.08483592 0.9593475
0.3072315 0.3849506 0.07711792 0.2799613 0.6589683 0.6981279 0.128543 0.9420195
0.2761925 0.3849506 0.164499 0.6576312 0.6589679 -0.3650788 0.1458711 0.9593475
0.3072315 0.4348572 0.07711792 0.4067445 -0.4850001 0.7741665 0.08483592 0.9420195
0.1615856 -0.00657551 0.1793039 0.5924105 -0.6075078 0.5291351 0.06750789 0.9420195
-0.02729738 0.1461715 0.2611599 0.06268699 0.06947996 0.9956118 0.06750789 0.9420195
-0.2322145 -0.00657551 0.212249 -0.5499943 -0.5700458 0.6103721 0.06750789 0.9420195
-0.3296725 -0.00657551 0.008935928 -0.826399 -0.5621655 0.03216592 0.06750789 0.9420195
-0.2348934 0.1461715 -0.1751709 -0.7372293 0.0842448 -0.6703699 0.06750789 0.9420195
-0.05541039 -0.00657551 -0.2854829 -0.04219687 -0.5700718 -0.8205106 0.08483592 0.9593475
0.2447546 -0.00657551 -0.01468205 0.8249406 -0.5649598 -0.017132 0.08483592 0.9420195
0.1507566 -0.00657551 -0.212249 0.5503508 -0.5700716 -0.6100265 0.08483592 0.9593475
-0.05541039 -0.00657551 -0.2854829 -0.04219687 -0.5700718 -0.8205106 0.06750789 0.9420195
0.1615856 -0.00657551 0.1793039 0.5924105 -0.6075078 0.5291351 0.08483592 0.9593475
-0.0541594 0.1461716 -0.2611599 -0.05119291 0.08053549 -0.9954363 0.08483592 0.9593475
0.1344426 0.1461716 -0.194165 0.6676807 0.08053548 -0.7400788 0.08483592 0.9593475
0.2204316 0.4157492 -0.01343107 0.8850546 0.2106814 -0.4150805 0.06750789 0.9420195
0.1237416 0.544105 0.148381 -0.4413196 0.8041863 -0.3981475 0.08483592 0.9593475
-0.02729738 0.544105 0.2611599 0.03987484 0.6302625 0.7753575 0.08483592 0.9420195
-0.02935135 0.544105 0.22122 -0.0305269 0.8041868 -0.5935922 0.08483592 0.9593475
-0.2619483 0.544105 0.0113771 0.5935927 0.8041865 -0.03052745 0.06750789 0.9420195
-0.1891094 0.544105 0.16447 0.398148 0.8041862 -0.4413195 0.08483592 0.9593475
-0.2348934 0.544105 -0.1751709 -0.7982354 0.3821557 -0.4655934 0.08483592 0.9420195
-0.0541594 0.544105 -0.2611599 -0.05132414 0.03720068 -0.9979889 0.06750789 0.9420195
0.1344426 0.544105 -0.194165 0.7462618 0.3821556 -0.5450234 0.08483592 0.9593475
0.1804906 0.544105 -0.0113771 -0.5935929 0.8041863 0.03052706 0.06750789 0.9420195
0.04641056 0.7279442 -0.185957 0.2186338 0.4382458 0.87186 0.06750789 0.9420195
0.1076525 0.544105 -0.1644709 -0.2230895 0.4799677 0.8484468 0.06750789 0.9420195
0.04641056 0.7279442 -0.185957 0.2186338 0.4382458 0.87186 0.08483592 0.9593475
-0.1647934 0.7279442 -0.192554 -0.8357167 0.5311894 -0.1393396 0.08483592 0.9420195
-0.2348934 0.544105 -0.1751709 -0.7982354 0.3821557 -0.4655934 0.08483592 0.9593475
-0.05335736 0.8065756 -0.245573 -0.03287745 0.7682603 -0.6392928 0.08483592 0.9593475
-0.1464844 0.7279442 -0.1760371 -0.1280445 0.4382474 0.8896875 0.08483592 0.9420195
-0.2051994 0.544105 -0.148381 0.3089454 0.4799686 0.8210864 0.08483592 0.9593475
0.03998363 0.5366285 -0.004151106 0.04335547 0.9990595 -0.0006692578 0.128543 0.9420195
0.1237416 0.5269065 0.148381 -0.5636889 0.6506645 -0.508813 0.1458711 0.9420195
0.1804906 0.5269065 -0.0113771 -0.7578359 0.6512802 0.03897373 0.1458711 0.9593475
-0.2619483 0.5269065 0.0113771 0.7589826 0.6500589 -0.03699811 0.1458711 0.9420195
-0.1891094 0.5269065 0.16447 0.5075162 0.6498861 -0.565752 0.1458711 0.9593475
-0.02008843 0.5368401 -0.07861996 0.008429692 0.9991384 -0.04063982 0.128543 0.9420195
-0.2051994 0.5269065 -0.148381 0.5645621 0.6508319 0.5076293 0.1458711 0.9420195
-0.1164364 0.5367678 -0.0268929 -0.04043346 0.9991171 -0.01141317 0.1458711 0.9593475
0.1076525 0.5269065 -0.1644709 -0.5076819 0.6514819 0.5637645 0.1458711 0.9420195
-0.02008843 0.5368401 -0.07861996 0.008429692 0.9991384 -0.04063982 0.1458711 0.9593475
0.2204316 0.1461715 -0.01343107 0.9966561 0.07065799 -0.041038 0.08483592 0.9593475
-0.3018883 0.544105 0.01343107 -0.7753575 0.6302624 0.03987475 0.08483592 0.9420195
0.1534367 0.1461715 0.1751709 0.7408673 0.02900521 0.6710249 0.06750789 0.9420195
-0.02729738 0.1461715 0.2611599 0.06268699 0.06947996 0.9956118 0.08483592 0.9593475
-0.3018883 0.1461715 0.01343107 -0.9943022 0.09030364 0.05664355 0.06750789 0.9420195
-0.2158993 0.1461716 0.194165 -0.6676807 0.08053568 0.7400787 0.08483592 0.9420195
0.1534367 0.4157492 0.1751709 0.4138736 0.2174442 0.8839834 0.06750789 0.9420195
0.2204316 0.4157492 -0.01343107 0.8850546 0.2106814 -0.4150805 0.08483592 0.9420195
0.2204316 0.2873934 -0.01343107 0.9552931 -0.1833939 -0.2319091 0.08483592 0.9593475
0.1534367 0.2873934 0.1751709 0.5924258 -0.1878786 0.7834114 0.06750789 0.9420195
0.2897096 0.3770561 0.183445 0.5661095 -0.3652036 0.7390172 0.08483592 0.9593475
0.3252106 0.3903847 0.08350492 0.6968733 0.308149 0.6476202 0.08483592 0.9593475
0.2941716 0.4402912 0.170886 0.957402 -0.2739901 0.09116381 0.06750789 0.9420195
0.2941716 0.3903847 0.170886 0.949257 0.3081506 -0.06288427 0.08483592 0.9593475
0.2761925 0.4348572 0.164499 0.8039719 -0.4849999 -0.3440991 0.1458711 0.9420195
0.3072315 0.3849506 0.07711792 0.2799613 0.6589683 0.6981279 0.08483592 0.9593475
0.2761925 0.3849506 0.164499 0.6576312 0.6589679 -0.3650788 0.08483592 0.9420195
0.1534367 0.1461715 0.1751709 0.7408673 0.02900521 0.6710249 0.08483592 0.9420195
-0.2322145 -0.00657551 0.212249 -0.5499943 -0.5700458 0.6103721 0.08483592 0.9593475
-0.3018883 0.1461715 0.01343107 -0.9943022 0.09030364 0.05664355 0.08483592 0.9593475
-0.2348934 0.1461715 -0.1751709 -0.7372293 0.0842448 -0.6703699 0.08483592 0.9593475
-0.0541594 0.1461716 -0.2611599 -0.05119291 0.08053549 -0.9954363 0.08483592 0.9420195
0.1344426 0.1461716 -0.194165 0.6676807 0.08053548 -0.7400788 0.08483592 0.9420195
0.2204316 0.1461715 -0.01343107 0.9966561 0.07065799 -0.041038 0.08483592 0.9420195
0.1507566 -0.00657551 -0.212249 0.5503508 -0.5700716 -0.6100265 0.06750789 0.9420195
-0.0260464 -0.00657551 0.2854829 0.07043912 -0.5643997 0.8224909 0.08483592 0.9420195
-0.3296725 -0.00657551 0.008935928 -0.826399 -0.5621655 0.03216592 0.08483592 0.9420195
-0.2529774 -0.00657551 -0.1914859 -0.6025497 -0.5720721 -0.5564777 0.08483592 0.9420195
-0.2529774 -0.00657551 -0.1914859 -0.6025497 -0.5720721 -0.5564777 0.06750789 0.9420195
-0.2619483 0.5269065 0.0113771 0.7589826 0.6500589 -0.03699811 0.08483592 0.9593475
-0.2158993 0.1461716 0.194165 -0.6676807 0.08053568 0.7400787 0.06750789 0.9420195
-0.02729738 0.544105 0.2611599 0.03987484 0.6302625 0.7753575 0.08483592 0.9593475
0.2204316 0.544105 -0.01343107 0.7753575 0.6302624 -0.03987477 0.08483592 0.9593475
0.1534367 0.544105 0.1751709 0.5764562 0.6302624 0.5200649 0.08483592 0.9593475
-0.2158993 0.544105 0.194165 -0.5200648 0.6302624 0.5764564 0.08483592 0.9593475
-0.2051994 0.544105 -0.148381 0.3089454 0.4799686 0.8210864 0.08483592 0.9420195
0.1076525 0.544105 -0.1644709 -0.2230895 0.4799677 0.8484468 0.08483592 0.9420195
0.06292856 0.7279442 -0.2042661 0.8170137 0.5311897 -0.2243348 0.08483592 0.9593475
-0.05209136 0.8065756 -0.220947 0.02598927 0.8625238 0.5053487 0.08483592 0.9420195
-0.1464844 0.7279442 -0.1760371 -0.1280445 0.4382474 0.8896875 0.08483592 0.9593475
-0.04609334 0.5374566 0.07631111 -0.004538639 0.9992777 0.03773069 0.06750789 0.9420195
0.03998363 0.5366285 -0.004151106 0.04335547 0.9990595 -0.0006692578 0.08483592 0.9420195
-0.02935135 0.5269065 0.22122 -0.03839025 0.6522724 -0.7570119 0.08483592 0.9593475
-0.2051994 0.5269065 -0.148381 0.5645621 0.6508319 0.5076293 0.08483592 0.9593475
-0.1891094 0.5269065 0.16447 0.5075162 0.6498861 -0.565752 0.08483592 0.9593475
0.1237416 0.5269065 0.148381 -0.5636889 0.6506645 -0.508813 0.08483592 0.9593475
0.1804906 0.5269065 -0.0113771 -0.7578359 0.6512802 0.03897373 0.08483592 0.9593475
-0.05210435 0.5269056 -0.2212329 0.03763622 0.6506636 0.7584329 0.08483592 0.9593475
-0.04609334 0.5374566 0.07631111 -0.004538639 0.9992777 0.03773069 0.1458711 0.9420195
0.1237416 0.5269065 0.148381 -0.5636889 0.6506645 -0.508813 0.1458711 0.9593475
-0.02935135 0.5269065 0.22122 -0.03839025 0.6522724 -0.7570119 0.1458711 0.9420195
-0.1891094 0.5269065 0.16447 0.5075162 0.6498861 -0.565752 0.1458711 0.9420195
-0.02935135 0.5269065 0.22122 -0.03839025 0.6522724 -0.7570119 0.1458711 0.9593475
-0.1164364 0.5367678 -0.0268929 -0.04043346 0.9991171 -0.01141317 0.1458711 0.9420195
-0.2619483 0.5269065 0.0113771 0.7589826 0.6500589 -0.03699811 0.1458711 0.9593475
-0.1164364 0.5367678 -0.0268929 -0.04043346 0.9991171 -0.01141317 0.128543 0.9420195
-0.05210435 0.5269056 -0.2212329 0.03763622 0.6506636 0.7584329 0.1458711 0.9420195
-0.2051994 0.5269065 -0.148381 0.5645621 0.6508319 0.5076293 0.1458711 0.9593475
-0.05210435 0.5269056 -0.2212329 0.03763622 0.6506636 0.7584329 0.1458711 0.9593475
0.1804906 0.5269065 -0.0113771 -0.7578359 0.6512802 0.03897373 0.1458711 0.9420195
0.1076525 0.5269065 -0.1644709 -0.5076819 0.6514819 0.5637645 0.1458711 0.9593475
0.1534367 0.2873934 0.1751709 0.5924258 -0.1878786 0.7834114 0.08483592 0.9593475
0.2897096 0.4536199 0.183445 0.3553328 0.6829917 0.63817 0.08483592 0.9420195
0.3296726 0.4536199 0.07094502 0.680094 0.6859636 -0.2587008 0.08483592 0.9593475
0.1534367 0.4157492 0.1751709 0.4138736 0.2174442 0.8839834 0.08483592 0.9420195
0.2761925 0.4348572 0.164499 0.8039719 -0.4849999 -0.3440991 0.08483592 0.9593475
0.3296726 0.3770561 0.07094502 0.909192 -0.3654833 -0.199479 0.08483592 0.9593475
0.3252106 0.4402912 0.08350492 0.8003719 -0.2739888 0.5332307 0.08483592 0.9420195
0.3072315 0.4348572 0.07711792 0.4067445 -0.4850001 0.7741665 0.1458711 0.9420195
0.2761925 0.4348572 0.164499 0.8039719 -0.4849999 -0.3440991 0.1458711 0.9593475
0.3072315 0.4348572 0.07711792 0.4067445 -0.4850001 0.7741665 0.08483592 0.9593475
0.3072315 0.3849506 0.07711792 0.2799613 0.6589683 0.6981279 0.08483592 0.9420195
0.2761925 0.3849506 0.164499 0.6576312 0.6589679 -0.3650788 0.08483592 0.9593475
3 0 1 2 
3 65 3 4 
3 66 5 4 
3 67 6 7 
3 68 8 9 
3 69 10 9 
3 11 12 13 
3 14 15 70 
3 16 71 72 
3 73 15 74 
3 17 18 19 
3 20 21 75 
3 14 22 76 
3 16 23 24 
3 77 25 26 
3 27 23 28 
3 29 25 78 
3 17 79 80 
3 81 12 82 
3 81 83 30 
3 31 32 33 
3 84 34 85 
3 86 22 35 
3 36 37 38 
3 87 37 33 
3 88 34 89 
3 39 90 91 
3 84 90 92 
3 31 93 94 
3 40 41 42 
3 27 43 80 
3 31 44 35 
3 81 45 94 
3 29 46 82 
3 86 47 78 
3 88 48 28 
3 95 96 97 
3 49 98 99 
3 100 101 102 
3 95 103 104 
3 0 50 51 
3 16 52 105 
3 69 106 91 
3 107 79 108 
3 109 110 30 
3 111 53 24 
3 16 112 113 
3 54 55 56 
3 77 57 113 
3 111 58 59 
3 114 57 115 
3 60 53 61 
3 54 57 116 
3 117 58 118 
3 117 53 59 
3 62 119 63 
3 60 64 120 
3 117 64 61 
3 60 121 118 
3 0 122 74 
3 65 122 108 
3 66 110 123 
3 67 110 124 
3 68 6 125 
3 69 126 70 
3 14 127 72 
3 16 128 2 
3 129 71 74 
3 65 130 123 
3 67 131 74 
3 68 132 74 
3 133 10 74 
3 17 46 134 
3 135 12 30 
3 14 21 85 
3 111 25 136 
3 16 22 137 
3 77 23 138 
3 27 25 137 
3 29 79 138 
3 17 12 136 
3 81 106 139 
3 81 140 91 
3 31 141 89 
3 84 37 142 
3 86 23 85 
3 36 143 92 
3 87 34 92 
3 88 22 142 
3 39 93 38 
3 84 83 38 
3 31 143 144 
3 145 146 42 
3 27 47 147 
3 81 18 148 
3 29 43 149 
3 86 48 150 
3 88 44 151 
3 39 45 152 
3 95 153 154 
3 49 155 154 
3 49 156 157 
3 49 158 159 
3 160 101 159 
3 100 161 162 
3 100 103 163 
3 95 164 165 
3 0 52 166 
3 69 6 30 
3 107 50 136 
3 69 83 75 
3 66 79 13 
3 111 167 168 
3 114 169 136 
3 54 121 170 
3 77 53 171 
3 111 50 115 
3 114 52 171 
3 60 57 168 
3 54 58 171 
3 117 167 115 
3 117 172 168 
3 62 173 174 
3 60 172 175 
3 117 55 175 
3 60 176 177 
