ply
format ascii 1.0
comment VCGLIB generated
comment TextureFile dummy.png
element vertex 314
property float x
property float y
property float z
property float nx
property float ny
property float nz
property float texture_u
property float texture_v
element face 504
property list uchar int vertex_indices
end_header
8.723944 468.0526 3.790752 0.6504878 -0.08619199 0.7546103 0.07713011 0.9582134
15.01551 481.0923 0.005730454 0.8017187 -0.2935368 0.5206566 0.07736842 0.9586887
10.93734 485.1948 1.22859 0.02861062 0.5767381 0.816428 0.07721942 0.9588317
23.41835 371.5817 -3.424968 0.8581039 -0.3764543 0.3491989 0.0777136 0.9549236
12.85722 354.9788 7.152512 0.6470435 -0.08448461 0.757758 0.07728508 0.9543061
12.85722 354.9788 -7.152511 0.6392621 -0.2622164 -0.7229015 0.07740867 0.9544129
18.92887 371.5817 -11.56386 0.1611463 -0.3574483 -0.9199253 0.07763681 0.9549884
8.267186 485.1917 -3.520668 0.231406 0.9133297 -0.3350822 0.07717301 0.958859
1.149249 485.1886 0.6370507 -0.3522503 0.7289004 0.5870468 0.07689803 0.9588436
-1.046818 482.0888 4.425105 0.1131584 0.5564378 0.8231477 0.07679164 0.9587158
8.723944 468.0526 -3.790751 0.6620001 -0.2258345 -0.7146711 0.07719819 0.9582555
-3.839637 476.652 5.042336 -0.3346202 -0.4184516 0.8443505 0.07669591 0.9585226
1.145159 467.8496 3.790751 -0.6061082 -0.245165 0.756655 0.076878 0.9582139
13.31728 481.0922 -5.657659 0.5022121 -0.2406047 -0.8305977 0.07736211 0.9587204
4.390676 482.0954 -8.110112 0.08404563 -0.1465239 -0.9856303 0.0770868 0.9587772
-1.755301 482.0954 -4.86654 -0.8600143 -0.0003951406 -0.5102698 0.0768534 0.9587659
-2.372518 482.0889 -1.573406 -0.5593919 0.7562132 -0.3394443 0.07680273 0.9587488
-4.675411 342.6602 -8.502838 -0.5388758 0.2973637 -0.7881547 0.07686256 0.9540437
-9.771421 301.0656 -11.47816 -0.666735 -0.005239666 -0.7452765 0.07674813 0.9527233
-20.61876 330.0521 9.07049 -0.9674879 -0.2256296 -0.1142739 0.0762016 0.9535198
-5.16533 476.652 -0.956174 -0.7653094 -0.4310586 -0.4780062 0.07670732 0.9585563
1.145159 467.8496 -3.790751 -0.6319504 -0.2575088 -0.7309774 0.07694705 0.958256
-13.65307 341.4615 2.994265 -0.4917332 0.6606529 -0.5672179 0.07647301 0.9539312
12.83402 383.421 5.633247 0.563299 0.2080177 0.7996393 0.07728598 0.9552734
-1.309644 356.9621 7.152511 -0.6806424 0.2007436 0.7045765 0.07682466 0.9543945
-9.771423 301.0656 11.47815 -0.6856416 -0.1956985 0.7011403 0.0765446 0.9525339
-10.96625 330.0521 20.13596 -0.03996809 -0.1920423 0.9805725 0.07641042 0.9534159
19.73669 379.8713 -1.39413 0.5635859 0.6377624 0.5250047 0.07757365 0.9551932
12.83402 383.421 -5.633245 0.4972051 0.6296929 -0.5968869 0.07738408 0.9553524
15.24724 379.8713 -9.533045 -0.1848701 0.5965465 -0.7809963 0.07749736 0.9552569
-17.60929 557.3674 -31.40977 -0.3350321 0.5376525 -0.7737463 0.07652988 0.9615824
-8.383487 557.1187 -38.15168 -0.5827972 0.5871205 -0.5618159 0.07689843 0.9615939
-6.624145 554.0837 -39.30474 -0.04067174 -0.480219 -0.8762053 0.07696879 0.9614882
37.84853 519.3741 -15.26473 -0.9345468 0.05988833 -0.3507645 0.07825664 0.9601122
36.96515 511.0246 -11.52347 0.2764347 -0.4900052 -0.8267278 0.07819667 0.9597954
35.76735 511.5658 -11.05298 -0.9360349 0.05396984 -0.3477439 0.07815219 0.9598135
36.4264 512.0355 -9.915468 -0.2688022 0.5336804 0.8018296 0.07816464 0.9598246
37.96618 518.2241 -13.53929 -0.2671739 0.5355786 0.8011078 0.07824621 0.9600629
12.16602 340.3024 8.502839 0.7817243 0.1221645 0.6115416 0.07725691 0.9538084
-4.337991 342.0609 11.28129 0.1436958 0.7445678 0.6518975 0.07669769 0.9538722
37.6242 511.4944 -10.38596 0.9452292 -0.01455847 0.3260826 0.07820915 0.9598064
39.19543 519.1455 -14.6698 0.9457466 -0.01243937 0.3246671 0.07829709 0.9601003
38.89563 519.6649 -15.97239 0.2783682 -0.4881192 -0.8271946 0.07829788 0.9601251
-10.7102 545.3423 -34.2002 0.1894887 -0.4507426 -0.8723103 0.07679138 0.9611571
-14.77301 545.3423 -32.05604 -0.8771083 -0.3425461 -0.3366649 0.07663707 0.9611509
35.23287 509.4444 -9.895995 -0.8179515 0.3321305 -0.4697284 0.07812475 0.9597324
35.84032 509.6866 -8.541214 -0.145559 0.5075402 0.8492442 0.07813362 0.9597341
37.03756 508.8632 -8.930801 0.8670675 -0.2320881 0.4408278 0.07817749 0.9597054
36.4301 508.621 -10.28558 0.406538 -0.4848832 -0.7743483 0.07816858 0.9597037
-6.359367 557.1187 -35.06326 0.3277994 0.6709774 0.6650841 0.0769375 0.9615814
-8.790148 547.3871 -30.56204 0.9007507 0.04052712 0.4324416 0.07682062 0.9612151
-4.600022 554.0837 -36.21632 0.869995 -0.4152718 0.265816 0.07700796 0.9614755
19.49481 577.5873 -54.53792 -0.1684387 0.8065844 -0.5666128 0.07796268 0.9623778
20.04775 577.1438 -54.25508 0.9918946 -0.1241765 0.02693334 0.07797882 0.9623606
19.75193 577.1438 -54.70644 0.3711248 -0.1241738 -0.920243 0.07797281 0.9623622
-1.309644 356.9621 -7.152511 -0.7145248 0.123394 -0.6886424 0.07695153 0.9545004
1.571566 383.1193 -5.633246 -0.7392082 0.1278019 -0.6612397 0.07701863 0.9553582
13.16877 301.9259 11.47816 0.7334447 0.01664112 0.6795454 0.07727919 0.9525203
12.16602 340.3024 -8.502837 0.7006178 0.05189298 -0.7116472 0.07740346 0.9539392
-35.27773 578.0228 -14.00916 0.3138452 0.8233291 0.4728957 0.07575899 0.9622799
-35.90387 577.6259 -14.19053 -0.9955907 -0.006692364 0.09356458 0.07574015 0.9622662
-35.55899 577.6259 -13.77546 -0.2743362 -0.006688558 0.9616106 0.07574759 0.9622647
40.76902 530.3314 -21.17498 -0.6419891 0.533609 -0.5505556 0.07840321 0.9605313
41.4868 530.3036 -20.9171 0.880005 0.4749494 -0.003780716 0.07842528 0.9605287
41.23205 530.1221 -21.35686 0.3397811 0.08992587 -0.9361956 0.07842039 0.9605242
1.571565 383.1193 5.633246 -0.6965188 0.06664746 0.7144367 0.07691851 0.9552795
13.16877 301.9259 -11.47815 0.6933342 0.08990129 -0.7149864 0.07747464 0.9527104
-58.1813 404.4536 51.2642 -0.267225 0.8098044 -0.52231 0.07450254 0.9557754
-58.16391 404.1523 51.96523 -0.230493 0.1739556 0.9573988 0.07449612 0.9557601
-57.82638 404.4533 51.67073 0.4819404 0.809306 0.3357937 0.07450998 0.9557721
65.09892 429.2025 -35.49177 0.1036876 0.8283782 0.5504894 0.07933032 0.9570324
65.214 428.9057 -36.18539 0.3470064 0.2006615 -0.916145 0.07933937 0.9570263
64.80843 429.1686 -35.94532 -0.5104969 0.7566402 -0.40852 0.07932422 0.9570343
-33.60263 512.8568 36.5416 0.6883217 0.4307465 0.5836701 0.07536395 0.9596868
-34.35356 512.7625 36.44345 -0.8970085 0.2316091 0.3764746 0.07533965 0.9596844
-33.96731 512.4968 36.71069 -0.08159025 -0.3293227 0.9406857 0.07535022 0.9596731
18.79501 -0.7349933 18.80938 0.5543486 -0.5994698 0.5773504 0.0775037 0.9432182
-18.79501 0.7349933 -18.80938 -0.5994699 -0.5543487 -0.5773503 0.07668947 0.9438256
18.79502 -0.7349933 -18.80938 0.5543488 -0.59947 -0.5773503 0.07779738 0.9436776
-17.17957 554.6871 -27.0285 -0.03551465 -0.3419783 0.9390365 0.07650482 0.961469
-12.85295 547.3871 -28.41788 -0.1944408 0.01818366 0.9807457 0.07666589 0.9612089
-19.50866 554.6871 -29.8316 -0.865759 -0.4248027 -0.2645828 0.07645372 0.9614809
-15.2802 557.3674 -28.60667 0.5815593 0.6506326 0.48833 0.07658114 0.9615708
41.02379 530.5129 -20.73524 -0.1017719 0.9186196 0.3818122 0.0784081 0.9605358
-30.17445 495.4246 11.37343 -0.9895095 -0.1015656 -0.1027397 0.07574618 0.9591806
-27.67332 491.2296 8.439189 -0.2639165 -0.7446811 0.6130238 0.07586136 0.959044
-28.51751 494.2848 12.51989 0.02879128 -0.7997695 0.5996165 0.075791 0.9591326
-27.52563 493.9039 5.856164 -0.1302531 0.6757849 -0.725499 0.07588933 0.9591521
-29.10311 491.8496 6.319237 -0.8344236 -0.3138907 -0.453001 0.07583407 0.9590781
-28.61005 496.9691 10.64803 -0.03453661 0.8379907 -0.5445905 0.07580413 0.9592381
-26.09585 493.2839 7.976116 0.7444788 0.530848 0.4049095 0.07591671 0.959118
-26.95311 495.8293 11.7945 0.9795006 0.1342178 0.150214 0.075849 0.9591901
-32.45427 504.883 25.04983 -0.9903284 -0.1006808 -0.09546267 0.07552619 0.9594532
-30.17235 499.8149 19.86555 0.02106977 -0.7964408 0.6043494 0.07565876 0.9592948
-28.89059 500.7906 19.00503 0.9759549 0.1463279 0.1615559 0.07570937 0.9593331
-30.33132 502.1383 18.84855 -0.03545266 0.8420526 -0.538229 0.0756616 0.9593835
-32.40386 507.2719 29.77067 0.02102424 -0.7964494 0.6043397 0.07547823 0.9595161
-31.70084 507.9869 29.4639 0.9759545 0.1463188 0.1615659 0.07550437 0.959543
-32.26903 507.9576 28.08047 -0.03543148 0.8420598 -0.5382192 0.07549922 0.9595492
-33.9889 513.1224 36.27436 -0.1271314 0.9916946 0.0194822 0.07535337 0.9596981
1.39035 419.1283 -4.850217 -0.7073423 0.01180934 -0.7067726 0.07698859 0.9565743
11.08731 419.3881 4.850218 0.7056958 0.04965862 0.7067726 0.07722048 0.9565089
11.08731 419.3881 -4.850217 0.7056959 0.0496586 -0.7067726 0.07730605 0.956571
53.16214 397.714 -24.4151 0.9243599 -0.2716528 0.2678874 0.07885165 0.9559068
49.55645 392.1791 -24.66743 0.1798119 -0.5234452 -0.8328703 0.07873602 0.9557267
51.68602 397.0639 -26.22943 0.1651179 -0.3617825 -0.9175236 0.07881769 0.9558989
49.32304 394.1531 -21.50498 0.09590349 0.5184082 0.8497385 0.07870322 0.9557722
50.9174 392.2493 -22.4049 0.8327757 -0.4774135 0.2802874 0.07876257 0.955712
51.39925 398.8568 -23.3716 -0.1398205 0.4187293 0.8972826 0.0787857 0.9559408
47.96209 394.0829 -23.76751 -0.7201135 0.4955086 -0.4857035 0.07867675 0.9557869
50.13717 398.7105 -25.3435 -0.8994261 0.3287268 -0.2880476 0.07876003 0.9559507
57.66803 412.7426 -28.91768 -0.1369315 0.4201136 0.8970811 0.0790345 0.9564395
61.06077 417.6972 -31.65742 0.925162 -0.2684199 0.2683769 0.07916728 0.9566211
58.86346 413.958 -31.51171 0.1643897 -0.3573115 -0.9194045 0.07909389 0.9564958
65.50449 428.9396 -35.73185 0.9612049 0.2724859 0.04285691 0.07934546 0.9570243
-42.04516 367.7072 35.48697 -0.9233904 -0.3607081 -0.1313004 0.07522838 0.9546075
-36.65523 360.9393 35.12526 -0.02263979 -0.4160921 0.9090406 0.07541327 0.9543733
-40.03948 367.7058 37.78423 0.005310042 -0.3613779 0.9324044 0.07527092 0.9545873
-37.01046 363.3031 30.78853 -0.1828845 0.537495 -0.8231965 0.07544208 0.9544861
-38.95759 360.9401 32.48713 -0.9038764 -0.4157232 -0.1009048 0.07536434 0.9543968
-40.14109 369.4144 33.82595 -0.03961281 0.4285696 -0.90264 0.07530516 0.9546747
-34.7081 363.3024 33.42666 0.7910091 0.5373048 0.2925887 0.07549115 0.9544627
-38.13221 369.4067 36.12012 0.8893162 0.4278907 0.1613267 0.07534795 0.9546543
-51.29564 388.1725 44.51171 -0.923804 -0.359554 -0.1315569 0.07481582 0.9552522
-49.62089 386.9733 45.28092 0.005505349 -0.3602257 0.932849 0.07486404 0.9552032
-41.41733 375.2531 38.71416 0.8892241 0.4279103 0.1617822 0.07520983 0.9548386
-51.2613 392.7707 46.487 0.8892239 0.4279 0.1618099 0.07479198 0.9553959
-58.51881 404.1526 51.55867 -0.979641 0.1744864 0.09928799 0.0744887 0.9557634
21.91408 208.1998 16.70506 0.7017896 0.1042765 0.7047111 0.07754814 0.9494612
25.44808 169.7463 -18.80938 0.7147593 0.03685789 -0.6983987 0.077957 0.9486217
21.91408 208.1998 -16.70506 0.7017897 0.1042765 -0.704711 0.07782137 0.9497836
-12.17066 169.7764 18.80938 -0.6980141 0.03997388 0.7149674 0.07648021 0.9483291
25.44808 169.7463 18.80938 0.7147593 0.03685787 0.6983987 0.07765428 0.948239
-11.47258 206.9477 -16.70506 -0.7074065 0.05258134 -0.7048484 0.07678854 0.9498163
-11.4726 206.9469 16.70511 -0.7074065 0.05258137 0.7048484 0.07649892 0.9494962
-12.17066 169.7764 -18.80938 -0.698014 0.03997388 -0.7149675 0.0768035 0.9487081
17.7787 252.5198 14.23343 0.7014967 0.1047671 0.7049301 0.0774222 0.9508936
-10.66816 251.4531 -14.23342 -0.707373 0.05193444 -0.7049299 0.07676968 0.9511727
24.10609 135.077 18.80938 0.7066169 -0.02749248 0.7070621 0.077623 0.9471847
24.106 135.0744 -18.80938 0.7066169 -0.02749249 -0.7070621 0.07792383 0.947584
-13.48409 136.5428 18.80938 -0.7066076 0.02777935 0.7070602 0.07645886 0.9473228
-13.48405 136.5438 -18.80938 -0.7066075 0.02777935 -0.7070602 0.07678003 0.9477177
-18.79501 0.7349933 18.80938 -0.5994699 -0.5543488 0.5773502 0.07637673 0.9433712
2.860473 488.5044 -10.75387 0.2942361 -0.2711247 -0.9164696 0.07705685 0.9590185
-7.652198 510.745 -17.18277 -0.9255809 -0.2933586 -0.2392503 0.07675535 0.9598468
5.665265 491.4913 -5.439308 0.8902825 0.3935417 0.2291774 0.07710072 0.9590946
-1.088249 495.1282 -4.005713 -0.3346411 0.3359351 0.8804334 0.07686086 0.9592224
0.5248232 498.2869 -14.78922 0.3247965 -0.2933498 -0.8991402 0.07701113 0.9593867
3.177341 501.1117 -9.763187 0.9157058 0.3359369 0.2205207 0.07705244 0.9594601
-3.075946 513.3675 -21.01001 0.3247867 -0.2933615 -0.8991399 0.07694068 0.9599543
-5.519361 514.811 -13.20049 -0.3346506 0.3359392 0.8804282 0.07678734 0.9599715
-0.3655035 514.811 -15.92046 0.915707 0.3359313 0.220524 0.07698373 0.9599802
-2.741489 523.9984 -20.0498 0.9157047 0.3359349 0.2205281 0.0769377 0.9603288
-9.284342 531.5343 -21.01254 -0.334686 0.3359303 0.8804182 0.07672495 0.9606071
-6.102097 536.9931 -25.89035 0.9156984 0.3359385 0.2205487 0.07687262 0.9608213
-7.161088 530.4776 -28.06833 0.3247937 -0.2933624 -0.8991371 0.07686077 0.9605981
-9.212256 539.0685 -31.61217 0.3247863 -0.2933591 -0.8991409 0.07682066 0.9609212
-13.4817 539.0685 -29.35894 -0.9255788 -0.293357 -0.2392607 0.07665851 0.9609146
-25.16996 564.6599 -21.26674 0.04466632 -0.4726897 0.8800963 0.07617753 0.9618129
-26.86951 564.986 -22.80937 -0.8570276 -0.4726796 -0.2051286 0.07613546 0.9618312
-22.52651 564.8524 -23.31709 0.7799887 0.5649911 0.2690777 0.07628516 0.9618261
-23.73442 564.3909 -25.6341 -0.1217312 0.5649462 -0.8160989 0.07626729 0.9618183
-35.62262 578.0228 -14.42423 -0.4074232 0.8233271 -0.3951443 0.07575155 0.9622815
9.897203 567.6472 -46.82628 0.7633178 -0.5469722 0.3437548 0.07757907 0.9619961
3.23581 565.6497 -44.98136 -0.6832307 0.6133226 -0.3962716 0.07734188 0.9619206
-0.8310003 561.4459 -39.08465 0.09074911 0.6132572 0.7846529 0.07715572 0.9617496
2.253445 563.8604 -41.3289 0.09050047 0.6135377 0.7844624 0.07727744 0.9618434
10.62083 569.1606 -49.37452 -0.01054686 -0.5470058 -0.8370624 0.07762491 0.9620593
19.79062 577.5873 -54.08657 0.4523271 0.8065819 0.38056 0.0779687 0.9623762
-21.83504 343.1173 26.46025 0.01851128 -0.4231026 0.9058927 0.07599157 0.9538182
-19.99888 347.4077 10.53327 -0.2600237 0.6574917 -0.7071721 0.07619642 0.9540806
-12.33132 347.4077 19.32322 0.6875943 0.6357425 0.3507785 0.07636286 0.9540011
-21.92117 354.2525 25.38222 0.677736 0.6566697 0.3308457 0.07599085 0.954199
-33.49542 360.0542 26.56755 -0.2378899 0.6591622 -0.7133818 0.07559977 0.954403
-35.98075 355.9788 28.73497 -0.8950709 -0.4226861 -0.1420721 0.07550171 0.9542538
-32.53432 355.9788 32.6859 0.01923243 -0.4226759 0.9060768 0.07557517 0.9542183
-30.04722 360.0525 30.51638 0.6744723 0.6591625 0.3325537 0.07567357 0.9543678
28.84402 378.2383 -15.79375 0.03359503 -0.5711867 -0.8201324 0.07799193 0.9552265
22.04346 382.849 -12.50015 -0.5224324 0.6807784 -0.5134251 0.0777423 0.9553679
30.00069 386.3354 -15.97414 -0.5224304 0.6807806 -0.5134242 0.07802918 0.9554979
40.64488 386.1609 -20.8281 0.03359379 -0.5711864 -0.8201327 0.07841539 0.9555105
38.84612 390.211 -19.83589 -0.5224349 0.6807721 -0.5134307 0.0783482 0.9556424
47.63985 389.7655 -20.1713 0.7130145 -0.5702076 0.4080118 0.07863788 0.9556175
46.01407 389.7655 -23.11865 0.03554521 -0.5690547 -0.8215311 0.07860833 0.9556398
46.30662 392.7675 -19.43588 0.161371 0.6862547 0.7092347 0.07858819 0.9557156
44.68084 392.7675 -22.38323 -0.5108753 0.6869633 -0.5168055 0.07855871 0.9557378
-17.71655 489.6488 6.941379 0.3968193 0.6640165 0.6337323 0.07620803 0.9589865
-25.1506 489.7095 8.160192 -0.2546715 -0.5651639 0.7846861 0.07594906 0.9589891
-25.80539 489.7095 5.197439 -0.5535496 -0.5770819 -0.600466 0.07595599 0.9590049
-23.77118 492.3948 7.855332 0.3517603 0.6797281 0.6436105 0.07599585 0.9590849
-24.42598 492.3948 4.892579 0.08446936 0.6707273 -0.7368785 0.07600271 0.9591007
21.63637 491.0017 -7.324207 0.3406714 -0.4269111 -0.8376694 0.07765093 0.9590726
13.41901 489.1061 -5.320518 -0.6264141 0.5487031 -0.5536517 0.07735932 0.9590024
12.26261 486.498 0.708711 -0.2264446 0.5507433 0.8033708 0.07726786 0.9588795
16.80886 492.2784 -6.038819 -0.631119 0.5507423 -0.5462343 0.07747772 0.9591157
21.1089 496.3022 -6.949989 -0.6311172 0.5507464 -0.546232 0.07762825 0.9592597
28.1982 498.8173 -8.638769 0.3407127 -0.4269267 -0.8376446 0.07787989 0.9593518
26.07699 500.9512 -8.002719 -0.6311171 0.5507526 -0.5462261 0.07780259 0.9594266
32.07082 503.43 -9.414577 0.3407191 -0.4269272 -0.8376418 0.07801551 0.9595171
30.45888 505.0516 -8.931231 -0.6311163 0.5507383 -0.5462413 0.07795675 0.9595741
35.27272 506.619 -8.201324 0.7459155 -0.4262249 0.511803 0.07811221 0.9596228
34.74809 506.619 -9.950921 0.3417533 -0.4221759 -0.8396263 0.07810947 0.9596317
34.01286 507.8864 -7.823548 -0.2252304 0.554763 0.8009428 0.07806624 0.9596674
33.48823 507.8864 -9.573145 -0.6212831 0.5597189 -0.5483814 0.07806355 0.9596763
25.2413 580.2017 4.092629 0.3526961 -0.679548 0.6432884 0.04150506 0.8557409
-48.03254 603.6689 35.98082 -0.3470991 -0.03779382 0.9370666 0.04315228 0.8585941
-84.25487 563.6014 -20.70135 -0.7347438 -0.6625941 0.1453295 0.03985785 0.8585941
56.23095 644.8069 9.706522 0.5990214 0.4224215 0.6802452 0.04644672 0.8585941
12.924 557.3777 -68.45974 0.1347543 -0.9154435 -0.3792155 0.05303562 0.8585941
78.44098 585.1506 -51.6317 0.8559617 -0.5099197 -0.08550701 0.04974116 0.8585941
2.348632 665.8405 -13.23373 -0.04976464 0.9310803 0.3614042 0.04479951 0.8614472
-79.22348 630.1647 -29.01736 -0.8610574 0.4942064 0.1197508 0.04150506 0.8614472
-60.80001 600.6428 -89.76482 -0.6062529 -0.2041083 -0.7686334 0.05468283 0.8614472
36.11119 626.9729 -109.9794 0.3287624 0.1287942 -0.9355893 0.05138841 0.8614472
70.77184 647.0825 -61.7255 0.7669616 0.5923198 -0.2468345 0.04809395 0.8614472
-33.86858 668.2976 -80.99216 -0.3426657 0.8157359 -0.465999 0.04315228 0.8643003
-48.31284 345.9634 57.76134 0.01233774 -0.999205 -0.03791044 0.04150506 0.8557409
-104.1606 382.3474 108.9137 -0.5687203 -0.4337248 0.6988848 0.04315228 0.8585941
-112.3933 385.5824 59.63676 -0.8665803 -0.3881354 -0.3136711 0.03985785 0.8585941
-20.7565 374.9384 95.68982 0.5599057 -0.4471003 0.6975722 0.04644672 0.8585941
-48.31284 374.9384 10.87881 -0.029178 -0.460538 -0.8871604 0.05303562 0.8585941
-3.725373 374.9384 43.27423 0.8506533 -0.4472123 -0.2763878 0.04974116 0.8585941
-69.08228 430.8722 114.2849 0.01754631 0.5227767 0.8522891 0.04479951 0.8614472
-113.6697 430.8722 81.88946 -0.8077258 0.5762831 0.1244064 0.04150506 0.8614472
-75.86916 421.8212 19.83284 -0.4317662 0.4188607 -0.7988327 0.05468283 0.8614472
-20.75649 421.8212 19.83284 0.5231551 0.4594482 -0.7177855 0.05138841 0.8614472
-3.725374 421.8212 72.24843 0.851905 0.4475608 0.2719323 0.04809395 0.8614472
-51.84359 450.7962 60.3721 0.08876006 0.9933375 -0.07349968 0.04315228 0.8643003
107.2827 397.0745 9.827416 0.4908895 -0.4613503 0.7390422 0.04150506 0.8557409
44.68874 427.2099 26.75588 -0.3461552 0.2783409 0.8959369 0.04315228 0.8585941
36.03588 368.6814 1.378279 -0.4733419 -0.8000481 0.3686062 0.03985785 0.8585941
133.4096 452.879 -6.709607 0.581242 0.5443727 0.6048273 0.04644672 0.8585941
96.28384 372.6942 -37.12201 0.3268123 -0.9316354 -0.1589 0.05303562 0.8585941
156.579 428.9815 -42.25056 0.9786126 -0.04378716 -0.2009979 0.04974116 0.8585941
61.566 461.733 -23.26517 -0.335473 0.9272339 0.1664191 0.04479951 0.8614472
13.51757 422.9937 -18.50046 -0.9788184 0.2046001 0.007307584 0.04150506 0.8614472
48.39649 393.97 -67.54962 -0.4676732 -0.4557035 -0.7573745 0.05468283 0.8614472
105.2907 404.7607 -76.21423 0.3026502 -0.3105487 -0.9010895 0.05138841 0.8614472
114.7697 471.5377 -52.80095 0.2668756 0.865586 -0.4237197 0.04809395 0.8614472
52.53249 445.1578 -65.54232 -0.464918 0.5169345 -0.7187698 0.04315228 0.8643003
-35.48169 473.3712 33.07083 0.1449753 -0.9786604 -0.1456227 0.04150506 0.8557409
-76.22198 489.0145 73.8924 -0.4338921 -0.6196931 0.6540016 0.04315228 0.8585941
-81.48689 495.6078 35.6721 -0.7834488 -0.4844686 -0.3892277 0.03985785 0.8585941
-16.18631 492.0768 59.83683 0.6341151 -0.4866638 0.6008797 0.04644672 0.8585941
-37.75423 500.2401 -5.076092 -0.07949764 -0.362793 -0.9284726 0.05303562 0.8585941
2.307318 513.5461 15.47976 0.9145417 -0.2116 -0.3447302 0.04974116 0.8585941
-51.02551 527.6371 77.59851 0.1894484 0.293406 0.9370284 0.04479951 0.8614472
-95.45837 532.0488 65.55241 -0.8719864 0.3486418 0.3436401 0.04150506 0.8614472
-64.88305 527.6373 15.98337 -0.5947758 0.3701695 -0.7135939 0.05468283 0.8614472
-11.17468 537.6849 2.016002 0.4369241 0.5991773 -0.6708829 0.05138841 0.8614472
-1.467548 526.1059 41.66442 0.8457654 0.3717711 0.3827102 0.04809395 0.8614472
-59.62269 559.1562 51.45938 -0.1353508 0.9816665 0.1342052 0.04315228 0.8643003
32.13403 557.2057 8.414124 -0.2730919 0.6709596 0.6893723 0.04150506 0.8557409
86.83119 562.478 -28.95109 0.364583 0.9195995 -0.1463425 0.04315228 0.8585941
20.20502 557.8813 -27.27253 -0.5720412 0.7403597 -0.3530388 0.03985785 0.8585941
80.06902 534.7858 5.088045 0.4768504 0.1858759 0.8591065 0.04644672 0.8585941
8.238148 529.3953 -4.670354 -0.9233369 -0.07165645 0.3772459 0.05303562 0.8585941
43.36877 518.3209 14.51335 -0.07884102 -0.3443333 0.9355313 0.04974116 0.8585941
115.8162 540.1426 -39.80641 0.8302636 0.385194 -0.4028498 0.04479951 0.8614472
57.35174 532.4305 -49.43527 -0.0297304 0.2470357 -0.9685502 0.04150506 0.8614472
17.3235 517.7745 -44.71087 -0.6911263 -0.1812474 -0.6996384 0.05468283 0.8614472
35.8277 486.5829 -18.31421 -0.3581803 -0.9138096 0.1914653 0.05138841 0.8614472
115.8164 511.2357 -22.9754 0.8835749 -0.4152838 0.2164135 0.04809395 0.8614472
74.61078 484.0226 -44.49162 0.2248744 -0.8427803 -0.4890327 0.04315228 0.8643003
25.2413 580.2017 4.092629 0.3526961 -0.679548 0.6432884 0.04479951 0.8557409
25.2413 580.2017 4.092629 0.3526961 -0.679548 0.6432884 0.05468283 0.8557409
-84.25487 563.6014 -20.70135 -0.7347438 -0.6625941 0.1453295 0.05633008 0.8585941
25.2413 580.2017 4.092629 0.3526961 -0.679548 0.6432884 0.05138841 0.8557409
25.2413 580.2017 4.092629 0.3526961 -0.679548 0.6432884 0.04809395 0.8557409
-60.80001 600.6428 -89.76482 -0.6062529 -0.2041083 -0.7686334 0.03821059 0.8614472
-33.86858 668.2976 -80.99216 -0.3426657 0.8157359 -0.465999 0.03985785 0.8643003
-33.86858 668.2976 -80.99216 -0.3426657 0.8157359 -0.465999 0.05303562 0.8643003
-33.86858 668.2976 -80.99216 -0.3426657 0.8157359 -0.465999 0.04974116 0.8643003
-33.86858 668.2976 -80.99216 -0.3426657 0.8157359 -0.465999 0.04644672 0.8643003
-48.31284 345.9634 57.76134 0.01233774 -0.999205 -0.03791044 0.04479951 0.8557409
-48.31284 345.9634 57.76134 0.01233774 -0.999205 -0.03791044 0.05468283 0.8557409
-112.3933 385.5824 59.63676 -0.8665803 -0.3881354 -0.3136711 0.05633008 0.8585941
-48.31284 345.9634 57.76134 0.01233774 -0.999205 -0.03791044 0.05138841 0.8557409
-48.31284 345.9634 57.76134 0.01233774 -0.999205 -0.03791044 0.04809395 0.8557409
-75.86916 421.8212 19.83284 -0.4317662 0.4188607 -0.7988327 0.03821059 0.8614472
-51.84359 450.7962 60.3721 0.08876006 0.9933375 -0.07349968 0.03985785 0.8643003
-51.84359 450.7962 60.3721 0.08876006 0.9933375 -0.07349968 0.05303562 0.8643003
-51.84359 450.7962 60.3721 0.08876006 0.9933375 -0.07349968 0.04974116 0.8643003
-51.84359 450.7962 60.3721 0.08876006 0.9933375 -0.07349968 0.04644672 0.8643003
107.2827 397.0745 9.827416 0.4908895 -0.4613503 0.7390422 0.04479951 0.8557409
107.2827 397.0745 9.827416 0.4908895 -0.4613503 0.7390422 0.05468283 0.8557409
36.03588 368.6814 1.378279 -0.4733419 -0.8000481 0.3686062 0.05633008 0.8585941
107.2827 397.0745 9.827416 0.4908895 -0.4613503 0.7390422 0.05138841 0.8557409
107.2827 397.0745 9.827416 0.4908895 -0.4613503 0.7390422 0.04809395 0.8557409
48.39649 393.97 -67.54962 -0.4676732 -0.4557035 -0.7573745 0.03821059 0.8614472
52.53249 445.1578 -65.54232 -0.464918 0.5169345 -0.7187698 0.03985785 0.8643003
52.53249 445.1578 -65.54232 -0.464918 0.5169345 -0.7187698 0.05303562 0.8643003
52.53249 445.1578 -65.54232 -0.464918 0.5169345 -0.7187698 0.04974116 0.8643003
52.53249 445.1578 -65.54232 -0.464918 0.5169345 -0.7187698 0.04644672 0.8643003
-35.48169 473.3712 33.07083 0.1449753 -0.9786604 -0.1456227 0.04479951 0.8557409
-35.48169 473.3712 33.07083 0.1449753 -0.9786604 -0.1456227 0.05468283 0.8557409
-81.48689 495.6078 35.6721 -0.7834488 -0.4844686 -0.3892277 0.05633008 0.8585941
-35.48169 473.3712 33.07083 0.1449753 -0.9786604 -0.1456227 0.05138841 0.8557409
-35.48169 473.3712 33.07083 0.1449753 -0.9786604 -0.1456227 0.04809395 0.8557409
-64.88305 527.6373 15.98337 -0.5947758 0.3701695 -0.7135939 0.03821059 0.8614472
-59.62269 559.1562 51.45938 -0.1353508 0.9816665 0.1342052 0.03985785 0.8643003
-59.62269 559.1562 51.45938 -0.1353508 0.9816665 0.1342052 0.05303562 0.8643003
-59.62269 559.1562 51.45938 -0.1353508 0.9816665 0.1342052 0.04974116 0.8643003
-59.62269 559.1562 51.45938 -0.1353508 0.9816665 0.1342052 0.04644672 0.8643003
32.13403 557.2057 8.414124 -0.2730919 0.6709596 0.6893723 0.04479951 0.8557409
32.13403 557.2057 8.414124 -0.2730919 0.6709596 0.6893723 0.05468283 0.8557409
20.20502 557.8813 -27.27253 -0.5720412 0.7403597 -0.3530388 0.05633008 0.8585941
32.13403 557.2057 8.414124 -0.2730919 0.6709596 0.6893723 0.05138841 0.8557409
32.13403 557.2057 8.414124 -0.2730919 0.6709596 0.6893723 0.04809395 0.8557409
17.3235 517.7745 -44.71087 -0.6911263 -0.1812474 -0.6996384 0.03821059 0.8614472
74.61078 484.0226 -44.49162 0.2248744 -0.8427803 -0.4890327 0.03985785 0.8643003
74.61078 484.0226 -44.49162 0.2248744 -0.8427803 -0.4890327 0.05303562 0.8643003
74.61078 484.0226 -44.49162 0.2248744 -0.8427803 -0.4890327 0.04974116 0.8643003
74.61078 484.0226 -44.49162 0.2248744 -0.8427803 -0.4890327 0.04644672 0.8643003
3 0 1 2 
3 3 4 5 
3 6 3 5 
3 7 8 2 
3 8 9 2 
3 10 1 0 
3 11 12 0 
3 10 13 1 
3 14 7 13 
3 15 16 8 
3 16 9 8 
3 17 18 19 
3 20 12 11 
3 20 21 12 
3 20 16 15 
3 22 17 19 
3 23 24 4 
3 25 26 19 
3 3 23 4 
3 18 25 19 
3 27 23 3 
3 27 28 23 
3 28 27 29 
3 30 31 32 
3 33 34 35 
3 33 36 37 
3 38 39 26 
3 37 40 41 
3 41 34 42 
3 39 17 22 
3 43 44 32 
3 34 45 35 
3 36 45 46 
3 40 46 47 
3 40 48 34 
3 49 50 51 
3 52 53 54 
3 6 55 56 
3 57 26 25 
3 58 18 17 
3 59 60 61 
3 62 63 64 
3 65 55 24 
3 38 66 58 
3 67 68 69 
3 70 71 72 
3 73 74 75 
3 76 77 78 
3 79 80 50 
3 9 0 2 
3 14 10 21 
3 30 44 81 
3 21 15 14 
3 82 50 49 
3 29 56 28 
3 82 31 30 
3 43 51 50 
3 81 80 79 
3 83 33 37 
3 63 83 41 
3 62 42 33 
3 64 63 42 
3 84 85 86 
3 84 87 88 
3 89 90 87 
3 86 90 91 
3 92 86 93 
3 92 89 84 
3 94 89 95 
3 93 91 94 
3 92 93 96 
3 97 96 94 
3 97 95 98 
3 74 98 92 
3 97 98 99 
3 75 74 96 
3 73 96 97 
3 100 28 56 
3 101 28 102 
3 65 23 101 
3 100 65 12 
3 10 100 21 
3 0 102 10 
3 0 12 101 
3 103 104 105 
3 103 106 107 
3 108 109 106 
3 105 109 110 
3 111 103 112 
3 111 110 108 
3 72 105 110 
3 113 112 105 
3 72 111 70 
3 71 112 113 
3 70 112 114 
3 4 58 5 
3 24 38 4 
3 24 17 39 
3 55 58 17 
3 115 116 117 
3 115 118 119 
3 120 121 118 
3 117 121 122 
3 123 117 124 
3 120 115 123 
3 125 117 122 
3 124 125 126 
3 67 126 120 
3 68 123 124 
3 127 67 123 
3 69 68 126 
3 128 129 130 
3 128 131 132 
3 133 131 134 
3 130 135 133 
3 136 130 66 
3 134 128 136 
3 66 133 137 
3 25 136 57 
3 18 134 25 
3 18 66 137 
3 138 78 139 
3 140 76 138 
3 141 142 140 
3 139 77 141 
3 132 139 129 
3 131 138 132 
3 135 140 131 
3 135 139 141 
3 143 15 144 
3 143 7 14 
3 145 8 7 
3 144 8 146 
3 147 145 143 
3 146 145 148 
3 149 148 147 
3 150 148 151 
3 150 144 146 
3 152 150 151 
3 144 150 153 
3 154 149 155 
3 154 153 152 
3 156 144 157 
3 154 155 156 
3 43 157 44 
3 50 156 43 
3 50 153 154 
3 80 157 153 
3 158 81 79 
3 159 30 81 
3 160 30 161 
3 158 82 160 
3 162 160 161 
3 59 158 160 
3 162 159 60 
3 60 158 61 
3 163 49 51 
3 164 49 165 
3 32 31 164 
3 164 165 166 
3 163 32 167 
3 168 164 166 
3 52 167 164 
3 53 167 54 
3 168 163 53 
3 169 19 26 
3 170 39 22 
3 171 26 39 
3 172 170 173 
3 169 171 172 
3 174 169 175 
3 173 19 174 
3 176 169 172 
3 116 174 175 
3 118 174 119 
3 121 173 118 
3 121 175 176 
3 3 6 177 
3 177 29 178 
3 177 178 179 
3 180 3 177 
3 180 179 181 
3 182 180 183 
3 184 3 182 
3 185 27 184 
3 183 181 185 
3 104 182 183 
3 106 182 107 
3 109 184 106 
3 109 183 185 
3 186 11 9 
3 187 20 11 
3 188 16 20 
3 189 16 190 
3 187 186 189 
3 85 188 187 
3 87 188 88 
3 90 190 87 
3 90 187 189 
3 191 1 13 
3 192 2 193 
3 192 13 7 
3 191 192 194 
3 191 194 195 
3 1 191 196 
3 197 191 195 
3 1 196 198 
3 199 196 197 
3 200 198 201 
3 202 1 200 
3 202 199 193 
3 201 199 203 
3 48 200 201 
3 46 200 47 
3 45 202 46 
3 45 201 203 
3 23 65 24 
3 33 42 34 
3 33 35 36 
3 37 36 40 
3 41 40 34 
3 34 48 45 
3 36 35 45 
3 40 36 46 
3 40 47 48 
3 52 168 53 
3 6 5 55 
3 57 38 26 
3 58 66 18 
3 59 162 60 
3 62 83 63 
3 65 56 55 
3 38 57 66 
3 67 127 68 
3 70 114 71 
3 73 99 74 
3 76 142 77 
3 9 11 0 
3 14 13 10 
3 30 32 44 
3 21 20 15 
3 82 79 50 
3 29 6 56 
3 82 49 31 
3 43 32 51 
3 81 44 80 
3 41 83 37 
3 63 41 42 
3 83 62 33 
3 62 64 42 
3 84 88 85 
3 84 89 87 
3 89 91 90 
3 86 85 90 
3 92 84 86 
3 92 95 89 
3 94 91 89 
3 93 86 91 
3 94 96 93 
3 95 97 94 
3 92 98 95 
3 96 74 92 
3 74 99 98 
3 99 73 97 
3 73 75 96 
3 65 100 56 
3 100 102 28 
3 101 23 28 
3 101 12 65 
3 21 100 12 
3 10 102 100 
3 0 101 102 
3 103 107 104 
3 103 108 106 
3 108 110 109 
3 105 104 109 
3 112 103 105 
3 111 108 103 
3 72 110 111 
3 113 105 72 
3 70 111 112 
3 71 113 72 
3 71 114 112 
3 4 38 58 
3 24 39 38 
3 24 55 17 
3 55 5 58 
3 115 119 116 
3 115 120 118 
3 120 122 121 
3 117 116 121 
3 123 115 117 
3 120 125 122 
3 125 124 117 
3 120 126 125 
3 67 120 123 
3 126 68 124 
3 68 127 123 
3 67 69 126 
3 128 132 129 
3 128 134 131 
3 133 135 131 
3 130 129 135 
3 136 128 130 
3 137 133 134 
3 66 130 133 
3 57 136 66 
3 25 134 136 
3 18 137 134 
3 138 76 78 
3 140 142 76 
3 141 77 142 
3 139 78 77 
3 132 138 139 
3 131 140 138 
3 135 141 140 
3 135 129 139 
3 143 14 15 
3 143 145 7 
3 145 146 8 
3 144 15 8 
3 147 143 144 
3 147 148 145 
3 144 149 147 
3 149 151 148 
3 150 146 148 
3 149 152 151 
3 152 153 150 
3 155 149 144 
3 154 152 149 
3 156 155 144 
3 157 144 153 
3 43 156 157 
3 50 154 156 
3 50 80 153 
3 80 44 157 
3 158 159 81 
3 159 161 30 
3 160 82 30 
3 158 79 82 
3 162 161 159 
3 59 160 162 
3 60 159 158 
3 59 61 158 
3 32 163 51 
3 163 165 49 
3 164 31 49 
3 166 165 163 
3 168 166 163 
3 164 167 32 
3 52 164 168 
3 53 163 167 
3 52 54 167 
3 170 22 19 
3 170 171 39 
3 171 169 26 
3 19 173 170 
3 172 171 170 
3 174 19 169 
3 173 176 172 
3 176 175 169 
3 116 119 174 
3 118 173 174 
3 121 176 173 
3 121 116 175 
3 178 29 27 
3 177 6 29 
3 27 179 178 
3 181 179 27 
3 180 177 179 
3 182 3 180 
3 184 27 3 
3 185 181 27 
3 183 180 181 
3 104 107 182 
3 106 184 182 
3 109 185 184 
3 109 104 183 
3 186 9 16 
3 187 188 20 
3 188 190 16 
3 189 186 16 
3 187 11 186 
3 85 88 188 
3 87 190 188 
3 90 189 190 
3 90 85 187 
3 1 193 2 
3 192 7 2 
3 192 191 13 
3 194 192 193 
3 195 194 193 
3 193 197 195 
3 197 196 191 
3 193 199 197 
3 199 198 196 
3 200 1 198 
3 202 193 1 
3 202 203 199 
3 201 198 199 
3 48 47 200 
3 46 202 200 
3 45 203 202 
3 45 48 201 
3 204 205 206 
3 205 264 207 
3 265 266 208 
3 267 208 209 
3 268 209 207 
3 205 207 210 
3 206 205 211 
3 208 266 212 
3 209 208 213 
3 207 209 214 
3 205 210 211 
3 206 211 269 
3 208 212 213 
3 209 213 214 
3 207 214 210 
3 211 210 215 
3 269 211 270 
3 213 212 271 
3 214 213 272 
3 210 214 273 
3 216 217 218 
3 217 274 219 
3 275 276 220 
3 277 220 221 
3 278 221 219 
3 217 219 222 
3 218 217 223 
3 220 276 224 
3 221 220 225 
3 219 221 226 
3 217 222 223 
3 218 223 279 
3 220 224 225 
3 221 225 226 
3 219 226 222 
3 223 222 227 
3 279 223 280 
3 225 224 281 
3 226 225 282 
3 222 226 283 
3 228 229 230 
3 229 284 231 
3 285 286 232 
3 287 232 233 
3 288 233 231 
3 229 231 234 
3 230 229 235 
3 232 286 236 
3 233 232 237 
3 231 233 238 
3 229 234 235 
3 230 235 289 
3 232 236 237 
3 233 237 238 
3 231 238 234 
3 235 234 239 
3 289 235 290 
3 237 236 291 
3 238 237 292 
3 234 238 293 
3 240 241 242 
3 241 294 243 
3 295 296 244 
3 297 244 245 
3 298 245 243 
3 241 243 246 
3 242 241 247 
3 244 296 248 
3 245 244 249 
3 243 245 250 
3 241 246 247 
3 242 247 299 
3 244 248 249 
3 245 249 250 
3 243 250 246 
3 247 246 251 
3 299 247 300 
3 249 248 301 
3 250 249 302 
3 246 250 303 
3 252 253 254 
3 253 304 255 
3 305 306 256 
3 307 256 257 
3 308 257 255 
3 253 255 258 
3 254 253 259 
3 256 306 260 
3 257 256 261 
3 255 257 262 
3 253 258 259 
3 254 259 309 
3 256 260 261 
3 257 261 262 
3 255 262 258 
3 259 258 263 
3 309 259 310 
3 261 260 311 
3 262 261 312 
3 258 262 313 
