ply
format ascii 1.0
comment VCGLIB generated
comment TextureFile dummy.png
element vertex 121
property float x
property float y
property float z
property float nx
property float ny
property float nz
property float texture_u
property float texture_v
element face 80
property list uchar int vertex_indices
end_header
0.03688359 0.01711502 0.04115391 -0.006706276 -0.9999454 0.008012813 0.2230664 0.8192577
0.1990626 -0.008750536 0.1504321 0.1032305 -0.9902012 0.09404822 0.2427539 0.8192577
-0.02696443 -0.00414858 0.232444 -0.05751023 -0.9817188 0.1814409 0.2427539 0.8389453
0.3128008 0.03895798 0.2304959 0.6942036 -0.5757852 0.4319175 0.2230664 0.8192577
0.3612424 0.009867571 -0.05813503 0.6851701 -0.7259464 0.05953099 0.2427539 0.8389453
-0.1652554 -0.009427167 0.041435 -0.1114829 -0.9933101 0.03011066 0.2427539 0.8389453
-0.02673638 -0.009426691 -0.1492169 -0.04555723 -0.9951192 -0.08753487 0.2427539 0.8389453
0.1990626 -0.01463757 -0.133867 0.01610363 -0.9998687 -0.001839918 0.2427539 0.8389453
0.3995294 0.1996011 0.04630303 0.9787202 -0.01280404 0.2047994 0.2427539 0.8389453
-0.07788444 0.0616416 0.363668 -0.2506926 -0.5509259 0.7960112 0.2230664 0.8192577
0.1353906 0.02454223 0.350332 0.1943469 -0.6793107 0.7076484 0.2427539 0.8192577
0.004997611 0.2738246 0.413142 -0.02181356 0.01726072 0.9996131 0.2427539 0.8389453
-0.3128843 0.03543701 0.03727603 -0.6829153 -0.7211233 0.1166532 0.2230664 0.8192577
-0.2272553 0.02454319 0.232502 -0.5348613 -0.7134177 0.4527235 0.2427539 0.8192577
-0.3483934 0.2052688 0.14851 -0.9113514 -0.1343606 0.3890835 0.2427539 0.8389453
-0.07722139 0.03543606 -0.287082 -0.164228 -0.7080988 -0.6867498 0.2230664 0.8192577
-0.2452034 0.01241531 -0.1598461 -0.4331172 -0.8439543 -0.3164661 0.2427539 0.8192577
-0.2610104 0.1669063 -0.309616 -0.4701518 -0.2769574 -0.8380047 0.2427539 0.8389453
0.3128008 -0.005900003 -0.298426 0.3519291 -0.8223395 -0.447106 0.2230664 0.8192577
0.1371176 0.005440138 -0.2888839 -0.1125209 -0.8203367 -0.5607021 0.2427539 0.8192577
0.261011 0.1685943 -0.413142 0.1099224 -0.08358105 -0.9904197 0.2427539 0.8389453
0.25474 0.2118787 0.348778 0.6191608 -0.0009210782 0.7852637 0.2427539 0.8389453
-0.2191293 0.2738251 0.3403189 -0.5996833 -0.03319809 0.7995486 0.2427539 0.8389453
-0.3995293 0.1669058 -0.1189609 -0.9397784 -0.2965932 -0.1698499 0.2427539 0.8389453
0.02171659 0.1904701 -0.3526419 -0.154009 -0.1141343 -0.9814553 0.2427539 0.8389453
0.3995294 0.1411981 -0.3469319 0.8078295 -0.1356133 -0.5736032 0.2427539 0.8389453
0.1049436 0.487903 0.354387 0.3425631 0.3530041 0.8706542 0.2230664 0.8192577
0.2932051 0.4469523 0.207278 0.8119718 0.3340966 0.4786244 0.2427539 0.8192577
0.06707263 0.7332591 0.222188 0.250113 0.757402 0.6031466 0.2427539 0.8389453
-0.2844664 0.4702953 0.2257049 -0.8290842 0.3122526 0.463808 0.2230664 0.8192577
-0.1266783 0.5915264 0.3298759 -0.3483154 0.4818071 0.8040761 0.2427539 0.8192577
-0.1573864 0.7134002 0.1495421 -0.592845 0.7761552 0.2147509 0.2427539 0.8389453
-0.3702854 0.3247861 -0.2355371 -0.7899849 0.2476756 -0.5608749 0.2230664 0.8192577
-0.3690454 0.4039873 -0.004118919 -0.9325712 0.3588766 0.03896908 0.2427539 0.8192577
-0.1649474 0.629764 -0.09903097 -0.5613041 0.6918691 -0.4541529 0.2427539 0.8389453
0.1367036 0.4177436 -0.3308209 0.01071031 0.3753903 -0.926805 0.2230664 0.8192577
-0.1379724 0.4007625 -0.314225 -0.259764 0.370627 -0.8917165 0.2427539 0.8192577
0.09861362 0.6931924 -0.169235 0.09446848 0.7621456 -0.6404763 0.2427539 0.8389453
0.3779354 0.418064 -0.113292 0.9487413 0.3139796 -0.03614946 0.2230664 0.8192577
0.2992957 0.5060238 -0.2554281 0.5886496 0.5340465 -0.6068656 0.2427539 0.8192577
0.2373486 0.6987547 0.02154303 0.7128029 0.6997113 0.0481266 0.2427539 0.8389453
0.03069866 0.8146375 0.03541112 -0.01900154 0.9962662 -0.0842177 0.2427539 0.8389453
-0.02696443 -0.00414858 0.232444 -0.05751023 -0.9817188 0.1814409 0.2427539 0.8192577
-0.1652554 -0.009427167 0.041435 -0.1114829 -0.9933101 0.03011066 0.2427539 0.8192577
-0.02673638 -0.009426691 -0.1492169 -0.04555723 -0.9951192 -0.08753487 0.2427539 0.8192577
0.3612424 0.009867571 -0.05813503 0.6851701 -0.7259464 0.05953099 0.2427539 0.8192577
0.3995294 0.1996011 0.04630303 0.9787202 -0.01280404 0.2047994 0.2427539 0.8192577
0.004997611 0.2738246 0.413142 -0.02181356 0.01726072 0.9996131 0.2427539 0.8192577
-0.3483934 0.2052688 0.14851 -0.9113514 -0.1343606 0.3890835 0.2427539 0.8192577
-0.2610104 0.1669063 -0.309616 -0.4701518 -0.2769574 -0.8380047 0.2427539 0.8192577
0.261011 0.1685943 -0.413142 0.1099224 -0.08358105 -0.9904197 0.2427539 0.8192577
0.2373486 0.6987547 0.02154303 0.7128029 0.6997113 0.0481266 0.2230664 0.8192577
0.09861362 0.6931924 -0.169235 0.09446848 0.7621456 -0.6404763 0.2427539 0.8192577
0.2992957 0.5060238 -0.2554281 0.5886496 0.5340465 -0.6068656 0.2230664 0.8192577
0.1367036 0.4177436 -0.3308209 0.01071031 0.3753903 -0.926805 0.2427539 0.8192577
0.09861362 0.6931924 -0.169235 0.09446848 0.7621456 -0.6404763 0.2230664 0.8192577
-0.1649474 0.629764 -0.09903097 -0.5613041 0.6918691 -0.4541529 0.2427539 0.8192577
-0.1379724 0.4007625 -0.314225 -0.259764 0.370627 -0.8917165 0.2230664 0.8192577
-0.3702854 0.3247861 -0.2355371 -0.7899849 0.2476756 -0.5608749 0.2427539 0.8192577
-0.1649474 0.629764 -0.09903097 -0.5613041 0.6918691 -0.4541529 0.2230664 0.8192577
-0.1573864 0.7134002 0.1495421 -0.592845 0.7761552 0.2147509 0.2427539 0.8192577
-0.3690454 0.4039873 -0.004118919 -0.9325712 0.3588766 0.03896908 0.2230664 0.8192577
-0.2844664 0.4702953 0.2257049 -0.8290842 0.3122526 0.463808 0.2427539 0.8192577
-0.1573864 0.7134002 0.1495421 -0.592845 0.7761552 0.2147509 0.2230664 0.8192577
0.06707263 0.7332591 0.222188 0.250113 0.757402 0.6031466 0.2427539 0.8192577
-0.1266783 0.5915264 0.3298759 -0.3483154 0.4818071 0.8040761 0.2230664 0.8192577
0.1049436 0.487903 0.354387 0.3425631 0.3530041 0.8706542 0.2427539 0.8192577
0.06707263 0.7332591 0.222188 0.250113 0.757402 0.6031466 0.2230664 0.8192577
0.2373486 0.6987547 0.02154303 0.7128029 0.6997113 0.0481266 0.2427539 0.8192577
0.2932051 0.4469523 0.207278 0.8119718 0.3340966 0.4786244 0.2230664 0.8192577
0.3779354 0.418064 -0.113292 0.9487413 0.3139796 -0.03614946 0.2427539 0.8192577
0.3995294 0.1411981 -0.3469319 0.8078295 -0.1356133 -0.5736032 0.2230664 0.8192577
0.3779354 0.418064 -0.113292 0.9487413 0.3139796 -0.03614946 0.2427539 0.8389453
0.2992957 0.5060238 -0.2554281 0.5886496 0.5340465 -0.6068656 0.2427539 0.8389453
0.261011 0.1685943 -0.413142 0.1099224 -0.08358105 -0.9904197 0.2230664 0.8192577
0.02171659 0.1904701 -0.3526419 -0.154009 -0.1141343 -0.9814553 0.2230664 0.8192577
0.1367036 0.4177436 -0.3308209 0.01071031 0.3753903 -0.926805 0.2427539 0.8389453
-0.1379724 0.4007625 -0.314225 -0.259764 0.370627 -0.8917165 0.2427539 0.8389453
-0.2610104 0.1669063 -0.309616 -0.4701518 -0.2769574 -0.8380047 0.2230664 0.8192577
-0.3995293 0.1669058 -0.1189609 -0.9397784 -0.2965932 -0.1698499 0.2230664 0.8192577
-0.3702854 0.3247861 -0.2355371 -0.7899849 0.2476756 -0.5608749 0.2427539 0.8389453
-0.3690454 0.4039873 -0.004118919 -0.9325712 0.3588766 0.03896908 0.2427539 0.8389453
-0.3483934 0.2052688 0.14851 -0.9113514 -0.1343606 0.3890835 0.2230664 0.8192577
-0.2191293 0.2738251 0.3403189 -0.5996833 -0.03319809 0.7995486 0.2230664 0.8192577
-0.2844664 0.4702953 0.2257049 -0.8290842 0.3122526 0.463808 0.2427539 0.8389453
-0.1266783 0.5915264 0.3298759 -0.3483154 0.4818071 0.8040761 0.2427539 0.8389453
0.004997611 0.2738246 0.413142 -0.02181356 0.01726072 0.9996131 0.2230664 0.8192577
0.25474 0.2118787 0.348778 0.6191608 -0.0009210782 0.7852637 0.2230664 0.8192577
0.1049436 0.487903 0.354387 0.3425631 0.3530041 0.8706542 0.2427539 0.8389453
0.2932051 0.4469523 0.207278 0.8119718 0.3340966 0.4786244 0.2427539 0.8389453
0.3995294 0.1996011 0.04630303 0.9787202 -0.01280404 0.2047994 0.2230664 0.8192577
0.02171659 0.1904701 -0.3526419 -0.154009 -0.1141343 -0.9814553 0.2427539 0.8192577
0.1371176 0.005440138 -0.2888839 -0.1125209 -0.8203367 -0.5607021 0.2230664 0.8192577
-0.07722139 0.03543606 -0.287082 -0.164228 -0.7080988 -0.6867498 0.2427539 0.8192577
-0.3995293 0.1669058 -0.1189609 -0.9397784 -0.2965932 -0.1698499 0.2427539 0.8192577
-0.2452034 0.01241531 -0.1598461 -0.4331172 -0.8439543 -0.3164661 0.2230664 0.8192577
-0.3128843 0.03543701 0.03727603 -0.6829153 -0.7211233 0.1166532 0.2427539 0.8192577
-0.2191293 0.2738251 0.3403189 -0.5996833 -0.03319809 0.7995486 0.2427539 0.8192577
-0.2272553 0.02454319 0.232502 -0.5348613 -0.7134177 0.4527235 0.2230664 0.8192577
-0.07788444 0.0616416 0.363668 -0.2506926 -0.5509259 0.7960112 0.2427539 0.8192577
0.25474 0.2118787 0.348778 0.6191608 -0.0009210782 0.7852637 0.2427539 0.8192577
0.1353906 0.02454223 0.350332 0.1943469 -0.6793107 0.7076484 0.2230664 0.8192577
0.3128008 0.03895798 0.2304959 0.6942036 -0.5757852 0.4319175 0.2427539 0.8192577
0.3995294 0.1411981 -0.3469319 0.8078295 -0.1356133 -0.5736032 0.2427539 0.8192577
0.3612424 0.009867571 -0.05813503 0.6851701 -0.7259464 0.05953099 0.2230664 0.8192577
0.3128008 -0.005900003 -0.298426 0.3519291 -0.8223395 -0.447106 0.2427539 0.8192577
0.1990626 -0.01463757 -0.133867 0.01610363 -0.9998687 -0.001839918 0.2230664 0.8192577
0.3128008 -0.005900003 -0.298426 0.3519291 -0.8223395 -0.447106 0.2427539 0.8389453
0.1371176 0.005440138 -0.2888839 -0.1125209 -0.8203367 -0.5607021 0.2427539 0.8389453
-0.02673638 -0.009426691 -0.1492169 -0.04555723 -0.9951192 -0.08753487 0.2230664 0.8192577
-0.07722139 0.03543606 -0.287082 -0.164228 -0.7080988 -0.6867498 0.2427539 0.8389453
-0.2452034 0.01241531 -0.1598461 -0.4331172 -0.8439543 -0.3164661 0.2427539 0.8389453
-0.1652554 -0.009427167 0.041435 -0.1114829 -0.9933101 0.03011066 0.2230664 0.8192577
-0.3128843 0.03543701 0.03727603 -0.6829153 -0.7211233 0.1166532 0.2427539 0.8389453
-0.2272553 0.02454319 0.232502 -0.5348613 -0.7134177 0.4527235 0.2427539 0.8389453
-0.02696443 -0.00414858 0.232444 -0.05751023 -0.9817188 0.1814409 0.2230664 0.8192577
0.1990626 -0.01463757 -0.133867 0.01610363 -0.9998687 -0.001839918 0.2427539 0.8192577
0.1990626 -0.008750536 0.1504321 0.1032305 -0.9902012 0.09404822 0.2230664 0.8192577
0.03688359 0.01711502 0.04115391 -0.006706276 -0.9999454 0.008012813 0.2427539 0.8192577
-0.07788444 0.0616416 0.363668 -0.2506926 -0.5509259 0.7960112 0.2427539 0.8389453
0.1353906 0.02454223 0.350332 0.1943469 -0.6793107 0.7076484 0.2427539 0.8389453
3 0 1 2 
3 3 1 4 
3 0 42 5 
3 0 43 6 
3 0 44 7 
3 3 45 8 
3 9 10 11 
3 12 13 14 
3 15 16 17 
3 18 19 20 
3 3 46 21 
3 9 47 22 
3 12 48 23 
3 15 49 24 
3 18 50 25 
3 26 27 28 
3 29 30 31 
3 32 33 34 
3 35 36 37 
3 38 39 40 
3 51 52 41 
3 51 39 37 
3 53 54 37 
3 55 56 41 
3 55 36 34 
3 57 58 34 
3 59 60 41 
3 59 33 31 
3 61 62 31 
3 63 64 41 
3 63 30 28 
3 65 66 28 
3 67 68 41 
3 67 27 40 
3 69 70 40 
3 71 39 72 
3 71 50 73 
3 74 54 73 
3 75 36 76 
3 75 49 77 
3 78 58 77 
3 79 33 80 
3 79 48 81 
3 82 62 81 
3 83 30 84 
3 83 47 85 
3 86 66 85 
3 87 27 88 
3 87 46 89 
3 90 70 89 
3 74 91 76 
3 74 19 24 
3 92 93 24 
3 78 94 80 
3 78 16 23 
3 95 96 23 
3 82 97 84 
3 82 13 22 
3 98 99 22 
3 86 100 88 
3 86 10 21 
3 101 102 21 
3 90 103 72 
3 90 45 25 
3 104 105 25 
3 106 19 107 
3 106 44 108 
3 109 93 108 
3 109 16 110 
3 109 43 111 
3 112 96 111 
3 112 13 113 
3 112 42 114 
3 115 99 114 
3 104 116 107 
3 104 1 7 
3 117 118 7 
3 115 10 119 
3 115 1 120 
3 117 102 120 
