ply
format ascii 1.0
comment VCGLIB generated
comment TextureFile dummy.png
element vertex 121
property float x
property float y
property float z
property float nx
property float ny
property float nz
property float texture_u
property float texture_v
element face 80
property list uchar int vertex_indices
end_header
0.002522945 -0.02655669 0.005912066 0.002335548 -0.999987 0.004540569 0.2229915 0.8178904
0.1330161 -0.04736861 0.1007202 0.1058144 -0.9910494 0.08139097 0.2435856 0.8178904
-0.04885197 -0.04366591 0.158807 -0.05855276 -0.9819015 0.1801139 0.2435856 0.8384845
0.2245331 -0.008981004 0.1672101 0.6321539 -0.6159253 0.470125 0.2229915 0.8178904
0.26351 -0.02152979 0.005002022 0.7145154 -0.6992356 -0.02318215 0.2435856 0.8384845
-0.158777 -0.0473687 0.005912066 -0.1327686 -0.9910903 0.0106093 0.2435856 0.8384845
-0.04731989 -0.04736861 -0.1474919 -0.03395008 -0.9910824 -0.1288529 0.2435856 0.8384845
0.1330161 -0.04471239 -0.08989787 0.1387272 -0.9851937 -0.1007378 0.2435856 0.8384845
0.294317 0.1267069 0.09741616 0.9496045 -0.01476302 0.3131028 0.2435856 0.8384845
-0.08982301 0.009270698 0.2643931 -0.2506926 -0.550926 0.7960112 0.2229915 0.8178904
0.08178401 -0.02058029 0.2536631 0.1822048 -0.6780347 0.7120887 0.2435856 0.8178904
-0.02313399 0.1799985 0.3042021 -0.02035994 0.03247261 0.9992653 0.2435856 0.8384845
-0.2718959 -0.0089802 0.005912066 -0.7743647 -0.6327332 0.002816887 0.2229915 0.8178904
-0.210011 -0.0205797 0.1588552 -0.5542839 -0.7068204 0.4395161 0.2435856 0.8178904
-0.294317 0.1301558 0.09904408 -0.9617163 -0.06668344 0.2658104 0.2435856 0.8384845
-0.08227587 -0.008981094 -0.2550759 -0.2381628 -0.630953 -0.7383609 0.2229915 0.8178904
-0.208621 -0.0239412 -0.1474919 -0.5675042 -0.7126955 -0.4123157 0.2435856 0.8178904
-0.1778159 0.1179531 -0.2423029 -0.5968243 -0.02274325 -0.8020496 0.2435856 0.8384845
0.2245331 0.004112005 -0.1603279 0.6536883 -0.5931396 -0.4699756 0.2229915 0.8178904
0.08317304 -0.02153009 -0.2432108 0.2291149 -0.7147857 -0.6607479 0.2435856 0.8178904
0.1828611 0.1624612 -0.2591028 0.5611994 -0.04937476 -0.8262067 0.2435856 0.8384845
0.177815 0.1301554 0.2524512 0.5571049 0.007848988 0.8304051 0.2435856 0.8384845
-0.2034719 0.1799991 0.2456071 -0.6122349 -0.02327106 0.7903334 0.2435856 0.8384845
-0.2892709 0.1179531 -0.0888958 -0.9453286 -0.02801054 -0.3249143 0.2435856 0.8384845
0.002522945 0.1267065 -0.3042018 -0.04000765 -0.05585372 -0.9976371 0.2435856 0.8384845
0.294317 0.1624611 -0.105696 0.952241 -0.01870772 -0.304774 0.2435856 0.8384845
0.05728602 0.3278008 0.2569251 0.3222254 0.4597662 0.8275179 0.2229915 0.8178904
0.208765 0.2998598 0.1543841 0.7015623 0.4771301 0.5292988 0.2435856 0.8178904
0.02681303 0.4414655 0.1505551 0.2371923 0.8979908 0.3706108 0.2435856 0.8384845
-0.2495229 0.3278008 0.1572361 -0.8457638 0.4090348 0.3425993 0.2229915 0.8178904
-0.1290839 0.4024833 0.2372031 -0.2966157 0.6453546 0.7039436 0.2435856 0.8178904
-0.1536269 0.4409895 0.09220004 -0.4450623 0.8954784 -0.006168296 0.2435856 0.8384845
-0.219487 0.2551645 -0.155386 -0.7250981 0.4302422 -0.537703 0.2229915 0.8178904
-0.2635109 0.2914578 0.004236221 -0.8778052 0.4472289 -0.1715938 0.2435856 0.8178904
-0.128372 0.3806433 -0.08930492 -0.4836186 0.7771266 -0.402725 0.2435856 0.8384845
0.08732104 0.3072691 -0.2747428 0.1208151 0.4156128 -0.901482 0.2229915 0.8178904
-0.07812786 0.2880083 -0.245605 -0.3801523 0.4750581 -0.793602 0.2435856 0.8178904
0.05236602 0.4234509 -0.1642919 -0.04379937 0.8872712 -0.4591638 0.2435856 0.8384845
0.276942 0.3072684 -0.0137558 0.894664 0.4397766 0.07856864 0.2229915 0.8178904
0.213666 0.3676513 -0.1808589 0.6293684 0.5987251 -0.4954026 0.2435856 0.8178904
0.1638219 0.4234508 -0.01088881 0.4728378 0.8777582 0.07723384 0.2435856 0.8384845
-0.002454042 0.4473687 0.0002701283 -0.05558223 0.9909174 -0.1224477 0.2435856 0.8384845
-0.04885197 -0.04366591 0.158807 -0.05855276 -0.9819015 0.1801139 0.2435856 0.8178904
-0.158777 -0.0473687 0.005912066 -0.1327686 -0.9910903 0.0106093 0.2435856 0.8178904
-0.04731989 -0.04736861 -0.1474919 -0.03395008 -0.9910824 -0.1288529 0.2435856 0.8178904
0.26351 -0.02152979 0.005002022 0.7145154 -0.6992356 -0.02318215 0.2435856 0.8178904
0.294317 0.1267069 0.09741616 0.9496045 -0.01476302 0.3131028 0.2435856 0.8178904
-0.02313399 0.1799985 0.3042021 -0.02035994 0.03247261 0.9992653 0.2435856 0.8178904
-0.294317 0.1301558 0.09904408 -0.9617163 -0.06668344 0.2658104 0.2435856 0.8178904
-0.1778159 0.1179531 -0.2423029 -0.5968243 -0.02274325 -0.8020496 0.2435856 0.8178904
0.1828611 0.1624612 -0.2591028 0.5611994 -0.04937476 -0.8262067 0.2435856 0.8178904
0.1638219 0.4234508 -0.01088881 0.4728378 0.8777582 0.07723384 0.2229915 0.8178904
0.05236602 0.4234509 -0.1642919 -0.04379937 0.8872712 -0.4591638 0.2435856 0.8178904
0.213666 0.3676513 -0.1808589 0.6293684 0.5987251 -0.4954026 0.2229915 0.8178904
0.08732104 0.3072691 -0.2747428 0.1208151 0.4156128 -0.901482 0.2435856 0.8178904
0.05236602 0.4234509 -0.1642919 -0.04379937 0.8872712 -0.4591638 0.2229915 0.8178904
-0.128372 0.3806433 -0.08930492 -0.4836186 0.7771266 -0.402725 0.2435856 0.8178904
-0.07812786 0.2880083 -0.245605 -0.3801523 0.4750581 -0.793602 0.2229915 0.8178904
-0.219487 0.2551645 -0.155386 -0.7250981 0.4302422 -0.537703 0.2435856 0.8178904
-0.128372 0.3806433 -0.08930492 -0.4836186 0.7771266 -0.402725 0.2229915 0.8178904
-0.1536269 0.4409895 0.09220004 -0.4450623 0.8954784 -0.006168296 0.2435856 0.8178904
-0.2635109 0.2914578 0.004236221 -0.8778052 0.4472289 -0.1715938 0.2229915 0.8178904
-0.2495229 0.3278008 0.1572361 -0.8457638 0.4090348 0.3425993 0.2435856 0.8178904
-0.1536269 0.4409895 0.09220004 -0.4450623 0.8954784 -0.006168296 0.2229915 0.8178904
0.02681303 0.4414655 0.1505551 0.2371923 0.8979908 0.3706108 0.2435856 0.8178904
-0.1290839 0.4024833 0.2372031 -0.2966157 0.6453546 0.7039436 0.2229915 0.8178904
0.05728602 0.3278008 0.2569251 0.3222254 0.4597662 0.8275179 0.2435856 0.8178904
0.02681303 0.4414655 0.1505551 0.2371923 0.8979908 0.3706108 0.2229915 0.8178904
0.1638219 0.4234508 -0.01088881 0.4728378 0.8777582 0.07723384 0.2435856 0.8178904
0.208765 0.2998598 0.1543841 0.7015623 0.4771301 0.5292988 0.2229915 0.8178904
0.276942 0.3072684 -0.0137558 0.894664 0.4397766 0.07856864 0.2435856 0.8178904
0.294317 0.1624611 -0.105696 0.952241 -0.01870772 -0.304774 0.2229915 0.8178904
0.276942 0.3072684 -0.0137558 0.894664 0.4397766 0.07856864 0.2435856 0.8384845
0.213666 0.3676513 -0.1808589 0.6293684 0.5987251 -0.4954026 0.2435856 0.8384845
0.1828611 0.1624612 -0.2591028 0.5611994 -0.04937476 -0.8262067 0.2229915 0.8178904
0.002522945 0.1267065 -0.3042018 -0.04000765 -0.05585372 -0.9976371 0.2229915 0.8178904
0.08732104 0.3072691 -0.2747428 0.1208151 0.4156128 -0.901482 0.2435856 0.8384845
-0.07812786 0.2880083 -0.245605 -0.3801523 0.4750581 -0.793602 0.2435856 0.8384845
-0.1778159 0.1179531 -0.2423029 -0.5968243 -0.02274325 -0.8020496 0.2229915 0.8178904
-0.2892709 0.1179531 -0.0888958 -0.9453286 -0.02801054 -0.3249143 0.2229915 0.8178904
-0.219487 0.2551645 -0.155386 -0.7250981 0.4302422 -0.537703 0.2435856 0.8384845
-0.2635109 0.2914578 0.004236221 -0.8778052 0.4472289 -0.1715938 0.2435856 0.8384845
-0.294317 0.1301558 0.09904408 -0.9617163 -0.06668344 0.2658104 0.2229915 0.8178904
-0.2034719 0.1799991 0.2456071 -0.6122349 -0.02327106 0.7903334 0.2229915 0.8178904
-0.2495229 0.3278008 0.1572361 -0.8457638 0.4090348 0.3425993 0.2435856 0.8384845
-0.1290839 0.4024833 0.2372031 -0.2966157 0.6453546 0.7039436 0.2435856 0.8384845
-0.02313399 0.1799985 0.3042021 -0.02035994 0.03247261 0.9992653 0.2229915 0.8178904
0.177815 0.1301554 0.2524512 0.5571049 0.007848988 0.8304051 0.2229915 0.8178904
0.05728602 0.3278008 0.2569251 0.3222254 0.4597662 0.8275179 0.2435856 0.8384845
0.208765 0.2998598 0.1543841 0.7015623 0.4771301 0.5292988 0.2435856 0.8384845
0.294317 0.1267069 0.09741616 0.9496045 -0.01476302 0.3131028 0.2229915 0.8178904
0.002522945 0.1267065 -0.3042018 -0.04000765 -0.05585372 -0.9976371 0.2435856 0.8178904
0.08317304 -0.02153009 -0.2432108 0.2291149 -0.7147857 -0.6607479 0.2229915 0.8178904
-0.08227587 -0.008981094 -0.2550759 -0.2381628 -0.630953 -0.7383609 0.2435856 0.8178904
-0.2892709 0.1179531 -0.0888958 -0.9453286 -0.02801054 -0.3249143 0.2435856 0.8178904
-0.208621 -0.0239412 -0.1474919 -0.5675042 -0.7126955 -0.4123157 0.2229915 0.8178904
-0.2718959 -0.0089802 0.005912066 -0.7743647 -0.6327332 0.002816887 0.2435856 0.8178904
-0.2034719 0.1799991 0.2456071 -0.6122349 -0.02327106 0.7903334 0.2435856 0.8178904
-0.210011 -0.0205797 0.1588552 -0.5542839 -0.7068204 0.4395161 0.2229915 0.8178904
-0.08982301 0.009270698 0.2643931 -0.2506926 -0.550926 0.7960112 0.2435856 0.8178904
0.177815 0.1301554 0.2524512 0.5571049 0.007848988 0.8304051 0.2435856 0.8178904
0.08178401 -0.02058029 0.2536631 0.1822048 -0.6780347 0.7120887 0.2229915 0.8178904
0.2245331 -0.008981004 0.1672101 0.6321539 -0.6159253 0.470125 0.2435856 0.8178904
0.294317 0.1624611 -0.105696 0.952241 -0.01870772 -0.304774 0.2435856 0.8178904
0.26351 -0.02152979 0.005002022 0.7145154 -0.6992356 -0.02318215 0.2229915 0.8178904
0.2245331 0.004112005 -0.1603279 0.6536883 -0.5931396 -0.4699756 0.2435856 0.8178904
0.1330161 -0.04471239 -0.08989787 0.1387272 -0.9851937 -0.1007378 0.2229915 0.8178904
0.2245331 0.004112005 -0.1603279 0.6536883 -0.5931396 -0.4699756 0.2435856 0.8384845
0.08317304 -0.02153009 -0.2432108 0.2291149 -0.7147857 -0.6607479 0.2435856 0.8384845
-0.04731989 -0.04736861 -0.1474919 -0.03395008 -0.9910824 -0.1288529 0.2229915 0.8178904
-0.08227587 -0.008981094 -0.2550759 -0.2381628 -0.630953 -0.7383609 0.2435856 0.8384845
-0.208621 -0.0239412 -0.1474919 -0.5675042 -0.7126955 -0.4123157 0.2435856 0.8384845
-0.158777 -0.0473687 0.005912066 -0.1327686 -0.9910903 0.0106093 0.2229915 0.8178904
-0.2718959 -0.0089802 0.005912066 -0.7743647 -0.6327332 0.002816887 0.2435856 0.8384845
-0.210011 -0.0205797 0.1588552 -0.5542839 -0.7068204 0.4395161 0.2435856 0.8384845
-0.04885197 -0.04366591 0.158807 -0.05855276 -0.9819015 0.1801139 0.2229915 0.8178904
0.1330161 -0.04471239 -0.08989787 0.1387272 -0.9851937 -0.1007378 0.2435856 0.8178904
0.1330161 -0.04736861 0.1007202 0.1058144 -0.9910494 0.08139097 0.2229915 0.8178904
0.002522945 -0.02655669 0.005912066 0.002335548 -0.999987 0.004540569 0.2435856 0.8178904
-0.08982301 0.009270698 0.2643931 -0.2506926 -0.550926 0.7960112 0.2435856 0.8384845
0.08178401 -0.02058029 0.2536631 0.1822048 -0.6780347 0.7120887 0.2435856 0.8384845
3 0 1 2 
3 3 1 4 
3 0 42 5 
3 0 43 6 
3 0 44 7 
3 3 45 8 
3 9 10 11 
3 12 13 14 
3 15 16 17 
3 18 19 20 
3 3 46 21 
3 9 47 22 
3 12 48 23 
3 15 49 24 
3 18 50 25 
3 26 27 28 
3 29 30 31 
3 32 33 34 
3 35 36 37 
3 38 39 40 
3 51 52 41 
3 51 39 37 
3 53 54 37 
3 55 56 41 
3 55 36 34 
3 57 58 34 
3 59 60 41 
3 59 33 31 
3 61 62 31 
3 63 64 41 
3 63 30 28 
3 65 66 28 
3 67 68 41 
3 67 27 40 
3 69 70 40 
3 71 39 72 
3 71 50 73 
3 74 54 73 
3 75 36 76 
3 75 49 77 
3 78 58 77 
3 79 33 80 
3 79 48 81 
3 82 62 81 
3 83 30 84 
3 83 47 85 
3 86 66 85 
3 87 27 88 
3 87 46 89 
3 90 70 89 
3 74 91 76 
3 74 19 24 
3 92 93 24 
3 78 94 80 
3 78 16 23 
3 95 96 23 
3 82 97 84 
3 82 13 22 
3 98 99 22 
3 86 100 88 
3 86 10 21 
3 101 102 21 
3 90 103 72 
3 90 45 25 
3 104 105 25 
3 106 19 107 
3 106 44 108 
3 109 93 108 
3 109 16 110 
3 109 43 111 
3 112 96 111 
3 112 13 113 
3 112 42 114 
3 115 99 114 
3 104 116 107 
3 104 1 7 
3 117 118 7 
3 115 10 119 
3 115 1 120 
3 117 102 120 
