ply
format ascii 1.0
comment VCGLIB generated
comment TextureFile dummy.png
element vertex 387
property float x
property float y
property float z
property float nx
property float ny
property float nz
property float texture_u
property float texture_v
element face 654
property list uchar int vertex_indices
end_header
8.005934 28.44175 -0.8251662 -0.4008387 -0.6427769 -0.6528141 0.1441971 0.8606585
7.591095 28.96339 -1.021756 -0.5095398 -0.551544 -0.6604305 0.1443208 0.8615254
10.77124 32.16161 -5.625394 0.06088239 0.004364033 -0.9981354 0.1528579 0.8665134
11.01608 29.56305 -2.719959 0.4656017 -0.8339511 -0.2962104 0.1484804 0.8621868
7.021552 29.33666 -0.8834518 -0.5096706 -0.5251452 -0.6815119 0.143893 0.8621676
7.978617 32.32445 -2.899814 -0.8586928 0.3409759 -0.3825994 0.1474025 0.8669195
8.273399 27.91033 -0.4661462 -0.4235292 -0.651553 -0.6293661 0.1437742 0.8597877
8.21461 27.49532 0.0880696 -0.3967523 -0.749503 -0.5299367 0.1429345 0.8591387
7.97859 27.20593 0.6740643 -0.427449 -0.7366885 -0.5240014 0.1419829 0.8587123
7.490443 27.21006 1.16857 -0.5004879 -0.7649531 -0.4054116 0.1410773 0.8587813
6.928668 27.38062 1.540272 -0.5183463 -0.7428405 -0.4236805 0.1403321 0.8591182
6.378746 27.80077 1.602695 -0.6339295 -0.6774933 -0.3730096 0.1400449 0.8598374
5.914243 28.30284 1.480207 -0.6277766 -0.6653759 -0.4039449 0.1400562 0.8606671
5.71665 28.82264 1.06354 -0.696595 -0.5529812 -0.4571294 0.1405841 0.8614917
5.6992 29.27816 0.539097 -0.6733326 -0.5626309 -0.479656 0.1413311 0.8621984
6.002727 29.50618 -0.04290126 -0.6412936 -0.48518 -0.5944266 0.1422818 0.8625249
6.445467 29.57213 -0.57438 -0.6207129 -0.5119689 -0.5938041 0.1432191 0.8625885
11.2113 29.43767 -2.550387 0.2678141 0.9630541 -0.02832614 0.1483224 0.8619629
11.14631 29.36205 -2.613909 -0.2959109 0.2982024 -0.9074757 0.1483759 0.8618413
8.107731 28.5602 -0.7256676 0.461928 0.6061791 0.6474331 0.1441058 0.8608378
11.08107 29.63868 -2.656438 0.890678 7.289024e-05 0.4546348 0.1484271 0.862309
14.17521 26.90798 -2.853488 0.4354653 -0.5722511 -0.6949092 0.1501724 0.8573457
14.27701 27.02643 -2.75399 0.9849386 0.162423 -0.05928567 0.1500912 0.857529
11.8552 26.51732 0.2675483 0.4798939 -0.001953045 0.8773244 0.1442432 0.8570455
11.79021 26.44169 0.2040262 -0.00225196 -0.9480068 0.3182422 0.1443041 0.8569323
8.316406 27.61378 0.1875687 0.4236634 0.7004639 0.5743341 0.1428397 0.8593141
11.79893 26.38287 0.4851843 0.7405108 0.6559283 -0.1462939 0.1438833 0.8568319
11.73394 26.30724 0.4216612 0.2994985 -0.1904264 -0.9349002 0.1439448 0.8567193
12.70443 23.39378 2.834945 0.2751518 -0.9587972 -0.07070826 0.1406061 0.8517379
12.80623 23.51223 2.934444 0.8389463 -0.1902095 0.5098916 0.1404999 0.8519017
9.564402 25.50264 3.81924 0.01153785 0.3509933 0.9363069 0.1379546 0.8557521
9.499411 25.42702 3.755718 -0.6491579 -0.5585141 0.5163875 0.1380248 0.855644
7.592239 27.32851 1.268068 0.4759696 0.7439072 0.4691003 0.1409784 0.8589543
9.29901 25.46036 3.921053 0.4791848 -0.7569959 -0.4442286 0.1377076 0.8557302
9.364 25.53599 3.984576 0.965213 0.2151787 0.1485326 0.137637 0.8558382
7.466438 24.26527 7.156401 -0.2993306 -0.864194 0.4044376 0.1323525 0.8541456
7.568234 24.38373 7.255898 0.3151467 -0.1041188 0.9433143 0.1322299 0.8543072
5.933687 27.35872 5.324136 -0.1617065 0.7931519 0.5871637 0.1345409 0.8592099
5.868695 27.2831 5.260615 -0.9879726 0.04123094 0.1490312 0.1346145 0.8590997
6.480544 27.91923 1.702193 0.5794597 0.703794 0.4109752 0.1399443 0.8600113
5.740058 27.53475 5.312672 0.7727245 -0.02731919 0.6341534 0.1344975 0.8595078
5.675068 27.45913 5.24915 0.1078284 -0.9748486 0.1950468 0.134571 0.8593973
2.405539 28.86621 6.856735 -0.8553987 -0.3596861 0.3727185 0.1313461 0.8619021
2.507336 28.98466 6.956234 -0.1920308 0.3558517 0.9146003 0.1312262 0.8620765
3.697059 30.68789 3.649024 0.09061315 0.9915516 0.0928151 0.1362366 0.8645865
3.632067 30.61226 3.585502 -0.7635717 0.3996131 -0.5072157 0.1363061 0.8644693
5.818447 28.9411 1.163038 0.6562015 0.6103315 0.4437286 0.1404854 0.8616691
3.591021 30.79842 3.405869 -0.5349128 -0.6799368 0.5015519 0.136548 0.8647587
3.656012 30.87404 3.469392 0.3079931 0.1110622 0.9448838 0.1364788 0.8648764
1.332698 33.73199 2.161603 -0.9743105 0.1748274 -0.1419665 0.1375694 0.8693392
1.434495 33.85044 2.261102 -0.3006695 0.843349 0.4453765 0.1374656 0.869532
4.538746 32.98321 0.0552954 0.5784984 0.7968024 -0.1744868 0.1416777 0.8681113
4.473757 32.90759 -0.008227168 -0.1449256 0.2467629 -0.9581777 0.141739 0.8679868
6.104524 29.62463 0.05659732 0.6484082 0.5338985 0.5426962 0.1421871 0.8627057
4.681188 33.03932 -0.1572386 -0.07903529 0.5261061 0.8467384 0.1420382 0.8681946
4.616197 32.9637 -0.2207606 -0.9650551 -0.0943431 0.2444751 0.142099 0.8680699
5.055783 35.19859 -3.393467 -0.5665265 0.3368468 -0.7520518 0.1468842 0.8715785
5.157581 35.31704 -3.293969 0.07103848 0.9912757 -0.1110229 0.1468008 0.8717847
7.824943 32.51627 -2.7509 0.9345602 0.3555499 -0.01347391 0.1471258 0.8672441
7.75995 32.44064 -2.814422 0.4020971 -0.3022337 -0.8642759 0.1471798 0.867117
7.123349 29.45512 -0.7839538 0.5619498 0.5320498 0.6333526 0.1438016 0.8623493
6.547264 29.69058 -0.474881 0.5694016 0.5232422 0.6340342 0.1431265 0.8627702
8.04361 32.40007 -2.836292 -0.09691364 0.905277 0.4136198 0.1473488 0.8670465
7.69289 29.08184 -0.9222572 0.4622948 0.5975674 0.655131 0.203998 0.7663347
5.800997 29.39661 0.6385945 0.6568525 0.5309632 0.5353717 0.2010022 0.7670059
6.016041 28.4213 1.579705 0.6587924 0.6149164 0.4334403 0.1997239 0.7654709
7.030466 27.49907 1.639771 0.573763 0.7118798 0.4049979 0.1999997 0.7639194
8.080387 27.32438 0.7735635 0.4657893 0.7488425 0.4714608 0.2016537 0.7635143
8.375196 28.02878 -0.3666471 0.4161791 0.6979693 0.5827812 0.2034495 0.7645932
10.87304 32.28007 -5.525896 0.6431893 0.6882345 -0.3356201 0.1527864 0.8667171
-9.927918 8.194074 2.633631 -0.3145887 -0.06898674 0.9467179 0.2289995 0.8617285
-9.708486 8.357375 2.574552 0.2050783 0.9190056 0.3367069 0.2290585 0.8618112
-16.84119 7.785138 0.3975777 -0.5626174 0.8180211 -0.1195961 0.2256975 0.8615215
-17.06018 7.577479 0.4293037 -0.9623224 -0.2703943 0.02867922 0.2256291 0.8614163
-4.896037 5.395924 -2.474797 -0.2899437 -0.4016087 -0.868702 0.2290296 0.8603117
-4.677675 5.602399 -2.502069 0.5594513 0.5842855 -0.5878986 0.2290994 0.8604163
-0.945609 -0.357253 -0.6097081 0.8672025 -0.08624841 -0.4904295 0.2311234 0.8573986
-1.163121 -0.5627284 -0.583996 -0.01447298 -0.8289683 -0.5591083 0.2310533 0.8572947
-1.226008 -0.7307577 0.2307297 -0.1434867 -0.988213 0.05335359 0.2313175 0.8572096
-1.007016 -0.5230983 0.1990038 0.9760443 -0.1746392 -0.1297638 0.2313859 0.8573147
-0.7186301 -0.357253 0.9570405 0.9649861 -0.04313148 0.2587305 0.2317579 0.8573986
-0.9344962 -0.5627284 0.9941129 0.09394053 -0.8110824 0.5773392 0.2316925 0.8572947
-5.640644 4.306784 0.4800659 -0.6230658 -0.7752324 0.1039413 0.2297999 0.8597603
-5.433848 4.52499 0.4536579 0.6229063 0.7762396 -0.09715934 0.2298658 0.8598707
-3.870969 5.602399 3.066316 0.6691431 0.6129867 0.4201128 0.2313546 0.8604163
-4.10016 5.406358 3.107395 -0.1329005 -0.2878215 0.9484178 0.2312857 0.860317
-11.08386 7.340182 0.6407615 -0.2319391 -0.9706053 0.06426216 0.227877 0.8612962
-10.88144 7.588915 0.621224 0.2260097 0.972275 -0.06000932 0.2279437 0.8614221
-10.31382 8.357375 -1.603842 0.1212992 0.8662444 -0.4846723 0.2273662 0.8618112
-10.52586 8.158875 -1.592205 -0.3389362 -0.3168333 -0.8858549 0.2272932 0.8617107
0.5917265 -0.3909367 -2.190608 0.2650688 -0.8089029 -0.5247996 0.2314506 0.8573816
0.2364633 -0.02564836 -2.340311 -0.6228735 -0.05378901 -0.7804712 0.2312555 0.8575666
5.350904 7.858942 -1.984843 -0.2529984 0.6181193 -0.7442582 0.2336791 0.8615588
5.698759 7.53162 -1.866947 0.7034427 -0.2390537 -0.6693442 0.233864 0.8613931
4.661453 6.071402 2.644282 0.6286985 -0.739018 0.242055 0.2343519 0.8606538
0.1960841 -0.6372058 -0.8594537 0.1349599 -0.9906292 0.0209698 0.2315534 0.8572569
-0.1641942 -0.2642584 -1.027178 -0.8986266 -0.1532078 -0.4110933 0.2313522 0.8574457
-0.6169356 -0.3909366 0.4056402 -0.2365261 -0.8773695 0.4174663 0.2314506 0.8573816
-0.9634982 -0.02564826 0.2372477 -0.9895229 -0.09821679 -0.1058205 0.2312555 0.8575666
1.405316 7.512078 7.305542 -0.2190415 -0.5540445 0.8031535 0.2338533 0.8613832
4.324734 6.463289 2.480562 -0.6252799 0.7401218 -0.2474771 0.2341624 0.8608521
1.087789 7.857822 7.178133 -0.8444613 0.4647246 0.2663011 0.2336803 0.8615582
9.605009 10.61578 7.028533 -0.5339078 0.8172466 -0.2169112 0.237558 0.8629547
10.26822 11.60829 3.612281 -0.09413414 0.8833386 -0.4591859 0.2371324 0.8634572
7.077334 11.60205 10.49797 -0.5359641 0.714597 0.4495482 0.2371391 0.8634541
10.65778 11.3517 3.705391 0.838043 -0.1057735 -0.5352532 0.2373311 0.8633273
14.22011 14.99612 10.44212 0.233386 0.9532759 0.1918227 0.2404059 0.8651726
14.58039 14.62317 10.60984 0.870667 0.09081125 0.4834175 0.2406072 0.8649838
9.883738 10.14943 7.19015 0.5322626 -0.8176352 0.2194751 0.2377205 0.8627186
7.371157 11.26984 10.6441 -0.005141688 -0.3722138 0.9281328 0.2373053 0.8632859
-1.211616 -0.8499216 -1.383431 -0.3316315 -0.8075646 -0.487709 0.2307747 0.8571492
-1.313279 -0.5396327 -1.068663 -0.9447721 -0.0612855 0.3219469 0.2308086 0.8573064
0.1702897 8.345388 -5.976288 -0.7801039 0.5688457 0.2604852 0.2302367 0.8618051
0.2487541 8.051146 -6.322321 -0.6386248 -0.2468844 -0.7288391 0.2301849 0.8616561
2.292637 7.334663 -5.682323 0.1921446 -0.6358078 -0.7475486 0.2311774 0.8609509
-0.3500856 -0.9043171 -0.2426853 -0.07673062 -0.9911629 0.1082065 0.2314391 0.8571217
-0.461977 -0.5907299 0.0721777 -0.4002343 -0.1229744 0.9081244 0.2314684 0.8572805
1.303132 -0.8499212 -0.4897761 0.5033651 -0.8609368 -0.07356347 0.2321056 0.8571492
1.183366 -0.5396324 -0.1814412 0.4333305 -0.1828324 0.8824948 0.2321298 0.8573064
5.308545 8.035421 -4.427231 0.8317888 -0.5550753 -0.004326672 0.2328868 0.8616482
2.502619 7.695724 -4.718679 -0.2817688 0.6462808 0.7091739 0.2312082 0.8611121
5.19048 8.347217 -4.116584 0.3501511 0.3918331 0.8508003 0.2329124 0.861806
6.300605 11.77101 -9.14558 -0.1500605 0.9198543 0.3624224 0.2321457 0.8635396
3.60265 12.52087 -9.586564 -0.4702554 0.8815755 0.04104167 0.2308472 0.8639193
8.610019 12.85502 -8.05416 0.256228 0.849166 0.4618054 0.2334355 0.8640885
3.724704 12.27596 -9.907225 -0.4496677 0.05188512 -0.8916877 0.2308209 0.8637953
12.36789 12.33056 -13.16623 0.7239071 0.6848436 -0.08335368 0.2338144 0.8638229
12.47978 12.01698 -13.4811 0.6818244 -0.2587422 -0.6842279 0.2337851 0.8636642
6.386827 11.4183 -9.396856 0.1338076 -0.8960068 -0.4233998 0.232121 0.863361
8.850408 12.55247 -8.307449 0.8049443 -0.3665766 0.4665687 0.2334782 0.8639352
-0.7044216 25.54033 -1.105881 0.4686068 -0.7124081 0.5223815 0.1441971 0.8606585
-0.1955978 25.92202 -1.113078 0.5889616 -0.6477062 0.4833228 0.1443208 0.8615254
-0.7094271 29.44917 3.588294 0.307596 0.02337839 0.9512298 0.1528579 0.8665134
-2.368093 27.1657 1.39333 -0.4875784 -0.7073014 0.5118516 0.1484804 0.8621868
0.3027489 26.138 -1.444193 0.6021681 -0.6218861 0.5006511 0.143893 0.8621676
0.739683 29.00989 0.3494109 0.9894489 0.142778 0.02460269 0.1474025 0.8669195
-1.146411 25.11898 -1.284022 0.4789157 -0.7261601 0.4932862 0.1437742 0.8597877
-1.359819 24.73383 -1.743099 0.3983302 -0.8162106 0.4184894 0.1429345 0.8591387
-1.412629 24.42439 -2.296355 0.426715 -0.8106048 0.4010414 0.1419829 0.8587123
-1.169919 24.3258 -2.876012 0.4442546 -0.8551198 0.267223 0.1410773 0.8587813
-0.7937794 24.36129 -3.387766 0.4716698 -0.8374509 0.2760502 0.1403321 0.8591182
-0.2777158 24.6235 -3.651515 0.5718031 -0.7998398 0.1824764 0.1400449 0.8598374
0.2441296 24.97719 -3.736407 0.5799288 -0.786483 0.2124313 0.1400562 0.8606671
0.6449391 25.40275 -3.485632 0.6849284 -0.6919944 0.2280723 0.1405841 0.8614917
0.9195308 25.80831 -3.079739 0.6699686 -0.6960823 0.2580921 0.1413311 0.8621984
0.9032698 26.07677 -2.503281 0.6984401 -0.6127989 0.369674 0.1422818 0.8625249
0.7238356 26.2288 -1.912248 0.67399 -0.6343186 0.3786522 0.1432191 0.8625885
-2.610473 27.09286 1.321522 -0.03465889 0.9986795 0.03792333 0.1483224 0.8619629
-2.549578 27.01242 1.360703 0.6595387 0.2296648 0.7157254 0.1483759 0.8618413
-0.7998036 25.66633 -1.167249 -0.5297176 0.6904043 -0.4926877 0.1441058 0.8608378
-2.428988 27.24614 1.354152 -0.9743596 0.1963907 -0.1097911 0.1484271 0.862309
-5.452979 25.44286 2.73547 -0.2616576 -0.4567208 0.8502597 0.1501724 0.8573457
-5.548357 25.56885 2.674102 -0.8401605 0.3785494 0.3883693 0.1500912 0.857529
-4.632804 24.60426 -0.6447178 -0.7547576 0.1003631 -0.648281 0.1442432 0.8570455
-4.571909 24.52382 -0.6055385 -0.3087557 -0.926335 -0.2158085 0.1443041 0.8569323
-1.455201 24.85983 -1.804468 -0.4490004 0.7741706 -0.4461596 0.1428397 0.8593141
-4.683618 24.47168 -0.837945 -0.4847482 0.8054954 0.3408759 0.1438833 0.8568319
-4.622723 24.39124 -0.7987665 0.02765932 -0.1135823 0.9931436 0.1439448 0.8567193
-6.781106 21.97759 -2.31499 -0.4220223 -0.8727608 0.2453277 0.1406061 0.8517379
-6.87649 22.10359 -2.376358 -0.9866014 -0.0009314737 -0.1631467 0.1404999 0.8519017
-4.097647 23.21264 -4.333729 -0.2777572 0.3395069 -0.8986579 0.1379546 0.8557521
-4.036752 23.1322 -4.294551 0.2875706 -0.6922013 -0.661937 0.1380248 0.855644
-1.265299 24.4518 -2.93738 -0.4494109 0.8287782 -0.3334014 0.1409784 0.8589543
-3.918631 23.12015 -4.502871 -0.4303809 -0.6284323 0.6479546 0.1377076 0.8557302
-3.979525 23.20059 -4.54205 -0.8867404 0.424407 0.1832219 0.137637 0.8558382
-3.693709 21.6628 -7.759981 -0.05275042 -0.9114405 -0.4080364 0.1323525 0.8541456
-3.789091 21.7888 -7.821349 -0.6500216 -0.03637217 -0.7590449 0.1322299 0.8543072
-1.226503 24.11919 -6.934978 0.09745361 0.7337592 -0.672384 0.1345409 0.8592099
-1.165606 24.03875 -6.895799 0.8523406 -0.181203 -0.4905925 0.1346145 0.8590997
-0.3730989 24.74949 -3.712881 -0.5306501 0.8131046 -0.2393145 0.1399443 0.8600113
-1.028393 24.23675 -7.001523 -0.9379183 0.142364 -0.3162939 0.1344975 0.8595078
-0.9674971 24.15631 -6.962345 -0.3696479 -0.9272387 -0.05990711 0.134571 0.8593973
1.484345 24.73551 -9.49932 0.5680942 -0.5436353 -0.6178427 0.1313461 0.8619021
1.388964 24.86151 -9.560686 -0.08387836 0.298919 -0.950585 0.1312262 0.8620765
1.818604 26.64126 -6.489673 0.08833031 0.9862242 -0.1398552 0.1362366 0.8645865
1.879499 26.56083 -6.450494 0.9602822 0.2218719 0.169207 0.1363061 0.8644693
0.5495561 25.52875 -3.547 -0.6315376 0.7389525 -0.2347542 0.1404854 0.8616691
2.008413 26.71946 -6.325155 0.1641081 -0.7849677 -0.5974063 0.136548 0.8647587
1.947517 26.7999 -6.364333 -0.5997449 0.1717665 -0.7815385 0.1364788 0.8648764
4.853873 28.88192 -6.223245 0.9730022 -0.04632092 -0.2260999 0.1375694 0.8693392
4.758492 29.00792 -6.284612 0.2855217 0.7524571 -0.5935366 0.1374656 0.869532
2.744638 28.87969 -3.333138 -0.2982497 0.9067978 0.2979344 0.1416777 0.8681113
2.805534 28.79925 -3.293959 0.5301134 0.2134857 0.8206118 0.141739 0.8679868
0.8078867 26.20276 -2.564649 -0.6761019 0.6621646 -0.3231476 0.1421871 0.8627057
2.707287 28.95995 -3.110296 -0.1268624 0.4904742 -0.8621723 0.1420382 0.8681946
2.768181 28.87951 -3.071116 0.7689545 -0.3087694 -0.5597949 0.142099 0.8680699
3.877555 30.97969 -0.3987098 0.8570762 0.2060251 0.4722014 0.1468842 0.8715785
3.782173 31.10569 -0.4600757 0.180004 0.9827153 0.04323525 0.1468008 0.8717847
0.8542831 29.14889 0.1576937 -0.7711947 0.5552874 0.3113111 0.1471258 0.8672441
0.9151782 29.06845 0.1968722 -0.1142459 -0.2000297 0.9731064 0.1471798 0.867117
0.2073648 26.264 -1.505563 -0.6307901 0.6405535 -0.4379442 0.1438016 0.8623493
0.6284515 26.3548 -1.973617 -0.639624 0.6336302 -0.4351943 0.1431265 0.8627702
0.678789 29.09033 0.3102335 0.1246257 0.8584836 -0.497468 0.1473488 0.8670465
-0.2909788 26.04801 -1.174446 -0.534618 0.6820524 -0.4989872 0.203998 0.7663347
0.8241467 25.93431 -3.141107 -0.6817261 0.6612263 -0.3130964 0.2010022 0.7670059
0.1487476 25.10319 -3.797774 -0.6292162 0.7440569 -0.224647 0.1997239 0.7654709
-0.8891613 24.48728 -3.449136 -0.5216371 0.8197483 -0.2364476 0.1999997 0.7639194
-1.508011 24.55039 -2.357721 -0.4399985 0.8313032 -0.3396121 0.2016537 0.7635143
-1.241793 25.24497 -1.345391 -0.4457788 0.7700197 -0.4564549 0.2034495 0.7645932
-0.8048081 29.57517 3.526927 -0.3209657 0.8163148 0.4802199 0.1527864 0.8667171
-0.2762274 0.06907522 -1.049382 -0.01146657 -0.646344 -0.76296 0.1385481 0.819023
0.0350796 0.09071808 -0.8341705 0.7659405 -0.6020263 -0.2256093 0.1387113 0.8191319
-0.0743993 0.1207314 -0.4724945 0.493302 -0.543056 0.6795171 0.1389388 0.8190752
-0.4533686 0.1176369 -0.464177 -0.4540867 -0.5507918 0.7003097 0.1389174 0.8189306
-0.5781053 0.08571184 -0.8207134 -0.7651736 -0.6145269 -0.1920058 0.138675 0.8188981
-0.3972425 13.45671 -1.582293 -0.02137688 -0.06408881 -0.9977152 0.1389735 0.8269799
-0.1880147 13.47125 -1.437653 0.9463828 -0.009945489 -0.3228945 0.1390959 0.8270428
-0.6001304 13.46789 -1.428608 -0.95935 -0.02550515 -0.2810641 0.1390706 0.8269079
-0.5162952 13.48934 -1.188983 -0.5669344 0.05209957 0.8221138 0.1392533 0.8269266
-0.6038089 21.04046 -1.821773 -0.5849 0.003928155 0.811096 0.139303 0.8323895
-0.6955261 21.01698 -2.083924 -0.9537186 -0.03587616 -0.2985529 0.1390879 0.8323721
-0.4735645 21.00475 -2.252057 -0.03178874 -0.08368145 -0.9959854 0.1389737 0.8324388
-0.5969194 23.93473 -1.630176 -0.4754198 -0.2136033 0.8534341 0.1396784 0.8346763
-0.7788968 23.88816 -2.150321 -0.8861364 -0.4460446 -0.1257243 0.1392392 0.8346448
-0.3384935 23.86389 -2.483923 -0.005154941 -0.5711427 -0.8208346 0.1390055 0.8347655
-1.171736 25.17006 -1.348577 -0.711339 0.3574235 0.605182 0.1399665 0.8355379
-1.298007 24.43005 -2.623529 -0.9122545 -0.1077158 -0.3952076 0.1388488 0.8350132
-0.1281992 24.77359 -3.679436 -0.05126284 0.01546418 -0.9985655 0.1381235 0.8356815
0.735301 25.51764 -3.175448 0.6643419 0.5268093 -0.5302091 0.1386615 0.8364459
0.2019976 26.04476 -1.442528 0.3076428 0.8107008 0.4981166 0.1400639 0.8366027
0.1156688 23.89546 -2.169955 0.9349857 -0.320128 -0.1527082 0.1392977 0.8348701
-0.04404777 23.93925 -1.642313 0.5902068 -0.1335306 0.7961317 0.1397112 0.8348157
-0.2446689 21.02066 -2.09382 0.9365715 -0.07468159 -0.3424276 0.1391176 0.8324971
-0.3251673 21.04273 -1.82789 0.60378 -0.02203538 0.7968464 0.1393206 0.8324667
-0.2615939 13.49142 -1.194575 0.6015375 0.06163953 0.796463 0.1392684 0.82701
0.5321078 -0.005375304 -0.1363784 -0.4027498 -0.5667548 0.7187362 0.1385481 0.819023
0.3010325 0.07087773 -0.4946571 -0.9100171 -0.4095646 -0.06423277 0.1387113 0.8191319
0.5679885 0.04298015 -0.8345538 -0.3300968 -0.4861279 -0.8091451 0.1389388 0.8190752
0.964052 -0.05051579 -0.6863431 0.536516 -0.6907033 -0.4848501 0.1389174 0.8189306
0.9418764 -0.08040095 -0.2548464 0.4905528 -0.7401856 0.4598731 0.138675 0.8188981
3.857955 14.92784 0.3962999 -0.3464849 0.01894608 0.9378642 0.1389735 0.8269799
3.702652 14.97909 0.1555041 -0.9761096 0.2131193 -0.0423111 0.1390959 0.8270428
4.133356 14.87742 0.3166783 0.7671396 -0.1983957 0.6100295 0.1390706 0.8269079
4.14826 14.8975 0.02667391 0.8165992 -0.1367723 -0.5607666 0.1392533 0.8269266
5.910397 23.3485 0.6888062 0.8182898 -0.1864815 -0.5437156 0.139303 0.8323895
5.894094 23.32652 1.00607 0.7535465 -0.2058408 0.6243374 0.1390879 0.8323721
5.592802 23.38169 1.093179 -0.3407868 -0.00244683 0.9401374 0.1389737 0.8324388
6.718626 26.55455 0.4636114 0.6889151 -0.3827924 -0.615521 0.1396784 0.8346763
6.686274 26.51095 1.093115 0.6685832 -0.6008346 0.4381716 0.1392392 0.8346448
6.088469 26.6204 1.265947 -0.4120943 -0.4871727 0.7699617 0.1390055 0.8347655
7.683152 27.76727 0.2668002 0.9096122 0.1462987 -0.3888475 0.1399665 0.8355379
7.172983 27.03871 1.808624 0.6843972 -0.2448932 0.6867516 0.1388488 0.8350132
5.620797 27.80052 2.445893 -0.3018598 0.09040398 0.9490563 0.1381235 0.8356815
5.116882 28.78293 1.546744 -0.6655733 0.7050704 0.2447203 0.1386615 0.8364459
6.502822 29.07409 -0.08062925 0.08617479 0.8230137 -0.5614466 0.1400639 0.8366027
5.751357 26.73165 0.7432613 -0.9750254 -0.1062172 -0.1950475 0.1392977 0.8348701
6.140814 26.69094 0.2473899 -0.2856428 -0.07700495 -0.9552374 0.1397112 0.8348157
5.4229 23.43776 0.8297463 -0.9885289 0.1496764 -0.02018916 0.1391176 0.8324971
5.619185 23.41724 0.5798296 -0.2728333 0.03440994 -0.9614457 0.1393206 0.8324667
3.88207 14.96034 -0.07293708 -0.2522478 0.1155419 -0.9607399 0.1392684 0.82701
-1.975601 19.68283 2.390107 0.4781428 -0.6353667 -0.6063734 0.1441971 0.8606585
-2.07791 20.00239 2.022623 0.4125462 -0.5674621 -0.7125956 0.1443208 0.8615254
1.391211 23.04581 1.953151 0.8726434 0.1246232 -0.4721892 0.1528579 0.8665134
0.08617425 21.04327 3.405716 0.645761 -0.6867709 0.3336744 0.1484804 0.8621868
-2.417113 20.17033 1.69956 0.4251037 -0.5395035 -0.7267894 0.143893 0.8621676
-1.276183 22.54755 1.27493 -0.1712087 0.2016364 -0.9643808 0.1474025 0.8669195
-2.02272 19.3227 2.730289 0.4487531 -0.6510012 -0.612224 0.1437742 0.8597877
-2.320611 18.98186 2.936966 0.3973198 -0.751799 -0.5262464 0.1429345 0.8591387
-2.718573 18.70074 3.038107 0.3745156 -0.7461056 -0.550513 0.1419829 0.8587123
-3.192345 18.59527 2.928344 0.2435253 -0.8010994 -0.5467497 0.1410773 0.8587813
-3.641475 18.60484 2.71428 0.2457225 -0.781161 -0.5739408 0.1403321 0.8591182
-3.93437 18.81417 2.370732 0.1325491 -0.7461539 -0.6524456 0.1400449 0.8598374
-4.096462 19.10722 2.002657 0.159367 -0.7297702 -0.6648591 0.1400562 0.8606671
-3.987923 19.47373 1.684023 0.1479677 -0.6283337 -0.7637423 0.1405841 0.8614917
-3.740922 19.82958 1.439108 0.1804727 -0.630632 -0.7548065 0.1413311 0.8621984
-3.31268 20.07727 1.385325 0.2781692 -0.5363604 -0.7968308 0.1422818 0.8625249
-2.842582 20.22797 1.447993 0.2931468 -0.5583981 -0.7760519 0.1432191 0.8625885
0.07081452 20.97066 3.597673 -0.03183692 0.9944475 0.1003022 0.1483224 0.8619629
0.09670747 20.91354 3.54079 0.5607401 0.3295147 -0.759599 0.1483759 0.8618413
-2.016158 19.7723 2.479202 -0.4359956 0.612543 0.6593171 0.1441058 0.8608378
0.06027918 21.10039 3.462599 0.05931281 0.1290448 0.9898633 0.1484271 0.862309
1.666544 19.65491 5.483656 0.9161776 -0.394754 0.06919517 0.1501724 0.8573457
1.625984 19.74438 5.572752 0.5084994 0.3617136 0.7814037 0.1500912 0.857529
-0.9937745 18.8077 5.285095 -0.5018526 -0.0009597962 0.8649527 0.1442432 0.8570455
-0.96788 18.75058 5.228212 -0.08381576 -0.9580737 0.2739886 0.1443041 0.8569323
-2.361169 19.07133 3.026062 -0.411804 0.7046195 0.5778658 0.1428397 0.8593141
-1.126594 18.68899 5.343847 0.3634322 0.8027741 0.4727271 0.1438833 0.8568319
-1.1007 18.63186 5.286966 0.9762561 -0.02416343 -0.2152675 0.1439448 0.8567193
-1.80502 16.55194 7.019329 0.3849607 -0.8708986 0.3055174 0.1406061 0.8517379
-1.845578 16.64141 7.108422 0.02424294 -0.07257228 0.9970685 0.1404999 0.8519017
-3.816471 17.4961 5.317243 -0.854133 0.2426064 0.4599989 0.1379546 0.8557521
-3.790578 17.43898 5.260362 -0.649723 -0.7297471 -0.2129067 0.1380248 0.855644
-3.232905 18.68474 3.017441 -0.3053987 0.7687966 0.5618571 0.1409784 0.8589543
-3.966733 17.42068 5.19855 0.7624468 -0.5930813 0.2587073 0.1377076 0.8557302
-3.992627 17.4778 5.255433 0.312776 0.3865986 0.8675902 0.137637 0.8558382
-6.40932 16.0735 5.403777 -0.3209825 -0.945257 0.0588168 0.1323525 0.8541456
-6.449879 16.16297 5.492872 -0.6195503 -0.1405656 0.7722687 0.1322299 0.8543072
-6.282259 18.15325 3.534834 -0.7322536 0.6763242 0.07993894 0.1345409 0.8592099
-6.256365 18.09613 3.477952 -0.6258124 -0.1737304 -0.7603793 0.1346145 0.8590997
-3.974929 18.90364 2.459829 -0.1969014 0.7567481 0.6233476 0.1399443 0.8600113
-6.369104 18.24914 3.399004 -0.1456745 0.05930879 0.9875532 0.1344975 0.8595078
-6.343211 18.19202 3.342122 0.08031794 -0.9488251 0.3054178 0.134571 0.8593973
-8.679225 18.57986 1.853544 -0.6700704 -0.5618385 -0.4851219 0.1313461 0.8619021
-8.719783 18.66934 1.94264 -0.9380872 0.2089524 0.2762811 0.1312262 0.8620765
-6.534351 20.28431 1.280058 -0.227981 0.9736038 0.01097202 0.1362366 0.8645865
-6.50846 20.22718 1.223175 -0.03010725 0.2912855 -0.9561623 0.1363061 0.8644693
-4.028481 19.56319 1.773119 -0.1680148 0.6775477 0.7160309 0.1404854 0.8616691
-6.440596 20.36506 1.115611 -0.5564799 -0.8235095 -0.1102828 0.136548 0.8647587
-6.46649 20.42218 1.172492 -0.6666893 0.06738409 0.7422835 0.1364788 0.8648764
-6.90545 22.18369 -0.9579711 -0.3994214 -0.009363465 -0.9167197 0.1375694 0.8693392
-6.94601 22.27316 -0.8688751 -0.6915077 0.7127643 -0.1174066 0.1374656 0.869532
-4.382919 22.28453 0.2508088 0.2789424 0.9105809 0.3050142 0.1416777 0.8681113
-4.357026 22.22741 0.1939279 0.6888385 0.3151263 -0.6528376 0.141739 0.8679868
-3.353239 20.16674 1.474421 -0.2404929 0.590832 0.7701173 0.1421871 0.8627057
-4.21145 22.36058 0.2525047 -0.8579379 0.4047085 0.3164707 0.1420382 0.8681946
-4.185556 22.30345 0.1956228 -0.6684207 -0.3115102 -0.6754075 0.142099 0.8680699
-2.423684 24.17123 -0.9136426 0.2871495 0.2961332 -0.9109612 0.1468842 0.8715785
-2.464244 24.2607 -0.8245478 -0.06548476 0.991509 -0.1123459 0.1468008 0.8717847
-1.448031 22.64773 1.222129 0.406797 0.5347185 0.7406703 0.1471258 0.8672441
-1.422136 22.5906 1.165247 0.9896247 -0.1201405 -0.07879837 0.1471798 0.867117
-2.457673 20.2598 1.788657 -0.3597559 0.5619013 0.7448776 0.1438016 0.8623493
-2.883141 20.31744 1.537088 -0.3548897 0.5547458 0.7525361 0.1431265 0.8627702
-1.302076 22.60467 1.331812 -0.5754021 0.817292 0.03076123 0.1473488 0.8670465
-2.118468 20.09186 2.111719 -0.4406217 0.6033984 0.6646525 0.203998 0.7663347
-3.78148 19.91905 1.528204 -0.2295252 0.5904593 0.7737415 0.2010022 0.7670059
-4.137022 19.19669 2.091754 -0.1589348 0.6836447 0.7122989 0.1997239 0.7654709
-3.682033 18.69431 2.803376 -0.1962763 0.7641295 0.6144769 0.1999997 0.7639194
-2.759133 18.79021 3.127203 -0.3134289 0.7713088 0.553936 0.2016537 0.7635143
-2.06328 19.41218 2.819386 -0.4221713 0.6997762 0.5762678 0.2034495 0.7645932
1.350652 23.13528 2.042247 0.4685739 0.8352749 0.2876706 0.1527864 0.8667171
-0.4891037 -0.1092693 0.5932708 -0.6963776 -0.7103876 0.102019 0.1385481 0.819023
-0.3708828 -0.06350369 0.3251843 -0.3183412 -0.573978 -0.7544589 0.1387113 0.8191319
-0.07953332 -0.02029654 0.3596718 0.6146596 -0.4517316 -0.6466314 0.1389388 0.8190752
-0.01768973 -0.03935928 0.6490732 0.8122867 -0.5126486 0.2781758 0.1389174 0.8189306
-0.2708183 -0.0943474 0.7934452 0.001050549 -0.6724268 0.7401629 0.138675 0.8188981
-1.671196 10.26358 1.529135 -0.9684799 -0.1525483 0.1969156 0.1389735 0.8269799
-1.591742 10.29434 1.348957 -0.4920278 0.01675824 -0.8704182 0.1390959 0.8270428
-1.524487 10.27361 1.66367 -0.09448041 -0.1057771 0.9898913 0.1390706 0.8269079
-1.354363 10.31057 1.566638 0.9070867 0.09102746 0.4109838 0.1392533 0.8269266
-2.272868 16.13755 2.156329 0.9032837 0.04111319 0.4270696 0.139303 0.8323895
-2.458985 16.09712 2.262482 -0.1118799 -0.1172984 0.9867746 0.1390879 0.8323721
-2.619483 16.08615 2.115301 -0.9633638 -0.172485 0.2053758 0.1389737 0.8324388
-2.298139 18.40263 2.289838 0.9407782 -0.1651317 0.2960877 0.1396784 0.8346763
-2.667424 18.32241 2.500461 0.07580461 -0.5060925 0.8591415 0.1392392 0.8346448
-2.985877 18.30064 2.208431 -0.7599284 -0.6403168 0.1118183 0.1390055 0.8347655
-2.071515 19.35686 2.761791 0.6984505 0.3672245 0.6142582 0.1399665 0.8355379
-2.986343 18.68789 2.996832 -0.2088611 -0.1948158 0.9583443 0.1388488 0.8350132
-3.986453 18.93582 2.268579 -0.9697509 -0.07524914 0.2322084 0.1381235 0.8356815
-3.770203 19.58851 1.577346 -0.6830626 0.5159465 -0.5169379 0.1386615 0.8364459
-2.395626 20.09334 1.771276 0.3692986 0.8677943 -0.3324928 0.1400639 0.8366027
-2.813408 18.36741 1.817324 -0.2997578 -0.2774252 -0.9127873 0.1392977 0.8348701
-2.388362 18.43044 1.867637 0.6798739 -0.02861474 -0.7327706 0.1397112 0.8348157
-2.53256 16.1198 1.918185 -0.5044414 -0.04990321 -0.8620027 0.1391176 0.8324971
-2.318339 16.15157 1.943542 0.6696161 0.08311181 -0.7380425 0.1393206 0.8324667
-1.395928 10.32338 1.372135 0.6633388 0.1661587 -0.7296389 0.1392684 0.82701
8.107731 28.5602 -0.7256676 0.461928 0.6061791 0.6474331 0.2038737 0.7654661
7.123349 29.45512 -0.7839538 0.5619498 0.5320498 0.6333526 0.2035695 0.7669775
6.547264 29.69058 -0.474881 0.5694016 0.5232422 0.6340342 0.2028944 0.7673985
6.104524 29.62463 0.05659732 0.6484082 0.5338985 0.5426962 0.201955 0.767334
5.818447 28.9411 1.163038 0.6562015 0.6103315 0.4437286 0.2002533 0.7662973
6.480544 27.91923 1.702193 0.5794597 0.703794 0.4109752 0.1997122 0.7646396
7.592239 27.32851 1.268068 0.4759696 0.7439072 0.4691003 0.2007463 0.7635826
8.316406 27.61378 0.1875687 0.4236634 0.7004639 0.5743341 0.2026076 0.7639424
7.69289 29.08184 -0.9222572 0.4622948 0.5975674 0.655131 0.1442301 0.8617064
5.800997 29.39661 0.6385945 0.6568525 0.5309632 0.5353717 0.1412343 0.8623776
6.016041 28.4213 1.579705 0.6587924 0.6149164 0.4334403 0.139956 0.8608426
7.030466 27.49907 1.639771 0.573763 0.7118798 0.4049979 0.1402318 0.8592911
8.080387 27.32438 0.7735635 0.4657893 0.7488425 0.4714608 0.1418858 0.858886
8.375196 28.02878 -0.3666471 0.4161791 0.6979693 0.5827812 0.1436816 0.859965
-0.7998036 25.66633 -1.167249 -0.5297176 0.6904043 -0.4926877 0.2038737 0.7654661
0.2073648 26.264 -1.505563 -0.6307901 0.6405535 -0.4379442 0.2035695 0.7669775
0.6284515 26.3548 -1.973617 -0.639624 0.6336302 -0.4351943 0.2028944 0.7673985
0.8078867 26.20276 -2.564649 -0.6761019 0.6621646 -0.3231476 0.201955 0.767334
0.5495561 25.52875 -3.547 -0.6315376 0.7389525 -0.2347542 0.2002533 0.7662973
-0.3730989 24.74949 -3.712881 -0.5306501 0.8131046 -0.2393145 0.1997122 0.7646396
-1.265299 24.4518 -2.93738 -0.4494109 0.8287782 -0.3334014 0.2007463 0.7635826
-1.455201 24.85983 -1.804468 -0.4490004 0.7741706 -0.4461596 0.2026076 0.7639424
-0.2909788 26.04801 -1.174446 -0.534618 0.6820524 -0.4989872 0.1442301 0.8617064
0.8241467 25.93431 -3.141107 -0.6817261 0.6612263 -0.3130964 0.1412343 0.8623776
0.1487476 25.10319 -3.797774 -0.6292162 0.7440569 -0.224647 0.139956 0.8608426
-0.8891613 24.48728 -3.449136 -0.5216371 0.8197483 -0.2364476 0.1402318 0.8592911
-1.508011 24.55039 -2.357721 -0.4399985 0.8313032 -0.3396121 0.1418858 0.858886
-1.241793 25.24497 -1.345391 -0.4457788 0.7700197 -0.4564549 0.1436816 0.859965
-2.016158 19.7723 2.479202 -0.4359956 0.612543 0.6593171 0.2038737 0.7654661
-2.457673 20.2598 1.788657 -0.3597559 0.5619013 0.7448776 0.2035695 0.7669775
-2.883141 20.31744 1.537088 -0.3548897 0.5547458 0.7525361 0.2028944 0.7673985
-3.353239 20.16674 1.474421 -0.2404929 0.590832 0.7701173 0.201955 0.767334
-4.028481 19.56319 1.773119 -0.1680148 0.6775477 0.7160309 0.2002533 0.7662973
-3.974929 18.90364 2.459829 -0.1969014 0.7567481 0.6233476 0.1997122 0.7646396
-3.232905 18.68474 3.017441 -0.3053987 0.7687966 0.5618571 0.2007463 0.7635826
-2.361169 19.07133 3.026062 -0.411804 0.7046195 0.5778658 0.2026076 0.7639424
-2.118468 20.09186 2.111719 -0.4406217 0.6033984 0.6646525 0.1442301 0.8617064
-3.78148 19.91905 1.528204 -0.2295252 0.5904593 0.7737415 0.1412343 0.8623776
-4.137022 19.19669 2.091754 -0.1589348 0.6836447 0.7122989 0.139956 0.8608426
-3.682033 18.69431 2.803376 -0.1962763 0.7641295 0.6144769 0.1402318 0.8592911
-2.759133 18.79021 3.127203 -0.3134289 0.7713088 0.553936 0.1418858 0.858886
-2.06328 19.41218 2.819386 -0.4221713 0.6997762 0.5762678 0.1436816 0.859965
3 0 1 2 
3 0 2 3 
3 1 4 5 
3 1 5 2 
3 1 0 6 
3 1 6 7 
3 1 7 8 
3 1 8 9 
3 1 9 10 
3 1 10 11 
3 1 11 12 
3 1 12 13 
3 1 13 14 
3 1 14 15 
3 1 15 16 
3 1 16 4 
3 17 18 0 
3 17 0 19 
3 20 19 0 
3 20 0 3 
3 6 0 18 
3 6 18 21 
3 18 17 22 
3 18 22 21 
3 21 22 23 
3 21 23 24 
3 7 6 21 
3 7 21 24 
3 23 25 7 
3 23 7 24 
3 26 27 7 
3 26 7 25 
3 8 7 27 
3 8 27 28 
3 27 26 29 
3 27 29 28 
3 28 29 30 
3 28 30 31 
3 9 8 28 
3 9 28 31 
3 32 9 31 
3 32 31 30 
3 33 9 32 
3 33 32 34 
3 10 9 33 
3 10 33 35 
3 33 34 36 
3 33 36 35 
3 35 36 37 
3 35 37 38 
3 11 10 35 
3 11 35 38 
3 37 39 11 
3 37 11 38 
3 40 41 11 
3 40 11 39 
3 12 11 41 
3 12 41 42 
3 41 40 43 
3 41 43 42 
3 42 43 44 
3 42 44 45 
3 13 12 42 
3 13 42 45 
3 44 46 13 
3 44 13 45 
3 47 13 46 
3 47 46 48 
3 14 13 47 
3 14 47 49 
3 47 48 50 
3 47 50 49 
3 49 50 51 
3 49 51 52 
3 15 14 49 
3 15 49 52 
3 53 15 52 
3 53 52 51 
3 15 53 54 
3 15 54 55 
3 16 15 55 
3 16 55 56 
3 55 54 57 
3 55 57 56 
3 56 57 58 
3 56 58 59 
3 4 16 56 
3 4 56 59 
3 60 4 59 
3 60 59 58 
3 61 60 58 
3 61 58 57 
3 4 60 62 
3 4 62 5 
3 345 63 346 
3 345 346 347 
3 345 347 348 
3 345 348 64 
3 345 64 349 
3 345 349 65 
3 345 65 350 
3 345 350 66 
3 345 66 351 
3 345 351 67 
3 345 67 352 
3 345 352 68 
3 60 353 69 
3 60 69 62 
3 353 19 20 
3 353 20 69 
3 2 69 20 
3 2 20 3 
3 5 62 69 
3 5 69 2 
3 53 61 57 
3 53 57 54 
3 354 53 51 
3 354 51 50 
3 46 354 50 
3 46 50 48 
3 355 46 44 
3 355 44 43 
3 39 355 43 
3 39 43 40 
3 356 39 37 
3 356 37 36 
3 32 356 36 
3 32 36 34 
3 357 32 30 
3 357 30 29 
3 25 357 29 
3 25 29 26 
3 358 25 23 
3 358 23 22 
3 19 358 22 
3 19 22 17 
3 70 71 72 
3 70 72 73 
3 74 75 76 
3 74 76 77 
3 78 79 80 
3 78 80 81 
3 82 74 77 
3 82 77 78 
3 83 84 80 
3 83 80 79 
3 75 83 79 
3 75 79 76 
3 85 82 78 
3 85 78 81 
3 77 76 79 
3 77 79 78 
3 73 86 70 
3 70 86 82 
3 70 82 85 
3 72 87 88 
3 88 87 83 
3 88 83 75 
3 72 71 87 
3 87 71 84 
3 87 84 83 
3 73 89 86 
3 86 89 74 
3 86 74 82 
3 73 72 88 
3 73 88 89 
3 89 88 75 
3 89 75 74 
3 81 80 84 
3 81 84 85 
3 85 84 71 
3 85 71 70 
3 90 91 92 
3 90 92 93 
3 93 94 95 
3 93 95 90 
3 95 96 91 
3 95 91 90 
3 97 98 96 
3 97 96 95 
3 94 99 97 
3 94 97 95 
3 100 92 91 
3 100 91 96 
3 101 100 96 
3 101 96 98 
3 102 103 92 
3 102 92 100 
3 104 102 100 
3 104 100 101 
3 93 92 103 
3 93 103 105 
3 106 103 102 
3 105 103 106 
3 105 106 107 
3 107 108 105 
3 105 108 94 
3 105 94 93 
3 107 109 108 
3 108 109 99 
3 108 99 94 
3 109 104 101 
3 109 101 99 
3 107 106 104 
3 107 104 109 
3 106 102 104 
3 99 101 98 
3 99 98 97 
3 110 111 112 
3 110 112 113 
3 113 114 115 
3 113 115 110 
3 115 116 111 
3 115 111 110 
3 117 118 116 
3 117 116 115 
3 114 119 117 
3 114 117 115 
3 120 112 111 
3 120 111 116 
3 121 120 116 
3 121 116 118 
3 122 123 112 
3 122 112 120 
3 124 122 120 
3 124 120 121 
3 113 112 123 
3 113 123 125 
3 126 123 122 
3 125 123 126 
3 125 126 127 
3 127 128 125 
3 125 128 114 
3 125 114 113 
3 127 129 128 
3 128 129 119 
3 128 119 114 
3 129 124 121 
3 129 121 119 
3 127 126 124 
3 127 124 129 
3 126 122 124 
3 119 121 118 
3 119 118 117 
3 130 131 132 
3 130 132 133 
3 131 134 135 
3 131 135 132 
3 131 130 136 
3 131 136 137 
3 131 137 138 
3 131 138 139 
3 131 139 140 
3 131 140 141 
3 131 141 142 
3 131 142 143 
3 131 143 144 
3 131 144 145 
3 131 145 146 
3 131 146 134 
3 147 148 130 
3 147 130 149 
3 150 149 130 
3 150 130 133 
3 136 130 148 
3 136 148 151 
3 148 147 152 
3 148 152 151 
3 151 152 153 
3 151 153 154 
3 137 136 151 
3 137 151 154 
3 153 155 137 
3 153 137 154 
3 156 157 137 
3 156 137 155 
3 138 137 157 
3 138 157 158 
3 157 156 159 
3 157 159 158 
3 158 159 160 
3 158 160 161 
3 139 138 158 
3 139 158 161 
3 162 139 161 
3 162 161 160 
3 163 139 162 
3 163 162 164 
3 140 139 163 
3 140 163 165 
3 163 164 166 
3 163 166 165 
3 165 166 167 
3 165 167 168 
3 141 140 165 
3 141 165 168 
3 167 169 141 
3 167 141 168 
3 170 171 141 
3 170 141 169 
3 142 141 171 
3 142 171 172 
3 171 170 173 
3 171 173 172 
3 172 173 174 
3 172 174 175 
3 143 142 172 
3 143 172 175 
3 174 176 143 
3 174 143 175 
3 177 143 176 
3 177 176 178 
3 144 143 177 
3 144 177 179 
3 177 178 180 
3 177 180 179 
3 179 180 181 
3 179 181 182 
3 145 144 179 
3 145 179 182 
3 183 145 182 
3 183 182 181 
3 145 183 184 
3 145 184 185 
3 146 145 185 
3 146 185 186 
3 185 184 187 
3 185 187 186 
3 186 187 188 
3 186 188 189 
3 134 146 186 
3 134 186 189 
3 190 134 189 
3 190 189 188 
3 191 190 188 
3 191 188 187 
3 134 190 192 
3 134 192 135 
3 359 193 360 
3 359 360 361 
3 359 361 362 
3 359 362 194 
3 359 194 363 
3 359 363 195 
3 359 195 364 
3 359 364 196 
3 359 196 365 
3 359 365 197 
3 359 197 366 
3 359 366 198 
3 190 367 199 
3 190 199 192 
3 367 149 150 
3 367 150 199 
3 132 199 150 
3 132 150 133 
3 135 192 199 
3 135 199 132 
3 183 191 187 
3 183 187 184 
3 368 183 181 
3 368 181 180 
3 176 368 180 
3 176 180 178 
3 369 176 174 
3 369 174 173 
3 169 369 173 
3 169 173 170 
3 370 169 167 
3 370 167 166 
3 162 370 166 
3 162 166 164 
3 371 162 160 
3 371 160 159 
3 155 371 159 
3 155 159 156 
3 372 155 153 
3 372 153 152 
3 149 372 152 
3 149 152 147 
3 200 201 202 
3 200 202 203 
3 200 203 204 
3 200 205 206 
3 200 206 201 
3 204 207 205 
3 204 205 200 
3 203 208 207 
3 203 207 204 
3 207 208 209 
3 207 209 210 
3 205 207 210 
3 205 210 211 
3 210 209 212 
3 210 212 213 
3 211 210 213 
3 211 213 214 
3 213 212 215 
3 213 215 216 
3 214 213 216 
3 214 216 217 
3 218 217 216 
3 218 216 215 
3 218 215 219 
3 220 214 217 
3 220 217 218 
3 221 220 218 
3 221 218 219 
3 222 211 214 
3 222 214 220 
3 223 222 220 
3 223 220 221 
3 206 205 211 
3 206 211 222 
3 224 206 222 
3 224 222 223 
3 201 206 224 
3 201 224 202 
3 202 224 208 
3 202 208 203 
3 208 224 223 
3 208 223 209 
3 209 223 221 
3 209 221 212 
3 212 221 219 
3 212 219 215 
3 225 226 227 
3 225 227 228 
3 225 228 229 
3 225 230 231 
3 225 231 226 
3 229 232 230 
3 229 230 225 
3 228 233 232 
3 228 232 229 
3 232 233 234 
3 232 234 235 
3 230 232 235 
3 230 235 236 
3 235 234 237 
3 235 237 238 
3 236 235 238 
3 236 238 239 
3 238 237 240 
3 238 240 241 
3 239 238 241 
3 239 241 242 
3 243 242 241 
3 243 241 240 
3 243 240 244 
3 245 239 242 
3 245 242 243 
3 246 245 243 
3 246 243 244 
3 247 236 239 
3 247 239 245 
3 248 247 245 
3 248 245 246 
3 231 230 236 
3 231 236 247 
3 249 231 247 
3 249 247 248 
3 226 231 249 
3 226 249 227 
3 227 249 233 
3 227 233 228 
3 233 249 248 
3 233 248 234 
3 234 248 246 
3 234 246 237 
3 237 246 244 
3 237 244 240 
3 250 251 252 
3 250 252 253 
3 251 254 255 
3 251 255 252 
3 251 250 256 
3 251 256 257 
3 251 257 258 
3 251 258 259 
3 251 259 260 
3 251 260 261 
3 251 261 262 
3 251 262 263 
3 251 263 264 
3 251 264 265 
3 251 265 266 
3 251 266 254 
3 267 268 250 
3 267 250 269 
3 270 269 250 
3 270 250 253 
3 256 250 268 
3 256 268 271 
3 268 267 272 
3 268 272 271 
3 271 272 273 
3 271 273 274 
3 257 256 271 
3 257 271 274 
3 273 275 257 
3 273 257 274 
3 276 277 257 
3 276 257 275 
3 258 257 277 
3 258 277 278 
3 277 276 279 
3 277 279 278 
3 278 279 280 
3 278 280 281 
3 259 258 278 
3 259 278 281 
3 282 259 281 
3 282 281 280 
3 283 259 282 
3 283 282 284 
3 260 259 283 
3 260 283 285 
3 283 284 286 
3 283 286 285 
3 285 286 287 
3 285 287 288 
3 261 260 285 
3 261 285 288 
3 287 289 261 
3 287 261 288 
3 290 291 261 
3 290 261 289 
3 262 261 291 
3 262 291 292 
3 291 290 293 
3 291 293 292 
3 292 293 294 
3 292 294 295 
3 263 262 292 
3 263 292 295 
3 294 296 263 
3 294 263 295 
3 297 263 296 
3 297 296 298 
3 264 263 297 
3 264 297 299 
3 297 298 300 
3 297 300 299 
3 299 300 301 
3 299 301 302 
3 265 264 299 
3 265 299 302 
3 303 265 302 
3 303 302 301 
3 265 303 304 
3 265 304 305 
3 266 265 305 
3 266 305 306 
3 305 304 307 
3 305 307 306 
3 306 307 308 
3 306 308 309 
3 254 266 306 
3 254 306 309 
3 310 254 309 
3 310 309 308 
3 311 310 308 
3 311 308 307 
3 254 310 312 
3 254 312 255 
3 373 313 374 
3 373 374 375 
3 373 375 376 
3 373 376 314 
3 373 314 377 
3 373 377 315 
3 373 315 378 
3 373 378 316 
3 373 316 379 
3 373 379 317 
3 373 317 380 
3 373 380 318 
3 310 381 319 
3 310 319 312 
3 381 269 270 
3 381 270 319 
3 252 319 270 
3 252 270 253 
3 255 312 319 
3 255 319 252 
3 303 311 307 
3 303 307 304 
3 382 303 301 
3 382 301 300 
3 296 382 300 
3 296 300 298 
3 383 296 294 
3 383 294 293 
3 289 383 293 
3 289 293 290 
3 384 289 287 
3 384 287 286 
3 282 384 286 
3 282 286 284 
3 385 282 280 
3 385 280 279 
3 275 385 279 
3 275 279 276 
3 386 275 273 
3 386 273 272 
3 269 386 272 
3 269 272 267 
3 320 321 322 
3 320 322 323 
3 320 323 324 
3 320 325 326 
3 320 326 321 
3 324 327 325 
3 324 325 320 
3 323 328 327 
3 323 327 324 
3 327 328 329 
3 327 329 330 
3 325 327 330 
3 325 330 331 
3 330 329 332 
3 330 332 333 
3 331 330 333 
3 331 333 334 
3 333 332 335 
3 333 335 336 
3 334 333 336 
3 334 336 337 
3 338 337 336 
3 338 336 335 
3 338 335 339 
3 340 334 337 
3 340 337 338 
3 341 340 338 
3 341 338 339 
3 342 331 334 
3 342 334 340 
3 343 342 340 
3 343 340 341 
3 326 325 331 
3 326 331 342 
3 344 326 342 
3 344 342 343 
3 321 326 344 
3 321 344 322 
3 322 344 328 
3 322 328 323 
3 328 344 343 
3 328 343 329 
3 329 343 341 
3 329 341 332 
3 332 341 339 
3 332 339 335 
