ply
format ascii 1.0
comment VCGLIB generated
comment TextureFile dummy.png
element vertex 328
property float x
property float y
property float z
property float nx
property float ny
property float nz
property float texture_u
property float texture_v
element face 184
property list uchar int vertex_indices
end_header
0.03939128 0.0181762 0.0134306 0.6001529 -0.5485584 0.5821515 0.2222053 0.846961
0.03001022 0.1591778 0.008131504 0.8237023 0.0998008 0.5581706 0.2475214 0.846961
0.01247543 0.1591778 0.007427454 -0.700838 0.03476337 0.7124729 0.2475214 0.8722771
0.01444483 0.0181762 0.01364446 -0.5638897 -0.5704008 0.5972198 0.2222053 0.8722771
0.0114364 0.1591778 -0.01012635 -0.5630928 0.01268729 -0.8262963 0.2475214 0.8722771
0.01423103 0.0181762 -0.01130152 -0.5731913 -0.5697386 -0.5889394 0.2222053 0.8722771
0.02368438 0.1591778 -0.004248381 0.6839277 0.03459693 -0.7287291 0.2475214 0.8722771
0.0391776 0.0181762 -0.01151538 0.5902143 -0.5457602 -0.5948049 0.2222053 0.8722771
0.01481742 0.3041563 4.553795e-05 -0.6495865 0.2007358 0.7333093 0.2475214 0.8722771
0.01553923 0.3041563 -0.00770545 -0.7467877 -0.08045761 -0.6601778 0.2222053 0.8722771
0.02322513 0.3041563 -0.00850749 0.7555093 -0.08280652 -0.6498837 0.2222053 0.846961
0.02130038 0.3895303 -0.0373404 0.02556135 0.9326718 -0.3598192 0.2475214 0.8722771
0.02222371 0.3041563 -0.001012564 0.6673674 0.1857914 0.7211813 0.2475214 0.8722771
0.05189228 0.0154108 0.02898145 0.7723544 -0.6241354 0.1179989 0.2222053 0.846961
0.06313288 0.1326913 0.05587864 0.9602216 -0.2382002 0.1457227 0.2475214 0.846961
0.05037493 0.1326913 0.06348562 -0.3321653 -0.2425974 0.9114893 0.2475214 0.8722771
0.03402323 0.0154108 0.03963542 -0.2574633 -0.6302717 0.7324412 0.2222053 0.8722771
0.04311991 0.1371534 0.0513165 -0.9086545 0.3550143 -0.2198 0.2475214 0.8722771
0.02336961 0.0154108 0.02176642 -0.8255708 -0.4924554 -0.2755369 0.2222053 0.8722771
0.05587792 0.1371534 0.04370952 0.2362348 0.3605899 -0.9023126 0.2475214 0.8722771
0.04123873 0.0154108 0.01111245 0.1556986 -0.488326 -0.8586593 0.2222053 0.8722771
0.07687569 0.2010558 0.1009665 -0.4387302 -0.4509317 0.7772878 0.2475214 0.8722771
0.07449508 0.2072158 0.09697342 -0.7651764 0.643522 -0.01960846 0.2222053 0.8722771
0.08112359 0.2072158 0.09302163 0.3463896 0.6444671 -0.6816719 0.2222053 0.846961
0.1080024 0.2254009 0.1456406 0.4791706 0.3528559 0.8036718 0.2475214 0.8722771
0.0835042 0.2010559 0.09701443 0.8928291 -0.4501634 -0.01445967 0.2475214 0.8722771
0.004905879 0.0104697 0.01099849 -0.1384518 -0.7260407 0.6735696 0.2222053 0.846961
-0.03822452 0.1216012 0.03084946 -0.2408594 -0.3725549 0.8962085 0.2475214 0.846961
-0.04398948 0.1223559 0.01718163 -0.8196113 -0.2999021 -0.4881559 0.2475214 0.8722771
-0.003168821 0.0115267 -0.008145571 -0.6034607 -0.6712285 -0.4304503 0.2222053 0.8722771
-0.03164101 0.129043 0.01234245 0.2915998 0.489519 -0.8217912 0.2475214 0.8722771
0.01581371 0.01488851 -0.01596642 0.4450589 -0.3499208 -0.8243046 0.2222053 0.8722771
-0.02587587 0.1282882 0.02601051 0.80815 0.4272845 0.405366 0.2475214 0.8722771
0.02388829 0.0138315 0.003177643 0.8860632 -0.4041069 0.2271339 0.2222053 0.8722771
-0.09322268 0.182156 0.04512644 -0.6464952 -0.4766311 -0.595707 0.2475214 0.8722771
-0.08977938 0.188978 0.04405046 0.03831144 0.7331454 -0.678992 0.2222053 0.8722771
-0.08678412 0.188586 0.05115247 0.5398347 0.668253 0.5118754 0.2222053 0.846961
-0.1444361 0.1971767 0.07175064 -0.8994794 0.196587 0.390244 0.2475214 0.8722771
-0.09022743 0.1817638 0.0522275 -0.04698166 -0.5548649 0.8306128 0.2475214 0.8722771
0.006041288 0.0181762 -0.02791548 0.63087 -0.5485575 -0.5487146 0.2222053 0.846961
0.002756298 0.0944296 -0.02310348 0.6258924 0.09980126 -0.7734975 0.2475214 0.846961
0.00157392 0.0944296 -0.01368642 0.650582 0.03476436 0.7586399 0.2475214 0.8722771
0.0050143 0.0181762 -0.01446342 0.5473325 -0.5704004 0.6124302 0.2222053 0.8722771
-0.007932484 0.0944296 -0.01393056 -0.8710039 0.01268785 0.4911122 0.2475214 0.8722771
-0.00843811 0.0181762 -0.01549053 -0.6353559 -0.5697384 0.5212687 0.2222053 0.8722771
-0.004204273 0.0944296 -0.02026153 -0.6682152 0.03459655 -0.7431632 0.2475214 0.8722771
-0.007411122 0.0181762 -0.02894258 -0.5427024 -0.545761 -0.6384506 0.2222053 0.8722771
-0.002296507 0.1728337 -0.01528645 0.6756713 0.2007354 0.7093473 0.2475214 0.8722771
-0.006440103 0.1728337 -0.01603055 -0.7210331 -0.08045906 0.6882134 0.2222053 0.8722771
-0.006520271 0.1728337 -0.02020836 -0.5835805 -0.08280356 -0.8078226 0.2222053 0.846961
-0.02214581 0.2190036 -0.02049136 -0.3564784 0.9326202 -0.05606124 0.2475214 0.8722771
-0.002527714 0.1728337 -0.01932645 0.7751054 0.1857942 -0.6038976 0.2475214 0.8722771
0.07107842 0.0173886 0.000446558 0.5167861 -0.6124873 -0.5981567 0.2222053 0.846961
0.08030343 0.1272562 0.006515503 0.7230778 0.0167393 -0.6905638 0.2475214 0.846961
0.08023483 0.1268373 0.02218151 0.717112 -0.0207382 0.6966494 0.2475214 0.8722771
0.07098281 0.0168044 0.02229047 0.5116743 -0.6437002 0.569069 0.2222053 0.8722771
0.0679394 0.1283861 0.02216959 -0.694125 0.05504192 0.7177472 0.2475214 0.8722771
0.05383879 0.0189639 0.02227259 -0.6459168 -0.5081051 0.5697551 0.2222053 0.8722771
0.06800801 0.128805 0.006503582 -0.6876386 0.09394411 -0.7199498 0.2475214 0.8722771
0.05393451 0.019548 0.0004284382 -0.6407841 -0.4767767 -0.6017306 0.2222053 0.8722771
0.0704031 0.2243086 0.02190351 -0.7115963 0.01228753 0.7024813 0.2475214 0.8722771
0.07044679 0.2245757 0.01191664 -0.7047909 0.04985885 -0.7076609 0.2222053 0.8722771
0.0776968 0.2279505 0.01203847 0.7035729 0.06453212 -0.707687 0.2222053 0.846961
0.07036662 0.2710991 0.01494646 -0.7352043 0.1161979 -0.6678119 0.2475214 0.8722771
0.07598579 0.2780842 0.01515746 0.6558403 0.03944438 -0.7538685 0.2222053 0.8722771
0.07765311 0.2276835 0.02202654 0.698188 0.02559702 0.7154567 0.2222053 0.8722771
0.07033843 0.2709275 0.02136445 -0.7427067 0.08242854 0.6645242 0.2475214 0.846961
0.08237791 0.3279362 0.01973057 0.1660288 0.9857492 0.02707206 0.2475214 0.8722771
0.07595778 0.2779126 0.02157545 0.6493257 -0.000491014 0.7605103 0.2475214 0.8722771
0.04484743 0.01534951 -0.03347754 -0.02543137 -0.6199561 -0.7842243 0.2222053 0.846961
0.07243282 0.1060856 -0.04431748 0.01157718 -0.2347538 -0.971986 0.2475214 0.846961
0.07956529 0.1054481 -0.0350244 0.9212468 -0.3205045 0.2204115 0.2475214 0.8722771
0.05483729 0.0144567 -0.02046156 0.7034239 -0.6912583 0.165399 0.2222053 0.8722771
0.0710175 0.1096521 -0.02817535 -0.08136611 0.3579374 0.9301938 0.2475214 0.8722771
0.0418604 0.01547201 -0.01043153 -0.2158837 -0.480902 0.8497809 0.2222053 0.8722771
0.06388503 0.1102897 -0.03746843 -0.8911788 0.4359099 -0.1256299 0.2475214 0.8722771
0.03187048 0.0163649 -0.02344751 -0.9081971 -0.414865 -0.05536287 0.2222053 0.8722771
0.1108325 0.1571833 -0.05903149 0.7838775 -0.5188827 0.3410232 0.2475214 0.8722771
0.1083323 0.1622591 -0.05676341 0.1235475 0.6314262 0.7655305 0.2222053 0.8722771
0.1046265 0.1625904 -0.06159258 -0.6624882 0.7026349 -0.2596414 0.2222053 0.846961
0.1444362 0.1738622 -0.08752537 0.7678785 0.2938758 -0.5692097 0.2475214 0.8722771
0.1071268 0.1575145 -0.06385946 -0.156428 -0.4340412 -0.8872083 0.2475214 0.8722771
0.01450002 0.0146134 -0.02889752 -0.7629887 -0.6417273 -0.0776811 0.2222053 0.846961
0.0137586 0.08216681 -0.06837654 -0.9261112 -0.282815 -0.2496675 0.2475214 0.846961
0.0227775 0.0808516 -0.07144642 0.4838659 -0.4914023 -0.724153 0.2475214 0.8722771
0.02713197 0.0127714 -0.03319645 0.3611983 -0.8116912 -0.4590134 0.2222053 0.8722771
0.0260607 0.0859575 -0.06398654 0.866747 0.4153669 0.2760799 0.2475214 0.8722771
0.03177458 0.0162081 -0.02102757 0.7392107 -0.3808024 0.5554792 0.2222053 0.8722771
0.0170418 0.0872727 -0.06091738 -0.3830039 0.6029572 0.6998219 0.2475214 0.8722771
0.01914263 0.0180501 -0.0167284 -0.3316188 -0.221172 0.9171215 0.2222053 0.8722771
0.01226211 0.1159769 -0.1101556 0.5550142 -0.6506071 -0.5183335 0.2475214 0.8722771
0.01346743 0.1205625 -0.1085784 0.7748754 0.6317434 -0.0216437 0.2222053 0.8722771
0.008781612 0.1212458 -0.1069834 -0.4385785 0.8094253 0.3904865 0.2222053 0.846961
-0.001537025 0.1224346 -0.1456404 -0.3076097 0.09905957 -0.9463422 0.2475214 0.8722771
0.007576287 0.1166602 -0.1085606 -0.8983713 -0.43848 -0.0257759 0.2475214 0.8722771
0.01975989 0.01650891 0.04088664 0.3773006 -0.6901497 0.6175255 0.2222053 0.846961
0.01304269 0.0724588 0.05671144 0.3440902 -0.08113921 0.9354241 0.2475214 0.846961
0.005241513 0.0726741 0.05360651 -0.89579 -0.04691111 0.4419952 0.2475214 0.8722771
0.008569479 0.01681781 0.03643346 -0.7305997 -0.659564 0.1766335 0.2222053 0.8722771
0.008343995 0.0738658 0.04589343 -0.4542779 0.1622355 -0.8759631 0.2475214 0.8722771
0.01301992 0.01852721 0.02536845 -0.2837463 -0.3982981 -0.8722652 0.2222053 0.8722771
0.01614523 0.0736504 0.04899764 0.9387466 0.1237822 -0.3216097 0.2475214 0.8722771
0.02421033 0.01821831 0.02982163 0.7858011 -0.4278228 -0.4466368 0.2222053 0.8722771
0.009294629 0.121333 0.05132461 -0.9269327 -0.028793 0.3741213 0.2475214 0.8722771
0.01116079 0.1220498 0.0466845 -0.3381856 0.1013181 -0.9356096 0.2222053 0.8722771
0.0158534 0.1219203 0.04855251 0.9059175 0.1489451 -0.396395 0.2222053 0.846961
0.004013717 0.1665678 0.05720758 -0.1841979 0.9702887 0.1568791 0.2475214 0.8722771
0.01398718 0.1212034 0.05319142 0.4437146 0.03851534 0.8953402 0.2475214 0.8722771
0.01444483 0.0181762 0.01364446 -0.5638897 -0.5704008 0.5972198 0.2222053 0.846961
0.01247543 0.1591778 0.007427454 -0.700838 0.03476337 0.7124729 0.2475214 0.846961
0.01423103 0.0181762 -0.01130152 -0.5731913 -0.5697386 -0.5889394 0.2222053 0.846961
0.0114364 0.1591778 -0.01012635 -0.5630928 0.01268729 -0.8262963 0.2475214 0.846961
0.0391776 0.0181762 -0.01151538 0.5902143 -0.5457602 -0.5948049 0.2222053 0.846961
0.02368438 0.1591778 -0.004248381 0.6839277 0.03459693 -0.7287291 0.2475214 0.846961
0.03001022 0.1591778 0.008131504 0.8237023 0.0998008 0.5581706 0.2475214 0.8722771
0.03939128 0.0181762 0.0134306 0.6001529 -0.5485584 0.5821515 0.2222053 0.8722771
0.01423103 0.0181762 -0.01130152 -0.5731913 -0.5697386 -0.5889394 0.2475214 0.846961
0.0391776 0.0181762 -0.01151538 0.5902143 -0.5457602 -0.5948049 0.2475214 0.8722771
0.0114364 0.1591778 -0.01012635 -0.5630928 0.01268729 -0.8262963 0.2222053 0.846961
0.01553923 0.3041563 -0.00770545 -0.7467877 -0.08045761 -0.6601778 0.2475214 0.846961
0.02368438 0.1591778 -0.004248381 0.6839277 0.03459693 -0.7287291 0.2222053 0.846961
0.01553923 0.3041563 -0.00770545 -0.7467877 -0.08045761 -0.6601778 0.2475214 0.8722771
0.02322513 0.3041563 -0.00850749 0.7555093 -0.08280652 -0.6498837 0.2222053 0.8722771
0.01247543 0.1591778 0.007427454 -0.700838 0.03476337 0.7124729 0.2222053 0.846961
0.01481742 0.3041563 4.553795e-05 -0.6495865 0.2007358 0.7333093 0.2222053 0.8722771
0.03001022 0.1591778 0.008131504 0.8237023 0.0998008 0.5581706 0.2222053 0.846961
0.02322513 0.3041563 -0.00850749 0.7555093 -0.08280652 -0.6498837 0.2475214 0.8722771
0.02222371 0.3041563 -0.001012564 0.6673674 0.1857914 0.7211813 0.2222053 0.8722771
0.01481742 0.3041563 4.553795e-05 -0.6495865 0.2007358 0.7333093 0.2222053 0.846961
0.02222371 0.3041563 -0.001012564 0.6673674 0.1857914 0.7211813 0.2475214 0.846961
0.02222371 0.3041563 -0.001012564 0.6673674 0.1857914 0.7211813 0.2222053 0.846961
0.02322513 0.3041563 -0.00850749 0.7555093 -0.08280652 -0.6498837 0.2475214 0.846961
0.01553923 0.3041563 -0.00770545 -0.7467877 -0.08045761 -0.6601778 0.2222053 0.846961
0.01481742 0.3041563 4.553795e-05 -0.6495865 0.2007358 0.7333093 0.2475214 0.846961
0.03402323 0.0154108 0.03963542 -0.2574633 -0.6302717 0.7324412 0.2222053 0.846961
0.05037493 0.1326913 0.06348562 -0.3321653 -0.2425974 0.9114893 0.2475214 0.846961
0.02336961 0.0154108 0.02176642 -0.8255708 -0.4924554 -0.2755369 0.2222053 0.846961
0.04311991 0.1371534 0.0513165 -0.9086545 0.3550143 -0.2198 0.2475214 0.846961
0.04123873 0.0154108 0.01111245 0.1556986 -0.488326 -0.8586593 0.2222053 0.846961
0.05587792 0.1371534 0.04370952 0.2362348 0.3605899 -0.9023126 0.2475214 0.846961
0.06313288 0.1326913 0.05587864 0.9602216 -0.2382002 0.1457227 0.2475214 0.8722771
0.05189228 0.0154108 0.02898145 0.7723544 -0.6241354 0.1179989 0.2222053 0.8722771
0.02336961 0.0154108 0.02176642 -0.8255708 -0.4924554 -0.2755369 0.2475214 0.846961
0.04123873 0.0154108 0.01111245 0.1556986 -0.488326 -0.8586593 0.2475214 0.8722771
0.04311991 0.1371534 0.0513165 -0.9086545 0.3550143 -0.2198 0.2222053 0.846961
0.07449508 0.2072158 0.09697342 -0.7651764 0.643522 -0.01960846 0.2475214 0.846961
0.05587792 0.1371534 0.04370952 0.2362348 0.3605899 -0.9023126 0.2222053 0.846961
0.07449508 0.2072158 0.09697342 -0.7651764 0.643522 -0.01960846 0.2475214 0.8722771
0.08112359 0.2072158 0.09302163 0.3463896 0.6444671 -0.6816719 0.2222053 0.8722771
0.05037493 0.1326913 0.06348562 -0.3321653 -0.2425974 0.9114893 0.2222053 0.846961
0.07687569 0.2010558 0.1009665 -0.4387302 -0.4509317 0.7772878 0.2222053 0.8722771
0.06313288 0.1326913 0.05587864 0.9602216 -0.2382002 0.1457227 0.2222053 0.846961
0.08112359 0.2072158 0.09302163 0.3463896 0.6444671 -0.6816719 0.2475214 0.8722771
0.0835042 0.2010559 0.09701443 0.8928291 -0.4501634 -0.01445967 0.2222053 0.8722771
0.07687569 0.2010558 0.1009665 -0.4387302 -0.4509317 0.7772878 0.2222053 0.846961
0.0835042 0.2010559 0.09701443 0.8928291 -0.4501634 -0.01445967 0.2475214 0.846961
0.0835042 0.2010559 0.09701443 0.8928291 -0.4501634 -0.01445967 0.2222053 0.846961
0.08112359 0.2072158 0.09302163 0.3463896 0.6444671 -0.6816719 0.2475214 0.846961
0.07449508 0.2072158 0.09697342 -0.7651764 0.643522 -0.01960846 0.2222053 0.846961
0.07687569 0.2010558 0.1009665 -0.4387302 -0.4509317 0.7772878 0.2475214 0.846961
-0.003168821 0.0115267 -0.008145571 -0.6034607 -0.6712285 -0.4304503 0.2222053 0.846961
-0.04398948 0.1223559 0.01718163 -0.8196113 -0.2999021 -0.4881559 0.2475214 0.846961
0.01581371 0.01488851 -0.01596642 0.4450589 -0.3499208 -0.8243046 0.2222053 0.846961
-0.03164101 0.129043 0.01234245 0.2915998 0.489519 -0.8217912 0.2475214 0.846961
0.02388829 0.0138315 0.003177643 0.8860632 -0.4041069 0.2271339 0.2222053 0.846961
-0.02587587 0.1282882 0.02601051 0.80815 0.4272845 0.405366 0.2475214 0.846961
-0.03822452 0.1216012 0.03084946 -0.2408594 -0.3725549 0.8962085 0.2475214 0.8722771
0.004905879 0.0104697 0.01099849 -0.1384518 -0.7260407 0.6735696 0.2222053 0.8722771
0.01581371 0.01488851 -0.01596642 0.4450589 -0.3499208 -0.8243046 0.2475214 0.846961
0.02388829 0.0138315 0.003177643 0.8860632 -0.4041069 0.2271339 0.2475214 0.8722771
-0.03164101 0.129043 0.01234245 0.2915998 0.489519 -0.8217912 0.2222053 0.846961
-0.08977938 0.188978 0.04405046 0.03831144 0.7331454 -0.678992 0.2475214 0.846961
-0.02587587 0.1282882 0.02601051 0.80815 0.4272845 0.405366 0.2222053 0.846961
-0.08977938 0.188978 0.04405046 0.03831144 0.7331454 -0.678992 0.2475214 0.8722771
-0.08678412 0.188586 0.05115247 0.5398347 0.668253 0.5118754 0.2222053 0.8722771
-0.04398948 0.1223559 0.01718163 -0.8196113 -0.2999021 -0.4881559 0.2222053 0.846961
-0.09322268 0.182156 0.04512644 -0.6464952 -0.4766311 -0.595707 0.2222053 0.8722771
-0.03822452 0.1216012 0.03084946 -0.2408594 -0.3725549 0.8962085 0.2222053 0.846961
-0.08678412 0.188586 0.05115247 0.5398347 0.668253 0.5118754 0.2475214 0.8722771
-0.09022743 0.1817638 0.0522275 -0.04698166 -0.5548649 0.8306128 0.2222053 0.8722771
-0.09322268 0.182156 0.04512644 -0.6464952 -0.4766311 -0.595707 0.2222053 0.846961
-0.09022743 0.1817638 0.0522275 -0.04698166 -0.5548649 0.8306128 0.2475214 0.846961
-0.09022743 0.1817638 0.0522275 -0.04698166 -0.5548649 0.8306128 0.2222053 0.846961
-0.08678412 0.188586 0.05115247 0.5398347 0.668253 0.5118754 0.2475214 0.846961
-0.08977938 0.188978 0.04405046 0.03831144 0.7331454 -0.678992 0.2222053 0.846961
-0.09322268 0.182156 0.04512644 -0.6464952 -0.4766311 -0.595707 0.2475214 0.846961
0.0050143 0.0181762 -0.01446342 0.5473325 -0.5704004 0.6124302 0.2222053 0.846961
0.00157392 0.0944296 -0.01368642 0.650582 0.03476436 0.7586399 0.2475214 0.846961
-0.00843811 0.0181762 -0.01549053 -0.6353559 -0.5697384 0.5212687 0.2222053 0.846961
-0.007932484 0.0944296 -0.01393056 -0.8710039 0.01268785 0.4911122 0.2475214 0.846961
-0.007411122 0.0181762 -0.02894258 -0.5427024 -0.545761 -0.6384506 0.2222053 0.846961
-0.004204273 0.0944296 -0.02026153 -0.6682152 0.03459655 -0.7431632 0.2475214 0.846961
0.002756298 0.0944296 -0.02310348 0.6258924 0.09980126 -0.7734975 0.2475214 0.8722771
0.006041288 0.0181762 -0.02791548 0.63087 -0.5485575 -0.5487146 0.2222053 0.8722771
-0.00843811 0.0181762 -0.01549053 -0.6353559 -0.5697384 0.5212687 0.2475214 0.846961
-0.007411122 0.0181762 -0.02894258 -0.5427024 -0.545761 -0.6384506 0.2475214 0.8722771
-0.007932484 0.0944296 -0.01393056 -0.8710039 0.01268785 0.4911122 0.2222053 0.846961
-0.006440103 0.1728337 -0.01603055 -0.7210331 -0.08045906 0.6882134 0.2475214 0.846961
-0.004204273 0.0944296 -0.02026153 -0.6682152 0.03459655 -0.7431632 0.2222053 0.846961
-0.006440103 0.1728337 -0.01603055 -0.7210331 -0.08045906 0.6882134 0.2475214 0.8722771
-0.006520271 0.1728337 -0.02020836 -0.5835805 -0.08280356 -0.8078226 0.2222053 0.8722771
0.00157392 0.0944296 -0.01368642 0.650582 0.03476436 0.7586399 0.2222053 0.846961
-0.002296507 0.1728337 -0.01528645 0.6756713 0.2007354 0.7093473 0.2222053 0.8722771
0.002756298 0.0944296 -0.02310348 0.6258924 0.09980126 -0.7734975 0.2222053 0.846961
-0.006520271 0.1728337 -0.02020836 -0.5835805 -0.08280356 -0.8078226 0.2475214 0.8722771
-0.002527714 0.1728337 -0.01932645 0.7751054 0.1857942 -0.6038976 0.2222053 0.8722771
-0.002296507 0.1728337 -0.01528645 0.6756713 0.2007354 0.7093473 0.2222053 0.846961
-0.002527714 0.1728337 -0.01932645 0.7751054 0.1857942 -0.6038976 0.2475214 0.846961
-0.002527714 0.1728337 -0.01932645 0.7751054 0.1857942 -0.6038976 0.2222053 0.846961
-0.006520271 0.1728337 -0.02020836 -0.5835805 -0.08280356 -0.8078226 0.2475214 0.846961
-0.006440103 0.1728337 -0.01603055 -0.7210331 -0.08045906 0.6882134 0.2222053 0.846961
-0.002296507 0.1728337 -0.01528645 0.6756713 0.2007354 0.7093473 0.2475214 0.846961
0.07098281 0.0168044 0.02229047 0.5116743 -0.6437002 0.569069 0.2222053 0.846961
0.08023483 0.1268373 0.02218151 0.717112 -0.0207382 0.6966494 0.2475214 0.846961
0.05383879 0.0189639 0.02227259 -0.6459168 -0.5081051 0.5697551 0.2222053 0.846961
0.0679394 0.1283861 0.02216959 -0.694125 0.05504192 0.7177472 0.2475214 0.846961
0.05393451 0.019548 0.0004284382 -0.6407841 -0.4767767 -0.6017306 0.2222053 0.846961
0.06800801 0.128805 0.006503582 -0.6876386 0.09394411 -0.7199498 0.2475214 0.846961
0.08030343 0.1272562 0.006515503 0.7230778 0.0167393 -0.6905638 0.2475214 0.8722771
0.07107842 0.0173886 0.000446558 0.5167861 -0.6124873 -0.5981567 0.2222053 0.8722771
0.05383879 0.0189639 0.02227259 -0.6459168 -0.5081051 0.5697551 0.2475214 0.846961
0.05393451 0.019548 0.0004284382 -0.6407841 -0.4767767 -0.6017306 0.2475214 0.8722771
0.06800801 0.128805 0.006503582 -0.6876386 0.09394411 -0.7199498 0.2222053 0.846961
0.07044679 0.2245757 0.01191664 -0.7047909 0.04985885 -0.7076609 0.2475214 0.846961
0.08023483 0.1268373 0.02218151 0.717112 -0.0207382 0.6966494 0.2222053 0.846961
0.0776968 0.2279505 0.01203847 0.7035729 0.06453212 -0.707687 0.2475214 0.8722771
0.08030343 0.1272562 0.006515503 0.7230778 0.0167393 -0.6905638 0.2222053 0.846961
0.07044679 0.2245757 0.01191664 -0.7047909 0.04985885 -0.7076609 0.2475214 0.8722771
0.0776968 0.2279505 0.01203847 0.7035729 0.06453212 -0.707687 0.2222053 0.8722771
0.0679394 0.1283861 0.02216959 -0.694125 0.05504192 0.7177472 0.2222053 0.846961
0.07765311 0.2276835 0.02202654 0.698188 0.02559702 0.7154567 0.2475214 0.8722771
0.0704031 0.2243086 0.02190351 -0.7115963 0.01228753 0.7024813 0.2222053 0.8722771
0.07036662 0.2710991 0.01494646 -0.7352043 0.1161979 -0.6678119 0.2222053 0.846961
0.0704031 0.2243086 0.02190351 -0.7115963 0.01228753 0.7024813 0.2222053 0.846961
0.07765311 0.2276835 0.02202654 0.698188 0.02559702 0.7154567 0.2475214 0.846961
0.07033843 0.2709275 0.02136445 -0.7427067 0.08242854 0.6645242 0.2222053 0.8722771
0.07044679 0.2245757 0.01191664 -0.7047909 0.04985885 -0.7076609 0.2222053 0.846961
0.0704031 0.2243086 0.02190351 -0.7115963 0.01228753 0.7024813 0.2475214 0.846961
0.07033843 0.2709275 0.02136445 -0.7427067 0.08242854 0.6645242 0.2475214 0.8722771
0.07036662 0.2710991 0.01494646 -0.7352043 0.1161979 -0.6678119 0.2222053 0.8722771
0.07765311 0.2276835 0.02202654 0.698188 0.02559702 0.7154567 0.2222053 0.846961
0.0776968 0.2279505 0.01203847 0.7035729 0.06453212 -0.707687 0.2475214 0.846961
0.07598579 0.2780842 0.01515746 0.6558403 0.03944438 -0.7538685 0.2475214 0.8722771
0.07595778 0.2779126 0.02157545 0.6493257 -0.000491014 0.7605103 0.2222053 0.8722771
0.07595778 0.2779126 0.02157545 0.6493257 -0.000491014 0.7605103 0.2222053 0.846961
0.07598579 0.2780842 0.01515746 0.6558403 0.03944438 -0.7538685 0.2475214 0.846961
0.07598579 0.2780842 0.01515746 0.6558403 0.03944438 -0.7538685 0.2222053 0.846961
0.07036662 0.2710991 0.01494646 -0.7352043 0.1161979 -0.6678119 0.2475214 0.846961
0.07033843 0.2709275 0.02136445 -0.7427067 0.08242854 0.6645242 0.2222053 0.846961
0.07595778 0.2779126 0.02157545 0.6493257 -0.000491014 0.7605103 0.2475214 0.846961
0.05483729 0.0144567 -0.02046156 0.7034239 -0.6912583 0.165399 0.2222053 0.846961
0.07956529 0.1054481 -0.0350244 0.9212468 -0.3205045 0.2204115 0.2475214 0.846961
0.0418604 0.01547201 -0.01043153 -0.2158837 -0.480902 0.8497809 0.2222053 0.846961
0.0710175 0.1096521 -0.02817535 -0.08136611 0.3579374 0.9301938 0.2475214 0.846961
0.03187048 0.0163649 -0.02344751 -0.9081971 -0.414865 -0.05536287 0.2222053 0.846961
0.06388503 0.1102897 -0.03746843 -0.8911788 0.4359099 -0.1256299 0.2475214 0.846961
0.07243282 0.1060856 -0.04431748 0.01157718 -0.2347538 -0.971986 0.2475214 0.8722771
0.04484743 0.01534951 -0.03347754 -0.02543137 -0.6199561 -0.7842243 0.2222053 0.8722771
0.0418604 0.01547201 -0.01043153 -0.2158837 -0.480902 0.8497809 0.2475214 0.846961
0.03187048 0.0163649 -0.02344751 -0.9081971 -0.414865 -0.05536287 0.2475214 0.8722771
0.0710175 0.1096521 -0.02817535 -0.08136611 0.3579374 0.9301938 0.2222053 0.846961
0.1083323 0.1622591 -0.05676341 0.1235475 0.6314262 0.7655305 0.2475214 0.846961
0.06388503 0.1102897 -0.03746843 -0.8911788 0.4359099 -0.1256299 0.2222053 0.846961
0.1083323 0.1622591 -0.05676341 0.1235475 0.6314262 0.7655305 0.2475214 0.8722771
0.1046265 0.1625904 -0.06159258 -0.6624882 0.7026349 -0.2596414 0.2222053 0.8722771
0.07956529 0.1054481 -0.0350244 0.9212468 -0.3205045 0.2204115 0.2222053 0.846961
0.1108325 0.1571833 -0.05903149 0.7838775 -0.5188827 0.3410232 0.2222053 0.8722771
0.07243282 0.1060856 -0.04431748 0.01157718 -0.2347538 -0.971986 0.2222053 0.846961
0.1046265 0.1625904 -0.06159258 -0.6624882 0.7026349 -0.2596414 0.2475214 0.8722771
0.1071268 0.1575145 -0.06385946 -0.156428 -0.4340412 -0.8872083 0.2222053 0.8722771
0.1108325 0.1571833 -0.05903149 0.7838775 -0.5188827 0.3410232 0.2222053 0.846961
0.1071268 0.1575145 -0.06385946 -0.156428 -0.4340412 -0.8872083 0.2475214 0.846961
0.1071268 0.1575145 -0.06385946 -0.156428 -0.4340412 -0.8872083 0.2222053 0.846961
0.1046265 0.1625904 -0.06159258 -0.6624882 0.7026349 -0.2596414 0.2475214 0.846961
0.1083323 0.1622591 -0.05676341 0.1235475 0.6314262 0.7655305 0.2222053 0.846961
0.1108325 0.1571833 -0.05903149 0.7838775 -0.5188827 0.3410232 0.2475214 0.846961
0.02713197 0.0127714 -0.03319645 0.3611983 -0.8116912 -0.4590134 0.2222053 0.846961
0.0227775 0.0808516 -0.07144642 0.4838659 -0.4914023 -0.724153 0.2475214 0.846961
0.03177458 0.0162081 -0.02102757 0.7392107 -0.3808024 0.5554792 0.2222053 0.846961
0.0260607 0.0859575 -0.06398654 0.866747 0.4153669 0.2760799 0.2475214 0.846961
0.01914263 0.0180501 -0.0167284 -0.3316188 -0.221172 0.9171215 0.2222053 0.846961
0.0170418 0.0872727 -0.06091738 -0.3830039 0.6029572 0.6998219 0.2475214 0.846961
0.0137586 0.08216681 -0.06837654 -0.9261112 -0.282815 -0.2496675 0.2475214 0.8722771
0.01450002 0.0146134 -0.02889752 -0.7629887 -0.6417273 -0.0776811 0.2222053 0.8722771
0.03177458 0.0162081 -0.02102757 0.7392107 -0.3808024 0.5554792 0.2475214 0.846961
0.01914263 0.0180501 -0.0167284 -0.3316188 -0.221172 0.9171215 0.2475214 0.8722771
0.0260607 0.0859575 -0.06398654 0.866747 0.4153669 0.2760799 0.2222053 0.846961
0.01346743 0.1205625 -0.1085784 0.7748754 0.6317434 -0.0216437 0.2475214 0.846961
0.0170418 0.0872727 -0.06091738 -0.3830039 0.6029572 0.6998219 0.2222053 0.846961
0.01346743 0.1205625 -0.1085784 0.7748754 0.6317434 -0.0216437 0.2475214 0.8722771
0.008781612 0.1212458 -0.1069834 -0.4385785 0.8094253 0.3904865 0.2222053 0.8722771
0.0227775 0.0808516 -0.07144642 0.4838659 -0.4914023 -0.724153 0.2222053 0.846961
0.01226211 0.1159769 -0.1101556 0.5550142 -0.6506071 -0.5183335 0.2222053 0.8722771
0.0137586 0.08216681 -0.06837654 -0.9261112 -0.282815 -0.2496675 0.2222053 0.846961
0.008781612 0.1212458 -0.1069834 -0.4385785 0.8094253 0.3904865 0.2475214 0.8722771
0.007576287 0.1166602 -0.1085606 -0.8983713 -0.43848 -0.0257759 0.2222053 0.8722771
0.01226211 0.1159769 -0.1101556 0.5550142 -0.6506071 -0.5183335 0.2222053 0.846961
0.007576287 0.1166602 -0.1085606 -0.8983713 -0.43848 -0.0257759 0.2475214 0.846961
0.007576287 0.1166602 -0.1085606 -0.8983713 -0.43848 -0.0257759 0.2222053 0.846961
0.008781612 0.1212458 -0.1069834 -0.4385785 0.8094253 0.3904865 0.2475214 0.846961
0.01346743 0.1205625 -0.1085784 0.7748754 0.6317434 -0.0216437 0.2222053 0.846961
0.01226211 0.1159769 -0.1101556 0.5550142 -0.6506071 -0.5183335 0.2475214 0.846961
0.008569479 0.01681781 0.03643346 -0.7305997 -0.659564 0.1766335 0.2222053 0.846961
0.005241513 0.0726741 0.05360651 -0.89579 -0.04691111 0.4419952 0.2475214 0.846961
0.01301992 0.01852721 0.02536845 -0.2837463 -0.3982981 -0.8722652 0.2222053 0.846961
0.008343995 0.0738658 0.04589343 -0.4542779 0.1622355 -0.8759631 0.2475214 0.846961
0.02421033 0.01821831 0.02982163 0.7858011 -0.4278228 -0.4466368 0.2222053 0.846961
0.01614523 0.0736504 0.04899764 0.9387466 0.1237822 -0.3216097 0.2475214 0.846961
0.01304269 0.0724588 0.05671144 0.3440902 -0.08113921 0.9354241 0.2475214 0.8722771
0.01975989 0.01650891 0.04088664 0.3773006 -0.6901497 0.6175255 0.2222053 0.8722771
0.01301992 0.01852721 0.02536845 -0.2837463 -0.3982981 -0.8722652 0.2475214 0.846961
0.02421033 0.01821831 0.02982163 0.7858011 -0.4278228 -0.4466368 0.2475214 0.8722771
0.008343995 0.0738658 0.04589343 -0.4542779 0.1622355 -0.8759631 0.2222053 0.846961
0.01116079 0.1220498 0.0466845 -0.3381856 0.1013181 -0.9356096 0.2475214 0.846961
0.01614523 0.0736504 0.04899764 0.9387466 0.1237822 -0.3216097 0.2222053 0.846961
0.01116079 0.1220498 0.0466845 -0.3381856 0.1013181 -0.9356096 0.2475214 0.8722771
0.0158534 0.1219203 0.04855251 0.9059175 0.1489451 -0.396395 0.2222053 0.8722771
0.005241513 0.0726741 0.05360651 -0.89579 -0.04691111 0.4419952 0.2222053 0.846961
0.009294629 0.121333 0.05132461 -0.9269327 -0.028793 0.3741213 0.2222053 0.8722771
0.01304269 0.0724588 0.05671144 0.3440902 -0.08113921 0.9354241 0.2222053 0.846961
0.0158534 0.1219203 0.04855251 0.9059175 0.1489451 -0.396395 0.2475214 0.8722771
0.01398718 0.1212034 0.05319142 0.4437146 0.03851534 0.8953402 0.2222053 0.8722771
0.009294629 0.121333 0.05132461 -0.9269327 -0.028793 0.3741213 0.2222053 0.846961
0.01398718 0.1212034 0.05319142 0.4437146 0.03851534 0.8953402 0.2475214 0.846961
0.01398718 0.1212034 0.05319142 0.4437146 0.03851534 0.8953402 0.2222053 0.846961
0.0158534 0.1219203 0.04855251 0.9059175 0.1489451 -0.396395 0.2475214 0.846961
0.01116079 0.1220498 0.0466845 -0.3381856 0.1013181 -0.9356096 0.2222053 0.846961
0.009294629 0.121333 0.05132461 -0.9269327 -0.028793 0.3741213 0.2475214 0.846961
3 0 1 2 
3 0 2 3 
3 108 109 4 
3 108 4 5 
3 110 111 6 
3 110 6 7 
3 112 113 114 
3 112 114 115 
3 108 116 117 
3 108 117 115 
3 118 109 8 
3 118 8 9 
3 10 119 11 
3 120 111 121 
3 120 121 122 
3 123 1 12 
3 123 12 124 
3 125 113 126 
3 125 126 127 
3 128 129 11 
3 130 131 11 
3 132 133 11 
3 13 14 15 
3 13 15 16 
3 134 135 17 
3 134 17 18 
3 136 137 19 
3 136 19 20 
3 138 139 140 
3 138 140 141 
3 134 142 143 
3 134 143 141 
3 144 135 21 
3 144 21 22 
3 23 145 24 
3 146 137 147 
3 146 147 148 
3 149 14 25 
3 149 25 150 
3 151 139 152 
3 151 152 153 
3 154 155 24 
3 156 157 24 
3 158 159 24 
3 26 27 28 
3 26 28 29 
3 160 161 30 
3 160 30 31 
3 162 163 32 
3 162 32 33 
3 164 165 166 
3 164 166 167 
3 160 168 169 
3 160 169 167 
3 170 161 34 
3 170 34 35 
3 36 171 37 
3 172 163 173 
3 172 173 174 
3 175 27 38 
3 175 38 176 
3 177 165 178 
3 177 178 179 
3 180 181 37 
3 182 183 37 
3 184 185 37 
3 39 40 41 
3 39 41 42 
3 186 187 43 
3 186 43 44 
3 188 189 45 
3 188 45 46 
3 190 191 192 
3 190 192 193 
3 186 194 195 
3 186 195 193 
3 196 187 47 
3 196 47 48 
3 49 197 50 
3 198 189 199 
3 198 199 200 
3 201 40 51 
3 201 51 202 
3 203 191 204 
3 203 204 205 
3 206 207 50 
3 208 209 50 
3 210 211 50 
3 52 53 54 
3 52 54 55 
3 212 213 56 
3 212 56 57 
3 214 215 58 
3 214 58 59 
3 216 217 218 
3 216 218 219 
3 212 220 221 
3 212 221 219 
3 222 215 60 
3 222 60 61 
3 62 223 63 
3 62 63 64 
3 224 53 225 
3 224 225 65 
3 226 217 227 
3 226 227 228 
3 229 213 230 
3 229 230 231 
3 232 66 67 
3 233 234 68 
3 233 68 235 
3 236 237 238 
3 236 238 239 
3 240 241 242 
3 240 242 243 
3 244 245 67 
3 246 247 67 
3 248 249 67 
3 69 70 71 
3 69 71 72 
3 250 251 73 
3 250 73 74 
3 252 253 75 
3 252 75 76 
3 254 255 256 
3 254 256 257 
3 250 258 259 
3 250 259 257 
3 260 251 77 
3 260 77 78 
3 79 261 80 
3 262 253 263 
3 262 263 264 
3 265 70 81 
3 265 81 266 
3 267 255 268 
3 267 268 269 
3 270 271 80 
3 272 273 80 
3 274 275 80 
3 82 83 84 
3 82 84 85 
3 276 277 86 
3 276 86 87 
3 278 279 88 
3 278 88 89 
3 280 281 282 
3 280 282 283 
3 276 284 285 
3 276 285 283 
3 286 277 90 
3 286 90 91 
3 92 287 93 
3 288 279 289 
3 288 289 290 
3 291 83 94 
3 291 94 292 
3 293 281 294 
3 293 294 295 
3 296 297 93 
3 298 299 93 
3 300 301 93 
3 95 96 97 
3 95 97 98 
3 302 303 99 
3 302 99 100 
3 304 305 101 
3 304 101 102 
3 306 307 308 
3 306 308 309 
3 302 310 311 
3 302 311 309 
3 312 303 103 
3 312 103 104 
3 105 313 106 
3 314 305 315 
3 314 315 316 
3 317 96 107 
3 317 107 318 
3 319 307 320 
3 319 320 321 
3 322 323 106 
3 324 325 106 
3 326 327 106 
