ply
format ascii 1.0
comment VCGLIB generated
comment TextureFile dummy.png
element vertex 153
property float x
property float y
property float z
property float nx
property float ny
property float nz
property float texture_u
property float texture_v
element face 90
property list uchar int vertex_indices
end_header
-0.03476334 -0.01406184 -0.004442453 -0.8708049 -0.4861947 0.07289453 0.1311544 0.756271
-0.01902044 0.02143649 -0.004639387 -0.9726402 0.2124594 0.09397967 0.1480044 0.756271
-0.01337135 0.02824182 -0.02184439 -0.7725472 0.1677344 -0.6124018 0.1480044 0.773121
-0.02467036 -0.01494861 -0.03104639 -0.6228206 -0.5301313 -0.5753742 0.1311544 0.773121
0.001708627 0.03676557 -0.02885246 0.02172012 0.09992 -0.9947584 0.1480044 0.773121
-1.037121e-05 -0.01491567 -0.04085159 0.08895177 -0.5472589 -0.8322231 0.1311544 0.773121
0.0166316 0.03927309 -0.0207746 0.7779734 0.04942056 -0.6263506 0.1480044 0.773121
0.01956463 -0.01434398 -0.02598357 0.6694146 -0.6091762 -0.4251923 0.1311544 0.773121
0.02225757 0.03998459 -0.002761602 0.9997988 0.0200494 0.0006854418 0.1480044 0.773121
0.02508664 -0.01325826 0.0004246235 0.7734337 -0.6326777 0.03897686 0.1311544 0.773121
0.01723456 0.03763368 0.01353741 0.7518667 0.04306263 0.6579074 0.1480044 0.773121
0.02003658 -0.01246925 0.02293539 0.6315118 -0.5464021 0.5501251 0.1311544 0.773121
0.003759623 0.02840783 0.01963949 -0.04415163 0.1317807 0.9902952 0.1480044 0.773121
0.002063632 -0.01060051 0.03284049 -0.0001815741 -0.4233725 0.9059557 0.1311544 0.773121
-0.01173234 0.02148522 0.01245761 -0.7193788 0.191003 0.6678413 0.1311544 0.756271
0.002028584 0.1037401 0.02127242 -0.02324816 0.6118393 0.7906404 0.1480044 0.773121
-0.01620245 0.103651 0.01370645 -0.5620975 0.6110316 0.5573929 0.1311544 0.773121
-0.02167344 -0.01141065 0.02208543 -0.6140262 -0.4401263 0.6551799 0.1311544 0.773121
-0.0165174 0.103651 -0.02303147 -0.5745575 0.607097 -0.5489234 0.1395794 0.773121
-0.02396834 0.103651 -0.004597425 -0.7928023 0.6094055 0.009467597 0.1455368 0.7706534
0.01833355 0.1046146 0.01463556 0.5597707 0.6236114 0.545679 0.1395794 0.756271
0.02397466 0.1054067 -0.002775431 0.7503926 0.6609225 0.009620945 0.133622 0.7587386
0.0180186 0.1046146 -0.02210259 0.5909672 0.6188108 -0.5175239 0.1311544 0.764696
0.001583576 0.1037401 -0.03068256 0.02224198 0.5905636 -0.8066846 0.133622 0.7706534
-0.05587041 0.1155893 -0.01729059 -0.8904535 0.384235 -0.2438363 0.2235575 0.7539868
-0.03797734 0.1737507 -0.01667547 -0.8541842 0.4479646 -0.2640021 0.2446899 0.7539868
-0.02064943 0.1726743 -0.04037738 -0.4708604 0.43719 -0.7662607 0.2446899 0.7751192
-0.0285064 0.1138894 -0.0547204 -0.4848711 0.3615069 -0.7963748 0.2235575 0.7751192
0.005675554 0.172957 -0.04491949 0.2216875 0.4679661 -0.8554896 0.2446899 0.7751192
0.01729167 0.1154829 -0.06197739 0.1979792 0.4060432 -0.8921509 0.2235575 0.7751192
0.0243876 0.1741106 -0.02761841 0.7419214 0.5281081 -0.4131036 0.2446899 0.7751192
0.05468261 0.1194355 -0.0348146 0.7332169 0.49567 -0.465515 0.2235575 0.7751192
0.02569962 0.1757782 0.001368523 0.7877738 0.5802071 0.2068143 0.2446899 0.7751192
0.06002963 0.1232965 0.01047039 0.839745 0.5046395 0.2004182 0.2235575 0.7751192
0.008371592 0.1768546 0.02507043 0.4029965 0.6015055 0.6897717 0.2446899 0.7751192
0.03267062 0.1249979 0.04790044 0.4798788 0.5118758 0.7125304 0.2235575 0.7751192
-0.0174464 0.1767093 0.02960348 -0.2890655 0.5541287 0.7806296 0.2446899 0.7751192
-0.01138043 0.1235393 0.05554843 -0.206604 0.5024204 0.8395765 0.2235575 0.7751192
-0.003207445 0.2149486 -0.0108645 0.03674573 0.9971432 -0.06599408 0.2446899 0.7751192
-0.03615844 0.1755557 0.01230145 -0.79793 0.4892379 0.3520712 0.2446899 0.7751192
-0.04877138 0.1195867 0.0283854 -0.789278 0.4375051 0.4308474 0.2235575 0.7751192
-0.07866144 0.07178632 -0.01984549 -0.8616272 -0.4754871 -0.177512 0.2341237 0.7751192
-0.03976536 0.06937019 -0.07304859 -0.4516603 -0.5009544 -0.7382734 0.2415952 0.7720245
0.02533162 0.07163525 -0.08336449 0.2363354 -0.4769711 -0.8465484 0.2446899 0.764553
0.07711458 0.07716273 -0.04507756 0.8101839 -0.4203506 -0.4085431 0.2415952 0.7570816
0.07866156 0.08227663 0.01782155 0.8542426 -0.4302894 0.2917544 0.2341237 0.7539868
0.0397656 0.08469282 0.07102442 0.4759453 -0.378163 0.7940207 0.2266522 0.7570816
-0.01678836 0.08299582 0.08336449 -0.1801669 -0.3514497 0.9187073 0.2235575 0.764553
-0.06857145 0.07746832 0.04507852 -0.7567874 -0.4165186 0.503771 0.2266522 0.7720245
-0.02467036 -0.01494861 -0.03104639 -0.6228206 -0.5301313 -0.5753742 0.1311544 0.756271
-0.01337135 0.02824182 -0.02184439 -0.7725472 0.1677344 -0.6124018 0.1480044 0.756271
-1.037121e-05 -0.01491567 -0.04085159 0.08895177 -0.5472589 -0.8322231 0.1311544 0.756271
0.001708627 0.03676557 -0.02885246 0.02172012 0.09992 -0.9947584 0.1480044 0.756271
0.01956463 -0.01434398 -0.02598357 0.6694146 -0.6091762 -0.4251923 0.1311544 0.756271
0.0166316 0.03927309 -0.0207746 0.7779734 0.04942056 -0.6263506 0.1480044 0.756271
0.02508664 -0.01325826 0.0004246235 0.7734337 -0.6326777 0.03897686 0.1311544 0.756271
0.02225757 0.03998459 -0.002761602 0.9997988 0.0200494 0.0006854418 0.1480044 0.756271
0.02003658 -0.01246925 0.02293539 0.6315118 -0.5464021 0.5501251 0.1311544 0.756271
0.01723456 0.03763368 0.01353741 0.7518667 0.04306263 0.6579074 0.1480044 0.756271
0.003759623 0.02840783 0.01963949 -0.04415163 0.1317807 0.9902952 0.1480044 0.756271
0.002063632 -0.01060051 0.03284049 -0.0001815741 -0.4233725 0.9059557 0.1311544 0.756271
-0.01173234 0.02148522 0.01245761 -0.7193788 0.191003 0.6678413 0.1480044 0.773121
-0.02167344 -0.01141065 0.02208543 -0.6140262 -0.4401263 0.6551799 0.1311544 0.756271
-0.01173234 0.02148522 0.01245761 -0.7193788 0.191003 0.6678413 0.1480044 0.756271
-0.01902044 0.02143649 -0.004639387 -0.9726402 0.2124594 0.09397967 0.1480044 0.773121
-0.03476334 -0.01406184 -0.004442453 -0.8708049 -0.4861947 0.07289453 0.1311544 0.773121
-0.03476334 -0.01406184 -0.004442453 -0.8708049 -0.4861947 0.07289453 0.1395794 0.773121
-0.02467036 -0.01494861 -0.03104639 -0.6228206 -0.5301313 -0.5753742 0.1455368 0.7706534
-1.037121e-05 -0.01491567 -0.04085159 0.08895177 -0.5472589 -0.8322231 0.1480044 0.764696
0.01956463 -0.01434398 -0.02598357 0.6694146 -0.6091762 -0.4251923 0.1455368 0.7587386
0.02508664 -0.01325826 0.0004246235 0.7734337 -0.6326777 0.03897686 0.1395794 0.756271
0.02003658 -0.01246925 0.02293539 0.6315118 -0.5464021 0.5501251 0.133622 0.7587386
0.002063632 -0.01060051 0.03284049 -0.0001815741 -0.4233725 0.9059557 0.1311544 0.764696
-0.02167344 -0.01141065 0.02208543 -0.6140262 -0.4401263 0.6551799 0.133622 0.7706534
-0.01620245 0.103651 0.01370645 -0.5620975 0.6110316 0.5573929 0.1480044 0.764696
0.002028584 0.1037401 0.02127242 -0.02324816 0.6118393 0.7906404 0.1455368 0.7587386
0.001708627 0.03676557 -0.02885246 0.02172012 0.09992 -0.9947584 0.1311544 0.756271
-0.0165174 0.103651 -0.02303147 -0.5745575 0.607097 -0.5489234 0.1480044 0.773121
0.001583576 0.1037401 -0.03068256 0.02224198 0.5905636 -0.8066846 0.1311544 0.773121
0.01723456 0.03763368 0.01353741 0.7518667 0.04306263 0.6579074 0.1311544 0.756271
0.02397466 0.1054067 -0.002775431 0.7503926 0.6609225 0.009620945 0.1480044 0.773121
0.01833355 0.1046146 0.01463556 0.5597707 0.6236114 0.545679 0.1311544 0.773121
-0.01902044 0.02143649 -0.004639387 -0.9726402 0.2124594 0.09397967 0.1311544 0.756271
-0.01620245 0.103651 0.01370645 -0.5620975 0.6110316 0.5573929 0.1480044 0.773121
-0.02396834 0.103651 -0.004597425 -0.7928023 0.6094055 0.009467597 0.1311544 0.773121
-0.01337135 0.02824182 -0.02184439 -0.7725472 0.1677344 -0.6124018 0.1311544 0.756271
-0.02396834 0.103651 -0.004597425 -0.7928023 0.6094055 0.009467597 0.1480044 0.773121
-0.0165174 0.103651 -0.02303147 -0.5745575 0.607097 -0.5489234 0.1311544 0.773121
0.0166316 0.03927309 -0.0207746 0.7779734 0.04942056 -0.6263506 0.1311544 0.756271
0.001583576 0.1037401 -0.03068256 0.02224198 0.5905636 -0.8066846 0.1480044 0.773121
0.0180186 0.1046146 -0.02210259 0.5909672 0.6188108 -0.5175239 0.1311544 0.773121
0.003759623 0.02840783 0.01963949 -0.04415163 0.1317807 0.9902952 0.1311544 0.756271
0.01833355 0.1046146 0.01463556 0.5597707 0.6236114 0.545679 0.1480044 0.773121
0.002028584 0.1037401 0.02127242 -0.02324816 0.6118393 0.7906404 0.1311544 0.773121
0.02225757 0.03998459 -0.002761602 0.9997988 0.0200494 0.0006854418 0.1311544 0.756271
0.0180186 0.1046146 -0.02210259 0.5909672 0.6188108 -0.5175239 0.1480044 0.773121
0.02397466 0.1054067 -0.002775431 0.7503926 0.6609225 0.009620945 0.1311544 0.773121
-0.0285064 0.1138894 -0.0547204 -0.4848711 0.3615069 -0.7963748 0.2235575 0.7539868
-0.02064943 0.1726743 -0.04037738 -0.4708604 0.43719 -0.7662607 0.2446899 0.7539868
0.01729167 0.1154829 -0.06197739 0.1979792 0.4060432 -0.8921509 0.2235575 0.7539868
0.005675554 0.172957 -0.04491949 0.2216875 0.4679661 -0.8554896 0.2446899 0.7539868
0.05468261 0.1194355 -0.0348146 0.7332169 0.49567 -0.465515 0.2235575 0.7539868
0.0243876 0.1741106 -0.02761841 0.7419214 0.5281081 -0.4131036 0.2446899 0.7539868
0.06002963 0.1232965 0.01047039 0.839745 0.5046395 0.2004182 0.2235575 0.7539868
0.02569962 0.1757782 0.001368523 0.7877738 0.5802071 0.2068143 0.2446899 0.7539868
0.03267062 0.1249979 0.04790044 0.4798788 0.5118758 0.7125304 0.2235575 0.7539868
0.008371592 0.1768546 0.02507043 0.4029965 0.6015055 0.6897717 0.2446899 0.7539868
-0.0174464 0.1767093 0.02960348 -0.2890655 0.5541287 0.7806296 0.2235575 0.7539868
-0.01138043 0.1235393 0.05554843 -0.206604 0.5024204 0.8395765 0.2235575 0.7539868
-0.0174464 0.1767093 0.02960348 -0.2890655 0.5541287 0.7806296 0.2446899 0.7539868
-0.04877138 0.1195867 0.0283854 -0.789278 0.4375051 0.4308474 0.2235575 0.7539868
-0.03615844 0.1755557 0.01230145 -0.79793 0.4892379 0.3520712 0.2446899 0.7539868
-0.03797734 0.1737507 -0.01667547 -0.8541842 0.4479646 -0.2640021 0.2446899 0.7751192
-0.05587041 0.1155893 -0.01729059 -0.8904535 0.384235 -0.2438363 0.2235575 0.7751192
0.02569962 0.1757782 0.001368523 0.7877738 0.5802071 0.2068143 0.2235575 0.7539868
-0.03615844 0.1755557 0.01230145 -0.79793 0.4892379 0.3520712 0.2235575 0.7539868
0.005675554 0.172957 -0.04491949 0.2216875 0.4679661 -0.8554896 0.2235575 0.7539868
0.008371592 0.1768546 0.02507043 0.4029965 0.6015055 0.6897717 0.2235575 0.7539868
-0.03797734 0.1737507 -0.01667547 -0.8541842 0.4479646 -0.2640021 0.2235575 0.7539868
-0.02064943 0.1726743 -0.04037738 -0.4708604 0.43719 -0.7662607 0.2235575 0.7539868
0.0243876 0.1741106 -0.02761841 0.7419214 0.5281081 -0.4131036 0.2235575 0.7539868
-0.06857145 0.07746832 0.04507852 -0.7567874 -0.4165186 0.503771 0.2235575 0.7539868
-0.04877138 0.1195867 0.0283854 -0.789278 0.4375051 0.4308474 0.2446899 0.7539868
-0.05587041 0.1155893 -0.01729059 -0.8904535 0.384235 -0.2438363 0.2446899 0.7751192
-0.07866144 0.07178632 -0.01984549 -0.8616272 -0.4754871 -0.177512 0.2235575 0.7751192
-0.01678836 0.08299582 0.08336449 -0.1801669 -0.3514497 0.9187073 0.2235575 0.7539868
-0.01138043 0.1235393 0.05554843 -0.206604 0.5024204 0.8395765 0.2446899 0.7539868
-0.04877138 0.1195867 0.0283854 -0.789278 0.4375051 0.4308474 0.2446899 0.7751192
-0.06857145 0.07746832 0.04507852 -0.7567874 -0.4165186 0.503771 0.2235575 0.7751192
0.0397656 0.08469282 0.07102442 0.4759453 -0.378163 0.7940207 0.2235575 0.7539868
0.03267062 0.1249979 0.04790044 0.4798788 0.5118758 0.7125304 0.2446899 0.7539868
-0.01138043 0.1235393 0.05554843 -0.206604 0.5024204 0.8395765 0.2446899 0.7751192
-0.01678836 0.08299582 0.08336449 -0.1801669 -0.3514497 0.9187073 0.2235575 0.7751192
0.07866156 0.08227663 0.01782155 0.8542426 -0.4302894 0.2917544 0.2235575 0.7539868
0.06002963 0.1232965 0.01047039 0.839745 0.5046395 0.2004182 0.2446899 0.7539868
0.03267062 0.1249979 0.04790044 0.4798788 0.5118758 0.7125304 0.2446899 0.7751192
0.0397656 0.08469282 0.07102442 0.4759453 -0.378163 0.7940207 0.2235575 0.7751192
0.07711458 0.07716273 -0.04507756 0.8101839 -0.4203506 -0.4085431 0.2235575 0.7539868
0.05468261 0.1194355 -0.0348146 0.7332169 0.49567 -0.465515 0.2446899 0.7539868
0.06002963 0.1232965 0.01047039 0.839745 0.5046395 0.2004182 0.2446899 0.7751192
0.07866156 0.08227663 0.01782155 0.8542426 -0.4302894 0.2917544 0.2235575 0.7751192
0.02533162 0.07163525 -0.08336449 0.2363354 -0.4769711 -0.8465484 0.2235575 0.7539868
0.01729167 0.1154829 -0.06197739 0.1979792 0.4060432 -0.8921509 0.2446899 0.7539868
0.05468261 0.1194355 -0.0348146 0.7332169 0.49567 -0.465515 0.2446899 0.7751192
0.07711458 0.07716273 -0.04507756 0.8101839 -0.4203506 -0.4085431 0.2235575 0.7751192
-0.03976536 0.06937019 -0.07304859 -0.4516603 -0.5009544 -0.7382734 0.2235575 0.7539868
-0.0285064 0.1138894 -0.0547204 -0.4848711 0.3615069 -0.7963748 0.2446899 0.7539868
0.01729167 0.1154829 -0.06197739 0.1979792 0.4060432 -0.8921509 0.2446899 0.7751192
0.02533162 0.07163525 -0.08336449 0.2363354 -0.4769711 -0.8465484 0.2235575 0.7751192
-0.07866144 0.07178632 -0.01984549 -0.8616272 -0.4754871 -0.177512 0.2235575 0.7539868
-0.05587041 0.1155893 -0.01729059 -0.8904535 0.384235 -0.2438363 0.2446899 0.7539868
-0.0285064 0.1138894 -0.0547204 -0.4848711 0.3615069 -0.7963748 0.2446899 0.7751192
-0.03976536 0.06937019 -0.07304859 -0.4516603 -0.5009544 -0.7382734 0.2235575 0.7751192
3 0 1 2 
3 0 2 3 
3 49 50 4 
3 49 4 5 
3 51 52 6 
3 51 6 7 
3 53 54 8 
3 53 8 9 
3 55 56 10 
3 55 10 11 
3 57 58 12 
3 57 12 13 
3 14 59 15 
3 14 15 16 
3 60 59 61 
3 60 61 17 
3 62 63 64 
3 62 64 65 
3 66 67 68 
3 66 68 69 
3 66 69 70 
3 66 70 71 
3 66 71 72 
3 66 72 73 
3 18 19 74 
3 18 74 75 
3 18 75 20 
3 18 20 21 
3 18 21 22 
3 18 22 23 
3 76 50 77 
3 76 77 78 
3 79 56 80 
3 79 80 81 
3 82 63 83 
3 82 83 84 
3 85 1 86 
3 85 86 87 
3 88 52 89 
3 88 89 90 
3 91 58 92 
3 91 92 93 
3 94 54 95 
3 94 95 96 
3 24 25 26 
3 24 26 27 
3 97 98 28 
3 97 28 29 
3 99 100 30 
3 99 30 31 
3 101 102 32 
3 101 32 33 
3 103 104 34 
3 103 34 35 
3 105 106 36 
3 105 36 37 
3 107 106 38 
3 108 109 39 
3 108 39 40 
3 110 111 112 
3 110 112 113 
3 41 42 43 
3 41 43 44 
3 41 44 45 
3 41 45 46 
3 41 46 47 
3 41 47 48 
3 114 102 38 
3 115 109 38 
3 116 98 38 
3 117 104 38 
3 118 111 38 
3 119 25 38 
3 120 100 38 
3 121 122 123 
3 121 123 124 
3 125 126 127 
3 125 127 128 
3 129 130 131 
3 129 131 132 
3 133 134 135 
3 133 135 136 
3 137 138 139 
3 137 139 140 
3 141 142 143 
3 141 143 144 
3 145 146 147 
3 145 147 148 
3 149 150 151 
3 149 151 152 
