ply
format ascii 1.0
comment VCGLIB generated
comment TextureFile dummy.png
element vertex 357
property float x
property float y
property float z
property float nx
property float ny
property float nz
property float texture_u
property float texture_v
element face 230
property list uchar int vertex_indices
end_header
0.046574 0.2051141 0.06563759 -1.074403e-06 -1 -2.793449e-06 0.2228673 0.7898838
0.05763006 0.2151922 0.05365276 0.6064593 -0.4472158 -0.6574231 0.2372495 0.7898838
0.06138909 0.2151922 0.07244968 0.8126552 -0.447213 0.3736202 0.2372495 0.804266
0.03859103 0.2151922 0.05141878 -0.4378415 -0.4472131 -0.7799329 0.2372495 0.804266
0.04467404 0.2151922 0.0818336 -0.1042159 -0.4472153 0.8883342 0.2372495 0.804266
0.0305841 0.2151922 0.06883574 -0.8770625 -0.4472128 0.1753916 0.2372495 0.804266
0.04847407 0.2314988 0.04944277 0.1042105 0.4472085 -0.8883382 0.2372495 0.804266
0.06256306 0.2314988 0.06244063 0.8770627 0.4472104 -0.1753965 0.2372495 0.804266
0.05455601 0.2314988 0.07985759 0.4378379 0.447212 0.7799355 0.2372495 0.804266
0.0355171 0.2314988 0.07762361 -0.6064617 0.4472108 0.6574244 0.2372495 0.804266
0.03175807 0.2314988 0.05882668 -0.8126577 0.4472111 -0.373617 0.2372495 0.804266
0.046574 0.2415769 0.06563759 -1.661747e-06 1 -2.077183e-06 0.2372495 0.804266
0.03579903 0.1421379 -0.02000737 0.6087899 0.6670167 -0.4294923 0.2228673 0.7898838
-0.01699996 0.1417894 -0.03195524 -0.4514443 0.628947 -0.6329485 0.2372495 0.7898838
-0.02673793 0.1417694 0.02482271 -0.5975949 0.6194344 0.5090986 0.2372495 0.804266
-0.03177094 -0.06970797 -0.01068735 -0.7782493 -0.6134286 -0.1342889 0.2228673 0.7898838
0.03273904 -0.07033559 -0.02795625 0.5226707 -0.6463509 -0.5559189 0.2372495 0.7898838
0.03914607 -0.07030176 0.02011871 0.6230312 -0.629855 0.4638048 0.2372495 0.804266
-0.01437998 -0.06997756 -0.03187037 -0.3328065 -0.643081 -0.6897004 0.2372495 0.804266
-0.002512932 0.05660238 0.04300261 -0.13698 -0.01632211 0.9904394 0.2372495 0.7898838
-0.01594996 -0.07033715 0.03070664 -0.3992866 -0.625073 0.6707116 0.2372495 0.804266
0.05160904 0.02886168 -0.007562399 0.9899945 0.0128461 -0.1405197 0.2228673 0.7898838
0.01453805 0.02705058 -0.04397821 0.1967011 -0.001241957 -0.9804627 0.2372495 0.7898838
-0.03131592 0.1419132 -0.005689383 -0.7492454 0.6496562 -0.1287565 0.2372495 0.7898838
0.042135 0.1422752 0.006890774 0.7402693 0.6535685 0.1576377 0.2228673 0.7898838
0.02344501 0.1415963 0.03577375 0.3306068 0.6144756 0.7163232 0.2372495 0.7898838
0.01314402 0.1420721 -0.03584528 0.1762204 0.6644026 -0.7263027 0.2372495 0.7898838
0.007132053 0.16671 -0.001909256 0.01868045 -0.9997815 -0.009383074 0.004874146 0.7908235
0.08748603 0.120266 -0.06649828 0.4604141 -0.8160576 -0.3493834 0.02082765 0.7908235
0.0980531 0.1214111 0.03989172 0.4338423 -0.8786349 0.1994534 0.02082765 0.8067771
0.0104171 0.120266 0.1011338 0.1293706 -0.8096384 0.5724937 0.02082765 0.8067771
-0.095842 0.120266 0.003112793 -0.5656809 -0.8227548 -0.05549458 0.02082765 0.8067771
-0.02946496 0.120266 -0.09829021 -0.2080325 -0.8151529 -0.5405999 0.02082765 0.8067771
0.05365503 0.1555653 -0.1031022 0.3745646 -0.1064716 -0.9210674 0.02082765 0.8067771
0.112624 0.1486744 0.04659176 0.9015172 -0.1243887 0.4144806 0.02082765 0.8067771
-0.03042495 0.1234228 0.09863472 -0.3980792 -0.5480204 0.7356675 0.02082765 0.7908235
-0.106722 0.1486744 0.02085972 -0.9582567 -0.09768419 0.2687044 0.02082765 0.8067771
-0.07473195 0.1555653 -0.07742739 -0.7720556 -0.1002802 -0.6275939 0.02082765 0.8067771
0.1042501 0.1555653 -0.05643034 0.9160413 -0.02352747 -0.4003932 0.02082765 0.8067771
0.02897203 0.1555653 0.1073048 0.272532 -0.01536321 0.962024 0.02082765 0.7908235
-0.014709 0.1555653 -0.1111224 -0.1472737 -0.01193569 -0.9890238 0.02082765 0.8067771
0.01702011 0.2324031 -0.08619738 0.09759715 0.6943039 -0.7130336 0.004874146 0.7908235
-0.03924596 0.213224 -0.0845232 -0.4545536 0.5270121 -0.7180803 0.02082765 0.7908235
-0.0218389 0.2648674 -0.01522827 -0.1911616 0.9772161 -0.09222753 0.02082765 0.8067771
-0.09152198 0.213021 -0.01391029 -0.8529297 0.5070329 -0.1242126 0.02082765 0.7908235
-0.05041099 0.2324032 0.06046963 -0.5144919 0.6449534 0.5650957 0.02082765 0.8067771
0.04867506 0.2324032 0.07209373 0.3600995 0.7046311 0.611411 0.02082765 0.7908235
-0.003906965 0.2132239 0.09218669 -0.1504234 0.4749076 0.8670845 0.02082765 0.7908235
0.09035003 0.2324033 -0.01855135 0.6985305 0.7046323 -0.1246935 0.02082765 0.7908235
0.09321105 0.2132241 0.0376668 0.7844622 0.5045176 0.3606673 0.02082765 0.7908235
0.07137001 0.213224 -0.07154632 0.5824298 0.5119987 -0.6313737 0.02082765 0.7908235
-0.01893389 0.2338744 -0.01197934 -1.260638e-06 -1 -1.00278e-07 0.2228673 0.7898838
-0.007877946 0.2439525 -0.02396536 0.6064575 -0.4472111 -0.6574281 0.2372495 0.7898838
-0.004118919 0.2439525 -0.0051682 0.8126591 -0.4472097 0.3736158 0.2372495 0.804266
-0.02691698 0.2439525 -0.02619839 -0.4378421 -0.4472151 -0.7799314 0.2372495 0.804266
-0.02083397 0.2439525 0.004215717 -0.1042127 -0.4472086 0.8883379 0.2372495 0.804266
-0.03492391 0.2439525 -0.008782387 -0.877062 -0.4472122 0.1753955 0.2372495 0.804266
-0.01703393 0.2602591 -0.02817535 0.1042137 0.4472114 -0.8883364 0.2372495 0.804266
-0.002944946 0.2602591 -0.01517725 0.8770617 0.4472139 -0.1753928 0.2372495 0.804266
-0.010952 0.2602591 0.002239704 0.4378404 0.4472137 0.7799332 0.2372495 0.804266
-0.02999091 0.2602591 5.722046e-06 -0.606461 0.4472139 0.6574228 0.2372495 0.804266
-0.03374994 0.2602591 -0.0187912 -0.8126567 0.4472089 -0.3736218 0.2372495 0.804266
-0.01893389 0.2703372 -0.01197934 1.067243e-06 1 2.80778e-06 0.2372495 0.804266
-0.04760599 0.2051141 0.05224681 3.151574e-07 -1 2.650187e-06 0.2228673 0.7898838
-0.03654993 0.2151922 0.04026175 0.6064612 -0.4472142 -0.6574225 0.2372495 0.7898838
-0.0327909 0.2151922 0.05905867 0.8126586 -0.4472106 0.3736157 0.2372495 0.804266
-0.05558896 0.2151922 0.03802776 -0.437838 -0.4472157 -0.7799333 0.2372495 0.804266
-0.04950595 0.2151922 0.06844282 -0.1042141 -0.4472097 0.8883372 0.2372495 0.804266
-0.06359601 0.2151922 0.05544472 -0.8770635 -0.447212 0.1753887 0.2372495 0.804266
-0.04570591 0.2314988 0.03605175 0.1042153 0.4472111 -0.8883364 0.2372495 0.804266
-0.03161693 0.2314988 0.04904962 0.8770626 0.4472131 -0.1753901 0.2372495 0.804266
-0.03962398 0.2314988 0.06646562 0.4378404 0.4472133 0.7799334 0.2372495 0.804266
-0.05866289 0.2314988 0.06423259 -0.6064609 0.4472131 0.6574235 0.2372495 0.804266
-0.06242192 0.2314988 0.04543567 -0.8126571 0.4472122 -0.3736171 0.2372495 0.804266
-0.04760599 0.2415769 0.05224681 9.096635e-07 1 5.157147e-06 0.2372495 0.804266
0.08361399 0.2051141 -0.01853728 -1.074403e-06 -1 -2.793449e-06 0.2228673 0.7898838
0.09467101 0.2151922 -0.0305233 0.6064593 -0.4472158 -0.6574231 0.2372495 0.7898838
0.09843004 0.2151922 -0.01172638 0.8126552 -0.447213 0.3736202 0.2372495 0.804266
0.0756321 0.2151922 -0.03275728 -0.4378415 -0.4472131 -0.7799329 0.2372495 0.804266
0.08171403 0.2151922 -0.002342224 -0.1042159 -0.4472153 0.8883342 0.2372495 0.804266
0.06762409 0.2151922 -0.01534033 -0.8770625 -0.4472128 0.1753916 0.2372495 0.804266
0.08551407 0.2314988 -0.0347333 0.1042105 0.4472085 -0.8883382 0.2372495 0.804266
0.09960401 0.2314988 -0.02173519 0.8770627 0.4472104 -0.1753965 0.2372495 0.804266
0.09159601 0.2314988 -0.004318237 0.4378379 0.447212 0.7799355 0.2372495 0.804266
0.07255805 0.2314988 -0.006552219 -0.6064617 0.4472108 0.6574244 0.2372495 0.804266
0.06879902 0.2314988 -0.02534938 -0.8126577 0.4472111 -0.373617 0.2372495 0.804266
0.08361399 0.2415769 -0.01853728 -1.661747e-06 1 -2.077183e-06 0.2372495 0.804266
0.05548203 0.1416064 -0.0934124 -1.017103e-06 -1 -2.807777e-06 0.2228673 0.7898838
0.0665381 0.1516845 -0.1053982 0.6064609 -0.4472143 -0.6574227 0.2372495 0.7898838
0.07029808 0.1516845 -0.08660126 0.8126566 -0.4472112 0.3736193 0.2372495 0.804266
0.04750001 0.1516845 -0.1076312 -0.4378402 -0.447214 -0.779933 0.2372495 0.804266
0.05358207 0.1516845 -0.07721734 -0.1042159 -0.4472151 0.8883343 0.2372495 0.804266
0.03949201 0.1516845 -0.09021521 -0.8770615 -0.4472143 0.1753927 0.2372495 0.804266
0.05738211 0.1679912 -0.1096084 0.1042126 0.4472093 -0.8883376 0.2372495 0.804266
0.07147205 0.1679912 -0.09661031 0.8770614 0.4472128 -0.175397 0.2372495 0.804266
0.06346405 0.1679912 -0.07919335 0.4378392 0.4472131 0.7799342 0.2372495 0.804266
0.04442501 0.1679912 -0.08142734 -0.6064602 0.4472112 0.6574255 0.2372495 0.804266
0.0406661 0.1679912 -0.1002243 -0.8126587 0.4472104 -0.3736157 0.2372495 0.804266
0.05548203 0.1780693 -0.0934124 6.016651e-07 1 -1.905273e-06 0.2372495 0.804266
-0.09663391 0.1291944 0.01392078 1.160356e-06 -1 -2.66452e-06 0.2228673 0.7898838
-0.08557689 0.1392725 0.00193572 0.606462 -0.447215 -0.6574212 0.2372495 0.7898838
-0.08181798 0.1392725 0.02073264 0.8126551 -0.447211 0.3736229 0.2372495 0.804266
-0.1046159 0.1392725 -0.0002982616 -0.4378388 -0.447214 -0.7799339 0.2372495 0.804266
-0.09853399 0.1392725 0.0301168 -0.1042114 -0.447212 0.8883364 0.2372495 0.804266
-0.1126239 0.1392725 0.01711869 -0.8770622 -0.4472131 0.1753921 0.2372495 0.804266
-0.09473395 0.1555792 -0.002274275 0.1042127 0.4472095 -0.8883374 0.2372495 0.804266
-0.08064389 0.1555792 0.01072264 0.8770625 0.4472117 -0.1753943 0.2372495 0.804266
-0.0886519 0.1555792 0.02813959 0.4378431 0.447215 0.7799309 0.2372495 0.804266
-0.10769 0.1555792 0.0259068 -0.6064556 0.4472135 0.657428 0.2372495 0.804266
-0.11145 0.1555792 0.007109642 -0.8126574 0.4472123 -0.3736165 0.2372495 0.804266
-0.09663391 0.1656573 0.01392078 1.267795e-06 1 1.002776e-07 0.2372495 0.804266
0.02616203 0.1387336 0.0949266 -8.738456e-07 -1 -5.164284e-06 0.2228673 0.7898838
0.03721905 0.1488116 0.08294177 0.6064606 -0.4472142 -0.6574231 0.2372495 0.7898838
0.04097807 0.1488116 0.1017387 0.8126565 -0.4472134 0.373617 0.2372495 0.804266
0.01818001 0.1488116 0.08070779 -0.4378414 -0.4472134 -0.7799328 0.2372495 0.804266
0.02426207 0.1488116 0.1111226 -0.1042151 -0.4472123 0.8883357 0.2372495 0.804266
0.01017201 0.1488116 0.09812474 -0.8770631 -0.4472126 0.1753889 0.2372495 0.804266
0.02806211 0.1651183 0.07873178 0.1042132 0.4472097 -0.8883373 0.2372495 0.804266
0.04215205 0.1651183 0.09172964 0.8770636 0.4472118 -0.1753887 0.2372495 0.804266
0.03414404 0.1651183 0.1091456 0.437838 0.4472156 0.7799334 0.2372495 0.804266
0.01510608 0.1651183 0.1069126 -0.6064624 0.4472144 0.6574212 0.2372495 0.804266
0.01134706 0.1651183 0.08811569 -0.8126574 0.4472119 -0.3736168 0.2372495 0.804266
0.02616203 0.1751964 0.0949266 -1.325096e-06 1 -2.908049e-06 0.2372495 0.804266
-0.04781699 0.1416064 -0.08434725 -8.881726e-07 -1 2.764795e-06 0.2228673 0.7898838
-0.03676093 0.1516845 -0.09633327 0.6064588 -0.4472125 -0.6574259 0.2372495 0.7898838
-0.0330019 0.1516845 -0.07753634 0.8126574 -0.4472121 0.3736166 0.2372495 0.804266
-0.05579996 0.1516845 -0.09856629 -0.4378391 -0.4472117 -0.7799351 0.2372495 0.804266
-0.04971695 0.1516845 -0.06815219 -0.1042154 -0.4472098 0.888337 0.2372495 0.804266
-0.06380689 0.1516845 -0.08115029 -0.8770637 -0.4472118 0.1753882 0.2372495 0.804266
-0.04591691 0.1679912 -0.1005433 0.1042137 0.447215 -0.8883346 0.2372495 0.804266
-0.03182697 0.1679912 -0.08754539 0.8770624 0.4472127 -0.1753921 0.2372495 0.804266
-0.03983498 0.1679912 -0.0701282 0.4378388 0.4472137 0.779934 0.2372495 0.804266
-0.05887389 0.1679912 -0.07236218 -0.6064634 0.4472128 0.6574214 0.2372495 0.804266
-0.06263292 0.1679912 -0.09115934 -0.812655 0.4472134 -0.3736202 0.2372495 0.804266
-0.04781699 0.1780693 -0.08434725 -1.131706e-06 1 2.650198e-06 0.2372495 0.804266
0.05763006 0.2151922 0.05365276 0.6064593 -0.4472158 -0.6574231 0.2228673 0.7898838
0.046574 0.2051141 0.06563759 -1.074403e-06 -1 -2.793449e-06 0.2372495 0.7898838
0.06138909 0.2151922 0.07244968 0.8126552 -0.447213 0.3736202 0.2372495 0.7898838
0.04467404 0.2151922 0.0818336 -0.1042159 -0.4472153 0.8883342 0.2372495 0.7898838
0.0305841 0.2151922 0.06883574 -0.8770625 -0.4472128 0.1753916 0.2372495 0.7898838
0.03859103 0.2151922 0.05141878 -0.4378415 -0.4472131 -0.7799329 0.2372495 0.7898838
0.06138909 0.2151922 0.07244968 0.8126552 -0.447213 0.3736202 0.2228673 0.7898838
0.04467404 0.2151922 0.0818336 -0.1042159 -0.4472153 0.8883342 0.2228673 0.7898838
0.0305841 0.2151922 0.06883574 -0.8770625 -0.4472128 0.1753916 0.2228673 0.7898838
0.03859103 0.2151922 0.05141878 -0.4378415 -0.4472131 -0.7799329 0.2228673 0.7898838
0.04847407 0.2314988 0.04944277 0.1042105 0.4472085 -0.8883382 0.2372495 0.7898838
0.06256306 0.2314988 0.06244063 0.8770627 0.4472104 -0.1753965 0.2372495 0.7898838
0.05455601 0.2314988 0.07985759 0.4378379 0.447212 0.7799355 0.2372495 0.7898838
0.0355171 0.2314988 0.07762361 -0.6064617 0.4472108 0.6574244 0.2372495 0.7898838
0.03175807 0.2314988 0.05882668 -0.8126577 0.4472111 -0.373617 0.2372495 0.7898838
0.06256306 0.2314988 0.06244063 0.8770627 0.4472104 -0.1753965 0.2228673 0.7898838
0.05455601 0.2314988 0.07985759 0.4378379 0.447212 0.7799355 0.2228673 0.7898838
0.0355171 0.2314988 0.07762361 -0.6064617 0.4472108 0.6574244 0.2228673 0.7898838
0.03175807 0.2314988 0.05882668 -0.8126577 0.4472111 -0.373617 0.2228673 0.7898838
0.04847407 0.2314988 0.04944277 0.1042105 0.4472085 -0.8883382 0.2228673 0.7898838
0.03914607 -0.07030176 0.02011871 0.6230312 -0.629855 0.4638048 0.2228673 0.7898838
0.03914607 -0.07030176 0.02011871 0.6230312 -0.629855 0.4638048 0.2372495 0.7898838
0.03273904 -0.07033559 -0.02795625 0.5226707 -0.6463509 -0.5559189 0.2372495 0.804266
-0.01699996 0.1417894 -0.03195524 -0.4514443 0.628947 -0.6329485 0.2228673 0.7898838
-0.02673793 0.1417694 0.02482271 -0.5975949 0.6194344 0.5090986 0.2228673 0.7898838
-0.03177094 -0.06970797 -0.01068735 -0.7782493 -0.6134286 -0.1342889 0.2372495 0.804266
0.05160904 0.02886168 -0.007562399 0.9899945 0.0128461 -0.1405197 0.2372495 0.804266
0.01453805 0.02705058 -0.04397821 0.1967011 -0.001241957 -0.9804627 0.2228673 0.7898838
0.03579903 0.1421379 -0.02000737 0.6087899 0.6670167 -0.4294923 0.2372495 0.7898838
0.01453805 0.02705058 -0.04397821 0.1967011 -0.001241957 -0.9804627 0.2372495 0.804266
-0.01437998 -0.06997756 -0.03187037 -0.3328065 -0.643081 -0.6897004 0.2228673 0.7898838
-0.002512932 0.05660238 0.04300261 -0.13698 -0.01632211 0.9904394 0.2228673 0.7898838
-0.01699996 0.1417894 -0.03195524 -0.4514443 0.628947 -0.6329485 0.2372495 0.804266
0.02344501 0.1415963 0.03577375 0.3306068 0.6144756 0.7163232 0.2228673 0.7898838
0.042135 0.1422752 0.006890774 0.7402693 0.6535685 0.1576377 0.2372495 0.7898838
-0.01437998 -0.06997756 -0.03187037 -0.3328065 -0.643081 -0.6897004 0.2372495 0.7898838
-0.01594996 -0.07033715 0.03070664 -0.3992866 -0.625073 0.6707116 0.2228673 0.7898838
-0.03177094 -0.06970797 -0.01068735 -0.7782493 -0.6134286 -0.1342889 0.2372495 0.7898838
-0.02673793 0.1417694 0.02482271 -0.5975949 0.6194344 0.5090986 0.2372495 0.7898838
-0.002512932 0.05660238 0.04300261 -0.13698 -0.01632211 0.9904394 0.2372495 0.804266
0.05160904 0.02886168 -0.007562399 0.9899945 0.0128461 -0.1405197 0.2372495 0.7898838
0.03579903 0.1421379 -0.02000737 0.6087899 0.6670167 -0.4294923 0.2372495 0.804266
0.0980531 0.1214111 0.03989172 0.4338423 -0.8786349 0.1994534 0.02082765 0.7908235
0.0104171 0.120266 0.1011338 0.1293706 -0.8096384 0.5724937 0.02082765 0.7908235
-0.095842 0.120266 0.003112793 -0.5656809 -0.8227548 -0.05549458 0.02082765 0.7908235
0.08748603 0.120266 -0.06649828 0.4604141 -0.8160576 -0.3493834 0.004874146 0.7908235
-0.02946496 0.120266 -0.09829021 -0.2080325 -0.8151529 -0.5405999 0.02082765 0.7908235
0.0980531 0.1214111 0.03989172 0.4338423 -0.8786349 0.1994534 0.004874146 0.7908235
-0.095842 0.120266 0.003112793 -0.5656809 -0.8227548 -0.05549458 0.004874146 0.7908235
-0.02946496 0.120266 -0.09829021 -0.2080325 -0.8151529 -0.5405999 0.004874146 0.7908235
0.05365503 0.1555653 -0.1031022 0.3745646 -0.1064716 -0.9210674 0.02082765 0.7908235
0.0104171 0.120266 0.1011338 0.1293706 -0.8096384 0.5724937 0.004874146 0.7908235
-0.03042495 0.1234228 0.09863472 -0.3980792 -0.5480204 0.7356675 0.02082765 0.8067771
-0.07473195 0.1555653 -0.07742739 -0.7720556 -0.1002802 -0.6275939 0.02082765 0.7908235
-0.03924596 0.213224 -0.0845232 -0.4545536 0.5270121 -0.7180803 0.004874146 0.7908235
-0.0218389 0.2648674 -0.01522827 -0.1911616 0.9772161 -0.09222753 0.004874146 0.7908235
-0.05041099 0.2324032 0.06046963 -0.5144919 0.6449534 0.5650957 0.004874146 0.7908235
0.04867506 0.2324032 0.07209373 0.3600995 0.7046311 0.611411 0.02082765 0.8067771
0.04867506 0.2324032 0.07209373 0.3600995 0.7046311 0.611411 0.004874146 0.7908235
0.09035003 0.2324033 -0.01855135 0.6985305 0.7046323 -0.1246935 0.02082765 0.8067771
0.09035003 0.2324033 -0.01855135 0.6985305 0.7046323 -0.1246935 0.004874146 0.7908235
0.01702011 0.2324031 -0.08619738 0.09759715 0.6943039 -0.7130336 0.02082765 0.7908235
0.01702011 0.2324031 -0.08619738 0.09759715 0.6943039 -0.7130336 0.02082765 0.8067771
-0.014709 0.1555653 -0.1111224 -0.1472737 -0.01193569 -0.9890238 0.004874146 0.7908235
-0.03924596 0.213224 -0.0845232 -0.4545536 0.5270121 -0.7180803 0.02082765 0.8067771
-0.07473195 0.1555653 -0.07742739 -0.7720556 -0.1002802 -0.6275939 0.004874146 0.7908235
-0.106722 0.1486744 0.02085972 -0.9582567 -0.09768419 0.2687044 0.004874146 0.7908235
-0.05041099 0.2324032 0.06046963 -0.5144919 0.6449534 0.5650957 0.02082765 0.7908235
-0.09152198 0.213021 -0.01391029 -0.8529297 0.5070329 -0.1242126 0.02082765 0.8067771
-0.03042495 0.1234228 0.09863472 -0.3980792 -0.5480204 0.7356675 0.004874146 0.7908235
-0.003906965 0.2132239 0.09218669 -0.1504234 0.4749076 0.8670845 0.02082765 0.8067771
0.02897203 0.1555653 0.1073048 0.272532 -0.01536321 0.962024 0.004874146 0.7908235
0.112624 0.1486744 0.04659176 0.9015172 -0.1243887 0.4144806 0.004874146 0.7908235
0.09321105 0.2132241 0.0376668 0.7844622 0.5045176 0.3606673 0.02082765 0.8067771
0.1042501 0.1555653 -0.05643034 0.9160413 -0.02352747 -0.4003932 0.004874146 0.7908235
0.07137001 0.213224 -0.07154632 0.5824298 0.5119987 -0.6313737 0.02082765 0.8067771
0.05365503 0.1555653 -0.1031022 0.3745646 -0.1064716 -0.9210674 0.004874146 0.7908235
-0.106722 0.1486744 0.02085972 -0.9582567 -0.09768419 0.2687044 0.02082765 0.7908235
0.112624 0.1486744 0.04659176 0.9015172 -0.1243887 0.4144806 0.02082765 0.7908235
0.1042501 0.1555653 -0.05643034 0.9160413 -0.02352747 -0.4003932 0.02082765 0.7908235
-0.014709 0.1555653 -0.1111224 -0.1472737 -0.01193569 -0.9890238 0.02082765 0.7908235
0.007132053 0.16671 -0.001909256 0.01868045 -0.9997815 -0.009383074 0.02082765 0.7908235
-0.007877946 0.2439525 -0.02396536 0.6064575 -0.4472111 -0.6574281 0.2228673 0.7898838
-0.01893389 0.2338744 -0.01197934 -1.260638e-06 -1 -1.00278e-07 0.2372495 0.7898838
-0.004118919 0.2439525 -0.0051682 0.8126591 -0.4472097 0.3736158 0.2372495 0.7898838
-0.02083397 0.2439525 0.004215717 -0.1042127 -0.4472086 0.8883379 0.2372495 0.7898838
-0.03492391 0.2439525 -0.008782387 -0.877062 -0.4472122 0.1753955 0.2372495 0.7898838
-0.02691698 0.2439525 -0.02619839 -0.4378421 -0.4472151 -0.7799314 0.2372495 0.7898838
-0.004118919 0.2439525 -0.0051682 0.8126591 -0.4472097 0.3736158 0.2228673 0.7898838
-0.02083397 0.2439525 0.004215717 -0.1042127 -0.4472086 0.8883379 0.2228673 0.7898838
-0.03492391 0.2439525 -0.008782387 -0.877062 -0.4472122 0.1753955 0.2228673 0.7898838
-0.02691698 0.2439525 -0.02619839 -0.4378421 -0.4472151 -0.7799314 0.2228673 0.7898838
-0.01703393 0.2602591 -0.02817535 0.1042137 0.4472114 -0.8883364 0.2372495 0.7898838
-0.002944946 0.2602591 -0.01517725 0.8770617 0.4472139 -0.1753928 0.2372495 0.7898838
-0.010952 0.2602591 0.002239704 0.4378404 0.4472137 0.7799332 0.2372495 0.7898838
-0.02999091 0.2602591 5.722046e-06 -0.606461 0.4472139 0.6574228 0.2372495 0.7898838
-0.03374994 0.2602591 -0.0187912 -0.8126567 0.4472089 -0.3736218 0.2372495 0.7898838
-0.002944946 0.2602591 -0.01517725 0.8770617 0.4472139 -0.1753928 0.2228673 0.7898838
-0.010952 0.2602591 0.002239704 0.4378404 0.4472137 0.7799332 0.2228673 0.7898838
-0.02999091 0.2602591 5.722046e-06 -0.606461 0.4472139 0.6574228 0.2228673 0.7898838
-0.03374994 0.2602591 -0.0187912 -0.8126567 0.4472089 -0.3736218 0.2228673 0.7898838
-0.01703393 0.2602591 -0.02817535 0.1042137 0.4472114 -0.8883364 0.2228673 0.7898838
-0.03654993 0.2151922 0.04026175 0.6064612 -0.4472142 -0.6574225 0.2228673 0.7898838
-0.04760599 0.2051141 0.05224681 3.151574e-07 -1 2.650187e-06 0.2372495 0.7898838
-0.0327909 0.2151922 0.05905867 0.8126586 -0.4472106 0.3736157 0.2372495 0.7898838
-0.04950595 0.2151922 0.06844282 -0.1042141 -0.4472097 0.8883372 0.2372495 0.7898838
-0.06359601 0.2151922 0.05544472 -0.8770635 -0.447212 0.1753887 0.2372495 0.7898838
-0.05558896 0.2151922 0.03802776 -0.437838 -0.4472157 -0.7799333 0.2372495 0.7898838
-0.0327909 0.2151922 0.05905867 0.8126586 -0.4472106 0.3736157 0.2228673 0.7898838
-0.04950595 0.2151922 0.06844282 -0.1042141 -0.4472097 0.8883372 0.2228673 0.7898838
-0.06359601 0.2151922 0.05544472 -0.8770635 -0.447212 0.1753887 0.2228673 0.7898838
-0.05558896 0.2151922 0.03802776 -0.437838 -0.4472157 -0.7799333 0.2228673 0.7898838
-0.04570591 0.2314988 0.03605175 0.1042153 0.4472111 -0.8883364 0.2372495 0.7898838
-0.03161693 0.2314988 0.04904962 0.8770626 0.4472131 -0.1753901 0.2372495 0.7898838
-0.03962398 0.2314988 0.06646562 0.4378404 0.4472133 0.7799334 0.2372495 0.7898838
-0.05866289 0.2314988 0.06423259 -0.6064609 0.4472131 0.6574235 0.2372495 0.7898838
-0.06242192 0.2314988 0.04543567 -0.8126571 0.4472122 -0.3736171 0.2372495 0.7898838
-0.03161693 0.2314988 0.04904962 0.8770626 0.4472131 -0.1753901 0.2228673 0.7898838
-0.03962398 0.2314988 0.06646562 0.4378404 0.4472133 0.7799334 0.2228673 0.7898838
-0.05866289 0.2314988 0.06423259 -0.6064609 0.4472131 0.6574235 0.2228673 0.7898838
-0.06242192 0.2314988 0.04543567 -0.8126571 0.4472122 -0.3736171 0.2228673 0.7898838
-0.04570591 0.2314988 0.03605175 0.1042153 0.4472111 -0.8883364 0.2228673 0.7898838
0.09467101 0.2151922 -0.0305233 0.6064593 -0.4472158 -0.6574231 0.2228673 0.7898838
0.08361399 0.2051141 -0.01853728 -1.074403e-06 -1 -2.793449e-06 0.2372495 0.7898838
0.09843004 0.2151922 -0.01172638 0.8126552 -0.447213 0.3736202 0.2372495 0.7898838
0.08171403 0.2151922 -0.002342224 -0.1042159 -0.4472153 0.8883342 0.2372495 0.7898838
0.06762409 0.2151922 -0.01534033 -0.8770625 -0.4472128 0.1753916 0.2372495 0.7898838
0.0756321 0.2151922 -0.03275728 -0.4378415 -0.4472131 -0.7799329 0.2372495 0.7898838
0.09843004 0.2151922 -0.01172638 0.8126552 -0.447213 0.3736202 0.2228673 0.7898838
0.08171403 0.2151922 -0.002342224 -0.1042159 -0.4472153 0.8883342 0.2228673 0.7898838
0.06762409 0.2151922 -0.01534033 -0.8770625 -0.4472128 0.1753916 0.2228673 0.7898838
0.0756321 0.2151922 -0.03275728 -0.4378415 -0.4472131 -0.7799329 0.2228673 0.7898838
0.08551407 0.2314988 -0.0347333 0.1042105 0.4472085 -0.8883382 0.2372495 0.7898838
0.09960401 0.2314988 -0.02173519 0.8770627 0.4472104 -0.1753965 0.2372495 0.7898838
0.09159601 0.2314988 -0.004318237 0.4378379 0.447212 0.7799355 0.2372495 0.7898838
0.07255805 0.2314988 -0.006552219 -0.6064617 0.4472108 0.6574244 0.2372495 0.7898838
0.06879902 0.2314988 -0.02534938 -0.8126577 0.4472111 -0.373617 0.2372495 0.7898838
0.09960401 0.2314988 -0.02173519 0.8770627 0.4472104 -0.1753965 0.2228673 0.7898838
0.09159601 0.2314988 -0.004318237 0.4378379 0.447212 0.7799355 0.2228673 0.7898838
0.07255805 0.2314988 -0.006552219 -0.6064617 0.4472108 0.6574244 0.2228673 0.7898838
0.06879902 0.2314988 -0.02534938 -0.8126577 0.4472111 -0.373617 0.2228673 0.7898838
0.08551407 0.2314988 -0.0347333 0.1042105 0.4472085 -0.8883382 0.2228673 0.7898838
0.0665381 0.1516845 -0.1053982 0.6064609 -0.4472143 -0.6574227 0.2228673 0.7898838
0.05548203 0.1416064 -0.0934124 -1.017103e-06 -1 -2.807777e-06 0.2372495 0.7898838
0.07029808 0.1516845 -0.08660126 0.8126566 -0.4472112 0.3736193 0.2372495 0.7898838
0.05358207 0.1516845 -0.07721734 -0.1042159 -0.4472151 0.8883343 0.2372495 0.7898838
0.03949201 0.1516845 -0.09021521 -0.8770615 -0.4472143 0.1753927 0.2372495 0.7898838
0.04750001 0.1516845 -0.1076312 -0.4378402 -0.447214 -0.779933 0.2372495 0.7898838
0.07029808 0.1516845 -0.08660126 0.8126566 -0.4472112 0.3736193 0.2228673 0.7898838
0.05358207 0.1516845 -0.07721734 -0.1042159 -0.4472151 0.8883343 0.2228673 0.7898838
0.03949201 0.1516845 -0.09021521 -0.8770615 -0.4472143 0.1753927 0.2228673 0.7898838
0.04750001 0.1516845 -0.1076312 -0.4378402 -0.447214 -0.779933 0.2228673 0.7898838
0.05738211 0.1679912 -0.1096084 0.1042126 0.4472093 -0.8883376 0.2372495 0.7898838
0.07147205 0.1679912 -0.09661031 0.8770614 0.4472128 -0.175397 0.2372495 0.7898838
0.06346405 0.1679912 -0.07919335 0.4378392 0.4472131 0.7799342 0.2372495 0.7898838
0.04442501 0.1679912 -0.08142734 -0.6064602 0.4472112 0.6574255 0.2372495 0.7898838
0.0406661 0.1679912 -0.1002243 -0.8126587 0.4472104 -0.3736157 0.2372495 0.7898838
0.07147205 0.1679912 -0.09661031 0.8770614 0.4472128 -0.175397 0.2228673 0.7898838
0.06346405 0.1679912 -0.07919335 0.4378392 0.4472131 0.7799342 0.2228673 0.7898838
0.04442501 0.1679912 -0.08142734 -0.6064602 0.4472112 0.6574255 0.2228673 0.7898838
0.0406661 0.1679912 -0.1002243 -0.8126587 0.4472104 -0.3736157 0.2228673 0.7898838
0.05738211 0.1679912 -0.1096084 0.1042126 0.4472093 -0.8883376 0.2228673 0.7898838
-0.08557689 0.1392725 0.00193572 0.606462 -0.447215 -0.6574212 0.2228673 0.7898838
-0.09663391 0.1291944 0.01392078 1.160356e-06 -1 -2.66452e-06 0.2372495 0.7898838
-0.08181798 0.1392725 0.02073264 0.8126551 -0.447211 0.3736229 0.2372495 0.7898838
-0.09853399 0.1392725 0.0301168 -0.1042114 -0.447212 0.8883364 0.2372495 0.7898838
-0.1126239 0.1392725 0.01711869 -0.8770622 -0.4472131 0.1753921 0.2372495 0.7898838
-0.1046159 0.1392725 -0.0002982616 -0.4378388 -0.447214 -0.7799339 0.2372495 0.7898838
-0.08181798 0.1392725 0.02073264 0.8126551 -0.447211 0.3736229 0.2228673 0.7898838
-0.09853399 0.1392725 0.0301168 -0.1042114 -0.447212 0.8883364 0.2228673 0.7898838
-0.1126239 0.1392725 0.01711869 -0.8770622 -0.4472131 0.1753921 0.2228673 0.7898838
-0.1046159 0.1392725 -0.0002982616 -0.4378388 -0.447214 -0.7799339 0.2228673 0.7898838
-0.09473395 0.1555792 -0.002274275 0.1042127 0.4472095 -0.8883374 0.2372495 0.7898838
-0.08064389 0.1555792 0.01072264 0.8770625 0.4472117 -0.1753943 0.2372495 0.7898838
-0.0886519 0.1555792 0.02813959 0.4378431 0.447215 0.7799309 0.2372495 0.7898838
-0.10769 0.1555792 0.0259068 -0.6064556 0.4472135 0.657428 0.2372495 0.7898838
-0.11145 0.1555792 0.007109642 -0.8126574 0.4472123 -0.3736165 0.2372495 0.7898838
-0.08064389 0.1555792 0.01072264 0.8770625 0.4472117 -0.1753943 0.2228673 0.7898838
-0.0886519 0.1555792 0.02813959 0.4378431 0.447215 0.7799309 0.2228673 0.7898838
-0.10769 0.1555792 0.0259068 -0.6064556 0.4472135 0.657428 0.2228673 0.7898838
-0.11145 0.1555792 0.007109642 -0.8126574 0.4472123 -0.3736165 0.2228673 0.7898838
-0.09473395 0.1555792 -0.002274275 0.1042127 0.4472095 -0.8883374 0.2228673 0.7898838
0.03721905 0.1488116 0.08294177 0.6064606 -0.4472142 -0.6574231 0.2228673 0.7898838
0.02616203 0.1387336 0.0949266 -8.738456e-07 -1 -5.164284e-06 0.2372495 0.7898838
0.04097807 0.1488116 0.1017387 0.8126565 -0.4472134 0.373617 0.2372495 0.7898838
0.02426207 0.1488116 0.1111226 -0.1042151 -0.4472123 0.8883357 0.2372495 0.7898838
0.01017201 0.1488116 0.09812474 -0.8770631 -0.4472126 0.1753889 0.2372495 0.7898838
0.01818001 0.1488116 0.08070779 -0.4378414 -0.4472134 -0.7799328 0.2372495 0.7898838
0.04097807 0.1488116 0.1017387 0.8126565 -0.4472134 0.373617 0.2228673 0.7898838
0.02426207 0.1488116 0.1111226 -0.1042151 -0.4472123 0.8883357 0.2228673 0.7898838
0.01017201 0.1488116 0.09812474 -0.8770631 -0.4472126 0.1753889 0.2228673 0.7898838
0.01818001 0.1488116 0.08070779 -0.4378414 -0.4472134 -0.7799328 0.2228673 0.7898838
0.02806211 0.1651183 0.07873178 0.1042132 0.4472097 -0.8883373 0.2372495 0.7898838
0.04215205 0.1651183 0.09172964 0.8770636 0.4472118 -0.1753887 0.2372495 0.7898838
0.03414404 0.1651183 0.1091456 0.437838 0.4472156 0.7799334 0.2372495 0.7898838
0.01510608 0.1651183 0.1069126 -0.6064624 0.4472144 0.6574212 0.2372495 0.7898838
0.01134706 0.1651183 0.08811569 -0.8126574 0.4472119 -0.3736168 0.2372495 0.7898838
0.04215205 0.1651183 0.09172964 0.8770636 0.4472118 -0.1753887 0.2228673 0.7898838
0.03414404 0.1651183 0.1091456 0.437838 0.4472156 0.7799334 0.2228673 0.7898838
0.01510608 0.1651183 0.1069126 -0.6064624 0.4472144 0.6574212 0.2228673 0.7898838
0.01134706 0.1651183 0.08811569 -0.8126574 0.4472119 -0.3736168 0.2228673 0.7898838
0.02806211 0.1651183 0.07873178 0.1042132 0.4472097 -0.8883373 0.2228673 0.7898838
-0.03676093 0.1516845 -0.09633327 0.6064588 -0.4472125 -0.6574259 0.2228673 0.7898838
-0.04781699 0.1416064 -0.08434725 -8.881726e-07 -1 2.764795e-06 0.2372495 0.7898838
-0.0330019 0.1516845 -0.07753634 0.8126574 -0.4472121 0.3736166 0.2372495 0.7898838
-0.04971695 0.1516845 -0.06815219 -0.1042154 -0.4472098 0.888337 0.2372495 0.7898838
-0.06380689 0.1516845 -0.08115029 -0.8770637 -0.4472118 0.1753882 0.2372495 0.7898838
-0.05579996 0.1516845 -0.09856629 -0.4378391 -0.4472117 -0.7799351 0.2372495 0.7898838
-0.0330019 0.1516845 -0.07753634 0.8126574 -0.4472121 0.3736166 0.2228673 0.7898838
-0.04971695 0.1516845 -0.06815219 -0.1042154 -0.4472098 0.888337 0.2228673 0.7898838
-0.06380689 0.1516845 -0.08115029 -0.8770637 -0.4472118 0.1753882 0.2228673 0.7898838
-0.05579996 0.1516845 -0.09856629 -0.4378391 -0.4472117 -0.7799351 0.2228673 0.7898838
-0.04591691 0.1679912 -0.1005433 0.1042137 0.447215 -0.8883346 0.2372495 0.7898838
-0.03182697 0.1679912 -0.08754539 0.8770624 0.4472127 -0.1753921 0.2372495 0.7898838
-0.03983498 0.1679912 -0.0701282 0.4378388 0.4472137 0.779934 0.2372495 0.7898838
-0.05887389 0.1679912 -0.07236218 -0.6064634 0.4472128 0.6574214 0.2372495 0.7898838
-0.06263292 0.1679912 -0.09115934 -0.812655 0.4472134 -0.3736202 0.2372495 0.7898838
-0.03182697 0.1679912 -0.08754539 0.8770624 0.4472127 -0.1753921 0.2228673 0.7898838
-0.03983498 0.1679912 -0.0701282 0.4378388 0.4472137 0.779934 0.2228673 0.7898838
-0.05887389 0.1679912 -0.07236218 -0.6064634 0.4472128 0.6574214 0.2228673 0.7898838
-0.06263292 0.1679912 -0.09115934 -0.812655 0.4472134 -0.3736202 0.2228673 0.7898838
-0.04591691 0.1679912 -0.1005433 0.1042137 0.447215 -0.8883346 0.2228673 0.7898838
3 0 1 2 
3 135 136 3 
3 0 137 4 
3 0 138 5 
3 0 139 3 
3 135 140 6 
3 141 1 7 
3 142 137 8 
3 143 138 9 
3 144 139 10 
3 135 145 7 
3 141 146 8 
3 142 147 9 
3 143 148 10 
3 144 149 6 
3 150 145 11 
3 151 146 11 
3 152 147 11 
3 153 148 11 
3 154 149 11 
3 12 13 14 
3 15 16 17 
3 15 13 18 
3 155 19 20 
3 21 156 157 
3 158 22 18 
3 159 23 160 
3 24 25 161 
3 162 163 161 
3 158 26 164 
3 165 22 157 
3 166 25 14 
3 12 26 167 
3 158 23 14 
3 168 169 14 
3 24 163 14 
3 15 170 157 
3 171 172 17 
3 171 173 160 
3 171 19 14 
3 155 25 174 
3 21 25 17 
3 162 175 157 
3 15 23 167 
3 12 169 161 
3 162 26 176 
3 27 28 29 
3 27 177 30 
3 27 178 31 
3 27 179 32 
3 180 181 33 
3 182 28 34 
3 183 35 36 
3 184 179 37 
3 180 185 38 
3 186 39 187 
3 184 188 40 
3 41 42 43 
3 189 44 43 
3 190 44 45 
3 191 46 43 
3 191 47 192 
3 193 48 43 
3 193 49 194 
3 195 196 43 
3 195 50 197 
3 198 42 197 
3 198 188 199 
3 200 44 199 
3 201 202 203 
3 204 47 45 
3 204 39 205 
3 206 46 205 
3 207 49 192 
3 207 48 208 
3 209 50 194 
3 209 185 210 
3 211 196 210 
3 200 212 203 
3 200 179 36 
3 201 35 45 
3 206 213 192 
3 206 178 34 
3 186 177 34 
3 207 214 194 
3 207 28 38 
3 211 215 197 
3 211 181 40 
3 183 178 187 
3 180 216 32 
3 51 52 53 
3 217 218 54 
3 51 219 55 
3 51 220 56 
3 51 221 54 
3 217 222 57 
3 223 52 58 
3 224 219 59 
3 225 220 60 
3 226 221 61 
3 217 227 58 
3 223 228 59 
3 224 229 60 
3 225 230 61 
3 226 231 57 
3 232 227 62 
3 233 228 62 
3 234 229 62 
3 235 230 62 
3 236 231 62 
3 63 64 65 
3 237 238 66 
3 63 239 67 
3 63 240 68 
3 63 241 66 
3 237 242 69 
3 243 64 70 
3 244 239 71 
3 245 240 72 
3 246 241 73 
3 237 247 70 
3 243 248 71 
3 244 249 72 
3 245 250 73 
3 246 251 69 
3 252 247 74 
3 253 248 74 
3 254 249 74 
3 255 250 74 
3 256 251 74 
3 75 76 77 
3 257 258 78 
3 75 259 79 
3 75 260 80 
3 75 261 78 
3 257 262 81 
3 263 76 82 
3 264 259 83 
3 265 260 84 
3 266 261 85 
3 257 267 82 
3 263 268 83 
3 264 269 84 
3 265 270 85 
3 266 271 81 
3 272 267 86 
3 273 268 86 
3 274 269 86 
3 275 270 86 
3 276 271 86 
3 87 88 89 
3 277 278 90 
3 87 279 91 
3 87 280 92 
3 87 281 90 
3 277 282 93 
3 283 88 94 
3 284 279 95 
3 285 280 96 
3 286 281 97 
3 277 287 94 
3 283 288 95 
3 284 289 96 
3 285 290 97 
3 286 291 93 
3 292 287 98 
3 293 288 98 
3 294 289 98 
3 295 290 98 
3 296 291 98 
3 99 100 101 
3 297 298 102 
3 99 299 103 
3 99 300 104 
3 99 301 102 
3 297 302 105 
3 303 100 106 
3 304 299 107 
3 305 300 108 
3 306 301 109 
3 297 307 106 
3 303 308 107 
3 304 309 108 
3 305 310 109 
3 306 311 105 
3 312 307 110 
3 313 308 110 
3 314 309 110 
3 315 310 110 
3 316 311 110 
3 111 112 113 
3 317 318 114 
3 111 319 115 
3 111 320 116 
3 111 321 114 
3 317 322 117 
3 323 112 118 
3 324 319 119 
3 325 320 120 
3 326 321 121 
3 317 327 118 
3 323 328 119 
3 324 329 120 
3 325 330 121 
3 326 331 117 
3 332 327 122 
3 333 328 122 
3 334 329 122 
3 335 330 122 
3 336 331 122 
3 123 124 125 
3 337 338 126 
3 123 339 127 
3 123 340 128 
3 123 341 126 
3 337 342 129 
3 343 124 130 
3 344 339 131 
3 345 340 132 
3 346 341 133 
3 337 347 130 
3 343 348 131 
3 344 349 132 
3 345 350 133 
3 346 351 129 
3 352 347 134 
3 353 348 134 
3 354 349 134 
3 355 350 134 
3 356 351 134 
