ply
format ascii 1.0
comment VCGLIB generated
comment TextureFile dummy.png
element vertex 40
property float x
property float y
property float z
property float nx
property float ny
property float nz
property float texture_u
property float texture_v
element face 28
property list uchar int vertex_indices
end_header
0.2773967 -0.06137653 0.3848453 0.3657477 -0.6630578 0.6531332 0.1911575 0.9130898
-0.1478512 0.07133068 0.4773891 -0.2685944 -0.2095268 0.9401891 0.210257 0.9130898
-0.3178383 -0.06282379 0.2998922 -0.615722 -0.6574688 0.4343054 0.210257 0.9321892
-0.5266048 0.08413719 -0.1913699 -0.9275968 -0.321638 -0.1900346 0.1911575 0.9130898
-0.2139863 0.8529087 0.2886631 -0.5485311 0.5070176 0.6648661 0.210257 0.9130898
-0.1812453 1.031579 -0.06072593 -0.6211517 0.7793779 -0.08210209 0.210257 0.9321892
-0.2569723 0.01518153 -0.4573598 -0.4297762 -0.5364577 -0.7262959 0.210257 0.9130898
0.08910573 -0.06159856 -0.4773889 0.175639 -0.656707 -0.7334078 0.210257 0.9321892
0.5266048 0.008342549 -0.1863458 0.802424 -0.5058511 -0.3165918 0.210257 0.9321892
0.4473917 0.1630257 0.3123863 0.7680449 -0.08458742 0.634785 0.1911575 0.9130898
0.4784967 0.7614546 -0.07154775 0.894222 0.4320468 -0.1170585 0.210257 0.9130898
0.2641417 0.8528031 0.2809153 0.4625712 0.5263188 0.7134539 0.210257 0.9321892
-0.1766822 0.5663087 -0.4698168 -0.3909444 0.2898225 -0.8735934 0.210257 0.9130898
0.1015747 1.062824 0.04559708 0.2304196 0.9441922 0.2353889 0.210257 0.9130898
0.03790569 1.046403 -0.2422619 0.04511685 0.8343776 -0.5493437 0.210257 0.9321892
0.2375517 0.7578372 -0.3653859 0.4622531 0.356197 -0.8120627 0.210257 0.9130898
-0.3178383 -0.06282379 0.2998922 -0.615722 -0.6574688 0.4343054 0.1911575 0.9130898
0.08910573 -0.06159856 -0.4773889 0.175639 -0.656707 -0.7334078 0.210257 0.9130898
-0.2569723 0.01518153 -0.4573598 -0.4297762 -0.5364577 -0.7262959 0.210257 0.9321892
-0.1478512 0.07133068 0.4773891 -0.2685944 -0.2095268 0.9401891 0.1911575 0.9130898
0.2641417 0.8528031 0.2809153 0.4625712 0.5263188 0.7134539 0.210257 0.9130898
-0.2139863 0.8529087 0.2886631 -0.5485311 0.5070176 0.6648661 0.210257 0.9321892
-0.1812453 1.031579 -0.06072593 -0.6211517 0.7793779 -0.08210209 0.1911575 0.9130898
0.1015747 1.062824 0.04559708 0.2304196 0.9441922 0.2353889 0.210257 0.9321892
0.4784967 0.7614546 -0.07154775 0.894222 0.4320468 -0.1170585 0.1911575 0.9130898
-0.5266048 0.08413719 -0.1913699 -0.9275968 -0.321638 -0.1900346 0.210257 0.9321892
-0.1766822 0.5663087 -0.4698168 -0.3909444 0.2898225 -0.8735934 0.1911575 0.9130898
0.03790569 1.046403 -0.2422619 0.04511685 0.8343776 -0.5493437 0.1911575 0.9130898
-0.1766822 0.5663087 -0.4698168 -0.3909444 0.2898225 -0.8735934 0.210257 0.9321892
0.2773967 -0.06137653 0.3848453 0.3657477 -0.6630578 0.6531332 0.210257 0.9321892
-0.2139863 0.8529087 0.2886631 -0.5485311 0.5070176 0.6648661 0.1911575 0.9130898
-0.5266048 0.08413719 -0.1913699 -0.9275968 -0.321638 -0.1900346 0.210257 0.9130898
-0.3178383 -0.06282379 0.2998922 -0.615722 -0.6574688 0.4343054 0.210257 0.9130898
0.5266048 0.008342549 -0.1863458 0.802424 -0.5058511 -0.3165918 0.1911575 0.9130898
0.4473917 0.1630257 0.3123863 0.7680449 -0.08458742 0.634785 0.210257 0.9321892
0.08910573 -0.06159856 -0.4773889 0.175639 -0.656707 -0.7334078 0.1911575 0.9130898
0.5266048 0.008342549 -0.1863458 0.802424 -0.5058511 -0.3165918 0.210257 0.9130898
0.2375517 0.7578372 -0.3653859 0.4622531 0.356197 -0.8120627 0.210257 0.9321892
-0.1478512 0.07133068 0.4773891 -0.2685944 -0.2095268 0.9401891 0.210257 0.9321892
0.03790569 1.046403 -0.2422619 0.04511685 0.8343776 -0.5493437 0.210257 0.9130898
3 0 1 2 
3 3 4 5 
3 16 6 7 
3 0 17 8 
3 9 10 11 
3 3 12 18 
3 19 20 21 
3 22 13 14 
3 22 4 23 
3 24 15 14 
3 19 4 2 
3 22 12 25 
3 26 15 7 
3 27 15 28 
3 9 20 29 
3 30 20 23 
3 16 4 25 
3 16 31 18 
3 0 32 7 
3 33 10 34 
3 35 6 28 
3 35 15 8 
3 24 36 37 
3 0 20 38 
3 24 13 11 
3 27 12 5 
3 0 36 34 
3 24 39 23 
