ply
format ascii 1.0
comment VCGLIB generated
comment TextureFile dummy.png
element vertex 52
property float x
property float y
property float z
property float nx
property float ny
property float nz
property float texture_u
property float texture_v
element face 76
property list uchar int vertex_indices
end_header
-62.9254 -4.655243 67.23402 -0.3344078 -0.8484425 0.4102643 0.1386721 0.9172943
-56.9856 -7.29071 -72.47203 -0.2657936 -0.9235723 -0.2763476 0.1456051 0.9136538
14.16753 -0.7807465 -103.5564 0.02848444 -0.7177035 -0.6957661 0.1426624 0.9125508
48.02956 -1.081284 -101.2108 0.1383747 -0.7197924 -0.6802582 0.1399651 0.9121215
136.0583 -6.484344 -23.29741 0.6803318 -0.7147301 -0.1622025 0.1318107 0.9129609
101.6981 -5.794037 64.64665 0.4095064 -0.7437656 0.5283156 0.1328384 0.9160777
97.07755 41.90189 -101.7173 0.5164173 -0.155787 -0.8420473 0.1358976 0.9149024
-0.07079315 32.53325 109.6434 0.01187348 -0.3296795 0.9440183 0.1384436 0.9202971
-37.33202 15.73627 -108.2466 -0.2692762 -0.3131282 -0.9107366 0.1466465 0.91437
146.5345 34.95477 -11.81968 0.9978991 -0.04357636 -0.04794213 0.1303667 0.9164813
129.9803 62.1638 70.68082 0.7680076 0.150436 0.6225218 0.1305734 0.9203937
128.4041 97.36781 -67.37517 0.8972216 0.3785838 -0.2273054 0.1324523 0.9201263
122.6074 99.29843 1.165219 0.7850569 0.6106908 0.1036456 0.1319366 0.9217128
-118.8043 29.01946 -69.58318 -0.6833055 -0.4621458 -0.5652566 0.1506893 0.9174638
44.58316 86.03383 104.687 0.2600148 0.3231934 0.9099112 0.1357602 0.923193
-102.6638 81.01334 92.51175 -0.4866201 0.06405733 0.871262 0.1443165 0.9239092
-55.16385 116.1394 89.8521 -0.2059066 0.4093578 0.8888356 0.1419336 0.9254994
-48.73882 136.4649 77.71349 -0.04376321 0.7011613 0.7116584 0.1418512 0.9265404
-67.5961 163.4947 47.77996 -0.1509693 0.7648048 0.6263241 0.1434283 0.9280822
-118.1335 163.2207 19.00619 -0.5037461 0.8011865 0.3230173 0.1465845 0.9287076
-139.7596 146.4073 18.50652 -0.8253782 0.5461913 0.1429188 0.1476894 0.92817
-146.5345 81.81083 54.21212 -0.8913342 -0.0600148 0.4493569 0.1474306 0.9243891
-77.2358 187.2907 -21.09642 -0.2441691 0.9695522 0.0187095 0.1453438 0.9291846
-73.13075 186.5216 -42.04259 -0.2851104 0.8125695 -0.5083728 0.1455691 0.92901
-88.84992 107.2541 -71.26389 -0.4094477 0.339739 -0.8467172 0.1496967 0.9241828
-145.9102 101.6257 -41.30708 -0.8289331 0.3059179 -0.4682777 0.1504156 0.9246928
58.83382 144.7968 -79.07628 0.1182115 0.4482045 -0.8860806 0.138367 0.9243919
-41.25479 105.8765 -88.87054 -0.2298988 0.4509669 -0.8624242 0.1465209 0.9226626
21.53699 169.4203 -57.33805 0.2595633 0.8958773 -0.3605978 0.1406675 0.9269308
58.83797 144.8013 -79.07265 0.4029243 0.7410224 -0.5371571 0.1383666 0.9243923
-142.777 47.26958 -10.91926 -0.8854095 -0.4635144 -0.03470624 0.1506557 0.9198998
-15.57672 48.51117 -109.6434 -0.1106987 0.1338986 -0.9847929 0.1450512 0.9167057
72.60228 61.97999 -105.042 0.1631498 0.1734081 -0.9712424 0.1379807 0.9167635
127.7284 97.86533 -68.75526 0.7515664 0.4397691 -0.4916819 0.132531 0.9201406
-141.4131 48.04437 10.67996 -0.8719501 -0.4716136 0.1314675 0.1498843 0.9203587
-66.26839 48.86942 102.3985 -0.3029262 -0.1958621 0.9326703 0.1423281 0.9215739
18.35863 169.3131 20.32859 0.3196345 0.8895656 0.3263539 0.1389729 0.927807
82.41893 125.4697 36.73832 0.5242202 0.7753529 0.3521663 0.1342703 0.9245833
-26.43543 119.1362 91.83095 0.07463323 0.5443274 0.8355463 0.140287 0.9254693
-44.2952 181.0923 19.98843 0.06346193 0.9366609 0.34444 0.1425599 0.928846
101.6981 -5.794037 64.64665 0.4095064 -0.7437656 0.5283156 0.1327355 0.9161338
-56.9856 -7.29071 -72.47203 -0.2657936 -0.9235723 -0.2763476 0.1465319 0.9139403
136.0583 -6.484344 -23.29741 0.6803318 -0.7147301 -0.1622025 0.1310848 0.9133864
-56.9856 -7.29071 -72.47203 -0.2657936 -0.9235723 -0.2763476 0.1469172 0.9140887
-118.1335 163.2207 19.00619 -0.5037461 0.8011865 0.3230173 0.1465845 0.9287075
-118.8043 29.01946 -69.58318 -0.6833055 -0.4621458 -0.5652566 0.1507108 0.917248
-15.57672 48.51117 -109.6434 -0.1106987 0.1338986 -0.9847929 0.1450512 0.9167057
-62.9254 -4.655243 67.23402 -0.3344078 -0.8484425 0.4102643 0.1433841 0.9180598
-62.9254 -4.655243 67.23402 -0.3344078 -0.8484425 0.4102643 0.1404474 0.9175624
129.9803 62.1638 70.68082 0.7680076 0.150436 0.6225218 0.1306527 0.9205761
82.41893 125.4697 36.73832 0.5242202 0.7753529 0.3521663 0.1342703 0.9245832
58.83382 144.7968 -79.07628 0.1182115 0.4482045 -0.8860806 0.1383671 0.9243919
3 0 1 2 
3 0 2 3 
3 0 3 4 
3 0 4 5 
3 3 6 4 
3 40 7 0 
3 2 41 8 
3 42 9 10 
3 42 10 40 
3 10 9 11 
3 10 11 12 
3 8 43 13 
3 40 10 14 
3 40 14 7 
3 15 16 17 
3 15 17 18 
3 15 18 19 
3 15 19 20 
3 15 20 21 
3 20 44 22 
3 20 22 23 
3 20 23 24 
3 20 24 25 
3 26 27 24 
3 26 24 23 
3 26 23 28 
3 26 28 29 
3 45 30 25 
3 45 25 24 
3 8 31 32 
3 8 32 6 
3 8 6 3 
3 8 3 2 
3 13 24 27 
3 13 27 46 
3 13 46 8 
3 6 33 11 
3 6 11 9 
3 6 9 42 
3 30 45 43 
3 30 43 47 
3 30 47 34 
3 20 25 30 
3 20 30 34 
3 20 34 21 
3 48 7 35 
3 28 36 37 
3 28 37 12 
3 28 12 11 
3 28 11 33 
3 28 33 29 
3 21 34 47 
3 21 47 35 
3 21 35 15 
3 38 17 16 
3 7 14 38 
3 7 38 16 
3 7 16 15 
3 7 15 35 
3 12 37 49 
3 36 28 23 
3 36 23 22 
3 36 22 39 
3 39 22 44 
3 39 44 18 
3 14 49 50 
3 14 50 36 
3 14 36 39 
3 14 39 18 
3 14 18 17 
3 14 17 38 
3 32 31 27 
3 32 27 26 
3 32 51 29 
3 32 29 33 
3 32 33 6 
