ply
format ascii 1.0
comment VCGLIB generated
comment TextureFile ..\textures\Streetlight_holder_d.png
element vertex 59
property float x
property float y
property float z
property float nx
property float ny
property float nz
property float texture_u
property float texture_v
element face 58
property list uchar int vertex_indices
end_header
-15.33922 121.2815 15.33924 -0.7071068 -7.149592e-08 0.7071068 0.8401955 0.5257066
-15.33922 121.2815 -15.33921 -0.7071068 9.532788e-08 -0.7071068 0.7515126 0.5257066
-15.33923 -48.49457 -15.33923 -0.7071068 9.532789e-08 -0.7071068 0.7515124 0.03493083
-15.33923 -48.49457 15.33922 -0.7071068 -7.943989e-08 0.7071067 0.8401955 0.0349308
15.33922 121.2815 -15.33921 0.7071068 9.532789e-08 -0.7071068 0.6628296 0.5257066
15.33923 -48.49457 -15.33923 0.7071068 9.532788e-08 -0.7071068 0.6628293 0.03493086
15.33922 121.2815 15.33924 0.7071068 -7.149592e-08 0.7071068 0.5741465 0.5257068
15.33923 -48.49457 15.33922 0.7071068 -7.943991e-08 0.7071068 0.5741462 0.03493095
15.33923 381.7466 15.33927 0.5773503 0.5773502 0.5773503 0.9316877 0.8938421
-15.33923 381.7466 15.33927 -0.5773503 0.5773503 0.5773503 0.843177 0.8883172
-15.33922 322.8468 15.33926 -0.7071068 -1.197625e-07 0.7071068 0.8507911 0.7276663
15.33922 322.8468 15.33926 0.7071068 -1.208033e-07 0.7071068 0.9422951 0.7239096
15.33923 381.7466 -15.33918 0.5806996 0.5933298 -0.5574475 0.6659832 0.8827922
-15.33923 381.7466 -15.33918 -0.5806996 0.5933298 -0.5574476 0.7546662 0.8827922
-15.33922 291.0575 15.33926 -0.7071068 -8.480865e-08 0.7071068 0.8595093 0.6266689
15.33922 291.0575 15.33926 0.7071068 -8.480866e-08 0.7071068 0.94802 0.6321939
15.33922 329.0182 -18.63061 0.8260903 0.2889006 -0.4838504 0.6659831 0.7300723
15.33922 291.0575 -15.33919 0.9464674 -0.268629 -0.1789917 0.6496503 0.6211439
-15.33922 329.0182 -18.63061 -0.8260903 0.2889007 -0.4838504 0.754666 0.7300723
15.33922 280.6688 -40.23798 0.6593099 -0.7415622 0.1240804 0.1360832 0.8502911
15.33922 311.9071 -46.13138 0.7788368 0.605933 -0.1620447 0.1410954 0.9361553
-15.33922 291.0575 -15.33919 -0.9464674 -0.268629 -0.1789918 0.7709985 0.6211441
-15.33922 311.9071 -46.13138 -0.7788368 0.605933 -0.1620447 0.1387855 0.6787003
15.33922 312.937 -76.44807 0.7882537 0.5746707 0.2200221 0.2407712 0.590234
-15.33922 312.937 -76.44807 -0.7882537 0.5746707 0.2200221 0.243392 0.6846538
-15.33922 280.6688 -40.23798 -0.6593099 -0.7415622 0.1240804 0.1368544 0.7688426
15.33922 283.7877 -89.13192 0.6348229 -0.7025973 -0.3214919 0.2495192 0.850224
-15.33922 283.7877 -89.13192 -0.6348229 -0.7025973 -0.3214918 0.253446 0.7724621
-15.33922 318.2849 -123.0021 -0.5744931 0.03017133 -0.8179532 0.371274 0.7661228
15.33922 318.2849 -123.0021 0.5744931 0.03017131 -0.8179532 0.3712741 0.8655449
-15.33922 335.5112 -103.3942 -0.5858036 0.8103972 -0.009518893 0.4558585 0.7661228
15.33922 335.5112 -103.3942 0.5858035 0.8103973 -0.009518862 0.4558585 0.8655449
15.33922 121.2815 15.33924 0.7071068 -7.149592e-08 0.7071068 0.9288787 0.5257066
15.33923 -48.49457 15.33922 0.7071068 -7.943991e-08 0.7071068 0.9288787 0.0349308
15.33923 381.7466 15.33927 0.5773503 0.5773502 0.5773503 0.6659832 0.9714752
-15.33923 381.7466 15.33927 -0.5773503 0.5773503 0.5773503 0.7546662 0.9714752
15.33923 381.7466 15.33927 0.5773503 0.5773502 0.5773503 0.5774724 0.8883173
15.33922 322.8468 15.33926 0.7071068 -1.208033e-07 0.7071068 0.5668648 0.7183849
15.33922 291.0575 15.33926 0.7071068 -8.480866e-08 0.7071068 0.5611395 0.6266692
15.33922 329.0182 -18.63061 0.8260903 0.2889006 -0.4838504 0.05460367 0.9758022
15.33922 291.0575 -15.33919 0.9464674 -0.268629 -0.1789917 0.05911217 0.8639634
15.33922 311.9071 -46.13138 0.7788368 0.605933 -0.1620447 0.1480131 0.5877682
-15.33922 291.0575 -15.33919 -0.9464674 -0.268629 -0.1789918 0.05589063 0.7712533
-15.33922 329.0182 -18.63061 -0.8260903 0.2889007 -0.4838504 0.03874654 0.6599004
15.33922 329.0182 -18.63061 0.8260903 0.2889006 -0.4838504 0.05547336 0.5731375
15.33922 312.937 -76.44807 0.7882537 0.5746707 0.2200221 0.2345365 0.9353186
15.33922 335.5112 -103.3942 0.5858035 0.8103973 -0.009518862 0.3489828 0.9480898
15.33922 335.5112 -103.3942 0.5858035 0.8103973 -0.009518862 0.3541088 0.588698
-15.33922 335.5112 -103.3942 -0.5858036 0.8103972 -0.009518893 0.3554492 0.6876108
15.33922 291.0575 15.33926 0.7071068 -8.480866e-08 0.7071068 0.3989094 0.5227249
-15.33922 291.0575 15.33926 -0.7071068 -8.480865e-08 0.7071068 0.3102265 0.5227249
-15.33922 121.2815 15.33924 -0.7071068 -7.149592e-08 0.7071068 0.3102264 0.0319489
15.33922 121.2815 15.33924 0.7071068 -7.149592e-08 0.7071068 0.3989094 0.0319489
15.33922 291.0575 -15.33919 0.9464674 -0.268629 -0.1789917 0.1328605 0.522725
15.33922 291.0575 15.33926 0.7071068 -8.480866e-08 0.7071068 0.04417755 0.5227251
15.33922 121.2815 15.33924 0.7071068 -7.149592e-08 0.7071068 0.04417701 0.03194914
15.33922 121.2815 -15.33921 0.7071068 9.532789e-08 -0.7071068 0.1328601 0.03194905
-15.33922 291.0575 -15.33919 -0.9464674 -0.268629 -0.1789918 0.2215435 0.5227249
-15.33922 121.2815 -15.33921 -0.7071068 9.532788e-08 -0.7071068 0.2215433 0.03194896
3 0 1 2 
3 0 2 3 
3 1 4 5 
3 1 5 2 
3 4 6 7 
3 4 7 5 
3 32 0 3 
3 32 3 33 
3 8 9 10 
3 8 10 11 
3 34 12 13 
3 34 13 35 
3 11 10 14 
3 11 14 15 
3 12 36 37 
3 12 37 16 
3 16 37 38 
3 16 38 17 
3 13 12 16 
3 13 16 18 
3 39 40 19 
3 39 19 20 
3 9 13 18 
3 9 18 10 
3 10 18 21 
3 10 21 14 
3 22 41 23 
3 22 23 24 
3 42 43 22 
3 42 22 25 
3 43 44 41 
3 43 41 22 
3 40 42 25 
3 40 25 19 
3 26 27 28 
3 26 28 29 
3 25 22 24 
3 25 24 27 
3 19 25 27 
3 19 27 26 
3 20 19 26 
3 20 26 45 
3 30 31 29 
3 30 29 28 
3 45 26 29 
3 45 29 46 
3 24 23 47 
3 24 47 48 
3 27 24 48 
3 27 48 28 
3 49 50 51 
3 49 51 52 
3 53 54 55 
3 53 55 56 
3 57 53 56 
3 57 56 58 
3 50 57 58 
3 50 58 51 
