ply
format ascii 1.0
comment VCGLIB generated
comment TextureFile dummy.png
element vertex 230
property float x
property float y
property float z
property float nx
property float ny
property float nz
property float texture_u
property float texture_v
element face 254
property list uchar int vertex_indices
end_header
0.9019433 0.7369092 0.0001928119 0.7486625 -0.6625052 0.02431634 0.1474055 0.8268301
-0.05234706 2.527061 0.003535594 0.07649717 0.9967437 0.02549667 0.1459221 0.8342471
0.6566216 0.7409797 0.6696784 0.6916308 -0.5987108 0.4039707 0.1459221 0.8268301
0.1777709 0.6487998 1.064121 0.2465625 -0.5256235 0.8142033 0.1444387 0.8268301
-0.5481315 0.8643982 1.073601 -0.3460613 -0.2908933 0.8919768 0.1429553 0.8268301
-1.036312 0.7703611 0.6475528 -0.7651746 -0.4585787 0.4518998 0.1414719 0.8268301
-1.226766 0.915517 0.002276383 -0.878518 -0.4677565 0.09700552 0.1399885 0.8268301
-1.223513 0.7868632 -0.7301105 -0.7898372 -0.4384947 -0.4288117 0.1385051 0.8268301
-0.5567504 0.8014417 -1.104206 -0.1992507 -0.4211502 -0.8848343 0.1370217 0.8268301
0.1749573 0.9838765 -1.057413 0.3393802 -0.03594186 -0.9399624 0.1355383 0.8268301
0.7113645 0.6778095 -0.6719574 0.6594606 -0.575262 -0.483927 0.1340549 0.8268301
-0.9386725 0.7617018 0.5782563 0.1217151 -0.9800994 -0.1568144 0.1455701 0.8205435
-1.140139 0.9478193 -0.02431753 0.3453811 -0.9377888 -0.03555394 0.143697 0.8199348
-0.4559883 1.213797 -0.01128555 0.2133275 -0.9758717 -0.04653892 0.143697 0.8199348
-0.4053407 1.207628 0.152868 0.2208095 -0.9604867 -0.1694358 0.1455701 0.8205435
0.5354961 0.8233652 0.6017167 -0.3292095 -0.8532558 -0.4044449 0.1455701 0.8256997
0.7377539 0.8663308 0.002544805 -0.5193653 -0.854072 0.02864986 0.143697 0.8263083
0.142402 0.6531079 0.9494877 -0.1430583 -0.9607455 -0.2377027 0.1467278 0.8241063
-0.5096464 0.861709 0.959926 -0.01088214 -0.9851695 -0.1712386 0.1467278 0.8221368
-1.106133 0.8125514 -0.6485353 0.1652968 -0.9583818 0.2327687 0.1418239 0.8205435
-0.5213817 0.7971337 -0.9895726 0.1240512 -0.9818455 0.1434947 0.1406662 0.8221368
0.1274123 0.9047041 -0.9561099 0.0130189 -0.9769623 -0.2130148 0.1406662 0.8241063
0.6137256 0.6864689 -0.6026607 -0.2397663 -0.9674859 0.08051886 0.1418239 0.8256997
0.09776574 1.161332 -0.004099058 -0.3222933 -0.9461816 0.02945242 0.143697 0.8263083
0.04265567 1.165183 0.158682 -0.2638521 -0.9525555 -0.1517239 0.1455701 0.8256997
-0.09716181 1.177583 0.2579137 -0.1382519 -0.9380998 -0.3175771 0.1467278 0.8241063
-0.2682812 1.193795 0.255693 -0.02905142 -0.9575363 -0.2868455 0.1467278 0.8221368
-0.4008782 1.209946 -0.1740666 0.1379619 -0.97412 0.1790444 0.1418239 0.8205435
-0.2610607 1.197546 -0.2732983 0.0004661886 -0.9590652 0.2831851 0.1406662 0.8221368
-0.08994129 1.181334 -0.2710776 -0.1296299 -0.9653181 0.2266209 0.1406662 0.8241063
0.04711816 1.167501 -0.1682526 -0.3366026 -0.9340557 0.119326 0.1418239 0.8256997
-0.005586709 1.798404 -4.835923e-09 0.9736882 0.06765103 0.2176114 0.103918 0.9508545
-0.002531691 3.426703 -6.998244e-09 0.09200434 0.9957545 0.002872867 0.1059339 0.9481055
-0.08704987 1.798404 0.1410984 0.4748252 0.08020298 0.876418 0.1059339 0.9508545
-0.2499762 1.798404 0.1410984 -0.5204778 0.08171289 0.8499564 0.1079499 0.9508545
-0.3314395 1.798404 -3.285456e-08 -0.989185 0.06870126 -0.1295888 0.1099658 0.9508545
-0.1832272 1.886012 -0.1410984 -0.4050426 0.08509668 -0.9103291 0.1119818 0.9508545
-0.02030087 1.886012 -0.1410984 0.6595386 0.06838658 -0.7485535 0.1139977 0.9508545
0.2781951 -0.01025073 1.123657e-08 0.8344808 -0.5510371 1.164494e-07 0.1069419 0.9542744
0.1390975 -0.01025067 0.2409241 0.4287749 -0.5676786 0.7027754 0.1044279 0.9557258
-0.1390976 -0.01025075 0.2409241 -0.3812941 -0.602711 0.7009668 0.1044279 0.9586288
-0.2781951 -0.01025068 -3.666143e-08 -0.7886845 -0.6147465 -0.007971015 0.1069419 0.9600803
-0.1390975 -0.01025074 -0.2409241 -0.390996 -0.5969431 -0.7005576 0.109456 0.9586288
0.1390976 -0.01025076 -0.2409241 0.4289466 -0.5688282 -0.7017403 0.109456 0.9557258
0.2779203 2.775794 -0.008865425 -0.3165673 -0.9033026 0.2895336 0.143697 0.8263083
0.2195704 2.870712 0.2097156 -0.4788723 -0.8778785 -0.003267054 0.1455701 0.8256997
0.03829601 3.054372 0.05693727 -0.3871095 -0.9160665 -0.1047307 0.1455701 0.8256997
0.05602576 3.046279 -0.0005726838 -0.5543433 -0.8302258 0.05855428 0.143697 0.8263083
0.3208072 2.777508 -0.007417304 0.84167 -0.5308232 0.09908667 0.143697 0.8266818
0.2530611 2.859594 0.2342894 0.5999348 -0.5605662 0.5708272 0.1457896 0.8260018
0.1989004 2.741705 -0.225086 -0.5307561 -0.844847 0.0673174 0.1418239 0.8256997
0.03691971 3.044897 -0.05826686 -0.5644709 -0.7855433 0.2535635 0.1418239 0.8256997
0.2317852 2.731303 -0.2510685 0.4537848 -0.6896607 -0.5643116 0.1416044 0.8260018
-0.009958544 3.059511 0.09212644 -0.1484225 -0.9629557 -0.2251382 0.1467278 0.8241063
-0.06929383 3.059656 0.09212645 0.06734787 -0.933983 -0.3509132 0.1467278 0.8221368
-0.1163341 3.069395 0.05693727 0.1236551 -0.9504704 -0.2851588 0.1455701 0.8205435
-0.1350885 3.076504 -6.330141e-08 0.2187469 -0.9756361 -0.01684842 0.143697 0.8199348
-0.1169569 3.073 -0.05703702 0.176763 -0.9541565 0.2415372 0.1418239 0.8205435
-0.06894086 3.066997 -0.09212513 -0.008297385 -0.9432988 0.3318414 0.1406662 0.8221368
-0.01016162 3.056472 -0.09249153 -0.2652978 -0.9097852 0.3192304 0.1406662 0.8241063
0.04325337 2.89871 -0.3262308 -0.3896421 -0.9170352 0.08500306 0.1406662 0.8241063
-0.1774518 2.901093 -0.3435324 0.1369155 -0.9685032 0.2079803 0.1406662 0.8221368
-0.1902447 2.899565 -0.3833576 -0.1867671 -0.4206221 -0.8878036 0.1403111 0.8220214
0.05753572 2.904462 -0.3645438 0.2347897 -0.2726914 -0.933013 0.1403111 0.8242217
0.04518083 3.661302 -3.209428e-10 0.1412639 0.9899688 -0.002518902 0.1355383 0.8342471
0.0537913 2.92556 0.3790881 0.2611517 -0.30127 0.9170803 0.1444387 0.8268301
-0.1830965 2.836948 0.3790881 -0.284834 -0.6367803 0.7165058 0.1429553 0.8268301
-0.3509449 2.944578 0.2342893 -0.8073012 -0.2198664 0.5476528 0.1414719 0.8268301
-0.45425 2.926496 -0.009200846 -0.9373193 -0.3228777 0.1310819 0.1399885 0.8268301
-0.4031711 2.857257 -0.2736059 -0.7170088 -0.4524918 -0.5302354 0.1385051 0.8268301
-0.3690802 2.854545 -0.2476922 0.1192649 -0.9853885 0.1215951 0.1418239 0.8205435
-0.4110866 2.922635 -0.01030801 0.161139 -0.9737359 0.1608495 0.143697 0.8199348
-0.3178145 2.933725 0.2097156 -0.0649825 -0.9738684 -0.2176182 0.1455701 0.8205435
-0.1678796 2.845574 0.3393269 0.09706792 -0.933433 -0.3453704 0.1467278 0.8221368
0.04063515 2.921181 0.3393269 0.002813157 -0.9843088 -0.1764324 0.1467278 0.8241063
0.4128165 2.220296 -0.004585965 -0.3282046 -0.9426625 0.06057334 0.143697 0.8263083
0.4016573 2.095033 0.3494338 -0.3124402 -0.9463841 -0.08208732 0.1455701 0.8256997
0.01721141 2.519127 0.08443591 -0.3971459 -0.890429 -0.2222867 0.1455701 0.8256997
0.04562171 2.515117 -0.003868749 -0.4775231 -0.8772309 0.04937188 0.143697 0.8263083
0.4766295 2.219286 -0.003942705 0.9197093 -0.3637577 -0.1477 0.143697 0.8266818
0.4535986 2.087702 0.3875455 0.6427537 -0.599171 0.4773488 0.1457896 0.8260018
0.2806841 2.087085 -0.3572625 -0.36701 -0.9189494 0.1443461 0.1418239 0.8256997
0.01721142 2.519127 -0.09217345 -0.4806854 -0.8555158 0.1924428 0.1418239 0.8256997
0.3326253 2.079753 -0.3953742 0.5718589 -0.6496628 -0.5009149 0.1416044 0.8260018
-0.05716764 2.529627 0.1390112 -0.2568629 -0.928841 -0.2669753 0.1467278 0.8241063
-0.1491052 2.542605 0.1390112 -0.0162681 -0.9540508 -0.299203 0.1467278 0.8221368
-0.2233903 2.553261 0.0844359 0.112343 -0.9749563 -0.1919356 0.1455701 0.8205435
-0.2518946 2.557114 -0.003868778 0.1901838 -0.9817135 0.008291846 0.143697 0.8199348
-0.2235842 2.553371 -0.09242595 0.123787 -0.976584 0.1759563 0.1418239 0.8205435
-0.1491052 2.542605 -0.1467487 -0.04851674 -0.9332857 0.3558427 0.1406662 0.8221368
-0.05708029 2.530445 -0.1465457 -0.2018775 -0.9246348 0.322949 0.1406662 0.8241063
0.03307082 2.27858 -0.5308751 -0.2548802 -0.9466556 0.1971781 0.1406662 0.8241063
-0.3039765 2.214519 -0.558525 -0.01902957 -0.937575 0.3472623 0.1406662 0.8221368
-0.3237073 2.202837 -0.6237358 -0.3015025 -0.5633782 -0.7692212 0.1403111 0.8220214
0.05355015 2.279489 -0.5918757 0.2677522 -0.2729733 -0.92401 0.1403111 0.8242217
-0.001554628 3.255747 -0.003868744 0.1433272 0.9894949 -0.01890213 0.1355383 0.8342471
0.1142601 2.309721 0.5840632 0.2064799 -0.2730089 0.9395915 0.1444387 0.8268301
-0.4892523 2.272361 0.5840633 -0.4794024 -0.4149461 0.7733002 0.1429553 0.8268301
-0.6311878 2.37635 0.3594931 -0.872031 -0.2056199 0.4441649 0.1414719 0.8268301
-0.8387728 2.300637 -0.0639762 -0.8911433 -0.4498849 -0.05888369 0.1399885 0.8268301
-0.6307486 2.376513 -0.3672308 -0.7377573 -0.212103 -0.6408795 0.1385051 0.8268301
-0.5788074 2.36918 -0.3291192 0.04717912 -0.9811856 0.1872136 0.1418239 0.8205435
-0.7661952 2.312299 -0.05864139 0.2434466 -0.969872 0.009061535 0.143697 0.8199348
-0.5831361 2.367578 0.3213814 0.03976791 -0.9854998 -0.1649508 0.1455701 0.8205435
-0.4694125 2.26956 0.5223972 -0.1450281 -0.9665904 -0.2113523 0.1467278 0.8221368
0.09193522 2.306762 0.5223973 -0.2764037 -0.9558835 -0.09943762 0.1467278 0.8241063
0.4506463 1.739606 -0.003868714 -0.2955176 -0.9553372 0.0004214487 0.143697 0.8263083
0.3716161 1.588707 0.4312152 -0.1947377 -0.9487834 -0.2487717 0.1455701 0.8256997
-0.01702228 1.956693 0.1142555 -0.3270718 -0.9246032 -0.1952768 0.1455701 0.8256997
0.02098186 1.951328 -0.003868758 -0.3569904 -0.9330254 0.04496134 0.143697 0.8263083
0.53653 1.727483 -0.003868716 0.9079072 -0.4189864 -0.01244759 0.143697 0.8266818
0.4410973 1.578899 0.4821967 0.7121729 -0.5565758 0.4278238 0.1457896 0.8260018
0.3716161 1.588707 -0.4389527 -0.2666714 -0.9564391 0.1187881 0.1418239 0.8256997
-0.01702227 1.956693 -0.121993 -0.3772774 -0.9175119 0.125832 0.1418239 0.8256997
0.4410974 1.578899 -0.4899343 0.6452318 -0.6097246 -0.460339 0.1416044 0.8260018
-0.1165184 1.970738 0.1872603 -0.2263634 -0.929933 -0.2898004 0.1467278 0.8241063
-0.2395024 1.988098 0.1872603 0.02556995 -0.9389017 -0.3432344 0.1467278 0.8221368
-0.3389985 2.002142 0.1142555 0.1410593 -0.9635598 -0.2272772 0.1455701 0.8205435
-0.3770027 2.007507 -0.003868793 0.2395021 -0.9707824 0.01484485 0.143697 0.8199348
-0.3389985 2.002142 -0.1219931 0.1146153 -0.9892594 0.09071568 0.1418239 0.8205435
-0.2395024 1.988098 -0.1949978 -0.0896084 -0.9580034 0.2723967 0.1406662 0.8221368
-0.1165184 1.970738 -0.1949978 -0.1649485 -0.9591538 0.2298177 0.1406662 0.8241063
0.0258547 1.7716 -0.6875811 -0.1092909 -0.9925447 -0.05395034 0.1406662 0.8241063
-0.4478391 1.70438 -0.7078493 -0.09710627 -0.9785452 0.181713 0.1406662 0.8221368
-0.4743786 1.708126 -0.7903392 -0.3390878 -0.4730608 -0.8131623 0.1403111 0.8220214
0.0571854 1.798198 -0.7653819 0.2962981 -0.1754608 -0.9388403 0.1403111 0.8242217
-0.04250687 2.940447 -0.004224565 0.1214978 0.9921948 0.02806839 0.1355383 0.8342471
0.03168404 1.636691 0.7826019 0.2721505 -0.4007307 0.8748423 0.1444387 0.8268301
-0.3829544 1.592322 0.7826018 -0.3315434 -0.4806387 0.8118285 0.1429553 0.8268301
-0.780178 1.765918 0.4821967 -0.758417 -0.2499827 0.6019239 0.1414719 0.8268301
-1.021889 1.678284 -0.003868858 -0.8774604 -0.479576 -0.008374682 0.1399885 0.8268301
-0.8290377 1.916715 -0.4960428 -0.8191559 0.008236129 -0.5735118 0.1385051 0.8268301
-0.7698437 1.878575 -0.4439135 -0.1128613 -0.986536 -0.1183601 0.1418239 0.8205435
-0.9384442 1.680793 -0.003868847 0.1925454 -0.9731952 -0.1257674 0.143697 0.8199348
-0.7106966 1.756111 0.4312151 0.03964017 -0.9828717 -0.1799778 0.1455701 0.8205435
-0.356415 1.588576 0.7001118 -0.04579102 -0.9677317 -0.2477873 0.1467278 0.8221368
0.005144532 1.640438 0.7001119 -0.06854856 -0.9645871 -0.2547014 0.1467278 0.8241063
-0.05234706 2.527061 0.003535594 0.07649717 0.9967437 0.02549667 0.1444387 0.8342471
-0.05234706 2.527061 0.003535594 0.07649717 0.9967437 0.02549667 0.1429553 0.8342471
-0.05234706 2.527061 0.003535594 0.07649717 0.9967437 0.02549667 0.1414719 0.8342471
-0.05234706 2.527061 0.003535594 0.07649717 0.9967437 0.02549667 0.1399885 0.8342471
-0.05234706 2.527061 0.003535594 0.07649717 0.9967437 0.02549667 0.1385051 0.8342471
-0.05234706 2.527061 0.003535594 0.07649717 0.9967437 0.02549667 0.1370217 0.8342471
-0.05234706 2.527061 0.003535594 0.07649717 0.9967437 0.02549667 0.1355383 0.8342471
-0.05234706 2.527061 0.003535594 0.07649717 0.9967437 0.02549667 0.1340549 0.8342471
-0.05234706 2.527061 0.003535594 0.07649717 0.9967437 0.02549667 0.1325715 0.8342471
0.9019433 0.7369092 0.0001928119 0.7486625 -0.6625052 0.02431634 0.1325715 0.8268301
0.9019433 0.7369092 0.0001928119 0.7486625 -0.6625052 0.02431634 0.143697 0.8266818
0.6566216 0.7409797 0.6696784 0.6916308 -0.5987108 0.4039707 0.1457896 0.8260018
0.1777709 0.6487998 1.064121 0.2465625 -0.5256235 0.8142033 0.1470829 0.8242217
-0.5481315 0.8643982 1.073601 -0.3460613 -0.2908933 0.8919768 0.1470829 0.8220214
-1.036312 0.7703611 0.6475528 -0.7651746 -0.4585787 0.4518998 0.1457896 0.8202413
-1.226766 0.915517 0.002276383 -0.878518 -0.4677565 0.09700552 0.143697 0.8195614
-1.223513 0.7868632 -0.7301105 -0.7898372 -0.4384947 -0.4288117 0.1416044 0.8202413
-0.5567504 0.8014417 -1.104206 -0.1992507 -0.4211502 -0.8848343 0.1403111 0.8220214
0.1749573 0.9838765 -1.057413 0.3393802 -0.03594186 -0.9399624 0.1403111 0.8242217
0.7113645 0.6778095 -0.6719574 0.6594606 -0.575262 -0.483927 0.1416044 0.8260018
-0.002531691 3.426703 -6.998244e-09 0.09200434 0.9957545 0.002872867 0.1079499 0.9481055
-0.002531691 3.426703 -6.998244e-09 0.09200434 0.9957545 0.002872867 0.1099658 0.9481055
-0.002531691 3.426703 -6.998244e-09 0.09200434 0.9957545 0.002872867 0.1119818 0.9481055
-0.002531691 3.426703 -6.998244e-09 0.09200434 0.9957545 0.002872867 0.1139977 0.9481055
-0.002531691 3.426703 -6.998244e-09 0.09200434 0.9957545 0.002872867 0.1160137 0.9481055
-0.005586709 1.798404 -4.835923e-09 0.9736882 0.06765103 0.2176114 0.1160137 0.9508545
0.1390976 -0.01025076 -0.2409241 0.4289466 -0.5688282 -0.7017403 0.1139977 0.9541534
0.2781951 -0.01025073 1.123657e-08 0.8344808 -0.5510371 1.164494e-07 0.1160137 0.9541534
-0.1390975 -0.01025074 -0.2409241 -0.390996 -0.5969431 -0.7005576 0.1119818 0.9541534
-0.2781951 -0.01025068 -3.666143e-08 -0.7886845 -0.6147465 -0.007971015 0.1099658 0.9541534
-0.1390976 -0.01025075 0.2409241 -0.3812941 -0.602711 0.7009668 0.1079499 0.9541534
0.1390975 -0.01025067 0.2409241 0.4287749 -0.5676786 0.7027754 0.1059339 0.9541534
0.2781951 -0.01025073 1.123657e-08 0.8344808 -0.5510371 1.164494e-07 0.103918 0.9541534
-0.1902447 2.899565 -0.3833576 -0.1867671 -0.4206221 -0.8878036 0.1370217 0.8268301
0.05753572 2.904462 -0.3645438 0.2347897 -0.2726914 -0.933013 0.1355383 0.8268301
0.04518083 3.661302 -3.209428e-10 0.1412639 0.9899688 -0.002518902 0.1340549 0.8342471
0.2317852 2.731303 -0.2510685 0.4537848 -0.6896607 -0.5643116 0.1340549 0.8268301
0.04518083 3.661302 -3.209428e-10 0.1412639 0.9899688 -0.002518902 0.1325715 0.8342471
0.3208072 2.777508 -0.007417304 0.84167 -0.5308232 0.09908667 0.1325715 0.8268301
0.3208072 2.777508 -0.007417304 0.84167 -0.5308232 0.09908667 0.1474055 0.8268301
0.04518083 3.661302 -3.209428e-10 0.1412639 0.9899688 -0.002518902 0.1459221 0.8342471
0.2530611 2.859594 0.2342894 0.5999348 -0.5605662 0.5708272 0.1459221 0.8268301
0.04518083 3.661302 -3.209428e-10 0.1412639 0.9899688 -0.002518902 0.1444387 0.8342471
0.04518083 3.661302 -3.209428e-10 0.1412639 0.9899688 -0.002518902 0.1429553 0.8342471
0.04518083 3.661302 -3.209428e-10 0.1412639 0.9899688 -0.002518902 0.1414719 0.8342471
0.04518083 3.661302 -3.209428e-10 0.1412639 0.9899688 -0.002518902 0.1399885 0.8342471
0.04518083 3.661302 -3.209428e-10 0.1412639 0.9899688 -0.002518902 0.1385051 0.8342471
0.04518083 3.661302 -3.209428e-10 0.1412639 0.9899688 -0.002518902 0.1370217 0.8342471
-0.45425 2.926496 -0.009200846 -0.9373193 -0.3228777 0.1310819 0.143697 0.8195614
-0.4031711 2.857257 -0.2736059 -0.7170088 -0.4524918 -0.5302354 0.1416044 0.8202413
-0.1830965 2.836948 0.3790881 -0.284834 -0.6367803 0.7165058 0.1470829 0.8220214
-0.3509449 2.944578 0.2342893 -0.8073012 -0.2198664 0.5476528 0.1457896 0.8202413
0.0537913 2.92556 0.3790881 0.2611517 -0.30127 0.9170803 0.1470829 0.8242217
-0.3237073 2.202837 -0.6237358 -0.3015025 -0.5633782 -0.7692212 0.1370217 0.8268301
0.05355015 2.279489 -0.5918757 0.2677522 -0.2729733 -0.92401 0.1355383 0.8268301
-0.001554628 3.255747 -0.003868744 0.1433272 0.9894949 -0.01890213 0.1340549 0.8342471
0.3326253 2.079753 -0.3953742 0.5718589 -0.6496628 -0.5009149 0.1340549 0.8268301
-0.001554628 3.255747 -0.003868744 0.1433272 0.9894949 -0.01890213 0.1325715 0.8342471
0.4766295 2.219286 -0.003942705 0.9197093 -0.3637577 -0.1477 0.1325715 0.8268301
0.4766295 2.219286 -0.003942705 0.9197093 -0.3637577 -0.1477 0.1474055 0.8268301
-0.001554628 3.255747 -0.003868744 0.1433272 0.9894949 -0.01890213 0.1459221 0.8342471
0.4535986 2.087702 0.3875455 0.6427537 -0.599171 0.4773488 0.1459221 0.8268301
-0.001554628 3.255747 -0.003868744 0.1433272 0.9894949 -0.01890213 0.1444387 0.8342471
-0.001554628 3.255747 -0.003868744 0.1433272 0.9894949 -0.01890213 0.1429553 0.8342471
-0.001554628 3.255747 -0.003868744 0.1433272 0.9894949 -0.01890213 0.1414719 0.8342471
-0.001554628 3.255747 -0.003868744 0.1433272 0.9894949 -0.01890213 0.1399885 0.8342471
-0.001554628 3.255747 -0.003868744 0.1433272 0.9894949 -0.01890213 0.1385051 0.8342471
-0.001554628 3.255747 -0.003868744 0.1433272 0.9894949 -0.01890213 0.1370217 0.8342471
-0.8387728 2.300637 -0.0639762 -0.8911433 -0.4498849 -0.05888369 0.143697 0.8195614
-0.6307486 2.376513 -0.3672308 -0.7377573 -0.212103 -0.6408795 0.1416044 0.8202413
-0.4892523 2.272361 0.5840633 -0.4794024 -0.4149461 0.7733002 0.1470829 0.8220214
-0.6311878 2.37635 0.3594931 -0.872031 -0.2056199 0.4441649 0.1457896 0.8202413
0.1142601 2.309721 0.5840632 0.2064799 -0.2730089 0.9395915 0.1470829 0.8242217
-0.4743786 1.708126 -0.7903392 -0.3390878 -0.4730608 -0.8131623 0.1370217 0.8268301
0.0571854 1.798198 -0.7653819 0.2962981 -0.1754608 -0.9388403 0.1355383 0.8268301
-0.04250687 2.940447 -0.004224565 0.1214978 0.9921948 0.02806839 0.1340549 0.8342471
0.4410974 1.578899 -0.4899343 0.6452318 -0.6097246 -0.460339 0.1340549 0.8268301
-0.04250687 2.940447 -0.004224565 0.1214978 0.9921948 0.02806839 0.1325715 0.8342471
0.53653 1.727483 -0.003868716 0.9079072 -0.4189864 -0.01244759 0.1325715 0.8268301
0.53653 1.727483 -0.003868716 0.9079072 -0.4189864 -0.01244759 0.1474055 0.8268301
-0.04250687 2.940447 -0.004224565 0.1214978 0.9921948 0.02806839 0.1459221 0.8342471
0.4410973 1.578899 0.4821967 0.7121729 -0.5565758 0.4278238 0.1459221 0.8268301
-0.04250687 2.940447 -0.004224565 0.1214978 0.9921948 0.02806839 0.1444387 0.8342471
-0.04250687 2.940447 -0.004224565 0.1214978 0.9921948 0.02806839 0.1429553 0.8342471
-0.04250687 2.940447 -0.004224565 0.1214978 0.9921948 0.02806839 0.1414719 0.8342471
-0.04250687 2.940447 -0.004224565 0.1214978 0.9921948 0.02806839 0.1399885 0.8342471
-0.04250687 2.940447 -0.004224565 0.1214978 0.9921948 0.02806839 0.1385051 0.8342471
-0.04250687 2.940447 -0.004224565 0.1214978 0.9921948 0.02806839 0.1370217 0.8342471
-1.021889 1.678284 -0.003868858 -0.8774604 -0.479576 -0.008374682 0.143697 0.8195614
-0.8290377 1.916715 -0.4960428 -0.8191559 0.008236129 -0.5735118 0.1416044 0.8202413
-0.3829544 1.592322 0.7826018 -0.3315434 -0.4806387 0.8118285 0.1470829 0.8220214
-0.780178 1.765918 0.4821967 -0.758417 -0.2499827 0.6019239 0.1457896 0.8202413
0.03168404 1.636691 0.7826019 0.2721505 -0.4007307 0.8748423 0.1470829 0.8242217
3 0 1 2 
3 2 137 3 
3 3 138 4 
3 4 139 5 
3 5 140 6 
3 6 141 7 
3 7 142 8 
3 8 143 9 
3 9 144 10 
3 10 145 146 
3 11 12 13 
3 11 13 14 
3 15 16 147 
3 15 147 148 
3 17 15 148 
3 17 148 149 
3 18 17 149 
3 18 149 150 
3 11 18 150 
3 11 150 151 
3 12 11 151 
3 12 151 152 
3 19 12 152 
3 19 152 153 
3 20 19 153 
3 20 153 154 
3 21 20 154 
3 21 154 155 
3 22 21 155 
3 22 155 156 
3 16 22 156 
3 16 156 147 
3 23 24 25 
3 23 25 26 
3 23 26 14 
3 23 14 13 
3 23 13 27 
3 23 27 28 
3 23 28 29 
3 23 29 30 
3 15 17 25 
3 15 25 24 
3 21 22 30 
3 21 30 29 
3 12 19 27 
3 12 27 13 
3 17 18 26 
3 17 26 25 
3 22 16 23 
3 22 23 30 
3 19 20 28 
3 19 28 27 
3 18 11 14 
3 18 14 26 
3 16 15 24 
3 16 24 23 
3 20 21 29 
3 20 29 28 
3 31 32 33 
3 33 157 34 
3 34 158 35 
3 35 159 36 
3 36 160 37 
3 37 161 162 
3 38 39 40 
3 38 40 41 
3 38 41 42 
3 38 42 43 
3 163 37 162 
3 163 162 164 
3 165 36 37 
3 165 37 163 
3 166 35 36 
3 166 36 165 
3 167 34 35 
3 167 35 166 
3 168 33 34 
3 168 34 167 
3 169 31 33 
3 169 33 168 
3 44 45 46 
3 44 46 47 
3 45 44 48 
3 45 48 49 
3 50 44 47 
3 50 47 51 
3 44 50 52 
3 44 52 48 
3 47 46 53 
3 47 53 54 
3 47 54 55 
3 47 55 56 
3 47 56 57 
3 47 57 58 
3 47 58 59 
3 47 59 51 
3 60 50 51 
3 60 51 59 
3 61 60 59 
3 61 59 58 
3 60 61 62 
3 60 62 63 
3 50 60 63 
3 50 63 52 
3 170 64 171 
3 171 172 173 
3 173 174 175 
3 176 177 178 
3 178 179 65 
3 65 180 66 
3 66 181 67 
3 67 182 68 
3 68 183 69 
3 69 184 170 
3 70 71 185 
3 70 185 186 
3 61 70 186 
3 61 186 62 
3 71 70 57 
3 71 57 56 
3 70 61 58 
3 70 58 57 
3 72 71 56 
3 72 56 55 
3 73 72 55 
3 73 55 54 
3 72 73 187 
3 72 187 188 
3 71 72 188 
3 71 188 185 
3 74 73 54 
3 74 54 53 
3 73 74 189 
3 73 189 187 
3 45 74 53 
3 45 53 46 
3 74 45 49 
3 74 49 189 
3 75 76 77 
3 75 77 78 
3 76 75 79 
3 76 79 80 
3 81 75 78 
3 81 78 82 
3 75 81 83 
3 75 83 79 
3 78 77 84 
3 78 84 85 
3 78 85 86 
3 78 86 87 
3 78 87 88 
3 78 88 89 
3 78 89 90 
3 78 90 82 
3 91 81 82 
3 91 82 90 
3 92 91 90 
3 92 90 89 
3 91 92 93 
3 91 93 94 
3 81 91 94 
3 81 94 83 
3 190 95 191 
3 191 192 193 
3 193 194 195 
3 196 197 198 
3 198 199 96 
3 96 200 97 
3 97 201 98 
3 98 202 99 
3 99 203 100 
3 100 204 190 
3 101 102 205 
3 101 205 206 
3 92 101 206 
3 92 206 93 
3 102 101 88 
3 102 88 87 
3 101 92 89 
3 101 89 88 
3 103 102 87 
3 103 87 86 
3 104 103 86 
3 104 86 85 
3 103 104 207 
3 103 207 208 
3 102 103 208 
3 102 208 205 
3 105 104 85 
3 105 85 84 
3 104 105 209 
3 104 209 207 
3 76 105 84 
3 76 84 77 
3 105 76 80 
3 105 80 209 
3 106 107 108 
3 106 108 109 
3 107 106 110 
3 107 110 111 
3 112 106 109 
3 112 109 113 
3 106 112 114 
3 106 114 110 
3 109 108 115 
3 109 115 116 
3 109 116 117 
3 109 117 118 
3 109 118 119 
3 109 119 120 
3 109 120 121 
3 109 121 113 
3 122 112 113 
3 122 113 121 
3 123 122 121 
3 123 121 120 
3 122 123 124 
3 122 124 125 
3 112 122 125 
3 112 125 114 
3 210 126 211 
3 211 212 213 
3 213 214 215 
3 216 217 218 
3 218 219 127 
3 127 220 128 
3 128 221 129 
3 129 222 130 
3 130 223 131 
3 131 224 210 
3 132 133 225 
3 132 225 226 
3 123 132 226 
3 123 226 124 
3 133 132 119 
3 133 119 118 
3 132 123 120 
3 132 120 119 
3 134 133 118 
3 134 118 117 
3 135 134 117 
3 135 117 116 
3 134 135 227 
3 134 227 228 
3 133 134 228 
3 133 228 225 
3 136 135 116 
3 136 116 115 
3 135 136 229 
3 135 229 227 
3 107 136 115 
3 107 115 108 
3 136 107 111 
3 136 111 229 
