ply
format ascii 1.0
comment VCGLIB generated
comment TextureFile dummy.png
element vertex 223
property float x
property float y
property float z
property float nx
property float ny
property float nz
property float texture_u
property float texture_v
element face 426
property list uchar int vertex_indices
end_header
-0.148431 -0.005748743 0.1010119 -0.6756539 -0.5779343 0.457694 0.04461107 0.9700614
0.04786284 -0.004459806 -0.1693728 0.2456265 -0.5708234 -0.7834719 0.04695899 0.9700769
0.02508032 -0.01041592 0.1652363 0.1193232 -0.5985494 0.7921493 0.04668649 0.9700056
0.1850824 -0.01691518 0.03078677 0.7977641 -0.5942376 0.1022452 0.04860031 0.9699278
0.08003484 2.405167 0.04004192 0.4714083 0.8472045 0.2449873 0.04734381 0.9988992
-0.1447138 0.00390337 -0.1022065 -0.6736267 -0.5523879 -0.491014 0.04465553 0.9701769
-0.08999512 2.403826 -0.04750289 -0.4776401 0.8440982 -0.2436356 0.04531004 0.998883
0.218518 1.624756 0.5752313 0.3292356 0.4263112 0.8425335 0.1753446 0.8234392
-0.08332311 1.086255 0.8453243 -0.4819796 -0.7843183 0.3905643 0.1710273 0.8157368
0.3292756 1.145531 0.8451825 0.6719802 -0.6144489 0.4133947 0.1769288 0.8165847
0.2093797 1.608127 0.5478249 -0.2739611 -0.491795 -0.8264883 0.1752139 0.8232013
-0.5063785 1.060932 0.679344 -0.7368288 -0.6760793 0.0001313669 0.1649763 0.8153747
-0.09074087 1.60603 0.577361 0.1314787 -0.4666092 -0.8746367 0.1709212 0.8231714
-0.163947 1.054946 0.840131 0.3674575 -0.7521003 0.5471015 0.1698741 0.8152891
0.01404369 2.768404 0.0533397 -0.1842463 -0.8103377 -0.5562429 0.17242 0.8397971
-0.0965168 1.621699 0.6061717 -0.1776472 0.3885562 0.904138 0.1708386 0.8233954
-0.3733101 1.613294 0.4636423 -0.6220527 -0.1153063 0.7744384 0.1668795 0.8232753
-0.08782842 2.793094 -9.490966e-05 -0.6437408 0.7632511 0.05518674 0.1709629 0.8401502
-0.5690863 1.613174 0.2180922 -0.8576424 0.4050992 0.3167718 0.1640793 0.8232735
-0.0009627491 2.795588 0.07567588 0.0534324 0.7811516 0.6220508 0.1722053 0.8401859
-0.589818 1.155547 0.6651278 0.08830177 -0.5826995 0.8078763 0.1637828 0.816728
-0.7957192 1.116895 0.375774 -0.6338133 -0.7536103 -0.1742194 0.1608377 0.816175
-0.541546 1.596994 0.2085441 0.8272836 -0.498641 -0.2587646 0.1644732 0.8230421
-0.06855058 2.766448 -0.02896319 0.5925232 -0.78698 0.1719848 0.1712386 0.8397691
-0.5706395 1.595031 -0.0921634 0.8784727 -0.4603919 0.1277692 0.1640571 0.823014
-0.8159302 1.101767 -0.05419427 -0.4013811 -0.7806353 -0.4790635 0.1605486 0.8159587
-0.7938439 1.111503 0.2742838 -0.3229564 -0.7249773 0.6083642 0.1608645 0.816098
-0.4496016 1.621401 -0.3687524 -0.803089 -0.0003473399 -0.595859 0.1657883 0.8233912
-0.5999968 1.609992 -0.09694193 -0.9109333 0.3750966 -0.1717653 0.1636372 0.823228
-0.6725174 1.096904 -0.5018781 -0.02226574 -0.6245216 -0.7806901 0.1625999 0.8158892
-0.8167045 1.040094 -0.1415046 -0.4739228 -0.7965983 0.375271 0.1605376 0.8150766
-0.6061845 1.048724 -0.551606 -0.6963172 -0.6979424 0.1673882 0.1635487 0.8152
-0.2010448 1.594851 -0.5418548 0.3078183 -0.4441999 0.8413884 0.1693435 0.8230114
-0.2118765 1.609822 -0.5695518 -0.3574561 0.3870174 -0.8499663 0.1691886 0.8232256
-0.3134062 1.049757 -0.7919312 0.245327 -0.7344503 -0.6327696 0.1677364 0.8152148
-0.01734576 2.794005 -0.09128518 -0.07413933 0.7703544 -0.633291 0.171971 0.8401632
0.1031579 1.61288 -0.600492 0.150713 0.3865516 -0.90987 0.1736946 0.8232693
-0.2673152 1.049479 -0.815988 -0.5932992 -0.7466116 -0.300944 0.1683956 0.8152108
0.1458443 1.053561 -0.8528358 0.5606978 -0.7259189 -0.3983212 0.1743052 0.8152692
0.09859589 1.59765 -0.5712333 -0.1386507 -0.4620886 0.8759282 0.1736293 0.8230515
0.03029419 2.766371 -0.0552786 -0.4041542 -0.7832618 0.4723985 0.1726524 0.839768
0.5273537 1.094734 -0.659533 0.7000532 -0.7117848 -0.0573402 0.179762 0.8158582
0.2045047 1.054781 -0.8215015 -0.3040685 -0.7878378 -0.5355875 0.1751442 0.8152867
0.3914409 1.617119 -0.4697701 0.5939955 0.3984694 -0.6988502 0.177818 0.82333
0.06945699 2.794782 -0.01554391 0.6256294 0.7773762 -0.06537723 0.1732126 0.8401744
0.5683089 1.603765 -0.2101398 0.9269871 -0.07990851 -0.3664827 0.1803478 0.823139
0.7883157 1.084994 -0.2921027 0.620394 -0.6468177 0.4435519 0.1834946 0.8157188
0.6060818 1.059771 -0.6599023 0.07119523 -0.7256824 -0.6843364 0.180888 0.8153581
0.3725019 1.601582 -0.4472086 -0.5441918 -0.4554369 0.7045797 0.1775471 0.8231077
0.5777696 1.608993 0.09698568 -0.8689995 -0.4705534 -0.1530344 0.1804831 0.8232137
0.8536169 1.110698 -0.2352999 0.3767128 -0.6274963 -0.681422 0.1844286 0.8160865
0.6066382 1.624586 0.1026212 0.8937665 0.4195651 0.1585768 0.180896 0.8234367
0.8200063 1.075808 0.09484541 0.2693419 -0.8183285 0.5077336 0.1839479 0.8155874
0.4597011 1.631947 0.3762064 0.7229186 0.01344575 0.6908025 0.1787943 0.8235421
0.6745856 1.12443 0.5081877 -0.00248313 -0.6238409 0.7815474 0.1818679 0.8162829
0.8469706 1.070552 0.156713 0.5348645 -0.771942 -0.3435485 0.1843335 0.8155123
0.6589149 1.12867 0.5829903 0.7914335 -0.5922139 -0.151379 0.1816437 0.8163435
0.3967855 1.070849 0.8082844 -0.1276605 -0.7721205 0.6225213 0.1778944 0.8155165
-0.2301926 2.170321 -0.4754108 -0.3733206 0.3906751 -0.8414302 0.1684964 0.822638
0.01206741 1.689332 -0.7122025 0.4465519 -0.8026275 -0.3954497 0.1719615 0.8157583
-0.346853 1.743951 -0.6864915 -0.7048998 -0.6244694 -0.3363842 0.1668278 0.8165395
-0.2204716 2.156675 -0.4516083 0.3519163 -0.4689893 0.8100643 0.1686354 0.8224428
0.3913899 1.669864 -0.5952354 0.6453862 -0.7579288 -0.09497588 0.177387 0.8154798
0.03881034 2.151734 -0.4973215 -0.08713299 -0.4365574 0.8954471 0.172344 0.8223722
0.08246532 1.661628 -0.7120095 -0.41219 -0.7696494 -0.487585 0.1729684 0.8153621
-0.002134323 3.183464 -0.07620011 0.138165 -0.761627 0.6331152 0.1717584 0.8371293
0.04197453 2.164389 -0.5233111 0.08932753 0.3481983 -0.9331552 0.1723893 0.8225532
0.08446687 3.207428 -0.03604024 0.6307836 0.7645216 -0.1327362 0.172997 0.837472
0.4793819 2.166723 -0.2169893 0.8441843 0.3781514 -0.3799399 0.1786456 0.8225865
0.3016967 2.163072 -0.4287223 0.5058542 0.3804609 -0.7741842 0.1761041 0.8225343
0.0003276036 3.206461 -0.09122589 -0.09750289 0.7561429 -0.6471022 0.1717936 0.8374583
0.4654023 1.752291 -0.5916855 -0.04743983 -0.6933617 -0.7190265 0.1784457 0.8166589
0.6638994 1.72689 -0.352385 0.6415418 -0.7513676 0.1545021 0.1812848 0.8162956
0.2868215 2.149848 -0.4074888 -0.4800231 -0.4663236 0.743048 0.1758914 0.8223452
0.4559755 2.153125 -0.2062854 -0.7977038 -0.485435 0.357801 0.1783108 0.822392
0.06245155 3.182803 -0.03145773 -0.6368715 -0.7592267 0.134051 0.1726821 0.8371198
0.501475 2.161358 0.05347276 -0.8826957 -0.4657593 -0.06258311 0.1789616 0.8225098
0.710283 1.728065 0.02088444 0.4330931 -0.7647287 0.4770957 0.1819482 0.8163123
0.669054 1.725626 -0.2637709 0.2716118 -0.7504892 -0.602489 0.1813585 0.8162774
0.5274194 2.174364 0.05515414 0.9286419 0.3651865 0.06529347 0.1793327 0.8226958
0.4329378 2.183946 0.3147874 0.756091 0.3861253 0.5284256 0.1779813 0.8228329
0.6154562 1.739946 0.4201676 0.1475493 -0.6845 0.7139251 0.1805919 0.8164823
0.7165433 1.677208 0.09890778 0.4396625 -0.8142743 -0.3790176 0.1820378 0.8155848
0.4111455 2.170636 0.3009041 -0.7220924 -0.4756002 -0.5023813 0.1776696 0.8226425
0.5608332 1.700063 0.4695214 0.6190608 -0.7795643 -0.09509639 0.1798106 0.8159118
0.2098986 2.178985 0.4694803 -0.3920212 -0.4748742 -0.7879174 0.1747911 0.822762
0.2212534 2.192903 0.492342 0.4036348 0.4128793 0.8164616 0.1749535 0.822961
0.3220847 1.71114 0.698182 -0.1996147 -0.7073685 0.6780736 0.1763957 0.8160703
0.02430299 3.210204 0.04461603 0.1226444 0.7908254 0.5996279 0.1721365 0.8375117
-0.05091337 2.198835 0.5402424 -0.07820293 0.4242814 0.9021472 0.1710607 0.8230458
0.2835729 1.712034 0.7222075 0.6109018 -0.739139 0.2836772 0.1758449 0.8160831
-0.07361677 1.719749 0.7817801 -0.5320728 -0.7053674 0.468354 0.1707359 0.8161933
-0.04897294 2.184529 0.5150004 0.07083862 -0.4940901 -0.86652 0.1710884 0.8228413
-0.4185344 1.751829 0.6377177 -0.6971864 -0.7033389 0.1387284 0.1658025 0.8166522
-0.1267816 1.720169 0.758401 0.3403187 -0.7689033 0.5412679 0.1699755 0.8161993
-0.05985916 3.210498 -0.01063499 -0.6057132 0.7911491 0.08482207 0.1709327 0.8375159
-0.4883207 2.196501 0.2339207 -0.8180623 0.4186133 0.3943819 0.1648043 0.8230125
-0.3106355 2.200151 0.4456536 -0.523317 0.4258243 0.7381145 0.1673458 0.8230647
-0.6704195 1.732768 0.3358244 -0.6267766 -0.7341758 -0.2610306 0.1621997 0.8163795
-0.4872021 1.721897 0.6445034 -0.02214562 -0.6980153 0.7157404 0.1648203 0.8162241
-0.2957308 2.185704 0.4252871 0.5034124 -0.4971205 -0.7067158 0.167559 0.822858
-0.4647444 2.182213 0.2246645 0.774528 -0.5058575 -0.3797559 0.1651415 0.8228081
0.01709044 3.186649 0.0325002 -0.07972649 -0.7970164 -0.5986723 0.1720333 0.8371748
-0.5109174 2.175245 -0.03471831 0.8701242 -0.4817001 0.1041586 0.1644811 0.8227085
-0.03744151 3.184934 -0.01388805 0.6244872 -0.7760605 -0.08801092 0.1712533 0.8371503
-0.7309664 1.753733 0.2898932 -0.3720284 -0.678165 0.6337879 0.1613337 0.8166794
-0.5363584 2.18886 -0.0382227 -0.9067821 0.4085473 -0.1040937 0.1641172 0.8229032
-0.7240171 1.711917 0.00158548 -0.3117692 -0.8351136 -0.4531946 0.1614331 0.8160813
-0.441877 2.179278 -0.297856 -0.7495038 0.3980186 -0.5289851 0.1654686 0.8227662
-0.6249439 1.739353 -0.3694485 -0.1361843 -0.7367084 -0.6623554 0.1628501 0.8164738
-0.7516667 1.705434 -0.05025969 -0.510814 -0.7537065 0.4135163 0.1610376 0.8159886
-0.616303 1.740416 -0.4357263 -0.7316357 -0.6682048 0.1349496 0.1629737 0.816489
-0.4210355 2.165611 -0.282858 0.7154458 -0.4824777 0.5053242 0.1657667 0.8225707
-0.403479 1.680526 -0.647316 0.07545795 -0.7965354 -0.5998647 0.1660178 0.8156323
-0.2709583 2.786184 0.3193937 -0.6274663 0.3534244 0.6938136 0.1686662 0.8209063
-0.5166107 2.393331 0.2047202 -0.5226768 -0.8072198 -0.2742355 0.1651525 0.8152872
-0.3803571 2.432488 0.4638233 -0.00551691 -0.6503063 0.759652 0.1671014 0.8158473
-0.2562264 2.775994 0.3039868 0.6086076 -0.4322242 -0.6654165 0.1688769 0.8207606
-0.5544704 2.387239 -0.1155042 -0.3299434 -0.7476423 -0.5763405 0.164611 0.8152001
-0.3754941 2.774869 0.1266742 0.8642091 -0.4055739 -0.2977457 0.167171 0.8207445
-0.5391035 2.372038 0.151719 -0.258954 -0.7949629 0.5486135 0.1648308 0.8149827
-0.0706977 3.622906 0.04628275 0.5405601 -0.7360548 -0.4074534 0.1715306 0.8328742
-0.3960752 2.784402 0.1332214 -0.8967036 0.3159069 0.3100412 0.1668766 0.8208809
-0.09258123 3.641243 0.02265728 -0.677397 0.7325963 0.06660391 0.1712176 0.8331364
-0.3130628 2.802564 -0.2917799 -0.6980732 0.3838388 -0.6044515 0.168064 0.8211406
-0.4114864 2.790398 -0.09048358 -0.9222444 0.3613305 -0.1374976 0.1666562 0.8209666
-0.5779188 2.455349 -0.169317 -0.6203926 -0.7197975 0.3114556 0.1642756 0.8161743
-0.4653108 2.445135 -0.3958971 -0.100545 -0.7320344 -0.6738073 0.1658863 0.8160282
-0.3905618 2.780071 -0.08679919 0.8852584 -0.44879 0.1220865 0.1669555 0.8208189
-0.2971295 2.791481 -0.2783164 0.6627918 -0.4882716 0.5677129 0.1682919 0.820982
-0.05882293 3.62463 -0.01630727 0.4004749 -0.7662115 0.5025334 0.1717004 0.8328989
-0.1196067 2.806629 -0.3972943 0.3130502 -0.4856484 0.8161773 0.170831 0.8211987
-0.2037323 2.457956 -0.5530697 0.2791722 -0.7378213 -0.6145589 0.1696277 0.8162116
-0.4012503 2.446833 -0.4289097 -0.641845 -0.7662806 -0.02914151 0.1668026 0.8160525
-0.1271769 2.817641 -0.4167304 -0.328779 0.3859622 -0.8619383 0.1707227 0.8213562
-0.04089604 3.646957 -0.04036288 -0.09011412 0.7938709 -0.6013722 0.1719568 0.8332182
0.09636337 2.83159 -0.4318548 0.1666172 0.4179995 -0.893037 0.1739201 0.8215557
0.1234669 2.477919 -0.6138254 0.6094778 -0.6546913 -0.4471197 0.1743077 0.8164971
-0.1468769 2.41917 -0.5847561 -0.504269 -0.8184962 -0.2752758 0.170441 0.8156568
0.09351997 2.820035 -0.4114902 -0.1533477 -0.5083879 0.8473644 0.1738794 0.8213905
0.1788976 2.446176 -0.5906457 -0.3184836 -0.7698611 -0.5530661 0.1751006 0.8160431
0.2847291 2.828528 -0.317536 -0.548188 -0.5115669 0.6616564 0.1766143 0.8215119
0.2976605 2.840672 -0.3331004 0.5718839 0.4519674 -0.6845979 0.1767993 0.8216857
0.4269819 2.458054 -0.4885854 0.7185419 -0.6856935 -0.1162843 0.178649 0.816213
0.01902357 3.648207 0.01510226 0.5843265 0.8113114 -0.01834133 0.1728139 0.833236
0.4227772 2.842454 -0.1469284 0.8442771 0.4557849 -0.2818799 0.1785889 0.8217112
0.457479 2.458863 -0.4679154 0.02994264 -0.7156356 -0.6978318 0.1790852 0.8162245
0.6192408 2.461048 -0.2225035 0.6620861 -0.6980824 0.2726225 0.1813989 0.8162558
0.403706 2.830142 -0.1404478 -0.8075812 -0.5243728 0.2698995 0.1783161 0.8215351
0.6254033 2.477115 0.08147026 0.4278674 -0.7115704 0.5573124 0.1814871 0.8164856
0.6194127 2.459823 -0.1753858 0.3760734 -0.7413098 -0.5559035 0.1814014 0.8162383
0.3397648 2.824292 0.2780729 0.6802409 0.418959 0.6014529 0.1774015 0.8214514
0.4381884 2.836458 0.07677656 0.8760256 0.4411379 0.1948758 0.1788093 0.8216254
0.4848706 2.448565 0.3670249 0.03474292 -0.7557082 0.6539864 0.179477 0.8160773
0.6536822 2.45194 0.1293372 0.6807789 -0.6713614 -0.2929404 0.1818916 0.8161255
0.4184638 2.824388 0.07203804 -0.8371759 -0.5127612 -0.1902959 0.1785272 0.8214528
0.3254205 2.812824 0.2632544 -0.6483685 -0.5039523 -0.570658 0.1771964 0.8212873
0.003424227 3.629059 -0.00357115 -0.4929739 -0.8209459 0.2881398 0.1725907 0.8329622
0.148372 2.798702 0.3826421 -0.2459991 -0.4601107 -0.8531018 0.174664 0.8210854
-0.01290158 3.625253 0.0520319 -0.3144711 -0.7657198 -0.5610537 0.1723572 0.8329078
0.4703257 2.463196 0.4275905 0.7472488 -0.6617731 0.06062682 0.179269 0.8162865
0.153879 2.809214 0.4030235 0.2648678 0.3863921 0.8834853 0.1747427 0.8212357
0.2550255 2.420843 0.5161724 -0.266219 -0.8572013 0.4408327 0.1761895 0.8156807
-0.03272632 3.643643 0.07822615 -0.003508216 0.7596444 0.6503292 0.1720737 0.8331708
-0.06966115 2.795266 0.418148 -0.1893437 0.3607128 0.9132553 0.1715454 0.8210362
-0.05342298 2.433651 0.5655464 -0.5310589 -0.7629797 0.3685625 0.1717777 0.815864
0.2258128 2.413594 0.5535543 0.6043198 -0.7481123 0.2740904 0.1757716 0.8155771
-0.1054575 2.432681 0.5809764 0.4372073 -0.6774219 0.5915652 0.1710334 0.8158501
-0.06512516 2.784979 0.3973933 0.1829833 -0.449403 -0.8743878 0.1716103 0.8208891
-0.3313347 2.381331 0.4912008 -0.5587267 -0.8160463 0.1479627 0.1678026 0.8151156
-0.201736 3.368306 -0.286984 -0.5621253 0.374423 -0.7374433 0.1696563 0.8292326
-0.05113227 3.063332 -0.4865878 0.4156842 -0.7559083 -0.505776 0.1718104 0.8248705
-0.2853713 3.079731 -0.4193993 -0.7091981 -0.6738614 -0.2072411 0.16846 0.825105
-0.1913702 3.359523 -0.2729799 0.5515925 -0.4429041 0.706811 0.1698046 0.8291069
0.214364 3.069789 -0.4621644 0.6681474 -0.7004368 -0.2509331 0.1756079 0.8249628
-0.02769113 3.371043 -0.3385201 0.133774 -0.4520202 0.8819196 0.1721457 0.8292717
-0.003591618 3.048704 -0.4967274 -0.4435995 -0.7918549 -0.4197444 0.1724904 0.8246612
0.1471699 3.382348 -0.3135351 -0.2893885 -0.5018644 0.815099 0.1746468 0.8294334
-0.04117571 4.181005 0.008339304 0.06679927 -0.9977243 -0.009172172 0.1719528 0.8408568
-0.02985582 3.379915 -0.3557391 -0.1325381 0.3678077 -0.9204081 0.1721147 0.8293986
0.1533143 3.392181 -0.3292253 0.2980575 0.4381208 -0.8480636 0.1747347 0.829574
-0.04252466 4.201157 0.008521331 -0.06680986 0.9977239 0.009143018 0.1719335 0.841145
0.2986942 3.401819 -0.2145469 0.7190223 0.4544494 -0.5258163 0.1768141 0.8297119
0.2646035 3.134742 -0.4738149 0.04738731 -0.1158343 -0.9921376 0.1763265 0.8258918
0.4233823 3.119912 -0.3387955 0.8071632 -0.5581678 0.1921883 0.1785975 0.8256797
0.254918 3.123039 -0.4614522 -0.5455806 -0.8015177 -0.2447679 0.1761879 0.8257244
0.285504 3.391416 -0.2046047 -0.6709689 -0.5434775 0.5044135 0.1766254 0.8295631
0.3507087 3.396285 -0.04027174 -0.8444084 -0.5254335 0.1043751 0.1775581 0.8296328
0.5052297 3.118697 -0.1002758 0.5797431 -0.7349021 0.3518761 0.1797682 0.8256623
0.4390595 3.118271 -0.2814037 0.198669 -0.7144138 -0.6709275 0.1788218 0.8256562
0.3673294 3.406246 -0.04243193 0.8935134 0.4341987 -0.1144781 0.1777958 0.8297752
0.3408293 3.404277 0.1410015 0.8206944 0.4292583 0.3770916 0.1774167 0.829747
0.4972216 3.116602 0.1764738 0.3417217 -0.6817436 0.6468787 0.1796537 0.8256324
0.5227131 3.084129 -0.05113286 0.4142581 -0.7678529 -0.4886638 0.1800183 0.8251679
0.3252397 3.394526 0.1345422 -0.7794091 -0.5101186 -0.3637314 0.1771938 0.8296075
0.2163439 3.386992 0.2727654 -0.5098326 -0.4730234 -0.7185539 0.1756362 0.8294998
0.4707671 3.086297 0.2137718 0.6444473 -0.7240255 -0.2459164 0.1792753 0.8251989
0.2262945 3.396437 0.2866025 0.5347719 0.4257126 0.7299231 0.1757785 0.829635
0.3454629 3.077759 0.3966388 -0.000957613 -0.7335972 0.6795839 0.177483 0.8250768
0.05441459 3.384829 0.3553575 0.07424095 0.3935469 0.9163018 0.1733201 0.8294689
0.3270478 3.080723 0.4253291 0.8486761 -0.1751341 0.4990761 0.1772196 0.8251192
0.09749561 3.060703 0.5057553 -0.5776913 -0.6131963 0.5387606 0.1739363 0.8248329
0.3213822 3.071131 0.4093238 0.5035812 -0.7306934 -0.4609699 0.1771386 0.824982
0.05290747 3.375902 0.3381041 -0.07882663 -0.4544928 -0.8872557 0.1732985 0.8293412
-0.1210387 3.364193 0.3130235 0.3838861 -0.4247737 -0.8198773 0.1708105 0.8291737
-0.1498615 3.064892 0.4591509 -0.5977997 -0.7604707 0.2536134 0.1703983 0.8248927
0.05943419 3.058342 0.4976977 0.5023621 -0.7480792 0.433601 0.1733919 0.824799
-0.1287554 3.372562 0.3288436 -0.3925606 0.3566671 0.8477528 0.1707002 0.8292934
-0.2741353 3.362924 0.2141653 -0.7516296 0.335412 0.5679364 0.1686208 0.8291556
-0.3554797 3.041977 0.2951186 -0.6092962 -0.7781029 -0.1526895 0.1674573 0.824565
-0.1923456 3.041039 0.4722909 0.1792007 -0.7103622 0.6806414 0.1697906 0.8245516
-0.2591816 3.354983 0.2044942 0.7229152 -0.4181464 -0.550043 0.1688346 0.829042
-0.3248718 3.350915 0.04055804 0.9129922 -0.3969163 -0.09435348 0.167895 0.8289838
-0.4025382 3.053203 0.273755 -0.1807717 -0.717562 0.6726264 0.1667842 0.8247256
-0.3427706 3.358497 0.04205048 -0.9391767 0.3291962 0.09786221 0.167639 0.8290923
-0.4356522 3.029179 0.08272998 -0.3339181 -0.8493446 -0.408794 0.1663105 0.8243819
-0.3162707 3.360467 -0.1413829 -0.8726672 0.3442759 -0.3463035 0.1680181 0.8291204
-0.4234289 3.057481 -0.1735411 -0.2130396 -0.7331045 -0.6458886 0.1664854 0.8247867
-0.4605796 3.023959 0.05234955 -0.3559808 -0.8003032 0.4824859 0.165954 0.8243073
-0.2998149 3.35242 -0.1346807 0.8431343 -0.4135314 0.3436808 0.1682534 0.8290053
-0.420435 3.054939 -0.2123162 -0.1338401 -0.7375647 0.66188 0.1665282 0.8247504
-0.4342277 3.064082 -0.2227092 -0.9790108 -0.2020011 0.02708467 0.1663309 0.8248811
-0.3137835 3.033782 -0.3874357 0.1916529 -0.6304977 -0.7521581 0.1680537 0.8244478
3 0 1 2 
3 3 4 2 
3 1 4 3 
3 0 5 1 
3 3 2 1 
3 0 4 6 
3 5 0 6 
3 1 6 4 
3 0 2 4 
3 1 5 6 
3 7 8 9 
3 8 10 9 
3 11 12 13 
3 12 14 10 
3 13 12 15 
3 15 11 13 
3 16 17 18 
3 15 19 16 
3 20 18 21 
3 20 22 16 
3 16 23 14 
3 24 23 22 
3 25 22 26 
3 26 22 18 
3 18 25 26 
3 17 27 28 
3 18 17 28 
3 28 29 30 
3 30 24 28 
3 29 24 30 
3 27 23 24 
3 31 32 27 
3 31 33 34 
3 35 36 33 
3 35 33 27 
3 37 36 38 
3 37 32 33 
3 37 39 32 
3 32 40 23 
3 41 39 42 
3 42 39 36 
3 36 41 42 
3 43 44 45 
3 36 35 43 
3 43 46 47 
3 43 47 48 
3 46 48 47 
3 49 40 45 
3 50 49 45 
3 50 51 52 
3 44 53 51 
3 45 44 51 
3 51 54 55 
3 55 49 51 
3 54 49 55 
3 56 10 53 
3 56 7 57 
3 19 15 7 
3 19 7 53 
3 7 9 10 
3 8 15 12 
3 7 15 8 
3 8 12 10 
3 11 16 12 
3 12 16 14 
3 15 16 11 
3 16 19 17 
3 20 16 18 
3 20 21 22 
3 21 18 22 
3 16 22 23 
3 25 24 22 
3 18 28 25 
3 25 28 24 
3 17 35 27 
3 28 27 29 
3 29 27 24 
3 27 32 23 
3 31 34 32 
3 31 27 33 
3 34 33 32 
3 37 33 36 
3 37 38 39 
3 38 36 39 
3 32 39 40 
3 39 48 40 
3 41 48 39 
3 36 43 41 
3 41 43 48 
3 43 35 44 
3 43 45 46 
3 46 45 48 
3 48 45 40 
3 49 14 40 
3 50 52 49 
3 50 45 51 
3 52 51 49 
3 44 19 53 
3 51 53 54 
3 54 53 49 
3 49 53 14 
3 53 10 14 
3 56 57 10 
3 56 53 7 
3 57 7 10 
3 44 35 19 
3 17 19 35 
3 23 40 14 
3 58 59 60 
3 59 61 60 
3 62 63 64 
3 63 65 61 
3 64 63 66 
3 66 62 64 
3 67 68 69 
3 70 69 66 
3 71 68 72 
3 69 71 73 
3 71 74 73 
3 73 75 65 
3 76 75 74 
3 77 74 78 
3 78 74 68 
3 68 77 78 
3 79 67 80 
3 67 79 68 
3 79 81 82 
3 82 76 79 
3 81 76 82 
3 83 75 76 
3 84 85 83 
3 84 83 80 
3 84 86 87 
3 86 88 89 
3 80 88 86 
3 90 89 91 
3 90 85 86 
3 90 92 85 
3 93 92 94 
3 94 92 89 
3 89 93 94 
3 95 96 97 
3 88 97 89 
3 97 98 99 
3 97 99 100 
3 98 100 99 
3 101 102 100 
3 103 104 101 
3 105 103 101 
3 96 105 101 
3 105 106 107 
3 106 95 108 
3 95 106 96 
3 106 109 110 
3 110 103 106 
3 109 103 110 
3 103 65 104 
3 111 61 112 
3 111 112 108 
3 111 58 113 
3 58 70 66 
3 108 70 58 
3 58 60 61 
3 95 88 67 
3 104 65 75 
3 59 66 63 
3 58 66 59 
3 59 63 61 
3 62 73 63 
3 63 73 65 
3 66 69 62 
3 62 69 73 
3 70 67 69 
3 71 69 68 
3 71 72 74 
3 72 68 74 
3 73 74 75 
3 77 76 74 
3 68 79 77 
3 77 79 76 
3 79 80 81 
3 81 83 76 
3 81 80 83 
3 83 102 75 
3 83 85 102 
3 84 87 85 
3 84 80 86 
3 87 86 85 
3 80 67 88 
3 90 86 89 
3 90 91 92 
3 91 89 92 
3 85 92 102 
3 92 100 102 
3 93 100 92 
3 89 97 93 
3 93 97 100 
3 88 95 97 
3 97 96 98 
3 98 101 100 
3 98 96 101 
3 101 104 102 
3 105 107 103 
3 105 96 106 
3 107 106 103 
3 106 108 109 
3 109 112 103 
3 109 108 112 
3 103 112 65 
3 112 61 65 
3 111 113 61 
3 111 108 58 
3 113 58 61 
3 108 95 70 
3 67 70 95 
3 75 102 104 
3 114 115 116 
3 115 117 116 
3 118 119 120 
3 119 121 117 
3 120 119 122 
3 122 118 120 
3 123 124 125 
3 123 125 122 
3 126 124 127 
3 125 126 128 
3 126 129 128 
3 128 130 121 
3 131 130 129 
3 132 129 133 
3 133 129 124 
3 124 132 133 
3 134 135 136 
3 135 134 124 
3 134 137 138 
3 138 131 134 
3 137 131 138 
3 139 130 131 
3 140 141 139 
3 140 139 136 
3 140 142 143 
3 142 144 145 
3 136 135 142 
3 146 145 147 
3 146 141 142 
3 146 148 141 
3 149 148 150 
3 150 148 145 
3 145 149 150 
3 144 151 152 
3 144 152 145 
3 152 153 154 
3 152 154 155 
3 153 155 154 
3 156 157 155 
3 158 159 156 
3 160 158 156 
3 151 160 156 
3 160 161 162 
3 161 163 164 
3 163 161 151 
3 161 165 166 
3 166 158 161 
3 165 158 166 
3 158 121 159 
3 167 117 168 
3 167 168 164 
3 167 114 169 
3 114 123 122 
3 164 163 114 
3 114 116 117 
3 163 144 135 
3 115 122 119 
3 114 122 115 
3 115 119 117 
3 118 128 119 
3 119 128 121 
3 122 125 118 
3 118 125 128 
3 123 135 124 
3 126 125 124 
3 126 127 129 
3 127 124 129 
3 128 129 130 
3 132 131 129 
3 124 134 132 
3 132 134 131 
3 134 136 137 
3 137 139 131 
3 137 136 139 
3 139 157 130 
3 139 141 157 
3 140 143 141 
3 140 136 142 
3 143 142 141 
3 142 135 144 
3 146 142 145 
3 146 147 148 
3 147 145 148 
3 141 148 157 
3 148 155 157 
3 149 155 148 
3 145 152 149 
3 149 152 155 
3 144 163 151 
3 152 151 153 
3 153 156 155 
3 153 151 156 
3 156 159 157 
3 160 162 158 
3 160 151 161 
3 162 161 158 
3 161 164 165 
3 165 168 158 
3 165 164 168 
3 158 168 121 
3 168 117 121 
3 167 169 117 
3 167 164 114 
3 169 114 117 
3 114 163 123 
3 135 123 163 
3 130 157 159 
3 159 121 130 
3 170 171 172 
3 171 173 172 
3 174 175 176 
3 175 177 178 
3 173 175 178 
3 176 175 179 
3 179 174 176 
3 180 181 182 
3 179 181 180 
3 183 182 184 
3 180 185 177 
3 184 185 183 
3 185 186 177 
3 177 186 178 
3 186 187 178 
3 188 186 189 
3 189 186 182 
3 182 188 189 
3 190 181 191 
3 182 181 190 
3 190 192 193 
3 193 187 190 
3 192 187 193 
3 187 194 178 
3 194 195 178 
3 196 195 194 
3 196 194 191 
3 196 197 198 
3 197 181 199 
3 191 181 197 
3 200 199 201 
3 200 195 197 
3 201 202 200 
3 202 203 195 
3 195 203 178 
3 203 204 178 
3 205 203 206 
3 206 203 199 
3 199 205 206 
3 207 181 208 
3 199 181 207 
3 207 209 210 
3 207 210 204 
3 209 204 210 
3 204 211 178 
3 211 212 178 
3 213 212 211 
3 208 213 211 
3 213 214 215 
3 214 181 216 
3 208 181 214 
3 214 217 218 
3 218 212 214 
3 217 212 218 
3 212 219 178 
3 219 173 178 
3 220 173 219 
3 221 219 216 
3 222 220 221 
3 221 170 222 
3 170 181 179 
3 216 181 170 
3 170 172 173 
3 171 179 175 
3 170 179 171 
3 171 175 173 
3 174 177 175 
3 179 180 174 
3 174 180 177 
3 183 180 182 
3 180 183 185 
3 185 184 186 
3 184 182 186 
3 188 187 186 
3 182 190 188 
3 188 190 187 
3 190 191 192 
3 192 194 187 
3 191 194 192 
3 196 198 195 
3 196 191 197 
3 198 197 195 
3 200 197 199 
3 200 202 195 
3 202 201 203 
3 201 199 203 
3 205 204 203 
3 199 207 205 
3 205 207 204 
3 207 208 209 
3 209 211 204 
3 209 208 211 
3 213 215 212 
3 213 208 214 
3 215 214 212 
3 214 216 217 
3 217 219 212 
3 217 216 219 
3 220 222 173 
3 221 220 219 
3 221 216 170 
3 222 170 173 
