ply
format ascii 1.0
comment VCGLIB generated
comment TextureFile dummy.png
element vertex 212
property float x
property float y
property float z
property float nx
property float ny
property float nz
property float texture_u
property float texture_v
element face 416
property list uchar int vertex_indices
end_header
-0.1464427 2.031013 -0.1443761 0.1285064 0.9915213 0.0192792 0.07694429 0.9880823
-0.07894827 2.038832 0.02848508 0.04587938 0.9702309 -0.2377962 0.07740913 0.9880944
0.06685578 1.995198 -0.03137208 0.2367213 0.8686921 0.4351288 0.07843236 0.9878576
0.06328055 1.745389 -0.2805684 0.4133536 -0.1419626 -0.8994362 0.07839091 0.9860697
-0.2207704 1.957437 -0.2932552 0.2415949 0.1593337 -0.9572067 0.07642753 0.9875643
0.07268587 1.976087 -0.2297888 0.03476613 0.5711408 -0.8201156 0.07847324 0.9876599
-0.2165285 1.849014 -0.2854749 -0.2151253 -0.2517826 -0.9435712 0.07642064 0.9867443
-0.02953785 1.584458 -0.2732366 0.2043373 -0.08258224 -0.9754109 0.07778648 0.9849226
-0.1902668 2.020977 -0.2455142 0.3771332 0.7197052 -0.5829192 0.07667085 0.988056
0.0831132 2.023097 -0.1350038 -0.1624848 0.9832441 -0.08264289 0.07853144 0.9880307
-0.2071244 1.915821 0.05711448 -0.9225969 0.07757473 0.3778851 0.07644961 0.9872955
-0.306263 1.85203 -0.0980716 -0.8780695 -0.2913983 0.3795799 0.07584664 0.9868171
-0.1690364 1.842086 0.1129031 -0.7014863 -0.3919142 0.595248 0.07676421 0.9866874
0.1910497 1.800122 -0.1347925 0.7224601 -0.6848394 -0.09511323 0.0793073 0.9864112
0.1704679 1.814278 -0.04775063 0.641113 -0.4469706 0.623852 0.07917099 0.9865175
0.07570995 1.563313 -0.07910211 0.9327133 -0.1797906 0.312604 0.07855824 0.9847656
-0.09981421 2.742976 0.8695262 -0.3432088 0.9373102 -0.06047599 0.07729789 0.9928837
-0.1238237 2.68986 0.9130414 -0.7275985 0.1774155 0.6626644 0.07714467 0.9926183
-0.05037738 2.677429 0.9294866 0.405763 0.01437302 0.9138653 0.07758811 0.9925491
-0.02994808 2.721505 0.8705822 0.7366764 0.6762245 -0.005320461 0.07770259 0.9928145
-0.1183928 1.562431 0.022809 -0.3192025 -0.1724304 0.9318678 0.07714471 0.9847623
-0.0001760788 1.573234 0.007761303 0.4866417 -0.1758153 0.8557271 0.07797486 0.9848417
-0.08053357 1.819915 0.1359603 -0.03246505 -0.6206591 0.7834082 0.07742 0.9865111
0.0090122 1.841623 0.120836 0.6233614 -0.4117896 0.6647179 0.07806651 0.9866771
-0.8012109 2.585518 -0.4006454 -0.4862522 0.7932905 0.3664001 0.07243022 0.9918557
-0.8002416 2.541163 -0.479414 -0.4745467 0.1398025 -0.8690574 0.07240529 0.9916005
-0.8362818 2.529438 -0.4213192 -0.9956753 -0.03474145 0.08616155 0.07218902 0.9915206
1.048743 3.176013 -0.02359859 -0.5356877 0.7455209 0.3965317 0.08532051 0.9959232
1.111401 3.149833 0.001288962 0.4421917 0.4102022 0.7976219 0.08568691 0.9958137
1.136057 3.154379 -0.07044715 0.8089141 0.5014718 -0.3068941 0.08582728 0.9958423
1.065238 3.166887 -0.09384358 -0.2777686 0.675562 -0.6829792 0.0853988 0.9959177
0.1540844 1.912601 -0.2421054 0.1509293 0.02497768 -0.988229 0.07903375 0.9872144
0.1927657 1.836318 -0.2061041 0.5176762 -0.5475851 -0.6573904 0.07934614 0.9866406
0.05926557 1.569671 -0.1967918 0.8460334 -0.1788545 -0.5022337 0.07843713 0.9848163
-0.2227551 0.003866967 -0.08729562 -0.7317777 -0.6411216 -0.2312238 0.07630698 0.9744745
0.08862742 0.00025281 0.1782861 0.370383 -0.5790319 0.7263185 0.07856937 0.9747508
-0.1966632 0.001827264 0.08156957 -0.6826466 -0.6351177 0.3614129 0.07661506 0.9745017
0.05553612 0.003819963 -0.2327638 0.2280577 -0.6408163 -0.7330377 0.0783996 0.9744743
-0.1038306 0.003752903 -0.1988238 -0.3337462 -0.6931767 -0.6388423 0.07723843 0.974252
-0.07754427 0.0003391177 0.204397 -0.2397242 -0.5664449 0.7884621 0.07738675 0.9748788
0.1337461 1.90184 -0.008649905 0.4297512 0.08433571 0.8990002 0.07889198 0.9871393
0.04427768 1.916404 0.07956789 0.8897289 0.1116715 0.4426194 0.07826822 0.9872409
-0.3009274 1.845337 -0.2247329 -0.7029005 -0.5964106 -0.3875889 0.07586156 0.9867454
-0.2237693 1.614018 -0.1567528 -0.9587613 -0.1839899 -0.2166209 0.07633736 0.9851154
-0.1769242 1.65604 -0.2433528 -0.5489687 -0.2113973 -0.8086684 0.07666598 0.9853944
-0.2065185 1.579674 -0.05866318 -0.8842731 -0.1319601 0.4479371 0.07647897 0.9848869
-0.04355974 2.115 0.553913 0.39439 -0.6096398 0.6876014 0.07761703 0.9886422
-0.1637966 2.213639 0.486625 -0.9522403 0.2661923 -0.1495998 0.07689384 0.9891443
-0.1416365 2.109365 0.5136166 -0.6728907 -0.5217177 0.5244319 0.07697484 0.9886127
-0.0778582 2.235032 0.4286428 -0.0008209326 0.811061 -0.5849611 0.07742383 0.9895048
0.009883139 2.203126 0.4747193 0.972688 0.2163089 -0.08419408 0.07795271 0.9891577
0.005115145 2.03359 0.09885583 0.6962172 0.6928616 -0.1876821 0.0779952 0.9880579
-0.1802441 2.007908 0.00136981 -0.5513318 0.817718 0.1654409 0.07661943 0.9879529
1.09079 2.724112 -0.05840446 0.8541694 -0.3270895 0.4042364 0.08547345 0.9928581
1.056955 2.720435 -0.1576319 0.5265695 -0.1433686 -0.8379559 0.0852999 0.9928828
1.001106 2.764522 -0.0249883 -0.346734 0.08680179 0.9339384 0.08491528 0.9930453
0.9649976 2.765375 -0.1268356 -0.7459886 0.4049987 -0.5286559 0.08475369 0.9931668
0.6362399 2.052153 -0.1268634 0.6837627 -0.7265707 -0.06755456 0.08233759 0.9882427
0.6102372 2.093137 -0.2128483 0.3806391 -0.321794 -0.8669271 0.08212864 0.9884722
0.5757632 2.118168 -0.03173723 0.06654099 -0.03829467 0.9970486 0.08197357 0.9886475
0.604833 2.05984 -0.05643731 0.4771711 -0.5677174 0.6708239 0.08213953 0.9882759
0.5174059 2.196249 -0.1253461 -0.601756 0.7986796 0.000840537 0.08152924 0.9892311
0.5329506 2.172541 -0.05753975 -0.4018971 0.5255234 0.7498692 0.0816751 0.9890266
0.5359939 2.174391 -0.1941159 -0.295157 0.4885302 -0.8211094 0.08169632 0.9890395
-0.5756087 2.098637 -0.2852577 -0.8301415 -0.5313494 0.1689169 0.07412048 0.9884033
-0.4768869 2.189939 -0.3641578 0.5611455 0.2716869 -0.781858 0.07470811 0.9890112
-0.5082639 2.085463 -0.3574935 -0.2790624 -0.4813496 -0.8309192 0.07441609 0.9884195
-0.7472647 2.570595 -0.4673298 0.3647412 0.6761037 -0.6401935 0.07275347 0.9917749
-0.4350445 2.175617 -0.2670367 0.520702 0.8215288 0.2322928 0.07492654 0.9890481
-0.5313873 2.190573 -0.2298214 -0.2182619 0.267841 0.9384152 0.07445686 0.9890474
-0.3208269 2.056945 -0.1431694 -0.05774007 0.6649108 0.7446877 0.07572283 0.9882207
-0.3083351 1.957866 -0.09557659 -0.6482531 0.1374945 0.748908 0.07580991 0.9875299
-0.1539809 0.8326333 -0.2929052 -0.4644501 -0.02380472 -0.8852794 0.07688601 0.9796852
-0.2554761 0.7896873 -0.1817183 -0.9452079 -0.02859245 -0.3252146 0.07617845 0.9793858
0.1251529 0.8230203 -0.06256914 0.9530751 0.1025738 0.2848271 0.07883205 0.9796181
0.1078713 0.8084278 -0.212303 0.8783907 0.04506753 -0.4758139 0.07871158 0.9795164
-0.004582423 0.7935761 -0.313096 0.2744893 -0.02157898 -0.961348 0.07792757 0.9794129
0.02368255 0.827751 0.04846344 0.4570566 0.1204719 0.8812411 0.07812466 0.9796512
-0.2365343 0.8072959 -0.03193805 -0.8915863 0.03425565 0.4515535 0.0763105 0.9795085
-0.1242327 0.8117397 0.06865487 -0.312379 0.09671373 0.9450216 0.07709344 0.9795395
0.1793309 0.001804691 -0.1148653 0.6869025 -0.6345514 -0.3542734 0.07919861 0.9745016
0.2122247 0.000304059 0.05298084 0.7829975 -0.5665367 0.2568094 0.0794697 0.9748787
-0.7550806 2.575081 -0.384515 0.2609225 0.7548137 0.6018105 0.07271181 0.9917694
-1.024105 4.561768 -0.5378196 -0.5395933 0.8264638 -0.1606133 0.1359625 0.8312484
-0.696221 4.605392 -0.9881646 -0.3296305 0.8961643 -0.2970411 0.1375861 0.8314644
-0.9106225 4.426139 -1.157819 -0.5489317 0.7229488 -0.4195462 0.1365245 0.8305768
-0.2208755 4.155944 -1.653621 0.009778135 0.3681035 -0.9297334 0.1399399 0.8292389
-0.5524837 3.942631 -1.663365 -0.2153825 0.1252646 -0.9684623 0.1382979 0.8281826
-0.7572446 4.229882 -1.536173 -0.4112369 0.4547218 -0.7900079 0.137284 0.829605
-1.505691 2.561625 -0.1651804 -0.4923651 -0.8685181 0.05703463 0.1335779 0.8213444
-1.9913 2.92872 -0.3275004 -0.9714403 -0.2114428 0.1076833 0.1311733 0.8231621
-1.718852 2.589005 -0.4156623 -0.5252025 -0.84217 0.1221151 0.1325224 0.8214799
0.4978496 3.166651 -1.432316 0.07879528 -0.5553796 -0.8278556 0.1434988 0.8243402
-0.1206754 3.258907 -1.628135 0.1022956 -0.4882156 -0.8667071 0.1404361 0.824797
0.194307 3.648206 -1.67114 0.1813617 -0.06713547 -0.9811223 0.1419957 0.8267248
-1.075118 4.125138 -1.292663 -0.7123463 0.3975787 -0.5783546 0.13571 0.8290863
-1.356671 4.105425 -0.8003336 -0.7953795 0.4996493 -0.3431065 0.1343158 0.8289887
-1.644834 3.757321 -0.488037 -0.8685385 0.4164775 -0.2686771 0.1328889 0.827265
-1.891147 3.283963 -0.1091094 -0.9540726 0.2041676 0.2192284 0.1316693 0.8249211
-1.682139 3.888906 0.002772637 -0.907617 0.3916725 0.151077 0.1327042 0.8279166
1.009396 3.398058 -1.474425 0.3370425 -0.1169816 -0.9341936 0.1460318 0.8254861
0.549365 3.64384 -1.56603 0.2262544 -0.0772303 -0.9710018 0.1437539 0.8267031
0.5994577 4.265505 -1.501759 0.3195252 0.4399994 -0.8392283 0.1440019 0.8297814
-1.926775 3.01616 -0.6842344 -0.9100575 0.08023363 -0.4066422 0.1314928 0.823595
-1.448967 3.588629 -1.008958 -0.790833 0.3018363 -0.5324265 0.1338588 0.8264297
-1.227001 3.304958 -1.388659 -0.642991 0.06349054 -0.7632375 0.1349579 0.8250251
-0.00443387 2.76273 -0.7737688 0.2447207 -0.9649484 -0.09479641 0.1410116 0.8223401
0.2505012 2.918391 -1.111926 0.01881655 -0.8798981 -0.4747898 0.142274 0.8231109
0.3489835 2.765621 -0.6052355 -0.2148274 -0.9649862 -0.1505021 0.1427616 0.8223544
1.008516 2.542812 -0.7803051 -0.00926056 -0.8954492 -0.4450676 0.1460274 0.8212512
0.9237782 2.781126 -1.107849 0.052185 -0.7671348 -0.6393598 0.1456078 0.8224312
1.330707 2.806395 -0.8941466 0.6577528 -0.5877151 -0.4711182 0.1476228 0.8225564
-0.1634508 2.79986 -0.4290288 0.366477 -0.9221669 0.1237045 0.1402242 0.822524
-0.6893898 2.312965 -0.2139939 0.3260198 -0.9340042 0.1461072 0.13762 0.8201131
-0.4826566 2.410425 -0.8386683 0.4813935 -0.8548808 -0.1934921 0.1386436 0.8205956
-0.1795611 2.938302 -1.350517 0.3150017 -0.6927143 -0.6487841 0.1401445 0.8232095
-0.2591623 2.626232 -0.8841988 0.6015335 -0.778088 -0.1809327 0.1397503 0.8216642
-0.8010125 2.353782 -0.8901373 -0.0176328 -0.9393286 -0.3425653 0.1370672 0.8203151
-0.8084433 2.679061 -1.383619 -0.08013239 -0.6336352 -0.7694709 0.1370305 0.8219259
-0.5474422 2.660657 -1.307183 0.3067624 -0.6981658 -0.6468859 0.1383228 0.8218347
-0.1195383 4.950954 -0.520067 -0.2131958 0.969586 -0.1202109 0.1404417 0.8331755
0.04192948 4.703026 -1.159509 -0.01368481 0.8311972 -0.5558093 0.1412412 0.8319478
-0.3028779 4.698836 -0.9943473 -0.2494794 0.904012 -0.3471633 0.1395338 0.8319271
1.725054 3.704244 -0.4790939 0.936012 0.08701886 -0.3410416 0.1496163 0.826919
1.270235 3.889226 -1.202752 0.7029185 0.2703594 -0.6578841 0.1473234 0.8279182
1.613056 4.28921 -0.2955135 0.8703756 0.4779273 -0.1184561 0.1490209 0.8298987
-0.4732091 4.72506 -0.6141288 -0.3499862 0.9221713 -0.1646508 0.1386904 0.832057
1.789559 3.865364 0.03519255 0.949805 0.2454352 0.19399 0.1498949 0.8278
1.771176 3.392734 -0.1941213 0.9831727 -0.1314487 -0.126857 0.1498039 0.8254597
-1.427625 2.499693 0.2442017 -0.4206544 -0.8183789 0.3915429 0.1339645 0.8210377
-1.606373 2.751787 0.3826663 -0.750446 -0.4180956 0.5118856 0.1330793 0.8222859
-0.1443694 2.821497 -0.08609603 0.1280784 -0.9747921 -0.182692 0.1403187 0.8226311
0.1385405 2.809318 -0.283481 -0.2113801 -0.9706226 -0.1149364 0.1417196 0.8225708
0.2144101 2.549088 0.318192 0.04933358 -0.9794881 -0.1953698 0.1420953 0.8212823
-0.8380874 3.282863 -1.604724 -0.2982299 -0.1200482 -0.9469147 0.1368837 0.8249156
-1.087151 3.033587 -1.472617 -0.4548735 -0.252961 -0.853874 0.1356504 0.8236814
-1.340909 2.659899 -1.10693 -0.4571693 -0.6048577 -0.6520302 0.1343939 0.821831
-0.4637976 3.377328 -1.688132 -0.03748343 -0.2163066 -0.9756057 0.138737 0.8253834
-0.6690887 4.763949 -0.01622169 -0.3827227 0.922742 -0.04550327 0.1377205 0.8322495
1.128021 4.59632 -0.7971533 0.5386888 0.6814053 -0.4954809 0.1466192 0.8314195
0.6926506 4.851564 -0.5220146 0.1813795 0.9726331 -0.1452112 0.1444634 0.8326833
0.9737546 4.846368 -0.3580948 0.2792742 0.9601794 -0.007839368 0.1458553 0.8326576
1.26477 3.15506 -1.311954 0.5830948 -0.3102897 -0.7508134 0.1472963 0.8242829
1.440456 3.090234 -0.9563653 0.8814567 -0.2705927 -0.3870578 0.1481663 0.8239619
0.02206659 2.424896 1.170972 0.3795054 -0.8696163 0.3158214 0.1411429 0.8206673
0.4967251 2.656285 0.5340133 0.1968929 -0.9593533 0.2021743 0.1434932 0.8218131
0.4296845 2.777884 1.177183 0.6737797 -0.4941401 0.5494057 0.1431613 0.8224151
-1.36513 4.33188 -0.2188717 -0.716809 0.693812 -0.06935299 0.1342739 0.8301101
-0.3898591 3.523194 1.169172 -0.1499342 0.3626004 0.9198047 0.1391031 0.8261057
-0.7706029 2.891653 1.208539 -0.6417248 0.006862563 0.7669043 0.1372918 0.8230255
-0.387625 2.827749 1.44632 -0.3043682 0.06032899 0.9506421 0.1391142 0.8226621
-1.168117 3.791351 0.6348747 -0.5942191 0.1234517 0.7947725 0.1352495 0.8274336
-1.091287 2.906035 0.8076781 -0.6425584 -0.2062165 0.7379658 0.1356299 0.8230498
-0.8838888 2.509076 0.4635977 0.0597216 -0.9522772 0.2993352 0.1368471 0.8210748
-0.4572533 2.630229 0.1493625 0.496865 -0.8668978 0.04016808 0.1387694 0.821684
-0.5510374 2.518464 0.5576885 -0.09217117 -0.9683065 -0.232136 0.138305 0.8211306
-0.1296905 2.374782 0.7602677 0.08977484 -0.9807178 -0.1735889 0.1403914 0.8204192
-0.5872799 4.800834 0.4752853 -0.2164246 0.9028066 0.371619 0.1381256 0.8324322
-1.34497 4.049 0.4796838 -0.6447701 0.4033775 0.6492751 0.1343738 0.8287094
-0.9266835 4.140383 0.7848998 -0.5811716 0.3228948 0.7469796 0.136445 0.8291618
-1.415121 4.23877 0.1349566 -0.6946833 0.6787965 0.2380138 0.1340264 0.829649
0.4008167 4.527519 -1.307791 0.1839365 0.7346823 -0.6530002 0.1430183 0.8310788
-0.04168034 3.186831 1.421261 0.06909619 0.3611281 0.9299529 0.1408272 0.8244401
0.03766763 2.648661 1.436224 0.2972378 -0.4050348 0.8646367 0.1412201 0.8217753
0.2491087 2.933489 1.402004 0.4761586 0.02628158 0.8789666 0.1422671 0.8231857
0.4693429 4.26467 0.642148 0.2992063 0.5309281 0.7928373 0.1433576 0.8297772
-0.1938387 4.574524 0.6788648 0.2084684 0.66592 0.7163041 0.1400738 0.8313116
0.1081957 3.659909 1.040085 0.2307332 0.4723979 0.8506482 0.1414957 0.8267834
-0.4990486 2.424099 0.8713245 -0.331746 -0.9408644 -0.06869441 0.1385625 0.8206633
-0.9213785 2.610378 0.6879957 -0.3859205 -0.8252458 0.4123527 0.1364712 0.8215858
0.6660993 2.664386 -0.6592048 -0.3393257 -0.8999024 -0.2739229 0.1443319 0.8218532
-1.613674 3.296761 0.3861218 -0.8002794 0.1146326 0.5885681 0.1330432 0.8249844
-1.467883 2.947166 0.5927017 -0.6425654 -0.08423547 0.7615865 0.1337651 0.8232534
-1.065889 2.323549 -0.490912 -0.2397335 -0.9691979 -0.05642134 0.1357557 0.8201655
-1.192129 2.420599 0.2398583 -0.2272557 -0.9329693 0.2791474 0.1351306 0.820646
-0.4831103 4.469112 -1.39569 -0.1692259 0.7566061 -0.631593 0.1386414 0.8307896
-0.702461 4.57121 0.7083387 -0.3519094 0.623786 0.6978903 0.1375552 0.8312951
-0.5683281 4.114271 0.9853553 -0.1420626 0.3704534 0.917923 0.1382194 0.8290325
0.6011133 2.557155 -0.08928713 -0.3015417 -0.9488809 -0.09326209 0.1440101 0.8213222
0.6862848 4.392703 0.42024 0.2338338 0.6759619 0.6988543 0.1444318 0.8304112
-0.7433534 3.524867 1.0543 -0.4682395 0.21248 0.8576736 0.1373528 0.8261139
1.561899 3.869378 0.4122779 0.677644 0.3645499 0.6386721 0.1487676 0.8278199
1.429759 4.386594 0.0375448 0.6600066 0.6208708 0.4229784 0.1481133 0.8303809
0.3365563 4.892799 -0.7416045 0.1400909 0.9466365 -0.2902654 0.1427001 0.8328875
-1.824324 2.733077 -0.7456746 -0.7399759 -0.5170377 -0.4302414 0.1320001 0.8221933
0.6709431 3.153347 0.9831962 0.4737293 0.1348921 0.8702785 0.1443559 0.8242743
-1.56881 2.82994 -1.022865 -0.6253135 -0.3019073 -0.7196075 0.1332654 0.822673
-1.501284 2.556964 -0.816597 -0.4403033 -0.825979 -0.3519824 0.1335997 0.8213212
0.7175143 2.753909 0.7168595 0.2144905 -0.8374062 0.5027372 0.1445865 0.8222965
-0.6346602 2.566598 1.23774 -0.6367728 -0.5320938 0.5580292 0.137891 0.8213689
-0.3407794 2.540054 1.418243 -0.1722363 -0.4619238 0.8700351 0.1393462 0.8212376
0.1886249 4.797013 0.07147636 0.1714178 0.8976578 0.4059883 0.1419676 0.8324132
-0.2810044 4.862098 -0.1335514 -0.2010258 0.9770759 0.07008161 0.1396421 0.8327355
0.7867686 2.990009 0.9203829 0.4209119 -0.3120743 0.8517293 0.1449294 0.8234656
-1.492798 4.079084 0.293598 -0.7781435 0.3648045 0.5112831 0.1336417 0.8288583
-0.3849338 2.370142 1.23969 -0.2182507 -0.9014933 0.3737334 0.1391275 0.8203962
0.500466 3.624778 0.9087672 0.3110662 0.3622735 0.8786329 0.1435117 0.8266087
-1.282752 2.660309 0.5971489 -0.4285533 -0.6158648 0.6610996 0.1346818 0.821833
1.351243 3.365555 0.7573825 0.5036473 0.1643217 0.8481379 0.1477245 0.8253251
1.043442 3.828866 0.7245862 0.308856 0.3949713 0.86522 0.1462004 0.8276193
1.319143 2.908687 0.8002261 0.4065685 -0.400809 0.8210081 0.1475656 0.8230629
1.631568 2.850166 -0.1876373 0.8630069 -0.4504639 -0.2286952 0.1491126 0.8227731
1.710797 2.836879 0.2871952 0.8669021 -0.4474219 0.2197599 0.1495049 0.8227073
1.636498 2.954312 0.516243 0.802729 -0.2414441 0.5452806 0.149137 0.8232888
0.9149289 2.426625 -0.01544819 -0.2483177 -0.9611998 0.1201387 0.145564 0.8206758
1.132233 2.439702 0.2184355 0.148102 -0.9437953 0.2954934 0.14664 0.8207406
1.251865 2.469661 -0.4312815 0.4084712 -0.8860483 -0.2192479 0.1472324 0.820889
1.378296 2.536523 0.09303247 0.5650463 -0.8187149 0.1021213 0.1478584 0.82122
1.097042 4.426019 0.3148986 0.345102 0.6355059 0.6906785 0.1464658 0.8305762
1.353086 4.645783 -0.3439585 0.6667491 0.7439389 -0.04472887 0.1477336 0.8316644
1.016711 4.673443 0.06845815 0.3071087 0.8103851 0.4989593 0.146068 0.8318014
0.02956033 4.928843 -0.1727299 0.01939574 0.9601698 0.2787432 0.14118 0.833066
3 0 1 2 
3 3 4 5 
3 6 3 7 
3 4 8 5 
3 9 0 2 
3 10 11 12 
3 13 14 15 
3 16 17 18 
3 16 18 19 
3 20 21 22 
3 23 21 15 
3 24 25 26 
3 27 28 29 
3 27 29 30 
3 22 12 20 
3 31 3 5 
3 32 3 31 
3 13 3 32 
3 33 13 15 
3 34 35 36 
3 37 35 38 
3 35 39 36 
3 40 41 14 
3 14 23 15 
3 42 43 11 
3 6 44 42 
3 45 20 12 
3 17 46 18 
3 16 47 17 
3 17 47 48 
3 19 49 16 
3 16 49 47 
3 18 50 19 
3 51 41 2 
3 48 22 46 
3 46 22 23 
3 47 12 48 
3 49 51 1 
3 47 1 52 
3 50 23 41 
3 50 41 51 
3 28 53 29 
3 29 53 54 
3 27 55 28 
3 28 55 53 
3 30 56 27 
3 27 56 55 
3 29 54 30 
3 30 54 56 
3 54 57 58 
3 53 59 60 
3 55 61 62 
3 56 58 63 
3 58 57 32 
3 60 13 57 
3 62 40 59 
3 59 14 60 
3 61 63 9 
3 9 2 62 
3 58 32 31 
3 63 31 5 
3 25 64 26 
3 25 65 66 
3 67 68 65 
3 26 69 24 
3 64 42 11 
3 66 42 64 
3 4 6 66 
3 70 0 68 
3 70 71 52 
3 68 8 65 
3 69 64 71 
3 7 72 44 
3 72 73 43 
3 33 74 75 
3 7 75 76 
3 20 77 21 
3 15 77 74 
3 43 78 45 
3 45 79 20 
3 76 38 72 
3 73 38 34 
3 74 80 75 
3 75 37 76 
3 79 35 77 
3 77 81 74 
3 78 34 36 
3 79 36 39 
3 52 1 0 
3 6 4 3 
3 0 9 8 
3 5 8 9 
3 52 71 10 
3 11 10 71 
3 22 21 23 
3 67 25 24 
3 13 33 3 
3 7 3 33 
3 34 38 35 
3 37 80 35 
3 35 80 81 
3 40 2 41 
3 14 41 23 
3 42 44 43 
3 6 7 44 
3 43 45 11 
3 11 45 12 
3 17 48 46 
3 19 50 49 
3 18 46 50 
3 51 2 1 
3 48 12 22 
3 47 52 10 
3 47 10 12 
3 49 50 51 
3 47 49 1 
3 50 46 23 
3 53 60 57 
3 54 53 57 
3 55 62 59 
3 53 55 59 
3 56 63 61 
3 55 56 61 
3 56 54 58 
3 60 14 13 
3 32 57 13 
3 62 2 40 
3 59 40 14 
3 61 9 62 
3 9 63 5 
3 63 58 31 
3 25 66 64 
3 25 67 65 
3 82 69 68 
3 67 82 68 
3 26 64 69 
3 82 24 69 
3 67 24 82 
3 66 6 42 
3 68 0 8 
3 70 52 0 
3 71 64 11 
3 65 4 66 
3 65 8 4 
3 68 69 70 
3 70 69 71 
3 43 44 72 
3 72 7 76 
3 33 15 74 
3 7 33 75 
3 20 79 77 
3 15 21 77 
3 43 73 78 
3 45 78 79 
3 76 37 38 
3 73 72 38 
3 74 81 80 
3 75 80 37 
3 79 39 35 
3 77 35 81 
3 78 73 34 
3 79 78 36 
3 83 84 85 
3 86 87 88 
3 89 90 91 
3 92 93 94 
3 95 96 85 
3 97 98 99 
3 100 101 102 
3 103 104 105 
3 106 107 108 
3 109 110 111 
3 112 113 114 
3 115 106 116 
3 117 118 119 
3 96 95 104 
3 120 121 122 
3 123 124 125 
3 120 122 126 
3 123 127 128 
3 90 129 130 
3 95 105 104 
3 131 132 133 
3 105 134 135 
3 135 118 136 
3 93 137 94 
3 84 138 126 
3 137 93 115 
3 139 140 141 
3 84 126 122 
3 142 123 143 
3 144 145 146 
3 88 95 85 
3 147 96 97 
3 148 149 150 
3 149 151 152 
3 153 154 155 
3 155 133 156 
3 137 87 86 
3 104 103 97 
3 98 90 130 
3 83 147 157 
3 158 159 160 
3 121 161 86 
3 162 163 164 
3 165 166 167 
3 168 169 155 
3 107 170 108 
3 171 130 172 
3 173 174 89 
3 133 144 156 
3 154 131 155 
3 175 88 85 
3 166 176 177 
3 154 112 131 
3 105 88 87 
3 178 108 170 
3 167 166 177 
3 166 165 179 
3 102 101 94 
3 97 103 98 
3 180 149 148 
3 181 127 182 
3 84 175 85 
3 158 171 172 
3 121 120 183 
3 162 167 148 
3 119 114 117 
3 183 161 121 
3 96 104 97 
3 184 90 103 
3 185 164 146 
3 186 136 187 
3 187 173 89 
3 89 91 187 
3 97 99 147 
3 105 136 186 
3 136 117 187 
3 93 107 115 
3 184 186 187 
3 186 103 105 
3 105 95 88 
3 134 137 135 
3 85 96 147 
3 174 173 113 
3 118 135 137 
3 119 116 114 
3 134 105 87 
3 113 173 117 
3 173 187 117 
3 148 150 162 
3 187 91 184 
3 90 184 91 
3 158 151 159 
3 118 117 136 
3 146 145 188 
3 106 115 107 
3 130 171 98 
3 189 190 150 
3 122 175 84 
3 129 90 89 
3 117 114 113 
3 163 146 164 
3 157 166 191 
3 129 174 130 
3 169 153 155 
3 192 126 138 
3 113 154 153 
3 83 85 147 
3 98 103 90 
3 180 151 149 
3 112 114 116 
3 174 153 169 
3 153 174 113 
3 189 152 169 
3 148 177 180 
3 191 166 179 
3 151 180 159 
3 146 188 193 
3 167 177 148 
3 194 158 160 
3 176 166 157 
3 99 194 160 
3 86 102 94 
3 163 190 195 
3 132 178 133 
3 149 189 150 
3 151 158 172 
3 164 196 162 
3 190 163 150 
3 190 189 195 
3 169 197 174 
3 152 189 149 
3 163 162 150 
3 146 163 144 
3 196 164 185 
3 107 93 92 
3 171 158 99 
3 131 133 155 
3 132 131 112 
3 145 144 133 
3 136 105 135 
3 137 115 119 
3 113 112 154 
3 138 83 157 
3 137 134 87 
3 116 106 112 
3 99 160 147 
3 159 176 160 
3 119 115 116 
3 119 118 137 
3 197 172 130 
3 197 169 152 
3 103 186 184 
3 84 83 138 
3 171 99 98 
3 157 147 160 
3 177 176 159 
3 130 174 197 
3 194 99 158 
3 156 168 155 
3 172 197 152 
3 172 152 151 
3 89 174 129 
3 195 189 168 
3 195 144 163 
3 156 195 168 
3 157 192 138 
3 132 108 178 
3 157 191 192 
3 168 189 169 
3 112 106 132 
3 165 167 196 
3 193 198 185 
3 185 199 196 
3 198 193 200 
3 201 128 202 
3 145 133 178 
3 127 203 128 
3 204 205 178 
3 204 178 109 
3 204 109 206 
3 203 127 181 
3 205 204 206 
3 205 206 207 
3 145 205 188 
3 206 109 111 
3 200 202 203 
3 188 200 193 
3 207 206 201 
3 207 201 202 
3 200 203 198 
3 205 200 188 
3 205 202 200 
3 109 178 170 
3 178 205 145 
3 205 207 202 
3 176 157 160 
3 208 199 181 
3 100 142 92 
3 177 159 180 
3 110 92 142 
3 196 167 162 
3 102 139 124 
3 209 141 210 
3 141 191 210 
3 123 125 127 
3 124 142 100 
3 165 199 179 
3 210 208 182 
3 181 198 203 
3 128 143 123 
3 139 125 124 
3 144 195 156 
3 146 193 185 
3 182 127 125 
3 182 208 181 
3 196 199 165 
3 198 181 199 
3 125 139 209 
3 208 210 179 
3 123 142 124 
3 182 209 210 
3 111 201 206 
3 128 111 143 
3 198 199 185 
3 170 110 109 
3 141 209 139 
3 132 106 108 
3 203 202 128 
3 94 101 92 
3 201 111 128 
3 92 110 107 
3 125 209 182 
3 102 124 100 
3 137 86 94 
3 161 102 86 
3 142 111 110 
3 107 110 170 
3 199 208 179 
3 142 143 111 
3 191 179 210 
3 92 101 100 
3 102 161 139 
3 120 126 192 
3 183 211 140 
3 120 192 211 
3 88 175 86 
3 175 121 86 
3 192 191 211 
3 191 140 211 
3 139 183 140 
3 161 183 139 
3 211 183 120 
3 140 191 141 
3 121 175 122 
