ply
format ascii 1.0
comment VCGLIB generated
comment TextureFile dummy.png
element vertex 109
property float x
property float y
property float z
property float nx
property float ny
property float nz
property float texture_u
property float texture_v
element face 66
property list uchar int vertex_indices
end_header
-0.1857364 -0.04513566 0.07470202 -0.02662794 -0.009434605 0.9996009 0.06483586 0.9425347
-0.1852605 0.01322252 0.04152393 0.1521057 0.6804442 0.71684 0.08713435 0.9425347
-0.2457436 0.01326111 0.0348289 -0.2799881 0.6772607 0.6803857 0.08713435 0.9648331
-0.1834165 0.01322252 -0.02576399 0.2418332 0.6933985 -0.6787602 0.06483586 0.9425347
-0.2000877 0.06631638 0.02275109 0.530026 0.5450939 0.6495731 0.08713435 0.9425347
0.3964509 0.01111643 -0.02035308 0.5760673 0.6981822 -0.4250743 0.06483586 0.9425347
0.1895025 -0.02972392 -0.07140994 0.03383344 0.01604343 -0.9992988 0.08713435 0.9425347
0.1885805 0.02857178 -0.03776503 0.03065468 0.8629698 -0.5043247 0.08713435 0.9648331
0.1867365 0.02857178 0.02952409 0.005570965 0.8783454 0.4779941 0.06483586 0.9425347
0.1858144 -0.02972393 0.06316805 -0.01538278 0.01512256 0.9997673 0.06483586 0.9425347
0.3873318 0.01465495 0.04464698 0.3599022 0.7944164 0.4892576 0.08713435 0.9425347
0.1867365 -0.08801965 0.02952409 -0.01280667 -0.8703811 0.4922121 0.06483586 0.9425347
0.3942901 -0.04536833 0.07416391 0.4865522 -0.06468583 0.8712536 0.08713435 0.9425347
0.4070002 -0.006116241 0.03489399 0.9246261 0.3112215 0.2195629 0.2214057 0.9739262
0.3994232 -0.09535199 0.04124403 0.57039 -0.7074221 0.4173838 0.2437042 0.9962246
-0.1856654 -0.1033682 0.04059291 0.01312863 -0.8750763 0.483807 0.08713435 0.9648331
-0.3711134 -0.1053199 -0.03994107 -0.3547775 -0.8180702 -0.4526524 0.08713435 0.9425347
0.1885805 -0.08801965 -0.03776503 0.0115029 -0.8550199 -0.5184677 0.08713435 0.9648331
-0.1823919 -0.04495527 -0.06023693 0.01961401 0.06234311 -0.997862 0.08713435 0.9425347
0.4001341 -0.09773879 -0.01699209 0.5921714 -0.724964 -0.3517959 0.06483586 0.9425347
0.4011831 -0.04618721 -0.04885411 0.6396288 -0.04718627 -0.7672343 0.06483586 0.9425347
-0.4070002 -0.06196502 0.01893997 -0.9250512 -0.2086837 0.3173823 0.2437042 0.9739262
-0.4050171 -0.06020253 -0.03688192 -0.8933527 -0.2242348 -0.3894095 0.2437042 0.9962246
-0.3756341 0.01329971 0.02623105 -0.4236787 0.7823306 0.4565689 0.2214057 0.9739262
-0.3765566 -0.04499601 0.05987597 -0.4404286 0.0238113 0.8974718 0.2437042 0.9962246
-0.3737901 0.01329973 -0.04105806 -0.352192 0.7942056 -0.4951751 0.2214057 0.9739262
-0.4064942 -0.01395803 -0.01462793 -0.9130563 0.3985223 -0.08665007 0.2437042 0.9739262
-0.3728685 -0.04499601 -0.07470202 -0.3374432 0.01362451 -0.9412473 0.2214057 0.9739262
-0.3756341 -0.1032917 0.02623105 -0.4189732 -0.8019989 0.4257455 0.08713435 0.9648331
-0.2438996 0.01326111 -0.03245997 -0.1506772 0.6897215 -0.7082236 0.08713435 0.9425347
-0.2289655 0.06633538 -0.01368403 -0.6994703 0.2280606 -0.6772959 0.08713435 0.9425347
-0.1991796 0.06631638 -0.01038599 0.7887327 0.2110437 -0.5773746 0.08713435 0.9648331
-0.2298736 0.06633538 0.019454 -0.6195289 0.5253974 0.5832165 0.08713435 0.9648331
-0.2071845 0.1053199 -0.02371597 0.4647274 0.7610065 -0.4526561 0.08713435 0.9425347
-0.220368 0.1046046 -0.02470303 -0.4470783 0.7246047 -0.5244703 0.08713435 0.9648331
-0.1852605 0.01322252 0.04152393 0.1521057 0.6804442 0.71684 0.08713435 0.9648331
0.3964509 0.01111643 -0.02035308 0.5760673 0.6981822 -0.4250743 0.08713435 0.9425347
0.1867365 0.02857178 0.02952409 0.005570965 0.8783454 0.4779941 0.08713435 0.9648331
0.1858144 -0.02972393 0.06316805 -0.01538278 0.01512256 0.9997673 0.08713435 0.9648331
0.3942901 -0.04536833 0.07416391 0.4865522 -0.06468583 0.8712536 0.2437042 0.9739262
0.1895025 -0.02972392 -0.07140994 0.03383344 0.01604343 -0.9992988 0.06483586 0.9425347
-0.1834165 0.01322252 -0.02576399 0.2418332 0.6933985 -0.6787602 0.08713435 0.9425347
-0.1857364 -0.04513566 0.07470202 -0.02662794 -0.009434605 0.9996009 0.08713435 0.9648331
-0.1857364 -0.04513566 0.07470202 -0.02662794 -0.009434605 0.9996009 0.08713435 0.9425347
0.1885805 -0.08801965 -0.03776503 0.0115029 -0.8550199 -0.5184677 0.06483586 0.9425347
0.1895025 -0.02972392 -0.07140994 0.03383344 0.01604343 -0.9992988 0.08713435 0.9648331
0.1867365 -0.08801965 0.02952409 -0.01280667 -0.8703811 0.4922121 0.08713435 0.9425347
0.3942901 -0.04536833 0.07416391 0.4865522 -0.06468583 0.8712536 0.2214057 0.9739262
0.4070002 -0.006116241 0.03489399 0.9246261 0.3112215 0.2195629 0.2437042 0.9739262
0.3873318 0.01465495 0.04464698 0.3599022 0.7944164 0.4892576 0.2437042 0.9962246
0.1885805 -0.08801965 -0.03776503 0.0115029 -0.8550199 -0.5184677 0.08713435 0.9425347
-0.3711134 -0.1053199 -0.03994107 -0.3547775 -0.8180702 -0.4526524 0.2214057 0.9739262
-0.3756341 0.01329971 0.02623105 -0.4236787 0.7823306 0.4565689 0.2437042 0.9962246
-0.3737901 0.01329973 -0.04105806 -0.352192 0.7942056 -0.4951751 0.2437042 0.9962246
-0.1856654 -0.1033682 0.04059291 0.01312863 -0.8750763 0.483807 0.06483586 0.9425347
-0.3765566 -0.04499601 0.05987597 -0.4404286 0.0238113 0.8974718 0.08713435 0.9425347
-0.3737901 0.01329973 -0.04105806 -0.352192 0.7942056 -0.4951751 0.06483586 0.9425347
-0.3728685 -0.04499601 -0.07470202 -0.3374432 0.01362451 -0.9412473 0.08713435 0.9648331
-0.3756341 0.01329971 0.02623105 -0.4236787 0.7823306 0.4565689 0.06483586 0.9425347
-0.3737901 0.01329973 -0.04105806 -0.352192 0.7942056 -0.4951751 0.08713435 0.9648331
-0.3765566 -0.04499601 0.05987597 -0.4404286 0.0238113 0.8974718 0.06483586 0.9425347
-0.2457436 0.01326111 0.0348289 -0.2799881 0.6772607 0.6803857 0.08713435 0.9425347
-0.3756341 0.01329971 0.02623105 -0.4236787 0.7823306 0.4565689 0.08713435 0.9648331
-0.1823919 -0.04495527 -0.06023693 0.01961401 0.06234311 -0.997862 0.06483586 0.9425347
-0.2457436 0.01326111 0.0348289 -0.2799881 0.6772607 0.6803857 0.06483586 0.9425347
-0.2438996 0.01326111 -0.03245997 -0.1506772 0.6897215 -0.7082236 0.08713435 0.9648331
-0.2289655 0.06633538 -0.01368403 -0.6994703 0.2280606 -0.6772959 0.06483586 0.9425347
-0.2298736 0.06633538 0.019454 -0.6195289 0.5253974 0.5832165 0.06483586 0.9425347
-0.1991796 0.06631638 -0.01038599 0.7887327 0.2110437 -0.5773746 0.06483586 0.9425347
-0.2000877 0.06631638 0.02275109 0.530026 0.5450939 0.6495731 0.08713435 0.9648331
-0.1991796 0.06631638 -0.01038599 0.7887327 0.2110437 -0.5773746 0.08713435 0.9425347
0.4011831 -0.04618721 -0.04885411 0.6396288 -0.04718627 -0.7672343 0.08713435 0.9425347
-0.2438996 0.01326111 -0.03245997 -0.1506772 0.6897215 -0.7082236 0.06483586 0.9425347
-0.1823919 -0.04495527 -0.06023693 0.01961401 0.06234311 -0.997862 0.08713435 0.9648331
0.3964509 0.01111643 -0.02035308 0.5760673 0.6981822 -0.4250743 0.08713435 0.9648331
0.3873318 0.01465495 0.04464698 0.3599022 0.7944164 0.4892576 0.08713435 0.9648331
0.3994232 -0.09535199 0.04124403 0.57039 -0.7074221 0.4173838 0.08713435 0.9425347
0.3942901 -0.04536833 0.07416391 0.4865522 -0.06468583 0.8712536 0.08713435 0.9648331
0.3994232 -0.09535199 0.04124403 0.57039 -0.7074221 0.4173838 0.2214057 0.9739262
0.4001341 -0.09773879 -0.01699209 0.5921714 -0.724964 -0.3517959 0.2437042 0.9739262
0.4070002 -0.006116241 0.03489399 0.9246261 0.3112215 0.2195629 0.2437042 0.9962246
0.4001341 -0.09773879 -0.01699209 0.5921714 -0.724964 -0.3517959 0.2214057 0.9739262
0.4011831 -0.04618721 -0.04885411 0.6396288 -0.04718627 -0.7672343 0.2437042 0.9739262
0.4011831 -0.04618721 -0.04885411 0.6396288 -0.04718627 -0.7672343 0.2214057 0.9739262
0.3964509 0.01111643 -0.02035308 0.5760673 0.6981822 -0.4250743 0.2437042 0.9739262
-0.1834165 0.01322252 -0.02576399 0.2418332 0.6933985 -0.6787602 0.08713435 0.9648331
0.1885805 0.02857178 -0.03776503 0.03065468 0.8629698 -0.5043247 0.08713435 0.9425347
0.1867365 0.02857178 0.02952409 0.005570965 0.8783454 0.4779941 0.08713435 0.9425347
0.1858144 -0.02972393 0.06316805 -0.01538278 0.01512256 0.9997673 0.08713435 0.9425347
-0.1856654 -0.1033682 0.04059291 0.01312863 -0.8750763 0.483807 0.08713435 0.9425347
-0.3711134 -0.1053199 -0.03994107 -0.3547775 -0.8180702 -0.4526524 0.08713435 0.9648331
0.1867365 -0.08801965 0.02952409 -0.01280667 -0.8703811 0.4922121 0.08713435 0.9648331
0.3873318 0.01465495 0.04464698 0.3599022 0.7944164 0.4892576 0.2214057 0.9739262
0.3964509 0.01111643 -0.02035308 0.5760673 0.6981822 -0.4250743 0.2437042 0.9962246
0.4001341 -0.09773879 -0.01699209 0.5921714 -0.724964 -0.3517959 0.08713435 0.9425347
-0.3711134 -0.1053199 -0.03994107 -0.3547775 -0.8180702 -0.4526524 0.2437042 0.9739262
-0.3756341 -0.1032917 0.02623105 -0.4189732 -0.8019989 0.4257455 0.2437042 0.9739262
-0.4070002 -0.06196502 0.01893997 -0.9250512 -0.2086837 0.3173823 0.2437042 0.9962246
-0.3756341 -0.1032917 0.02623105 -0.4189732 -0.8019989 0.4257455 0.2214057 0.9739262
-0.3765566 -0.04499601 0.05987597 -0.4404286 0.0238113 0.8974718 0.2437042 0.9739262
-0.4050171 -0.06020253 -0.03688192 -0.8933527 -0.2242348 -0.3894095 0.2437042 0.9739262
-0.4064942 -0.01395803 -0.01462793 -0.9130563 0.3985223 -0.08665007 0.2437042 0.9962246
-0.4064942 -0.01395803 -0.01462793 -0.9130563 0.3985223 -0.08665007 0.2214057 0.9739262
-0.3765566 -0.04499601 0.05987597 -0.4404286 0.0238113 0.8974718 0.08713435 0.9648331
-0.3711134 -0.1053199 -0.03994107 -0.3547775 -0.8180702 -0.4526524 0.06483586 0.9425347
-0.2298736 0.06633538 0.019454 -0.6195289 0.5253974 0.5832165 0.08713435 0.9425347
-0.2289655 0.06633538 -0.01368403 -0.6994703 0.2280606 -0.6772959 0.08713435 0.9648331
-0.220368 0.1046046 -0.02470303 -0.4470783 0.7246047 -0.5244703 0.08713435 0.9425347
-0.2071845 0.1053199 -0.02371597 0.4647274 0.7610065 -0.4526561 0.08713435 0.9648331
3 0 1 2 
3 3 4 35 
3 5 6 7 
3 8 36 7 
3 9 10 37 
3 11 12 38 
3 13 39 14 
3 40 41 7 
3 8 41 35 
3 9 1 42 
3 11 43 15 
3 11 16 17 
3 44 18 45 
3 19 46 17 
3 47 48 49 
3 20 50 45 
3 51 21 22 
3 23 21 24 
3 25 26 52 
3 27 26 53 
3 54 55 28 
3 56 18 57 
3 58 29 59 
3 60 61 62 
3 63 16 57 
3 64 30 65 
3 3 30 31 
3 64 4 32 
3 66 33 31 
3 67 33 34 
3 68 33 69 
3 3 70 69 
3 5 71 45 
3 72 41 73 
3 8 10 74 
3 9 12 75 
3 11 76 77 
3 78 79 80 
3 81 82 80 
3 83 84 80 
3 40 18 85 
3 8 86 85 
3 9 87 35 
3 11 88 42 
3 11 89 90 
3 44 16 73 
3 19 76 91 
3 92 48 93 
3 20 94 17 
3 27 95 22 
3 51 96 97 
3 98 99 97 
3 23 26 97 
3 27 100 101 
3 102 100 97 
3 54 43 103 
3 56 29 73 
3 104 89 28 
3 58 61 65 
3 60 43 2 
3 66 105 34 
3 64 105 106 
3 3 29 106 
3 64 1 69 
3 66 107 108 
3 67 4 108 
