ply
format ascii 1.0
comment VCGLIB generated
comment TextureFile dummy.png
element vertex 278
property float x
property float y
property float z
property float nx
property float ny
property float nz
property float texture_u
property float texture_v
element face 472
property list uchar int vertex_indices
end_header
-5.855468 8.627375 9.533348 0.4327825 -0.06898428 0.8988551 0.2289995 0.8617285
-5.732813 8.799311 9.327915 0.381575 0.9190061 0.09913783 0.2290585 0.8618112
-12.7215 8.196815 12.90707 -0.487305 0.8180197 0.3055776 0.2256975 0.8615215
-12.86386 7.978174 13.09149 -0.6712185 -0.2703956 0.6901826 0.2256291 0.8614163
-5.792724 5.681259 1.983948 -0.8126929 -0.4016076 -0.4221865 0.2290296 0.8603117
-5.647575 5.898652 1.803354 -0.007245887 0.584286 -0.8115155 0.2290994 0.8604163
-1.439003 -0.3761457 0.500276 0.2816103 -0.08624832 -0.9556447 0.2311234 0.8573986
-1.584651 -0.5924866 0.6790686 -0.3994243 -0.8289685 -0.391499 0.2310533 0.8572947
-1.035341 -0.7694011 1.341245 -0.06593306 -0.988213 0.138159 0.2313175 0.8572096
-0.8929788 -0.5507608 1.15682 0.6107361 -0.1746392 -0.7723358 0.2313859 0.8573147
-0.1195621 -0.3761457 1.518786 0.8731096 -0.0431315 -0.4856124 0.2317579 0.8573986
-0.2556436 -0.5924866 1.704963 0.4691858 -0.8110825 0.3492992 0.2316925 0.8572947
-4.191078 4.534526 4.763949 -0.3751828 -0.7752324 0.5081856 0.2297999 0.8597603
-4.054044 4.76427 4.592481 0.3797874 0.7762397 -0.5032033 0.2298658 0.8598707
-0.9581481 5.898652 5.423242 0.772916 0.6129868 -0.1638543 0.2313546 0.8604163
-1.10137 5.692245 5.622211 0.5644596 -0.2878212 0.7736565 0.2312857 0.860317
-8.189578 7.728329 8.873155 -0.1218723 -0.9706053 0.2075394 0.227877 0.8612962
-8.050818 7.990213 8.71009 0.1205727 0.9722748 -0.2003593 0.2279437 0.8614221
-9.251656 8.799311 6.611631 -0.250116 0.8662444 -0.4325073 0.2273662 0.8618112
-9.403479 8.590313 6.775771 -0.8598148 -0.3168368 -0.4004162 0.2272932 0.8617107
11.46958 11.95197 -1.036188 0.5338448 -0.1057723 -0.838941 0.2373311 0.8633273
11.05637 12.22213 -0.9519578 -0.2791383 0.8833387 -0.3765562 0.2371324 0.8634572
17.86344 15.78911 3.81113 0.292539 0.9532763 0.07540036 0.2404059 0.8651726
18.28186 15.39644 3.81113 0.9933488 0.0908121 0.07079133 0.2406072 0.8649838
4.237769 7.909314 6.511679 0.1403923 -0.5540448 0.8205636 0.2338533 0.8613832
3.878069 8.273342 6.531165 -0.6531743 0.4647245 0.5978249 0.2336803 0.8615582
-1.164201 -0.02700587 0.8175201 -0.9417368 -0.09821625 0.3216915 0.2312555 0.8575666
-0.7585751 -0.4116105 0.8242526 -0.03823765 -0.8773695 0.4782893 0.2314506 0.8573816
-0.5447016 -0.6709023 -0.7445743 0.1312015 -0.9906291 -0.03794914 0.2315534 0.8572569
-0.9631231 -0.2782337 -0.7445743 -0.9881722 -0.1532079 0.006576998 0.2313522 0.8574457
-1.164201 -0.02700587 -2.176015 -0.8940768 -0.05378895 -0.4446722 0.2312555 0.8575666
-0.758575 -0.4116105 -2.190988 0.0188139 -0.808903 -0.5876411 0.2314506 0.8573816
5.274491 6.392454 0.6155303 0.6721202 -0.739018 -0.04590017 0.2343519 0.8606538
4.880337 6.805065 0.6088854 -0.6713094 0.7401217 0.03954179 0.2341624 0.8608521
3.875556 8.274519 -4.109397 -0.5434745 0.6181194 -0.5679471 0.2336791 0.8615588
4.259977 7.929889 -4.151439 0.3552274 -0.2390536 -0.9036962 0.233864 0.8613931
12.27926 10.68613 2.634017 0.5751642 -0.8176351 -0.02566977 0.2377205 0.8627186
11.94139 11.17714 2.603608 -0.5755737 0.8172466 0.02868889 0.237558 0.8629547
11.07039 12.21556 7.038442 -0.2961609 0.7145966 0.633751 0.2371391 0.8634541
11.41578 11.86579 7.047367 0.3870551 -0.3722126 0.8435912 0.2373053 0.8632859
-2.067984 12.92511 -10.81815 -0.8058341 0.1092829 -0.5819697 0.2308209 0.8637953
-2.013292 13.18297 -10.46107 -0.3504916 0.8818787 0.31535 0.2308472 0.8639193
4.156756 12.9826 -18.29083 0.5886657 0.6848445 -0.4294889 0.2338144 0.8638229
4.095767 12.65243 -18.63733 0.255749 -0.258742 -0.9314746 0.2337851 0.8636642
2.227976 8.46033 -6.621023 0.7899328 -0.4896859 -0.3690717 0.2328868 0.8616482
2.281122 8.788615 -6.275183 0.6625525 0.4412846 0.6052206 0.2329124 0.861806
0.6538926 -0.5681695 -0.590243 0.8121597 -0.182832 0.5540481 0.2321298 0.8573064
0.6035054 -0.8948663 -0.9348485 0.423308 -0.8631713 -0.2752196 0.2321056 0.8571492
-0.782488 -0.9521384 0.1498304 -0.01453767 -0.9872805 0.1583223 0.2314391 0.8571217
-0.7214988 -0.621969 0.4963271 0.09653487 -0.1140484 0.988774 0.2314684 0.8572805
-2.093585 -0.5681695 -0.1066417 -0.6461234 -0.05500725 0.7612482 0.2308086 0.8573064
-2.163893 -0.8948665 -0.4477411 -0.5120857 -0.8274806 -0.2303126 0.2307747 0.8571492
-1.32675 7.010542 -6.827273 -0.0975112 -0.635987 -0.7655143 0.2311774 0.8609509
-1.409254 7.691822 -5.85793 0.01828329 0.6605576 0.7505527 0.2312082 0.8611121
-3.98427 8.222975 -5.794499 -0.593605 0.5432965 0.5936852 0.2302367 0.8618051
-4.092061 7.913171 -6.152193 -0.9086339 -0.2400112 -0.3417297 0.2301849 0.8616561
0.6354029 12.0221 -11.73286 -0.0730162 -0.8818701 -0.4658046 0.232121 0.863361
0.6868899 12.39346 -11.45793 0.040151 0.9044783 0.4246257 0.2321457 0.8635396
3.368891 13.53479 -11.65728 0.4467815 0.8477772 0.2857624 0.2334355 0.8640885
3.45757 13.21624 -12.0141 0.9303448 -0.3665767 0.008956832 0.2334782 0.8639352
1.373384 28.44083 3.097384 0.7282674 0.2296605 -0.6456646 0.1469111 0.7959234
1.330909 28.52553 3.160695 0.03725561 0.9986793 0.03537982 0.1468575 0.7960449
2.695302 26.92093 6.280735 0.3721553 0.3785491 0.8474674 0.1486264 0.7916111
2.761833 26.78827 6.18157 0.8450727 -0.4567246 0.2779475 0.1487075 0.7914277
-0.7798467 25.90533 5.249786 -0.6626675 0.1003529 0.7421598 0.1427783 0.7911276
-0.7373705 25.82064 5.186477 -0.2216931 -0.9263393 0.3045452 0.1428392 0.7910143
-0.9418061 25.68105 5.236058 0.9934934 -0.1135667 -0.008568957 0.1424799 0.7908013
-0.9842813 25.76574 5.299368 0.3314892 0.8054947 0.4912162 0.1424185 0.7909139
-2.648118 23.27242 7.576642 -0.1820801 -0.0009341971 0.9832833 0.139035 0.7859837
-2.581587 23.13976 7.477477 0.2371744 -0.8727602 0.4266591 0.1391412 0.7858199
-4.652386 24.44011 4.611789 -0.9038286 0.3395112 0.2604343 0.1364898 0.7898341
-4.609911 24.35542 4.548479 -0.6562895 -0.6922016 -0.3002353 0.1365599 0.789726
-4.826816 24.34274 4.419918 0.6395636 -0.628433 0.4427532 0.1362427 0.7898122
-4.869293 24.42744 4.483229 0.1661466 0.4244074 0.8900976 0.1361721 0.7899202
-8.317509 22.94098 4.216405 -0.7713966 -0.03636931 0.6353146 0.1307651 0.7883892
-8.250978 22.80832 4.117239 -0.4089754 -0.9114401 0.04490111 0.1308877 0.7882277
-7.332585 25.3946 1.53674 -0.6703879 0.7337576 -0.110362 0.1330761 0.7932919
-7.290109 25.30991 1.47343 -0.474118 -0.1812083 -0.8616123 0.1331496 0.7931818
-7.356153 25.43369 1.263537 -0.06699673 -0.9272392 0.3684276 0.1331062 0.7934793
-7.398628 25.51838 1.326847 -0.3342637 0.1423607 0.9316658 0.1330327 0.7935898
-10.04371 26.17618 -1.269652 -0.9520215 0.2989192 0.06559309 0.1297613 0.7961586
-9.977176 26.04352 -1.368817 -0.6068099 -0.543636 -0.5798635 0.1298812 0.7959841
-6.8022 28.05005 -1.659786 -0.1381273 0.9862242 -0.09100906 0.1347718 0.7986685
-6.759726 27.96535 -1.723097 0.1876285 0.2218595 -0.9568563 0.1348413 0.7985513
-6.625173 28.13238 -1.856267 -0.5941455 -0.7849682 -0.1755453 0.1350831 0.7988408
-6.667649 28.21707 -1.792955 -0.7929195 0.1717773 0.584612 0.135014 0.7989584
-6.526849 30.54184 -4.750415 -0.5879411 0.7524561 -0.2968757 0.1360007 0.803614
-6.460319 30.40918 -4.849579 -0.207355 -0.04631886 -0.9771686 0.1361046 0.8034213
-3.460624 30.40684 -2.570738 0.2921489 0.9067979 0.3039187 0.1402129 0.8021933
-3.418149 30.32214 -2.634048 0.8306485 0.2134823 -0.5142454 0.1402742 0.8020688
-3.184323 30.40665 -2.590217 -0.5449151 -0.3087664 -0.7795709 0.1406341 0.8021519
-3.226798 30.49134 -2.526908 -0.864451 0.4904735 0.1102733 0.1405734 0.8022766
-0.4152001 32.75055 -3.6048 0.04667938 0.982716 -0.1791375 0.1453359 0.8058667
-0.3486702 32.61789 -3.703964 0.488589 0.206032 -0.8478394 0.1454194 0.8056605
0.1758719 30.69027 -0.5101526 0.2964357 0.5552906 0.7770317 0.145661 0.8013262
0.2183465 30.60558 -0.573463 0.9707296 -0.2000348 0.1329286 0.145715 0.8011991
-1.252346 27.02356 1.20427 -0.502778 0.6904035 0.5201513 0.142641 0.7949198
-1.448816 26.57992 1.665943 -0.4649395 0.7700201 0.4369215 0.1422167 0.794047
0.3753716 30.54392 -0.3856339 0.04361625 0.1427788 -0.9887932 0.1459377 0.8010015
0.3328969 30.62862 -0.3223245 -0.4949828 0.8584825 -0.1341635 0.1458839 0.8011285
3.689044 31.13909 1.304526 0.4739663 0.8163115 0.3301386 0.1513216 0.8007991
3.755573 31.00643 1.205361 0.9569647 0.02337779 -0.2892612 0.151393 0.8005954
-1.382285 26.44726 1.566776 0.502399 -0.7261605 -0.4693466 0.1423094 0.7938697
-1.185815 26.8909 1.105104 0.531285 -0.7124109 -0.4584834 0.1427323 0.7947406
-1.183096 27.29276 0.5693263 0.4945515 -0.6477057 -0.5795656 0.142856 0.7956074
-1.869867 26.04175 1.782138 0.4260703 -0.8162097 -0.3902127 0.1414696 0.7932208
-2.453339 25.71594 1.826535 0.4091688 -0.8106046 -0.4189285 0.140518 0.7927943
-3.058626 25.61214 1.559308 0.2757086 -0.8551196 -0.439039 0.1396124 0.7928634
-3.589731 25.64951 1.152997 0.2850625 -0.8374509 -0.4662784 0.1388672 0.7932003
-3.856931 25.92558 0.6044087 0.1934315 -0.7998387 -0.5681922 0.1385801 0.7939194
-3.935738 26.29798 0.05335046 0.2235368 -0.7864828 -0.5757397 0.1385913 0.7947491
-3.663639 26.74604 -0.3635001 0.2411931 -0.6919964 -0.6804168 0.1391192 0.7955737
-3.230805 27.17305 -0.6443456 0.2709216 -0.6960821 -0.6648844 0.1398663 0.7962804
-2.624306 27.4557 -0.6155622 0.3830303 -0.6127954 -0.6912088 0.140817 0.7966069
-2.005765 27.61577 -0.4147157 0.3915333 -0.6343205 -0.6665878 0.1417543 0.7966706
-1.521572 27.52017 0.03802682 0.5121338 -0.6218826 -0.5924365 0.1424281 0.7962496
-1.249628 27.42542 0.6684927 -0.5091727 0.6820499 0.5249296 0.203998 0.7663347
-1.588103 27.65283 0.1371932 -0.4499854 0.6405538 0.6222572 0.2035695 0.7669775
-2.072297 27.74843 -0.3155493 -0.4474058 0.63363 0.6311427 0.2028944 0.7673985
-2.690838 27.58836 -0.5163969 -0.3360848 0.6621614 0.669768 0.201955 0.767334
-3.297337 27.30571 -0.5451792 -0.3261408 0.6612271 0.6755819 0.2010022 0.7670059
-3.730171 26.8787 -0.2643338 -0.2468465 0.7389533 0.626909 0.2002533 0.7662973
-4.002269 26.43064 0.1525168 -0.2366977 0.7440583 0.6247811 0.1997239 0.7654709
-3.923463 26.05824 0.7035751 -0.2494678 0.8131041 0.5259541 0.1997122 0.7646396
-3.656263 25.78216 1.252162 -0.2464292 0.8197472 0.5169982 0.1999997 0.7639194
-3.125158 25.7448 1.658473 -0.3419777 0.8287789 0.4429185 0.2007463 0.7635826
-2.51987 25.8486 1.925701 -0.3480054 0.8313033 0.4333903 0.2016537 0.7635143
-1.936399 26.17441 1.881303 -0.4547076 0.7741706 0.4403419 0.2026076 0.7639424
1.368929 28.68691 2.970309 -0.1285029 0.1963896 0.972069 0.1469623 0.796391
1.411405 28.60221 2.906999 0.5023929 -0.7072968 0.4973255 0.1470155 0.7962688
-1.117677 0.07272671 0.6554943 -0.7630392 -0.6463444 -0.003197759 0.1385481 0.819023
-1.681113 14.16829 0.7721009 -0.9979419 -0.06408851 0.00219551 0.1389735 0.8269799
-1.524618 14.18361 0.5547786 -0.3046459 -0.009945417 -0.9524138 0.1390959 0.8270428
-0.884828 0.095514 0.3321407 -0.210848 -0.6020267 -0.7701344 0.1387113 0.8191319
-1.270222 14.20484 0.6371527 0.8078777 0.06163961 -0.5861179 0.1392684 0.82701
-0.5063123 0.1271144 0.454706 0.6888722 -0.5430561 -0.4801513 0.1389388 0.8190752
-1.26949 14.20265 0.905386 0.8110644 0.0520993 0.5826322 0.1392533 0.8269266
-0.5052251 0.1238564 0.8538098 0.6914535 -0.5507922 0.4674614 0.1389174 0.8189306
-2.216501 22.13223 0.6011407 -0.3243667 -0.07468165 -0.9429787 0.1391176 0.8324971
-1.93819 22.15547 0.6912582 0.8083007 -0.02203633 -0.5883574 0.1393206 0.8324667
-1.523436 14.18006 0.9887885 -0.2994514 -0.02550535 0.9537706 0.1390706 0.8269079
-0.8830695 0.09024299 0.9779037 -0.2066751 -0.6145274 0.7613419 0.138675 0.8188981
-2.289356 25.15905 0.2202772 -0.1347095 -0.3201273 -0.9377483 0.1392977 0.8348701
-1.737146 25.20515 0.399086 0.8073285 -0.1335304 -0.574796 0.1397112 0.8348157
-2.215208 22.12835 1.075948 -0.3168308 -0.03587611 0.9478034 0.1390879 0.8323721
-2.387707 22.11547 0.8388922 -0.9964124 -0.08368164 0.01264005 0.1389737 0.8324388
-1.93739 22.15307 0.9847068 0.799701 0.00392824 0.6003857 0.139303 0.8323895
-1.735558 25.20039 0.9813313 0.8441383 -0.2136039 0.4917357 0.1396784 0.8346763
-1.521856 27.422 0.1441187 0.5039363 0.8107016 -0.298012 0.1400639 0.8366027
-1.450755 26.50104 1.592127 0.5913993 0.3574229 0.7228388 0.1399665 0.8355379
-2.28679 25.15136 1.162369 -0.1427327 -0.4460446 0.8835562 0.1392392 0.8346448
-2.629056 25.1258 0.6920125 -0.8207822 -0.5711425 -0.01062384 0.1390055 0.8347655
-3.335285 26.86701 -0.452347 -0.5173433 0.5268092 -0.6744094 0.1386615 0.8364459
-3.8833 26.08362 0.4464484 -0.9993662 0.01546611 0.0320623 0.1381235 0.8356815
-2.795433 25.7219 1.699254 -0.4126666 -0.1077162 0.9044908 0.1388488 0.8350132
8.702928 30.77394 -6.897518 -0.6855577 0.2982124 -0.6641386 0.1469111 0.7959234
8.798885 30.85722 -6.869102 0.2235718 0.9630525 -0.1501517 0.1468575 0.7960449
11.67914 28.20194 -8.644398 0.8431673 0.1624345 -0.512527 0.1486264 0.7916111
11.52884 28.07149 -8.688909 0.06041891 -0.5722553 -0.8178469 0.1487075 0.7914277
10.87543 27.64129 -4.456588 0.8341452 -0.001960561 0.5515414 0.1427783 0.7911276
10.77947 27.55801 -4.485006 0.1466663 -0.9480096 0.2824304 0.1428392 0.7910143
10.83664 27.40996 -4.244153 -0.1719137 -0.1904292 -0.9665312 0.1424799 0.7908013
10.9326 27.49323 -4.215734 0.5864061 0.6559314 -0.4752705 0.1424185 0.7909139
13.17332 24.33206 -2.349129 0.9799743 -0.190203 0.05893371 0.139035 0.7859837
13.02302 24.20162 -2.393641 0.2102617 -0.958796 -0.1910509 0.1391412 0.7858199
10.47199 26.52392 0.1800302 0.4475828 0.3509941 0.8224797 0.1364898 0.7898341
10.37604 26.44064 0.1516118 -0.3327489 -0.5585192 0.7598253 0.1365599 0.789726
10.26596 26.47736 0.4156852 0.2161702 -0.7569978 -0.6166237 0.1362427 0.7898122
10.36192 26.56064 0.4441025 0.9228106 0.2151787 -0.3195605 0.1361721 0.7899202
10.29626 25.29176 4.553077 0.719307 -0.1041266 0.6868444 0.1307651 0.7883892
10.14596 25.16132 4.508565 -0.07574118 -0.8641949 0.4974238 0.1308877 0.7882277
7.711011 28.56786 3.513013 0.131309 0.793151 0.5947012 0.1330761 0.7932919
7.615055 28.48458 3.484597 -0.803932 0.04123206 0.5932902 0.1331496 0.7931818
7.420628 28.67842 3.573039 0.1864543 -0.9748486 0.1220869 0.1331062 0.7934793
7.516584 28.7617 3.601456 0.9794685 -0.0273187 0.199738 0.1330327 0.7935898
5.214447 30.35836 6.86472 0.2574575 0.3558505 0.8983797 0.1297613 0.7961586
5.064146 30.22792 6.820208 -0.5822187 -0.3596839 0.7291426 0.1298812 0.7959841
4.671557 32.23397 3.032564 0.1234694 0.9915525 0.03973774 0.1347718 0.7986685
4.575603 32.15069 3.004147 -0.9120806 0.3996066 -0.09177919 0.1348413 0.7985513
4.443229 32.35569 2.850359 -0.238673 -0.6799346 0.6933428 0.1350831 0.7988408
4.539186 32.43897 2.878775 0.7137157 0.1110579 0.6915751 0.135014 0.7989584
1.754589 35.71661 2.845085 -0.05778364 0.8433467 0.5342543 0.1360007 0.803614
1.604289 35.58617 2.800573 -0.9277859 0.1748397 0.3296127 0.1361046 0.8034213
3.642407 34.7616 -0.8995326 0.4299927 0.7968023 -0.4245143 0.1402129 0.8021933
3.546452 34.67833 -0.9279521 -0.575739 0.2467664 -0.7795069 0.1402742 0.8020688
3.575811 34.74011 -1.208163 -0.7390811 -0.09435333 0.6669758 0.1406341 0.8021519
3.671767 34.8234 -1.179745 0.3256528 0.526112 0.7855931 0.1405734 0.8022766
2.522025 37.33164 -4.478961 0.01094129 0.9912757 -0.13135 0.1453359 0.8058667
2.371724 37.20119 -4.523474 -0.8522287 0.3368392 -0.400307 0.1454194 0.8056605
5.398528 34.2474 -5.32233 0.8200303 0.3555486 -0.4484814 0.145661 0.8013262
5.302571 34.16412 -5.350746 -0.048209 -0.3022314 -0.9520147 0.145715 0.8011991
6.715689 29.89094 -3.495886 0.7108707 0.6061784 0.3566659 0.142641 0.7949198
7.160799 29.30574 -3.283907 0.640218 0.6979693 0.3208736 0.1422167 0.794047
5.471555 34.03617 -5.546377 -0.9379722 0.340969 0.06283612 0.1459377 0.8010015
5.567513 34.11945 -5.51796 0.1075226 0.9052781 0.4109873 0.1458839 0.8011285
6.938869 33.9873 -9.592265 0.4119172 0.6882349 -0.5972076 0.1513216 0.8007991
6.788569 33.85686 -9.636776 -0.4124363 0.004366036 -0.910976 0.151393 0.8005954
7.010499 29.17529 -3.32842 -0.6684778 -0.6515535 -0.3586302 0.1423094 0.7938697
6.565387 29.7605 -3.540398 -0.6593726 -0.6427788 -0.389953 0.1427323 0.7947406
6.06034 30.33493 -3.518412 -0.7590397 -0.551544 -0.3459162 0.142856 0.7956074
7.238355 28.71828 -2.758552 -0.5983562 -0.7495036 -0.2832214 0.1414696 0.7932208
7.309996 28.3996 -2.066572 -0.6227239 -0.7366887 -0.2636376 0.140518 0.7927943
7.089082 28.40415 -1.333974 -0.6319066 -0.7649533 -0.1246623 0.1396124 0.7928634
6.733309 28.59196 -0.6830704 -0.6562322 -0.7428399 -0.1324703 0.1388672 0.7932003
6.229976 29.05465 -0.3394011 -0.7347575 -0.6774935 -0.03367551 0.1385801 0.7939194
5.714692 29.60753 -0.2197163 -0.743767 -0.6653774 -0.06390306 0.1385913 0.7947491
5.307959 30.17994 -0.5237675 -0.8294608 -0.5529816 -0.07877941 0.1391192 0.7955737
5.021184 30.68156 -1.025427 -0.8194169 -0.5626292 -0.1095647 0.1398663 0.7962804
5.017332 30.93266 -1.748242 -0.8447016 -0.4851788 -0.2260104 0.140817 0.7966069
5.175013 31.00528 -2.493483 -0.8262145 -0.5119672 -0.2350728 0.1417543 0.7966706
5.576939 30.74599 -3.090767 -0.7690033 -0.5251469 -0.3644924 0.1424281 0.7962496
6.210641 30.46537 -3.473899 0.7147896 0.5975654 0.3633063 0.203998 0.7663347
5.72724 30.87643 -3.046254 0.79273 0.5320514 0.2974904 0.2035695 0.7669775
5.325314 31.13573 -2.44897 0.799638 0.5232424 0.2946125 0.2028944 0.7673985
5.167633 31.0631 -1.703729 0.8268272 0.533897 0.1769485 0.201955 0.767334
5.171486 30.812 -0.9809144 0.8308708 0.5309641 0.1665262 0.2010022 0.7670059
5.458259 30.31038 -0.4792541 0.7874856 0.6103317 0.08580087 0.2002533 0.7662973
5.864994 29.73797 -0.175204 0.7849706 0.6149163 0.07549383 0.1997239 0.7654709
6.380277 29.18509 -0.2948888 0.7043314 0.7037939 0.09268972 0.1997122 0.7646396
6.883609 28.7224 -0.638557 0.6965015 0.7118804 0.09006633 0.1999997 0.7639194
7.239383 28.53459 -1.289461 0.6399788 0.7439078 0.1924278 0.2007463 0.7635826
7.460299 28.53004 -2.022059 0.6320809 0.7488427 0.1992695 0.2016537 0.7635143
7.388656 28.84873 -2.714039 0.6428905 0.7004635 0.3099077 0.2026076 0.7639424
8.617526 31.07857 -6.905366 0.9999008 7.400449e-05 -0.01408798 0.1469623 0.796391
8.521568 30.99528 -6.933783 0.2733078 -0.8339503 -0.4794056 0.1470155 0.7962688
0.08697178 -0.005660933 -0.2083479 -0.02035441 -0.5667558 0.8236344 0.1385481 0.819023
3.445128 15.71722 -1.348244 0.1317556 0.01894621 0.9911011 0.1389735 0.8269799
3.182117 15.77118 -1.496026 -0.8828257 0.2131193 0.4185679 0.1390959 0.8270428
-0.3043615 0.0746244 -0.4282314 -0.8346286 -0.409564 0.3683103 0.1387113 0.8191319
3.236787 15.75144 -1.796936 -0.6718333 0.1155422 -0.7316352 0.1392684 0.82701
-0.2230168 0.04525157 -0.8759546 -0.6698495 -0.4861278 -0.5612322 0.1389388 0.8190752
3.533587 15.68528 -1.835128 0.4600661 -0.136772 -0.8772871 0.1392533 0.8269266
0.2185905 -0.05318837 -0.9327798 0.2478879 -0.6907027 -0.6793242 0.1389174 0.8189306
5.115183 24.67714 -1.714435 -0.8834724 0.1496763 0.4439296 0.1391176 0.8324971
5.174994 24.65554 -2.043633 -0.6903648 0.03441015 -0.7226427 0.1393206 0.8324667
3.662349 15.66413 -1.557821 0.9632613 -0.1983959 0.1810159 0.1390706 0.8269079
0.4101741 -0.08465396 -0.5201756 0.6485634 -0.7401857 0.1774561 0.138675 0.8188981
5.37842 28.14521 -1.956496 -0.9532161 -0.1062165 0.2830146 0.1392977 0.8348701
5.497092 28.10236 -2.609674 -0.6987887 -0.07700485 -0.7111713 0.1397112 0.8348157
5.640559 24.56003 -1.78204 0.9579253 -0.2058403 0.2000226 0.1390879 0.8323721
5.40292 24.61811 -1.55276 0.1378586 -0.002447511 0.990449 0.1389737 0.8324388
5.499694 24.58316 -2.085414 0.4695312 -0.1864817 -0.8629977 0.139303 0.8323895
6.141346 27.95874 -2.692575 0.3153864 -0.3795986 -0.8697335 0.1396784 0.8346763
5.672767 30.61152 -3.093091 -0.2030414 0.8107818 -0.5490056 0.1400639 0.8366027
7.061715 29.23559 -3.261523 0.686889 0.1497414 -0.7111688 0.1399665 0.8355379
6.420845 27.91284 -2.090632 0.7908821 -0.6065876 0.08097561 0.1392392 0.8346448
5.94933 28.02808 -1.635713 -0.004686383 -0.4871728 0.873293 0.1390055 0.8347655
5.18295 30.30496 -0.8964413 -0.4781843 0.6960263 0.5356185 0.1386615 0.8364459
6.094301 29.2706 -0.3072322 0.1764414 0.09040435 0.9801508 0.1381235 0.8356815
7.225858 28.46851 -1.663923 0.9155447 -0.2590063 0.3077233 0.1388488 0.8350132
-1.252346 27.02356 1.20427 -0.502778 0.6904035 0.5201513 0.2038737 0.7654661
-1.448816 26.57992 1.665943 -0.4649395 0.7700201 0.4369215 0.2034495 0.7645932
-1.249628 27.42542 0.6684927 -0.5091727 0.6820499 0.5249296 0.1427653 0.7957884
-1.936399 26.17441 1.881303 -0.4547076 0.7741706 0.4403419 0.1413749 0.7933961
-2.51987 25.8486 1.925701 -0.3480054 0.8313033 0.4333903 0.140421 0.792968
-3.125158 25.7448 1.658473 -0.3419777 0.8287789 0.4429185 0.1395135 0.7930363
-3.656263 25.78216 1.252162 -0.2464292 0.8197472 0.5169982 0.1387669 0.7933731
-3.923463 26.05824 0.7035751 -0.2494678 0.8131041 0.5259541 0.1384794 0.7940934
-4.002269 26.43064 0.1525168 -0.2366977 0.7440583 0.6247811 0.1384911 0.7949246
-3.730171 26.8787 -0.2643338 -0.2468465 0.7389533 0.626909 0.1390205 0.7957511
-3.297337 27.30571 -0.5451792 -0.3261408 0.6612271 0.6755819 0.1397695 0.7964597
-2.690838 27.58836 -0.5163969 -0.3360848 0.6621614 0.669768 0.1407222 0.7967877
-2.072297 27.74843 -0.3155493 -0.4474058 0.63363 0.6311427 0.1416617 0.7968522
-1.588103 27.65283 0.1371932 -0.4499854 0.6405538 0.6222572 0.1423368 0.7964313
6.715689 29.89094 -3.495886 0.7108707 0.6061784 0.3566659 0.2038737 0.7654661
7.160799 29.30574 -3.283907 0.640218 0.6979693 0.3208736 0.2034495 0.7645932
6.210641 30.46537 -3.473899 0.7147896 0.5975654 0.3633063 0.1427653 0.7957884
7.388656 28.84873 -2.714039 0.6428905 0.7004635 0.3099077 0.1413749 0.7933961
7.460299 28.53004 -2.022059 0.6320809 0.7488427 0.1992695 0.140421 0.792968
7.239383 28.53459 -1.289461 0.6399788 0.7439078 0.1924278 0.1395135 0.7930363
6.883609 28.7224 -0.638557 0.6965015 0.7118804 0.09006633 0.1387669 0.7933731
6.380277 29.18509 -0.2948888 0.7043314 0.7037939 0.09268972 0.1384794 0.7940934
5.864994 29.73797 -0.175204 0.7849706 0.6149163 0.07549383 0.1384911 0.7949246
5.458259 30.31038 -0.4792541 0.7874856 0.6103317 0.08580087 0.1390205 0.7957511
5.171486 30.812 -0.9809144 0.8308708 0.5309641 0.1665262 0.1397695 0.7964597
5.167633 31.0631 -1.703729 0.8268272 0.533897 0.1769485 0.1407222 0.7967877
5.325314 31.13573 -2.44897 0.799638 0.5232424 0.2946125 0.1416617 0.7968522
5.72724 30.87643 -3.046254 0.79273 0.5320514 0.2974904 0.1423368 0.7964313
3 0 1 2 
3 0 2 3 
3 4 5 6 
3 4 6 7 
3 8 9 10 
3 8 10 11 
3 12 4 7 
3 12 7 8 
3 13 14 10 
3 13 10 9 
3 5 13 9 
3 5 9 6 
3 15 12 8 
3 15 8 11 
3 7 6 9 
3 7 9 8 
3 3 16 0 
3 0 16 12 
3 0 12 15 
3 2 17 18 
3 18 17 13 
3 18 13 5 
3 2 1 17 
3 17 1 14 
3 17 14 13 
3 3 19 16 
3 16 19 4 
3 16 4 12 
3 3 2 18 
3 3 18 19 
3 19 18 5 
3 19 5 4 
3 11 10 14 
3 11 14 15 
3 15 14 1 
3 15 1 0 
3 20 21 22 
3 20 22 23 
3 24 25 26 
3 24 26 27 
3 28 29 30 
3 28 30 31 
3 32 24 27 
3 32 27 28 
3 33 34 30 
3 33 30 29 
3 25 33 29 
3 25 29 26 
3 35 32 28 
3 35 28 31 
3 27 26 29 
3 27 29 28 
3 23 36 20 
3 20 36 32 
3 20 32 35 
3 22 37 38 
3 38 37 33 
3 38 33 25 
3 22 21 37 
3 37 21 34 
3 37 34 33 
3 23 39 36 
3 36 39 24 
3 36 24 32 
3 23 22 38 
3 23 38 39 
3 39 38 25 
3 39 25 24 
3 31 30 34 
3 31 34 35 
3 35 34 21 
3 35 21 20 
3 40 41 42 
3 40 42 43 
3 44 45 46 
3 44 46 47 
3 48 49 50 
3 48 50 51 
3 52 44 47 
3 52 47 48 
3 53 54 50 
3 53 50 49 
3 45 53 49 
3 45 49 46 
3 55 52 48 
3 55 48 51 
3 47 46 49 
3 47 49 48 
3 43 56 40 
3 40 56 52 
3 40 52 55 
3 42 57 58 
3 58 57 53 
3 58 53 45 
3 42 41 57 
3 57 41 54 
3 57 54 53 
3 43 59 56 
3 56 59 44 
3 56 44 52 
3 43 42 58 
3 43 58 59 
3 59 58 45 
3 59 45 44 
3 51 50 54 
3 51 54 55 
3 55 54 41 
3 55 41 40 
3 60 61 62 
3 60 62 63 
3 63 62 64 
3 63 64 65 
3 66 67 68 
3 66 68 69 
3 69 68 70 
3 69 70 71 
3 72 73 74 
3 72 74 75 
3 75 74 76 
3 75 76 77 
3 78 79 80 
3 78 80 81 
3 81 80 82 
3 81 82 83 
3 84 85 86 
3 84 86 87 
3 87 86 88 
3 87 88 89 
3 90 91 92 
3 90 92 93 
3 93 92 94 
3 93 94 95 
3 96 97 62 
3 96 62 61 
3 98 99 100 
3 98 100 101 
3 102 103 60 
3 102 60 63 
3 104 103 102 
3 104 102 105 
3 104 105 106 
3 104 106 107 
3 104 107 108 
3 104 108 109 
3 104 109 110 
3 104 110 111 
3 104 111 112 
3 104 112 113 
3 104 113 114 
3 104 114 115 
3 250 116 117 
3 250 117 118 
3 250 118 119 
3 250 119 120 
3 250 120 121 
3 250 121 122 
3 250 122 123 
3 250 123 124 
3 250 124 125 
3 250 125 126 
3 250 126 127 
3 250 127 251 
3 252 96 128 
3 252 128 100 
3 105 102 63 
3 105 63 65 
3 106 105 66 
3 106 66 69 
3 253 254 68 
3 253 68 67 
3 97 253 64 
3 97 64 62 
3 107 106 69 
3 107 69 71 
3 108 107 72 
3 108 72 75 
3 255 256 74 
3 255 74 73 
3 254 255 70 
3 254 70 68 
3 109 108 75 
3 109 75 77 
3 110 109 78 
3 110 78 81 
3 257 258 80 
3 257 80 79 
3 256 257 76 
3 256 76 74 
3 111 110 81 
3 111 81 83 
3 112 111 84 
3 112 84 87 
3 259 260 86 
3 259 86 85 
3 258 259 82 
3 258 82 80 
3 113 112 87 
3 113 87 89 
3 114 113 90 
3 114 90 93 
3 261 262 92 
3 261 92 91 
3 260 261 88 
3 260 88 86 
3 115 114 93 
3 115 93 95 
3 104 115 98 
3 104 98 101 
3 263 252 100 
3 263 100 99 
3 262 263 94 
3 262 94 92 
3 101 100 128 
3 101 128 129 
3 82 259 111 
3 82 111 83 
3 84 111 259 
3 84 259 85 
3 261 113 89 
3 261 89 88 
3 255 107 71 
3 255 71 70 
3 263 115 95 
3 263 95 94 
3 128 96 103 
3 128 103 129 
3 64 253 105 
3 64 105 65 
3 79 78 109 
3 79 109 257 
3 113 261 91 
3 113 91 90 
3 72 107 255 
3 72 255 73 
3 76 257 109 
3 76 109 77 
3 115 263 99 
3 115 99 98 
3 61 60 103 
3 61 103 96 
3 67 66 105 
3 67 105 253 
3 103 104 101 
3 103 101 129 
3 130 131 132 
3 130 132 133 
3 133 132 134 
3 133 134 135 
3 135 134 136 
3 135 136 137 
3 134 132 138 
3 134 138 139 
3 137 136 140 
3 137 140 141 
3 141 140 131 
3 141 131 130 
3 130 133 135 
3 130 135 137 
3 130 137 141 
3 139 138 142 
3 139 142 143 
3 131 140 144 
3 131 144 145 
3 132 131 145 
3 132 145 138 
3 136 134 139 
3 136 139 146 
3 140 136 146 
3 140 146 144 
3 147 143 148 
3 147 148 149 
3 145 144 150 
3 145 150 151 
3 146 139 143 
3 146 143 147 
3 138 145 151 
3 138 151 142 
3 144 146 147 
3 144 147 150 
3 152 153 154 
3 152 154 149 
3 152 149 148 
3 142 151 153 
3 142 153 152 
3 150 147 149 
3 150 149 154 
3 143 142 152 
3 143 152 148 
3 151 150 154 
3 151 154 153 
3 155 156 157 
3 155 157 158 
3 158 157 159 
3 158 159 160 
3 161 162 163 
3 161 163 164 
3 164 163 165 
3 164 165 166 
3 167 168 169 
3 167 169 170 
3 170 169 171 
3 170 171 172 
3 173 174 175 
3 173 175 176 
3 176 175 177 
3 176 177 178 
3 179 180 181 
3 179 181 182 
3 182 181 183 
3 182 183 184 
3 185 186 187 
3 185 187 188 
3 188 187 189 
3 188 189 190 
3 191 192 157 
3 191 157 156 
3 193 194 195 
3 193 195 196 
3 197 198 155 
3 197 155 158 
3 199 198 197 
3 199 197 200 
3 199 200 201 
3 199 201 202 
3 199 202 203 
3 199 203 204 
3 199 204 205 
3 199 205 206 
3 199 206 207 
3 199 207 208 
3 199 208 209 
3 199 209 210 
3 264 211 212 
3 264 212 213 
3 264 213 214 
3 264 214 215 
3 264 215 216 
3 264 216 217 
3 264 217 218 
3 264 218 219 
3 264 219 220 
3 264 220 221 
3 264 221 222 
3 264 222 265 
3 266 191 223 
3 266 223 195 
3 200 197 158 
3 200 158 160 
3 201 200 161 
3 201 161 164 
3 267 268 163 
3 267 163 162 
3 192 267 159 
3 192 159 157 
3 202 201 164 
3 202 164 166 
3 203 202 167 
3 203 167 170 
3 269 270 169 
3 269 169 168 
3 268 269 165 
3 268 165 163 
3 204 203 170 
3 204 170 172 
3 205 204 173 
3 205 173 176 
3 271 272 175 
3 271 175 174 
3 270 271 171 
3 270 171 169 
3 206 205 176 
3 206 176 178 
3 207 206 179 
3 207 179 182 
3 273 274 181 
3 273 181 180 
3 272 273 177 
3 272 177 175 
3 208 207 182 
3 208 182 184 
3 209 208 185 
3 209 185 188 
3 275 276 187 
3 275 187 186 
3 274 275 183 
3 274 183 181 
3 210 209 188 
3 210 188 190 
3 199 210 193 
3 199 193 196 
3 277 266 195 
3 277 195 194 
3 276 277 189 
3 276 189 187 
3 196 195 223 
3 196 223 224 
3 177 273 206 
3 177 206 178 
3 179 206 273 
3 179 273 180 
3 275 208 184 
3 275 184 183 
3 269 202 166 
3 269 166 165 
3 277 210 190 
3 277 190 189 
3 223 191 198 
3 223 198 224 
3 159 267 200 
3 159 200 160 
3 174 173 204 
3 174 204 271 
3 208 275 186 
3 208 186 185 
3 167 202 269 
3 167 269 168 
3 171 271 204 
3 171 204 172 
3 210 277 194 
3 210 194 193 
3 156 155 198 
3 156 198 191 
3 162 161 200 
3 162 200 267 
3 198 199 196 
3 198 196 224 
3 225 226 227 
3 225 227 228 
3 228 227 229 
3 228 229 230 
3 230 229 231 
3 230 231 232 
3 229 227 233 
3 229 233 234 
3 232 231 235 
3 232 235 236 
3 236 235 226 
3 236 226 225 
3 225 228 230 
3 225 230 232 
3 225 232 236 
3 234 233 237 
3 234 237 238 
3 226 235 239 
3 226 239 240 
3 227 226 240 
3 227 240 233 
3 231 229 234 
3 231 234 241 
3 235 231 241 
3 235 241 239 
3 242 238 243 
3 242 243 244 
3 240 239 245 
3 240 245 246 
3 241 234 238 
3 241 238 242 
3 233 240 246 
3 233 246 237 
3 239 241 242 
3 239 242 245 
3 247 248 249 
3 247 249 244 
3 247 244 243 
3 237 246 248 
3 237 248 247 
3 245 242 244 
3 245 244 249 
3 238 237 247 
3 238 247 243 
3 246 245 249 
3 246 249 248 
