ply
format ascii 1.0
comment VCGLIB generated
comment TextureFile ..\textures\halloween_free.png
element vertex 250
property float x
property float y
property float z
property float nx
property float ny
property float nz
property float texture_u
property float texture_v
element face 386
property list uchar int vertex_indices
end_header
0 67.7738 0 -3.894073e-08 1 -1.192666e-08 0.3536524 0.6773501
0 65.2547 16.9671 -6.146968e-08 0.9566022 0.2913973 0.298414 0.6468655
7.992592 69.92424 19.29584 0.06826241 0.9887615 0.1330076 0.3142809 0.6214716
11.99756 65.2547 11.99757 0.2060492 0.9566021 0.2060489 0.3455657 0.6209202
19.29584 69.92424 7.992599 0.1265266 0.9905778 0.05240892 0.3766497 0.6139574
16.96712 65.2547 0 0.2913974 0.9566021 -8.832018e-08 0.3998625 0.6342309
19.29584 69.92424 -7.992599 0.1265265 0.9905778 -0.05240894 0.5876279 0.6089497
11.99756 65.2547 -11.99757 0.2060491 0.9566021 -0.206049 0.6195135 0.6126288
7.992592 69.92424 -19.29583 0.05240864 0.9905778 -0.1265266 0.651652 0.6099641
0 65.2547 -16.96711 -4.375425e-08 0.9566022 -0.2913973 0.671073 0.6328886
0 58.0809 31.35114 8.149144e-10 0.756164 0.6543821 0.250585 0.6064477
10.54451 63.4853 35.65405 0.0448558 0.7857683 0.6168923 0.2871125 0.5702968
22.1686 58.0809 22.1686 0.4643483 0.6993973 0.5433453 0.3377759 0.5656345
35.65406 63.4853 14.76839 0.552861 0.7974452 0.2417147 0.3891199 0.5589324
31.35114 58.0809 0 0.6614492 0.74999 -1.246882e-07 0.4349337 0.5819474
35.65406 63.4853 -14.7684 0.5437416 0.8147382 -0.2013623 0.5683601 0.5557706
22.1686 58.0809 -22.16861 0.4472505 0.774554 -0.4472507 0.620515 0.5588044
14.76838 63.4853 -35.65405 0.2013618 0.8147383 -0.5437416 0.6727402 0.5576218
0 58.0809 -31.35113 -4.153274e-08 0.74999 -0.6614492 0.7152487 0.5855985
0 47.34455 40.96223 2.275132e-08 0.4728208 0.8811586 0.2156741 0.5618688
14.10958 55.32717 41.83799 0.3770117 0.2991557 0.8765661 0.2720357 0.5343657
30.70219 43.39372 26.82457 0.4686112 0.3842544 0.7954572 0.3387243 0.5130824
46.58427 50.26938 19.29583 0.79013 0.4780249 0.3836495 0.3930995 0.5098428
40.96225 47.34455 0 0.8846378 0.4662789 -1.608725e-07 0.4560989 0.5241025
46.58427 50.26938 -19.29585 0.8200677 0.4718114 -0.3238564 0.5577456 0.5075238
28.96467 47.34455 -28.96469 0.63332 0.4447596 -0.6333204 0.62131 0.5104682
19.29581 50.26938 -46.58427 0.3238555 0.4718116 -0.8200679 0.6849879 0.5095793
0 47.34455 -40.96223 -6.39386e-08 0.4662791 -0.8846377 0.7450249 0.5292726
50.42245 34.68015 20.88567 0.9196582 0.02913243 0.3916378 0.3905495 0.4702551
31.35113 30.408 31.35114 0.5945866 -0.1014186 0.7976096 0.316791 0.4724641
44.33721 34.68015 0 1 -2.585863e-07 -1.99736e-07 0.460475 0.4662438
50.42245 34.68015 -20.88567 0.9269636 -7.12834e-08 -0.3751512 0.5550634 0.4653268
31.35113 34.68015 -31.35115 0.7071065 -2.523132e-08 -0.7071071 0.6220189 0.4664612
20.88564 34.68015 -50.42245 0.3751506 4.434893e-08 -0.9269639 0.6890289 0.4676253
0 34.68015 -44.3372 -4.858716e-08 -7.801235e-08 -1 0.7560897 0.468546
0 29.19222 45.39491 2.069952e-08 -0.3068988 0.9517422 0.1848944 0.4964164
10.21556 30.17826 44.75333 0.06959222 -0.3948161 0.9161208 0.2205933 0.4902551
0 34.68015 44.3372 5.023159e-08 0.06958864 0.9975758 0.1928213 0.5182198
4.453064 38.74934 45.7005 -0.05365098 0.1862847 0.9810299 0.211921 0.5222763
20.64141 38.29482 44.81344 0.3834563 0.4627016 0.7992925 0.2636243 0.4994023
20.43113 31.82926 44.11176 0.4432548 -0.3622063 0.8199584 0.2593839 0.4834229
46.58427 19.09093 19.29583 0.8204021 -0.4782192 0.3134435 0.3873152 0.4292882
28.96467 22.01577 28.96468 0.5205308 -0.5161622 0.6801649 0.3212063 0.4241082
40.96224 22.01577 0 0.8846377 -0.466279 -1.755369e-07 0.4500138 0.410799
46.58426 19.09093 -19.29585 0.8200676 -0.4718117 -0.3238564 0.5592638 0.4233379
28.96467 22.01577 -28.96469 0.63332 -0.4447599 -0.6333203 0.6228317 0.422388
19.29581 19.09093 -46.58427 0.3238555 -0.4718115 -0.820068 0.6863148 0.4255266
0 22.01576 -40.96223 -3.295149e-08 -0.466279 -0.8846377 0.7468035 0.4075935
5.59549 17.42585 43.45097 -0.02845038 -0.08721108 0.9957835 0.2289668 0.3800324
12.96744 8.599267 35.66504 0.3446619 -0.7598842 0.5511662 0.2941267 0.3593791
14.94798 18.56251 41.77902 0.366164 -0.1501666 0.918354 0.2656176 0.3843751
0 11.27942 38.61041 2.642969e-08 -0.7389911 0.6737153 0.2374546 0.3484955
21.73969 22.25119 39.04536 0.6942832 0.07110604 0.7161807 0.2829945 0.4287974
22.1686 11.27941 22.1686 0.3889217 -0.7555531 0.5271427 0.3289694 0.3740219
35.65406 5.875029 14.76839 0.5356964 -0.8208955 0.1978888 0.3811641 0.3812777
31.35114 11.27941 0 0.6533954 -0.7570168 -1.342265e-07 0.4270055 0.3564857
35.65405 5.875029 -14.7684 0.5356964 -0.8208954 -0.197889 0.5715791 0.3755256
22.1686 11.27941 -22.16861 0.4413549 -0.7812884 -0.441355 0.623597 0.3740311
14.76838 5.875025 -35.65405 0.1978884 -0.8208956 -0.5356964 0.67556 0.3771737
0 11.27942 -31.35113 -5.022454e-10 -0.757017 -0.6533952 0.7185895 0.3504152
0 4.105613 24.22639 8.733905e-09 -0.9276239 0.3735157 0.2790108 0.308563
7.992599 -4.577635e-05 19.29584 0.1513652 -0.9804752 0.1255266 0.3095916 0.3186477
11.99756 4.105612 11.99757 0.2045761 -0.9572343 0.2045758 0.3402523 0.3191614
19.29584 -4.577635e-05 7.992599 0.1352271 -0.9892302 0.05601285 0.3691991 0.3267305
16.96712 4.105613 0 0.2893142 -0.9572342 -7.579682e-08 0.3914428 0.3062527
19.29584 -4.577635e-05 -7.992599 0.1352271 -0.9892301 -0.0560129 0.5927513 0.3234833
11.99756 4.105612 -11.99757 0.2045761 -0.9572342 -0.2045759 0.6244568 0.3203475
7.992592 -4.577635e-05 -19.29585 0.05601256 -0.9892302 -0.1352271 0.6560763 0.3245769
0 4.105613 -16.96711 8.14556e-09 -0.9572343 -0.289314 0.6757547 0.3023856
0 1.58651 0 5.326876e-09 -0.9999847 -0.005525036 0.348857 0.2627604
14.53858 51.27789 37.13844 0.1873226 -0.9509734 0.2460891 0.4953691 0.7951816
0 48.03373 37.71613 -7.842929e-09 -0.6990181 -0.715104 0.4961958 0.8316387
0 57.9802 -0.007446289 5.440834e-08 -0.9876093 0.1569326 0.4040733 0.8216991
26.70748 42.77265 27.56826 -0.7813095 -0.586255 0.214151 0.4780155 0.7746743
40.79456 34.70157 14.69997 -0.9824582 -0.005078402 -0.1864137 0.4617207 0.7398654
40.79456 34.70157 -15.8659 -0.9251902 -0.009792706 0.3793773 0.4177535 0.7339647
19.18121 34.70157 -37.47923 -0.2920056 -0.009574741 0.9563687 0.3743398 0.727392
0 34.70741 -31.94224 5.845517e-08 -0.01596708 0.9998726 0.3542503 0.7247302
29.2736 30.33176 28.86606 -0.8443914 0.2563193 -0.4704292 0.494674 0.7479884
18.67666 39.67808 41.51523 -0.2603847 0.9289891 -0.2630192 0.5068792 0.789932
9.507294 28.78035 40.85631 0.07696947 -0.547083 -0.8335322 0.5376623 0.7976569
7.174782 39.27501 41.19545 0.4574426 0.1466764 -0.877059 0.5176047 0.8125812
19.0146 30.33733 40.64537 -0.2142682 -0.6718205 -0.7090461 0.5261949 0.7768287
20.85921 24.55493 34.07963 -0.3276904 0.943666 0.04597307 0.51236 0.6971021
0 22.76016 40.09511 -2.817926e-08 0.9990646 0.04324217 0.5245135 0.6557072
5.0504 19.19219 38.88246 -0.0005234117 0.9931027 -0.117247 0.5215808 0.6643042
0 10.08966 0.004730225 -2.422023e-09 0.9901193 0.1402273 0.4312582 0.6446764
0 38.59086 41.06725 -4.215359e-08 -0.1599758 -0.9871209 0.5238178 0.8273716
0 21.15596 44.45128 5.872643e-09 0.503382 0.864064 0.2203249 0.372855
13.93609 20.67394 36.74893 -0.3947802 0.8940857 -0.2115643 0.5173066 0.6820838
10.07088 23.62244 44.06292 0.05256696 0.6134337 0.7879949 0.240938 0.3885356
9.292389 25.56133 39.26362 -0.143052 0.9505435 -0.2756869 0.2320227 0.4030848
17.20818 24.45733 42.05348 -0.07408465 0.5346128 0.8418436 0.2680224 0.4105599
16.26199 26.66492 37.05558 -0.3729726 0.9103164 -0.1794868 0.2602979 0.4258605
5.329483 25.30529 44.96508 0.1109766 -0.7318729 0.6723439 0.2043582 0.4898441
0 27.88835 41.06725 -9.587117e-08 -0.6051888 -0.796082 0.1942984 0.4796446
4.975342 24.03934 40.63692 0.02852757 -0.8562297 -0.515807 0.1942984 0.4796446
14.48696 25.47486 39.36763 -0.009621497 -0.7234896 -0.6902682 0.5391181 0.7822049
15.54936 25.91291 43.29838 0.2205916 -0.8333893 0.5067559 0.2403338 0.4789232
23.09838 28.09284 39.88019 0.3014855 -0.7729275 0.5582917 0.2700687 0.4740943
21.35135 27.30874 36.90445 -0.5568635 -0.7534968 -0.3494934 0.2698065 0.4638317
-7.992592 69.92424 19.29584 -0.06826248 0.9887615 0.1330076 0.3142809 0.6214716
-11.99755 65.2547 11.99757 -0.2060493 0.9566021 0.2060489 0.3455657 0.6209202
-19.29583 69.92424 7.992599 -0.1265266 0.9905778 0.05240905 0.3766497 0.6139574
-16.96711 65.2547 0 -0.2913975 0.9566021 -4.125033e-08 0.3998625 0.6342309
-19.29583 69.92424 -7.992599 -0.1265266 0.9905778 -0.05240899 0.5876279 0.6089497
-11.99755 65.2547 -11.99757 -0.2060492 0.9566021 -0.2060489 0.6195135 0.6126288
-7.992592 69.92424 -19.29583 -0.05240872 0.9905778 -0.1265266 0.651652 0.6099641
-10.54451 63.4853 35.65405 -0.04485576 0.7857683 0.6168923 0.2871125 0.5702968
-22.16859 58.0809 22.16861 -0.4643483 0.6993973 0.5433453 0.3377759 0.5656345
-35.65405 63.4853 14.7684 -0.5528611 0.7974451 0.2417148 0.3891199 0.5589324
-31.35114 58.0809 0 -0.6614493 0.7499899 -7.6944e-08 0.4349337 0.5819474
-35.65405 63.4853 -14.76839 -0.5437416 0.8147382 -0.2013623 0.5683601 0.5557706
-22.16859 58.0809 -22.1686 -0.4472506 0.774554 -0.4472506 0.620515 0.5588044
-14.76837 63.4853 -35.65405 -0.2013618 0.8147383 -0.5437416 0.6727402 0.5576218
-14.10957 55.32717 41.83799 -0.3770117 0.2991557 0.8765661 0.2720357 0.5343657
-30.70218 43.39372 26.82458 -0.4686111 0.3842545 0.7954572 0.3387243 0.5130824
-46.58426 50.26939 19.29584 -0.7901298 0.4780251 0.3836495 0.3930995 0.5098428
-40.96223 47.34455 0 -0.8846377 0.466279 -8.353501e-08 0.4560989 0.5241025
-46.58426 50.26939 -19.29584 -0.8200676 0.4718116 -0.3238563 0.5577456 0.5075238
-28.96467 47.34455 -28.96468 -0.6333201 0.4447598 -0.6333203 0.62131 0.5104682
-19.29581 50.26938 -46.58427 -0.3238556 0.4718116 -0.8200679 0.6849879 0.5095793
-50.4225 34.68015 20.88567 -0.9196581 0.02913263 0.391638 0.3905495 0.4702551
-31.35113 30.408 31.35115 -0.5945866 -0.1014185 0.7976096 0.316791 0.4724641
-44.33721 34.68015 0 -1 7.330708e-08 -6.843129e-08 0.460475 0.4662438
-50.4225 34.68015 -20.88566 -0.9269636 1.062216e-07 -0.3751512 0.5550634 0.4653268
-31.35113 34.68015 -31.35114 -0.7071067 -7.240333e-08 -0.7071069 0.6220189 0.4664612
-20.88564 34.68015 -50.42245 -0.3751506 1.504605e-08 -0.9269639 0.6890289 0.4676253
-4.453064 38.74934 45.7005 0.05365109 0.1862847 0.9810299 0.211921 0.5222763
-10.21556 30.17826 44.75333 -0.06959212 -0.3948162 0.9161207 0.2205933 0.4902551
-20.64141 38.29482 44.81344 -0.3834563 0.4627015 0.7992926 0.2636243 0.4994023
-20.43113 31.82926 44.11176 -0.4432548 -0.3622064 0.8199584 0.2593839 0.4834229
-46.58427 19.09092 19.29584 -0.8204021 -0.4782192 0.3134437 0.3873152 0.4292882
-28.96467 22.01576 28.96468 -0.5205308 -0.5161622 0.6801649 0.3212063 0.4241082
-40.96223 22.01576 0 -0.8846378 -0.4662789 -7.375874e-08 0.4500138 0.410799
-46.58426 19.09092 -19.29584 -0.8200676 -0.4718117 -0.3238564 0.5592638 0.4233379
-28.96467 22.01576 -28.96468 -0.63332 -0.4447599 -0.6333202 0.6228317 0.422388
-19.29581 19.09093 -46.58427 -0.3238556 -0.4718116 -0.8200679 0.6863148 0.4255266
-5.595482 17.42585 43.45097 0.02845048 -0.08721111 0.9957835 0.2289668 0.3800324
-14.94798 18.56251 41.77902 -0.3661639 -0.1501667 0.918354 0.2656176 0.3843751
-12.96744 8.599267 35.66504 -0.3446618 -0.7598843 0.5511661 0.2941267 0.3593791
-21.73969 22.25119 39.04536 -0.6942832 0.07110607 0.7161807 0.2829945 0.4287974
-22.1686 11.27942 22.16861 -0.3889216 -0.7555532 0.5271427 0.3289694 0.3740219
-35.65406 5.875029 14.7684 -0.5356964 -0.8208954 0.197889 0.3811641 0.3812777
-31.35114 11.27942 0 -0.6533952 -0.757017 -7.710488e-08 0.4270055 0.3564857
-35.65405 5.875029 -14.76839 -0.5356964 -0.8208954 -0.1978891 0.5715791 0.3755256
-22.1686 11.27942 -22.1686 -0.441355 -0.7812884 -0.441355 0.623597 0.3740311
-14.76838 5.875025 -35.65405 -0.1978885 -0.8208956 -0.5356964 0.67556 0.3771737
-7.992592 -4.577636e-05 19.29584 -0.1513651 -0.9804752 0.1255266 0.3095916 0.3186477
-11.99756 4.105612 11.99757 -0.2045761 -0.9572342 0.2045758 0.3402523 0.3191614
-19.29584 -4.577636e-05 7.992599 -0.1352271 -0.9892302 0.05601285 0.3691991 0.3267305
-16.96712 4.105613 0 -0.2893141 -0.9572343 -8.207942e-08 0.3914428 0.3062527
-19.29584 -4.577636e-05 -7.992599 -0.135227 -0.9892301 -0.05601285 0.5927513 0.3234833
-11.99756 4.105612 -11.99757 -0.204576 -0.9572343 -0.2045759 0.6244568 0.3203475
-7.992592 -4.577636e-05 -19.29585 -0.0560125 -0.9892302 -0.1352271 0.6560763 0.3245769
-14.53858 51.27789 37.13844 -0.1873225 -0.9509734 0.2460892 0.4953691 0.7951816
-26.70748 42.77265 27.56827 0.7813094 -0.5862551 0.214151 0.4780155 0.7746743
-40.79456 34.70157 14.69998 0.9824582 -0.005078523 -0.1864139 0.4617207 0.7398654
-40.79456 34.70157 -15.86589 0.9251902 -0.009792524 0.3793774 0.4177535 0.7339647
-19.18121 34.70157 -37.47923 0.2920056 -0.009574689 0.9563687 0.3743398 0.727392
-29.27359 30.33175 28.86607 0.8443913 0.256319 -0.4704297 0.494674 0.7479884
-18.67665 39.67808 41.51523 0.2603846 0.9289891 -0.2630192 0.5068792 0.789932
-9.507294 28.78035 40.85631 -0.0769695 -0.547083 -0.8335322 0.5376623 0.7976569
-19.0146 30.33733 40.64537 0.2142678 -0.6718204 -0.7090463 0.5261949 0.7768287
-7.174774 39.27501 41.19545 -0.4574426 0.1466764 -0.877059 0.5176047 0.8125812
-20.8592 24.55493 34.07963 0.3276905 0.943666 0.04597295 0.51236 0.6971021
-5.0504 19.19219 38.88246 0.0005233257 0.9931027 -0.117247 0.5215808 0.6643042
-13.93608 20.67394 36.74893 0.3947802 0.8940856 -0.2115644 0.5173066 0.6820838
-10.07088 23.62244 44.06292 -0.05256695 0.6134337 0.7879949 0.240938 0.3885356
-9.292389 25.56133 39.26362 0.1430519 0.9505435 -0.2756869 0.2320227 0.4030848
-16.26199 26.66492 37.05558 0.3729726 0.9103164 -0.1794868 0.2602979 0.4258605
-17.20818 24.45733 42.05348 0.07408488 0.5346128 0.8418436 0.2680224 0.4105599
-5.329483 25.30529 44.96508 -0.1109766 -0.7318729 0.6723439 0.2043582 0.4898441
-4.975342 24.03934 40.63692 -0.02852757 -0.8562297 -0.515807 0.1942984 0.4796446
-14.48696 25.47486 39.36763 0.009621413 -0.7234896 -0.6902682 0.5391181 0.7822049
-15.54936 25.91291 43.29838 -0.2205916 -0.8333894 0.5067558 0.2403338 0.4789232
-23.09838 28.09283 39.88019 -0.3014858 -0.7729273 0.5582918 0.2700687 0.4740943
-21.35135 27.30874 36.90445 0.5568634 -0.753497 -0.3494932 0.2698065 0.4638317
3.82505 91.06974 -2.793457 0.2477387 0.7579855 -0.6033933 0.5933317 0.7614844
3.040207 85.82151 8.625389 0.1532923 0.03805028 0.9874481 0.5489873 0.716985
9.100449 85.82151 2.123917 0.99577 0.03805019 0.08363201 0.5933317 0.716985
-2.235191 91.06974 3.708008 -0.5845241 0.7579856 0.2894642 0.5488366 0.7614844
4.297089 80.51736 -0.3689194 0.8854417 -0.4245382 -0.1891043 0.667925 0.6977913
-0.5963745 73.46276 2.500679 -0.02315297 -0.0506608 0.9984475 0.6448126 0.7249982
2.73568 73.46276 -1.073975 0.9943625 -0.05066045 -0.09315 0.6422482 0.7064894
0.2164993 80.51736 4.008774 -0.1265131 -0.4245383 0.8965276 0.6753515 0.7207424
-0.809082 74.21556 -4.378174 -0.08586109 -0.04020203 -0.9954957 0.6461865 0.7611871
0.1628799 82.54874 -4.222549 -0.1056568 0.1167077 -0.9875302 0.6753818 0.7659468
-4.141144 74.21556 -0.8035126 -0.9990666 -0.04020201 -0.01580245 0.647415 0.7436257
-3.917709 82.54874 0.1551361 -0.9925097 0.1167077 -0.0361083 0.6779746 0.744473
3.637321 65.90586 -0.2335281 0.9927159 0.1198316 0.01247409 0.6150674 0.7070756
0.3052597 65.90586 3.341125 0.08209536 0.1198315 0.9893942 0.6154391 0.7247291
0.0500412 65.90586 -3.577362 0.01251278 -0.09463763 -0.9954332 0.616011 0.7600806
-3.282021 65.90586 -0.002700806 -0.992102 -0.09463761 0.08232464 0.6170791 0.7421354
0 67.7738 0 -3.894073e-08 1 -1.192666e-08 0.6187935 0.6682496
16.96712 65.2547 0 0.2913974 0.9566021 -8.832018e-08 0.56738 0.6312429
31.35114 58.0809 0 0.6614492 0.74999 -1.246882e-07 0.5248128 0.582462
40.96225 47.34455 0 0.8846378 0.4662789 -1.608725e-07 0.4969383 0.5251368
44.33721 34.68015 0 1 -2.585863e-07 -1.99736e-07 0.4877988 0.4639954
40.96224 22.01577 0 0.8846377 -0.466279 -1.755369e-07 0.4991814 0.4033396
31.35114 11.27941 0 0.6533954 -0.7570168 -1.342265e-07 0.5294993 0.3471477
16.96712 4.105613 0 0.2893142 -0.9572342 -7.579682e-08 0.5738739 0.3005527
0 1.58651 0 5.326876e-09 -0.9999847 -0.005525036 0.6256585 0.2648229
26.70748 42.77265 27.56826 -0.7813095 -0.586255 0.214151 0.3231699 0.5138141
14.53858 51.27789 37.13844 0.1873226 -0.9509734 0.2460891 0.2693116 0.5256414
0 22.76016 40.09511 -2.817926e-08 0.9990646 0.04324217 0.2145936 0.3877761
5.0504 19.19219 38.88246 -0.0005234117 0.9931027 -0.117247 0.2230794 0.3950801
7.174782 39.27501 41.19545 0.4574426 0.1466764 -0.877059 0.2281017 0.5205702
18.67666 39.67808 41.51523 -0.2603847 0.9289891 -0.2630192 0.2650973 0.5076877
20.85921 24.55493 34.07963 -0.3276904 0.943666 0.04597307 0.2767629 0.4402789
29.2736 30.33176 28.86606 -0.8443914 0.2563193 -0.4704292 0.3106061 0.4699323
13.93609 20.67394 36.74893 -0.3947802 0.8940857 -0.2115643 0.2447958 0.4132782
9.292389 25.56133 39.26362 -0.143052 0.9505435 -0.2756869 0.5277113 0.677493
16.26199 26.66492 37.05558 -0.3729726 0.9103164 -0.1794868 0.5228472 0.6946401
0 27.88835 41.06725 -9.587117e-08 -0.6051888 -0.796082 0.5466692 0.8150238
4.975342 24.03934 40.63692 0.02852757 -0.8562297 -0.515807 0.5498635 0.7945628
9.507294 28.78035 40.85631 0.07696947 -0.547083 -0.8335322 0.2161559 0.4738507
19.0146 30.33733 40.64537 -0.2142682 -0.6718205 -0.7090461 0.2558303 0.4617797
14.48696 25.47486 39.36763 -0.009621497 -0.7234896 -0.6902682 0.235798 0.4672291
21.35135 27.30874 36.90445 -0.5568635 -0.7534968 -0.3494934 0.5195496 0.7585286
-16.96711 65.2547 0 -0.2913975 0.9566021 -4.125033e-08 0.56738 0.6312429
-31.35114 58.0809 0 -0.6614493 0.7499899 -7.6944e-08 0.5248128 0.582462
-40.96223 47.34455 0 -0.8846377 0.466279 -8.353501e-08 0.4969383 0.5251368
-44.33721 34.68015 0 -1 7.330708e-08 -6.843129e-08 0.4877988 0.4639954
-40.96223 22.01576 0 -0.8846378 -0.4662789 -7.375874e-08 0.4991814 0.4033396
-31.35114 11.27942 0 -0.6533952 -0.757017 -7.710488e-08 0.5294993 0.3471477
-16.96712 4.105613 0 -0.2893141 -0.9572343 -8.207942e-08 0.5738739 0.3005527
-26.70748 42.77265 27.56827 0.7813094 -0.5862551 0.214151 0.3231699 0.5138141
-14.53858 51.27789 37.13844 -0.1873225 -0.9509734 0.2460892 0.2693116 0.5256414
-5.0504 19.19219 38.88246 0.0005233257 0.9931027 -0.117247 0.2230794 0.3950801
-7.174774 39.27501 41.19545 -0.4574426 0.1466764 -0.877059 0.2281017 0.5205702
-18.67665 39.67808 41.51523 0.2603846 0.9289891 -0.2630192 0.2650973 0.5076877
-20.8592 24.55493 34.07963 0.3276905 0.943666 0.04597295 0.2767629 0.4402789
-29.27359 30.33175 28.86607 0.8443913 0.256319 -0.4704297 0.3106061 0.4699323
-13.93608 20.67394 36.74893 0.3947802 0.8940856 -0.2115644 0.2447958 0.4132782
-9.292389 25.56133 39.26362 0.1430519 0.9505435 -0.2756869 0.5277113 0.677493
-16.26199 26.66492 37.05558 0.3729726 0.9103164 -0.1794868 0.5228472 0.6946401
-4.975342 24.03934 40.63692 -0.02852757 -0.8562297 -0.515807 0.5498635 0.7945628
-9.507294 28.78035 40.85631 -0.0769695 -0.547083 -0.8335322 0.2161559 0.4738507
-19.0146 30.33733 40.64537 0.2142678 -0.6718204 -0.7090463 0.2558303 0.4617797
-14.48696 25.47486 39.36763 0.009621413 -0.7234896 -0.6902682 0.235798 0.4672291
-21.35135 27.30874 36.90445 0.5568634 -0.753497 -0.3494932 0.5195496 0.7585286
4.297089 80.51736 -0.3689194 0.8854417 -0.4245382 -0.1891043 0.6677433 0.7868364
2.73568 73.46276 -1.073975 0.9943625 -0.05066045 -0.09315 0.6413457 0.7784734
3.040207 85.82151 8.625389 0.1532923 0.03805028 0.9874481 0.7046163 0.7110921
9.100449 85.82151 2.123917 0.99577 0.03805019 0.08363201 0.6903574 0.6813186
9.100449 85.82151 2.123917 0.99577 0.03805019 0.08363201 0.6901743 0.8058003
3.82505 91.06974 -2.793457 0.2477387 0.7579855 -0.6033933 0.7082305 0.7771338
3.637321 65.90586 -0.2335281 0.9927159 0.1198316 0.01247409 0.6124492 0.7785289
-2.235191 91.06974 3.708008 -0.5845241 0.7579856 0.2894642 0.7129741 0.7438005
3 0 1 2 
3 0 2 3 
3 0 3 4 
3 0 4 5 
3 194 195 6 
3 194 6 7 
3 194 7 8 
3 194 8 9 
3 10 2 1 
3 2 10 11 
3 11 12 2 
3 12 3 2 
3 4 12 13 
3 12 4 3 
3 4 14 5 
3 14 4 13 
3 196 6 195 
3 6 196 15 
3 6 15 16 
3 16 7 6 
3 16 8 7 
3 8 16 17 
3 18 9 8 
3 18 8 17 
3 10 19 20 
3 10 20 11 
3 12 20 21 
3 20 12 11 
3 21 13 12 
3 13 21 22 
3 14 22 23 
3 22 14 13 
3 24 196 197 
3 196 24 15 
3 16 15 25 
3 25 15 24 
3 25 17 16 
3 17 25 26 
3 18 26 27 
3 26 18 17 
3 28 21 29 
3 21 28 22 
3 23 28 30 
3 28 23 22 
3 197 31 24 
3 31 197 198 
3 24 32 25 
3 32 24 31 
3 32 26 25 
3 26 32 33 
3 27 33 34 
3 33 27 26 
3 35 36 37 
3 37 36 38 
3 39 29 21 
3 29 39 40 
3 29 41 28 
3 41 29 42 
3 28 43 30 
3 43 28 41 
3 31 199 44 
3 199 31 198 
3 44 32 31 
3 32 44 45 
3 32 46 33 
3 46 32 45 
3 33 47 34 
3 47 33 46 
3 48 49 50 
3 49 48 51 
3 52 49 53 
3 49 52 50 
3 41 42 54 
3 54 42 53 
3 41 55 43 
3 55 41 54 
3 44 200 56 
3 200 44 199 
3 56 45 44 
3 45 56 57 
3 46 45 58 
3 58 45 57 
3 46 59 47 
3 59 46 58 
3 49 60 61 
3 60 49 51 
3 61 53 49 
3 53 61 62 
3 53 62 63 
3 63 54 53 
3 55 63 64 
3 63 55 54 
3 200 65 56 
3 65 200 201 
3 57 65 66 
3 65 57 56 
3 67 58 57 
3 67 57 66 
3 67 59 58 
3 59 67 68 
3 69 61 60 
3 69 62 61 
3 69 63 62 
3 69 64 63 
3 202 65 201 
3 202 66 65 
3 202 67 66 
3 202 68 67 
3 19 38 20 
3 38 19 37 
3 70 71 72 
3 73 70 72 
3 74 73 72 
3 72 75 74 
3 72 76 75 
3 77 76 72 
3 73 74 78 
3 79 80 81 
3 80 79 82 
3 79 73 78 
3 79 78 82 
3 78 74 83 
3 84 85 86 
3 83 74 86 
3 74 75 86 
3 75 76 86 
3 76 77 86 
3 71 81 87 
3 81 71 70 
3 20 203 21 
3 203 20 204 
3 48 205 88 
3 205 48 206 
3 38 204 20 
3 204 38 207 
3 39 21 203 
3 39 203 208 
3 207 39 208 
3 39 207 38 
3 29 209 52 
3 209 29 210 
3 85 89 86 
3 83 86 89 
3 90 206 48 
3 90 91 206 
3 48 50 90 
3 90 50 91 
3 50 211 91 
3 89 85 212 
3 92 52 93 
3 52 209 93 
3 83 89 213 
3 92 211 50 
3 92 93 211 
3 50 52 92 
3 36 35 94 
3 94 95 96 
3 95 94 35 
3 214 80 215 
3 36 94 216 
3 216 94 96 
3 80 82 97 
3 40 98 217 
3 217 98 218 
3 40 36 98 
3 98 216 218 
3 216 98 36 
3 29 40 99 
3 99 217 100 
3 217 99 40 
3 82 78 219 
3 100 29 99 
3 29 100 210 
3 39 38 36 
3 39 36 40 
3 81 214 87 
3 214 81 80 
3 52 53 42 
3 42 29 52 
3 48 88 51 
3 0 101 1 
3 0 102 101 
3 0 103 102 
3 0 104 103 
3 194 105 220 
3 194 106 105 
3 194 107 106 
3 194 9 107 
3 10 101 108 
3 101 10 1 
3 109 108 101 
3 109 101 102 
3 103 109 102 
3 109 103 110 
3 110 103 111 
3 111 103 104 
3 221 105 112 
3 105 221 220 
3 106 113 105 
3 113 112 105 
3 107 113 106 
3 113 107 114 
3 107 18 114 
3 18 107 9 
3 10 115 19 
3 115 10 108 
3 109 115 108 
3 115 109 116 
3 116 110 117 
3 110 116 109 
3 111 117 110 
3 117 111 118 
3 119 221 112 
3 221 119 222 
3 113 120 112 
3 120 119 112 
3 114 120 113 
3 120 114 121 
3 18 121 114 
3 121 18 27 
3 122 116 117 
3 116 122 123 
3 118 122 117 
3 122 118 124 
3 222 119 125 
3 222 125 223 
3 119 120 126 
3 126 125 119 
3 121 126 120 
3 126 121 127 
3 27 127 121 
3 127 27 34 
3 37 128 129 
3 37 129 35 
3 130 123 131 
3 123 130 116 
3 123 122 132 
3 132 133 123 
3 122 124 134 
3 122 134 132 
3 125 224 223 
3 224 125 135 
3 126 135 125 
3 135 126 136 
3 126 127 137 
3 137 136 126 
3 127 34 47 
3 127 47 137 
3 138 139 140 
3 140 51 138 
3 141 140 139 
3 140 141 142 
3 132 143 133 
3 143 142 133 
3 132 134 144 
3 132 144 143 
3 135 225 224 
3 225 135 145 
3 136 145 135 
3 145 136 146 
3 137 147 136 
3 147 146 136 
3 137 47 59 
3 137 59 147 
3 140 60 51 
3 60 140 148 
3 142 148 140 
3 148 142 149 
3 143 150 142 
3 150 149 142 
3 150 144 151 
3 144 150 143 
3 226 225 152 
3 152 225 145 
3 146 152 145 
3 152 146 153 
3 146 154 153 
3 146 147 154 
3 154 59 68 
3 59 154 147 
3 69 60 148 
3 69 148 149 
3 69 149 150 
3 69 150 151 
3 202 226 152 
3 202 152 153 
3 202 153 154 
3 202 154 68 
3 19 128 37 
3 128 19 115 
3 155 72 71 
3 156 72 155 
3 157 72 156 
3 72 157 158 
3 72 158 159 
3 77 72 159 
3 156 160 157 
3 161 162 163 
3 162 161 164 
3 161 160 156 
3 160 161 163 
3 160 165 157 
3 84 86 166 
3 165 86 157 
3 157 86 158 
3 158 86 159 
3 159 86 77 
3 71 164 155 
3 164 71 87 
3 227 115 116 
3 115 227 228 
3 138 205 229 
3 205 138 88 
3 128 228 230 
3 228 128 115 
3 227 130 231 
3 116 130 227 
3 130 230 231 
3 230 130 128 
3 123 232 233 
3 232 123 141 
3 166 86 167 
3 165 167 86 
3 168 229 169 
3 168 138 229 
3 138 168 139 
3 169 139 168 
3 139 169 234 
3 167 235 166 
3 170 232 141 
3 141 171 170 
3 165 236 167 
3 171 234 170 
3 171 139 234 
3 139 171 141 
3 129 172 35 
3 95 172 173 
3 172 95 35 
3 214 237 162 
3 129 238 172 
3 238 173 172 
3 162 174 163 
3 175 131 239 
3 239 240 175 
3 131 175 129 
3 175 238 129 
3 238 175 240 
3 123 176 131 
3 176 239 131 
3 239 176 177 
3 163 241 160 
3 123 177 176 
3 177 123 233 
3 128 130 129 
3 129 130 131 
3 214 164 87 
3 164 214 162 
3 142 141 133 
3 141 123 133 
3 138 51 88 
3 178 179 180 
3 179 178 181 
3 182 183 184 
3 183 182 185 
3 186 242 243 
3 242 186 187 
3 187 188 189 
3 188 187 186 
3 185 188 183 
3 188 185 189 
3 185 182 244 
3 182 245 244 
3 190 184 183 
3 183 191 190 
3 246 242 187 
3 187 247 246 
3 192 186 243 
3 243 248 192 
3 247 189 249 
3 189 247 187 
3 188 192 193 
3 192 188 186 
3 244 189 185 
3 189 244 249 
3 183 193 191 
3 193 183 188 
