ply
format ascii 1.0
comment VCGLIB generated
comment TextureFile dummy.png
element vertex 40
property float x
property float y
property float z
property float nx
property float ny
property float nz
property float texture_u
property float texture_v
element face 26
property list uchar int vertex_indices
end_header
0.0156951 -0.04690181 0.00861907 0.1003444 -0.9915168 0.08261633 0.1925362 0.9143049
-0.07113194 -0.02968488 -0.002308846 -0.6379674 -0.7700634 4.653582e-05 0.2081483 0.9143049
-0.01920795 -0.03098416 -0.06343579 -0.2309286 -0.7221589 -0.6520418 0.2081483 0.929917
-0.04866195 0.01596238 -0.06959677 -0.5714509 0.3325541 -0.7502345 0.2081483 0.929917
0.07220602 -0.02316023 0.02126122 0.7397519 -0.6238262 0.2522063 0.1925362 0.9143049
0.08748007 0.013929 0.00861907 0.9403356 0.3342534 0.06359102 0.2081483 0.9143049
0.02788806 0.00236956 0.08151007 0.3680059 0.07183259 0.9270446 0.2081483 0.929917
0.0003480911 -0.02316036 0.07302403 -0.1325361 -0.5953375 0.7924693 0.1925362 0.9143049
-0.07447195 0.0157731 0.04167104 -0.7705576 0.3212535 0.5504882 0.2081483 0.929917
0.03787804 0.01392899 -0.08150983 0.3923014 0.3510003 -0.8502343 0.2081483 0.929917
0.04518104 -0.02316029 -0.06307578 0.5232196 -0.6125039 -0.5925202 0.1925362 0.9143049
0.0009591579 0.02316036 0.07302403 -0.1098373 0.5852472 0.8033813 0.1925362 0.9143049
0.02926612 0.04234409 0.01847911 0.2689389 0.9481528 0.1693465 0.2081483 0.929917
-0.01438904 0.0469018 -0.01323795 -0.1439565 0.9840039 -0.1049422 0.2081483 0.929917
-0.08747983 -0.002369553 -0.002308846 -0.9938096 0.05084746 -0.09877835 0.1925362 0.9143049
-0.01920795 -0.03098416 -0.06343579 -0.2309286 -0.7221589 -0.6520418 0.1925362 0.9143049
0.02788806 0.00236956 0.08151007 0.3680059 0.07183259 0.9270446 0.2081483 0.9143049
-0.04866195 0.01596238 -0.06959677 -0.5714509 0.3325541 -0.7502345 0.2081483 0.9143049
0.03787804 0.01392899 -0.08150983 0.3923014 0.3510003 -0.8502343 0.2081483 0.9143049
0.08748007 0.013929 0.00861907 0.9403356 0.3342534 0.06359102 0.2081483 0.929917
-0.07447195 0.0157731 0.04167104 -0.7705576 0.3212535 0.5504882 0.1925362 0.9143049
0.0009591579 0.02316036 0.07302403 -0.1098373 0.5852472 0.8033813 0.2081483 0.9143049
-0.04866195 0.01596238 -0.06959677 -0.5714509 0.3325541 -0.7502345 0.1925362 0.9143049
-0.07447195 0.0157731 0.04167104 -0.7705576 0.3212535 0.5504882 0.2081483 0.9143049
0.03787804 0.01392899 -0.08150983 0.3923014 0.3510003 -0.8502343 0.1925362 0.9143049
0.08748007 0.013929 0.00861907 0.9403356 0.3342534 0.06359102 0.1925362 0.9143049
0.02926612 0.04234409 0.01847911 0.2689389 0.9481528 0.1693465 0.1925362 0.9143049
-0.01438904 0.0469018 -0.01323795 -0.1439565 0.9840039 -0.1049422 0.1925362 0.9143049
0.0009591579 0.02316036 0.07302403 -0.1098373 0.5852472 0.8033813 0.2081483 0.929917
0.02788806 0.00236956 0.08151007 0.3680059 0.07183259 0.9270446 0.1925362 0.9143049
-0.01920795 -0.03098416 -0.06343579 -0.2309286 -0.7221589 -0.6520418 0.2081483 0.9143049
-0.08747983 -0.002369553 -0.002308846 -0.9938096 0.05084746 -0.09877835 0.2081483 0.929917
-0.07113194 -0.02968488 -0.002308846 -0.6379674 -0.7700634 4.653582e-05 0.1925362 0.9143049
0.0003480911 -0.02316036 0.07302403 -0.1325361 -0.5953375 0.7924693 0.2081483 0.9143049
0.07220602 -0.02316023 0.02126122 0.7397519 -0.6238262 0.2522063 0.2081483 0.9143049
0.04518104 -0.02316029 -0.06307578 0.5232196 -0.6125039 -0.5925202 0.2081483 0.9143049
0.04518104 -0.02316029 -0.06307578 0.5232196 -0.6125039 -0.5925202 0.2081483 0.929917
-0.07113194 -0.02968488 -0.002308846 -0.6379674 -0.7700634 4.653582e-05 0.2081483 0.929917
0.0156951 -0.04690181 0.00861907 0.1003444 -0.9915168 0.08261633 0.2081483 0.9143049
0.0003480911 -0.02316036 0.07302403 -0.1325361 -0.5953375 0.7924693 0.2081483 0.929917
3 0 1 2 
3 15 1 3 
3 4 5 6 
3 7 16 8 
3 15 17 9 
3 10 18 19 
3 11 5 12 
3 20 21 13 
3 22 23 13 
3 24 17 13 
3 25 18 12 
3 26 18 13 
3 27 21 12 
3 14 23 3 
3 20 16 28 
3 29 5 28 
3 10 30 9 
3 22 1 31 
3 14 1 8 
3 32 33 8 
3 7 34 6 
3 4 35 19 
3 0 30 36 
3 0 33 37 
3 4 38 36 
3 0 34 39 
