ply
format ascii 1.0
comment VCGLIB generated
comment TextureFile dummy.png
element vertex 38
property float x
property float y
property float z
property float nx
property float ny
property float nz
property float texture_u
property float texture_v
element face 28
property list uchar int vertex_indices
end_header
0.1245481 0.4000743 -0.4367045 0.2605801 0.5742462 -0.7761053 0.1893924 0.9107094
0.353515 -0.05557214 -0.2721075 0.6512005 -0.5973644 -0.4680745 0.2107917 0.9107094
-0.1585825 -0.05627625 -0.4362575 -0.3245057 -0.6441214 -0.6926787 0.2107917 0.9321088
-0.07350275 0.03960307 0.2489784 -0.305896 -0.8435783 0.4413653 0.1893924 0.9107094
-0.01224607 0.1701331 0.4246924 -0.1235093 -0.3386792 0.9327604 0.2107917 0.9107094
-0.2650671 0.1719962 0.3405845 -0.5352257 -0.4008051 0.7435648 0.2107917 0.9321088
0.4277829 0.391376 0.001498461 0.8217952 0.5697825 0.0007138304 0.2107917 0.9107094
0.354411 -0.05627494 0.2624485 0.579272 -0.6360232 0.5098221 0.2107917 0.9321088
0.1248694 0.4071155 0.4367044 0.2396628 0.5746646 0.7825103 0.1893924 0.9107094
-0.3603002 0.3839653 0.2548475 -0.6564149 0.564311 0.5006722 0.2107917 0.9107094
-0.4193714 0.1813621 0.1107295 -0.8864712 -0.3984497 0.2353865 0.1893924 0.9107094
-0.01749708 0.4672867 -0.003622532 -0.003744644 0.9999889 0.002860297 0.2107917 0.9321088
-0.3849448 0.3985696 -0.003115416 -0.7124597 0.7003059 0.04441616 0.2107917 0.9107094
-0.3856112 0.3985831 -0.2704625 -0.668829 0.5688319 -0.4786419 0.1893924 0.9107094
-0.4277829 0.1704243 -0.1368496 -0.9287202 -0.341108 -0.1453414 0.1893924 0.9107094
-0.01690808 -0.06728675 -0.003911495 -0.23349 -0.9624023 0.1387957 0.2107917 0.9321088
0.353515 -0.05557214 -0.2721075 0.6512005 -0.5973644 -0.4680745 0.1893924 0.9107094
-0.07350275 0.03960307 0.2489784 -0.305896 -0.8435783 0.4413653 0.2107917 0.9107094
0.4277829 0.391376 0.001498461 0.8217952 0.5697825 0.0007138304 0.1893924 0.9107094
0.1245481 0.4000743 -0.4367045 0.2605801 0.5742462 -0.7761053 0.2107917 0.9107094
0.1245481 0.4000743 -0.4367045 0.2605801 0.5742462 -0.7761053 0.2107917 0.9321088
-0.3603002 0.3839653 0.2548475 -0.6564149 0.564311 0.5006722 0.1893924 0.9107094
-0.4193714 0.1813621 0.1107295 -0.8864712 -0.3984497 0.2353865 0.2107917 0.9321088
0.354411 -0.05627494 0.2624485 0.579272 -0.6360232 0.5098221 0.2107917 0.9107094
0.4277829 0.391376 0.001498461 0.8217952 0.5697825 0.0007138304 0.2107917 0.9321088
-0.3856112 0.3985831 -0.2704625 -0.668829 0.5688319 -0.4786419 0.2107917 0.9107094
-0.4193714 0.1813621 0.1107295 -0.8864712 -0.3984497 0.2353865 0.2107917 0.9107094
-0.01224607 0.1701331 0.4246924 -0.1235093 -0.3386792 0.9327604 0.1893924 0.9107094
0.1248694 0.4071155 0.4367044 0.2396628 0.5746646 0.7825103 0.2107917 0.9107094
-0.3849448 0.3985696 -0.003115416 -0.7124597 0.7003059 0.04441616 0.1893924 0.9107094
0.354411 -0.05627494 0.2624485 0.579272 -0.6360232 0.5098221 0.1893924 0.9107094
-0.01224607 0.1701331 0.4246924 -0.1235093 -0.3386792 0.9327604 0.2107917 0.9321088
-0.4277829 0.1704243 -0.1368496 -0.9287202 -0.341108 -0.1453414 0.2107917 0.9107094
-0.01690808 -0.06728675 -0.003911495 -0.23349 -0.9624023 0.1387957 0.1893924 0.9107094
-0.1585825 -0.05627625 -0.4362575 -0.3245057 -0.6441214 -0.6926787 0.2107917 0.9107094
0.353515 -0.05557214 -0.2721075 0.6512005 -0.5973644 -0.4680745 0.2107917 0.9321088
-0.01690808 -0.06728675 -0.003911495 -0.23349 -0.9624023 0.1387957 0.2107917 0.9107094
-0.07350275 0.03960307 0.2489784 -0.305896 -0.8435783 0.4413653 0.2107917 0.9321088
3 0 1 2 
3 3 4 5 
3 16 6 7 
3 8 9 5 
3 10 17 5 
3 18 19 11 
3 18 1 20 
3 21 12 22 
3 8 6 11 
3 13 19 2 
3 8 23 24 
3 0 25 11 
3 14 25 2 
3 3 26 15 
3 27 28 5 
3 27 17 7 
3 21 28 11 
3 29 25 22 
3 29 9 11 
3 30 28 31 
3 13 12 11 
3 10 32 2 
3 21 26 5 
3 13 32 22 
3 33 34 35 
3 33 26 2 
3 30 36 35 
3 33 23 37 
