ply
format ascii 1.0
comment VCGLIB generated
comment TextureFile ..\textures\Streetlight_d.png
element vertex 78
property float x
property float y
property float z
property float nx
property float ny
property float nz
property float texture_u
property float texture_v
element face 144
property list uchar int vertex_indices
end_header
-2.004061 64.83545 -4.949232 0 0 1 0.9020464 0.3345172
2.004061 64.83545 -4.949232 0 0.7071068 -0.7071068 0.806659 0.3345172
2.004061 59.86515 -6.995447 0 0.2425356 0.9701425 0.806659 0.1705626
-2.004061 59.86515 -6.995447 0 0 0 0.9020464 0.1705626
-2.004061 59.86515 6.99546 0 -0.4472136 0.8944272 0.9020465 0.8263814
2.004061 59.86515 6.99546 0 0 0 0.806659 0.8263814
2.004061 64.83545 4.949247 0 0 -1 0.806659 0.6624267
-2.004061 64.83545 4.949247 0 0.8944272 -0.4472136 0.9020465 0.6624267
2.004061 67.47014 8.043067e-06 0 -1 0 0.806659 0.4984719
-2.004061 67.47014 8.043067e-06 0 1 0 0.9020464 0.4984719
0.1514646 66.4366 -6.241386 -0.999878 0 0.01562309 0.9020464 0.3345172
0.04444861 63.39052 -3.638509 -0.9992514 0.02283898 -0.03122661 0.806659 0.3345172
0.4060346 58.30782 -6.003101 0.9995121 0.03123475 0 0.806659 0.1705626
0.5927061 61.66887 -8.178767 0 0 0 0.9020464 0.1705626
0.1658947 61.09421 8.519707 0 0 -1 0.9020465 0.8263814
-0.5149391 58.51262 5.530241 0 0 0 0.806659 0.8263814
0.05327751 63.23798 4.194681 0 -1 0 0.806659 0.6624267
0.1516419 66.82336 5.983645 0 -1 0 0.9020465 0.6624267
0.3884411 65.48956 7.571267e-06 0.9999802 -0.006303007 0 0.806659 0.4984719
0.3884411 69.4977 8.5876e-06 -0.9999961 0.002821464 0 0.9020464 0.4984719
14.49729 8.242666 14.49728 0.5397212 -0.6460667 0.5397211 0.2547144 0.2949453
2.477636e-22 8.242665 20.50226 -1.136052e-08 -0.6460667 0.7632809 0.102527 0.2663437
1.8556e-22 2.708091 9.000978 -1.049104e-08 -0.6003327 0.7997504 0.1766819 0.1539436
6.364655 2.708091 6.364653 0.5655089 -0.6003328 0.5655088 0.2537754 0.1666777
20.50226 8.242668 9.826026e-07 0.763281 -0.6460667 -8.520388e-08 0.4029526 0.2612302
9.000979 2.708092 3.228297e-07 0.7997504 -0.6003327 -7.081449e-08 0.325138 0.1463034
28.99457 28.74492 3.426662e-06 1 -3.63871e-08 -2.425807e-08 0.4632347 0.4804454
20.50226 49.24718 5.870721e-06 0.804793 0.5935557 2.197027e-08 0.4066902 0.7079572
14.49729 49.24718 14.49729 0.5690746 0.5935555 0.5690747 0.2524439 0.6804477
20.50226 28.74492 20.50226 0.7071067 -1.455484e-07 0.7071068 0.2534829 0.486809
3.188756e-21 49.24718 20.50226 -2.746283e-09 0.5935555 0.8047931 0.1029503 0.7110255
1.691216e-21 28.74492 28.99457 0 -2.001291e-07 1 0.04513392 0.4919893
6.459712 57.24664 6.459715 0.6066071 0.5138633 0.6066071 0.2530009 0.8206995
3.598899e-21 57.24664 9.135415 -7.643052e-09 0.5138634 0.8578721 0.1805455 0.8396819
9.135409 57.24664 6.824331e-06 0.857872 0.5138634 0 0.3303131 0.8339425
9.135409 60.29877 7.188174e-06 0.7763821 0.6302625 2.391562e-08 0.323097 0.8693352
6.459712 60.29877 6.459716 0.5489851 0.6302623 0.5489852 0.2542321 0.8525697
4.074119e-21 60.29877 9.135415 0 0.6302625 0.7763821 0.187456 0.86883
3.416695e-21 60.29877 7.188174e-06 0 1 0 0.2541952 0.9436489
6.364655 -0.6097534 6.364653 0.5489851 -0.6302624 0.5489851 0.2520464 0.1318247
9.000979 -0.6097527 -7.268818e-08 0.7763821 -0.6302624 -9.791316e-08 0.3172068 0.1149496
3.198e-23 -0.6097537 9.000978 5.030201e-09 -0.6302626 0.776382 0.1842697 0.1155333
-3.615313e-23 -0.6097546 -7.268841e-08 2.261728e-15 -1 -1.204703e-07 0.2513045 0.04241598
-14.49729 8.242666 14.49728 -0.5397213 -0.6460667 0.5397211 0.2547144 0.2949453
-6.364655 2.708091 6.364653 -0.5655089 -0.6003328 0.5655088 0.2537754 0.1666777
-20.50226 8.242668 9.826026e-07 -0.763281 -0.6460667 -6.248285e-08 0.4029526 0.2612302
-9.000979 2.708092 3.228297e-07 -0.7997504 -0.6003327 -7.868276e-08 0.325138 0.1463034
-28.99457 28.74492 3.426662e-06 -1 -3.63871e-08 -1.212903e-08 0.4632347 0.4804454
-20.50226 28.74492 20.50226 -0.7071067 -1.576774e-07 0.7071068 0.2534829 0.486809
-14.49729 49.24718 14.49729 -0.5690746 0.5935555 0.5690747 0.2524439 0.6804477
-20.50226 49.24718 5.870721e-06 -0.804793 0.5935557 2.197027e-08 0.4066902 0.7079572
-6.459712 57.24664 6.459715 -0.6066072 0.5138633 0.6066071 0.2530009 0.8206995
-9.135409 57.24664 6.824331e-06 -0.857872 0.5138634 0 0.3303131 0.8339425
-6.459712 60.29877 6.459716 -0.5489852 0.6302623 0.5489852 0.2542321 0.8525697
-9.135409 60.29877 7.188174e-06 -0.7763821 0.6302625 1.992968e-08 0.323097 0.8693352
-9.000979 -0.6097527 -7.268818e-08 -0.7763821 -0.6302624 -9.791316e-08 0.3172068 0.1149496
-6.364655 -0.6097534 6.364653 -0.5489851 -0.6302624 0.5489851 0.2520464 0.1318247
14.49729 8.24267 -14.49728 0.5397212 -0.6460666 -0.5397213 0.2547144 0.2949453
6.364655 2.708092 -6.364653 0.5655089 -0.6003327 -0.565509 0.2537754 0.1666777
4.326933e-23 2.708093 -9.000978 0 -0.6003326 -0.7997504 0.1766819 0.1539436
3.295469e-22 8.242671 -20.50226 0 -0.6460665 -0.7632812 0.102527 0.2663437
20.50226 28.74492 -20.50225 0.7071068 0 -0.7071068 0.2534829 0.486809
14.49729 49.24718 -14.49728 0.5690746 0.5935556 -0.5690746 0.2524439 0.6804477
1.19181e-21 28.74492 -28.99456 -6.064517e-09 8.793549e-08 -1 0.04513392 0.4919893
2.211746e-21 49.24718 -20.50225 -1.373142e-09 0.5935557 -0.804793 0.1029503 0.7110255
2.379947e-21 57.24664 -9.1354 0 0.5138634 -0.857872 0.1805455 0.8396819
6.459712 57.24664 -6.459702 0.606607 0.5138636 -0.6066071 0.2530009 0.8206995
6.459712 60.29877 -6.459701 0.548985 0.6302626 -0.548985 0.2542321 0.8525697
2.855167e-21 60.29877 -9.1354 0 0.6302625 -0.7763821 0.187456 0.86883
6.364655 -0.6097519 -6.364653 0.5489851 -0.6302623 -0.5489852 0.2520464 0.1318247
-1.367805e-22 -0.6097516 -9.000978 -4.547572e-09 -0.6302624 -0.7763821 0.1842697 0.1155333
-14.49729 8.24267 -14.49728 -0.5397212 -0.6460666 -0.5397213 0.2547144 0.2949453
-6.364655 2.708092 -6.364653 -0.5655089 -0.6003328 -0.565509 0.2537754 0.1666777
-14.49729 49.24718 -14.49728 -0.5690746 0.5935556 -0.5690746 0.2524439 0.6804477
-20.50226 28.74492 -20.50225 -0.7071067 0 -0.7071069 0.2534829 0.486809
-6.459712 57.24664 -6.459702 -0.606607 0.5138636 -0.6066071 0.2530009 0.8206995
-6.459712 60.29877 -6.459701 -0.548985 0.6302626 -0.5489851 0.2542321 0.8525697
-6.364655 -0.6097519 -6.364653 -0.5489851 -0.6302623 -0.5489852 0.2520464 0.1318247
3 0 1 2 
3 0 2 3 
3 4 5 6 
3 4 6 7 
3 7 6 8 
3 7 8 9 
3 9 8 1 
3 9 1 0 
3 10 11 12 
3 10 12 13 
3 14 15 16 
3 14 16 17 
3 17 16 18 
3 17 18 19 
3 19 18 11 
3 19 11 10 
3 0 3 2 
3 0 2 1 
3 4 7 6 
3 4 6 5 
3 7 9 8 
3 7 8 6 
3 9 0 1 
3 9 1 8 
3 10 13 12 
3 10 12 11 
3 14 17 16 
3 14 16 15 
3 17 19 18 
3 17 18 16 
3 19 10 11 
3 19 11 18 
3 20 21 22 
3 20 22 23 
3 24 20 23 
3 24 23 25 
3 26 27 28 
3 26 28 29 
3 24 26 29 
3 24 29 20 
3 29 28 30 
3 29 30 31 
3 20 29 31 
3 20 31 21 
3 30 28 32 
3 30 32 33 
3 28 27 34 
3 28 34 32 
3 32 34 35 
3 32 35 36 
3 33 32 36 
3 33 36 37 
3 36 35 38 
3 37 36 38 
3 25 23 39 
3 25 39 40 
3 23 22 41 
3 23 41 39 
3 39 41 42 
3 40 39 42 
3 43 44 22 
3 43 22 21 
3 45 46 44 
3 45 44 43 
3 47 48 49 
3 47 49 50 
3 45 43 48 
3 45 48 47 
3 48 31 30 
3 48 30 49 
3 43 21 31 
3 43 31 48 
3 30 33 51 
3 30 51 49 
3 49 51 52 
3 49 52 50 
3 51 53 54 
3 51 54 52 
3 33 37 53 
3 33 53 51 
3 53 38 54 
3 37 38 53 
3 46 55 56 
3 46 56 44 
3 44 56 41 
3 44 41 22 
3 56 42 41 
3 55 42 56 
3 57 58 59 
3 57 59 60 
3 24 25 58 
3 24 58 57 
3 26 61 62 
3 26 62 27 
3 24 57 61 
3 24 61 26 
3 61 63 64 
3 61 64 62 
3 57 60 63 
3 57 63 61 
3 64 65 66 
3 64 66 62 
3 62 66 34 
3 62 34 27 
3 66 67 35 
3 66 35 34 
3 65 68 67 
3 65 67 66 
3 67 38 35 
3 68 38 67 
3 25 40 69 
3 25 69 58 
3 58 69 70 
3 58 70 59 
3 69 42 70 
3 40 42 69 
3 71 60 59 
3 71 59 72 
3 45 71 72 
3 45 72 46 
3 47 50 73 
3 47 73 74 
3 45 47 74 
3 45 74 71 
3 74 73 64 
3 74 64 63 
3 71 74 63 
3 71 63 60 
3 64 73 75 
3 64 75 65 
3 73 50 52 
3 73 52 75 
3 75 52 54 
3 75 54 76 
3 65 75 76 
3 65 76 68 
3 76 54 38 
3 68 76 38 
3 46 72 77 
3 46 77 55 
3 72 59 70 
3 72 70 77 
3 77 70 42 
3 55 77 42 
